G75*
%MOIN*%
%OFA0B0*%
%FSLAX25Y25*%
%IPPOS*%
%LPD*%
%AMOC8*
5,1,8,0,0,1.08239X$1,22.5*
%
%ADD10C,0.00000*%
%ADD11C,0.01100*%
%ADD12C,0.00800*%
%ADD13C,0.00600*%
%ADD14C,0.00500*%
%ADD15C,0.00700*%
%ADD16C,0.01300*%
%ADD17C,0.01400*%
%ADD18C,0.00787*%
%ADD19C,0.00300*%
%ADD20C,0.01000*%
%ADD21R,0.01250X0.00250*%
%ADD22R,0.00990X0.00250*%
%ADD23R,0.03750X0.00250*%
%ADD24R,0.01000X0.00250*%
%ADD25R,0.02500X0.00250*%
%ADD26R,0.03000X0.00250*%
%ADD27R,0.01500X0.00250*%
%ADD28R,0.00510X0.00250*%
%ADD29R,0.01740X0.00250*%
%ADD30R,0.01010X0.00250*%
%ADD31R,0.01490X0.00250*%
%ADD32R,0.01510X0.00250*%
%ADD33R,0.01260X0.00250*%
%ADD34R,0.01240X0.00250*%
%ADD35R,0.04250X0.00250*%
%ADD36R,0.00490X0.00250*%
%ADD37R,0.02750X0.00250*%
%ADD38R,0.01990X0.00250*%
%ADD39R,0.01750X0.00250*%
%ADD40R,0.03500X0.00250*%
%ADD41R,0.02510X0.00250*%
%ADD42R,0.00500X0.00250*%
%ADD43R,0.00750X0.00250*%
%ADD44R,0.00740X0.00250*%
%ADD45R,0.02240X0.00250*%
%ADD46R,0.02250X0.00250*%
%ADD47R,0.05260X0.00250*%
%ADD48R,0.04750X0.00250*%
%ADD49R,0.02990X0.00250*%
%ADD50R,0.05240X0.00250*%
%ADD51R,0.03240X0.00250*%
%ADD52R,0.05010X0.00250*%
%ADD53R,0.05250X0.00250*%
%ADD54R,0.03490X0.00250*%
%ADD55R,0.00760X0.00250*%
%ADD56R,0.02260X0.00250*%
%ADD57R,0.05510X0.00250*%
%ADD58R,0.01760X0.00250*%
%ADD59R,0.05500X0.00250*%
%ADD60R,0.02490X0.00250*%
%ADD61R,0.05000X0.00250*%
%ADD62R,0.04500X0.00250*%
%ADD63R,0.04010X0.00250*%
%ADD64R,0.02000X0.00250*%
%ADD65R,0.03010X0.00250*%
%ADD66R,0.03740X0.00250*%
%ADD67R,0.03250X0.00250*%
%ADD68R,0.02740X0.00250*%
%ADD69R,0.03990X0.00250*%
%ADD70R,0.02010X0.00250*%
%ADD71R,0.04760X0.00250*%
%ADD72R,0.06250X0.00250*%
%ADD73R,0.04490X0.00250*%
%ADD74R,0.00260X0.00250*%
%ADD75R,0.02760X0.00250*%
%ADD76R,0.05990X0.00250*%
%ADD77R,0.04510X0.00250*%
D10*
X0067595Y0040744D02*
X0067595Y0239563D01*
X0067598Y0239848D01*
X0067609Y0240134D01*
X0067626Y0240419D01*
X0067650Y0240703D01*
X0067681Y0240987D01*
X0067719Y0241270D01*
X0067764Y0241551D01*
X0067815Y0241832D01*
X0067873Y0242112D01*
X0067938Y0242390D01*
X0068010Y0242666D01*
X0068088Y0242940D01*
X0068173Y0243213D01*
X0068265Y0243483D01*
X0068363Y0243751D01*
X0068467Y0244017D01*
X0068578Y0244280D01*
X0068695Y0244540D01*
X0068818Y0244798D01*
X0068948Y0245052D01*
X0069084Y0245303D01*
X0069225Y0245551D01*
X0069373Y0245795D01*
X0069526Y0246036D01*
X0069686Y0246272D01*
X0069851Y0246505D01*
X0070021Y0246734D01*
X0070197Y0246959D01*
X0070379Y0247179D01*
X0070565Y0247395D01*
X0070757Y0247606D01*
X0070954Y0247813D01*
X0071156Y0248015D01*
X0071363Y0248212D01*
X0071574Y0248404D01*
X0071790Y0248590D01*
X0072010Y0248772D01*
X0072235Y0248948D01*
X0072464Y0249118D01*
X0072697Y0249283D01*
X0072933Y0249443D01*
X0073174Y0249596D01*
X0073418Y0249744D01*
X0073666Y0249885D01*
X0073917Y0250021D01*
X0074171Y0250151D01*
X0074429Y0250274D01*
X0074689Y0250391D01*
X0074952Y0250502D01*
X0075218Y0250606D01*
X0075486Y0250704D01*
X0075756Y0250796D01*
X0076029Y0250881D01*
X0076303Y0250959D01*
X0076579Y0251031D01*
X0076857Y0251096D01*
X0077137Y0251154D01*
X0077418Y0251205D01*
X0077699Y0251250D01*
X0077982Y0251288D01*
X0078266Y0251319D01*
X0078550Y0251343D01*
X0078835Y0251360D01*
X0079121Y0251371D01*
X0079406Y0251374D01*
X0311690Y0251374D01*
X0311975Y0251371D01*
X0312261Y0251360D01*
X0312546Y0251343D01*
X0312830Y0251319D01*
X0313114Y0251288D01*
X0313397Y0251250D01*
X0313678Y0251205D01*
X0313959Y0251154D01*
X0314239Y0251096D01*
X0314517Y0251031D01*
X0314793Y0250959D01*
X0315067Y0250881D01*
X0315340Y0250796D01*
X0315610Y0250704D01*
X0315878Y0250606D01*
X0316144Y0250502D01*
X0316407Y0250391D01*
X0316667Y0250274D01*
X0316925Y0250151D01*
X0317179Y0250021D01*
X0317430Y0249885D01*
X0317678Y0249744D01*
X0317922Y0249596D01*
X0318163Y0249443D01*
X0318399Y0249283D01*
X0318632Y0249118D01*
X0318861Y0248948D01*
X0319086Y0248772D01*
X0319306Y0248590D01*
X0319522Y0248404D01*
X0319733Y0248212D01*
X0319940Y0248015D01*
X0320142Y0247813D01*
X0320339Y0247606D01*
X0320531Y0247395D01*
X0320717Y0247179D01*
X0320899Y0246959D01*
X0321075Y0246734D01*
X0321245Y0246505D01*
X0321410Y0246272D01*
X0321570Y0246036D01*
X0321723Y0245795D01*
X0321871Y0245551D01*
X0322012Y0245303D01*
X0322148Y0245052D01*
X0322278Y0244798D01*
X0322401Y0244540D01*
X0322518Y0244280D01*
X0322629Y0244017D01*
X0322733Y0243751D01*
X0322831Y0243483D01*
X0322923Y0243213D01*
X0323008Y0242940D01*
X0323086Y0242666D01*
X0323158Y0242390D01*
X0323223Y0242112D01*
X0323281Y0241832D01*
X0323332Y0241551D01*
X0323377Y0241270D01*
X0323415Y0240987D01*
X0323446Y0240703D01*
X0323470Y0240419D01*
X0323487Y0240134D01*
X0323498Y0239848D01*
X0323501Y0239563D01*
X0323501Y0040744D01*
X0323498Y0040459D01*
X0323487Y0040173D01*
X0323470Y0039888D01*
X0323446Y0039604D01*
X0323415Y0039320D01*
X0323377Y0039037D01*
X0323332Y0038756D01*
X0323281Y0038475D01*
X0323223Y0038195D01*
X0323158Y0037917D01*
X0323086Y0037641D01*
X0323008Y0037367D01*
X0322923Y0037094D01*
X0322831Y0036824D01*
X0322733Y0036556D01*
X0322629Y0036290D01*
X0322518Y0036027D01*
X0322401Y0035767D01*
X0322278Y0035509D01*
X0322148Y0035255D01*
X0322012Y0035004D01*
X0321871Y0034756D01*
X0321723Y0034512D01*
X0321570Y0034271D01*
X0321410Y0034035D01*
X0321245Y0033802D01*
X0321075Y0033573D01*
X0320899Y0033348D01*
X0320717Y0033128D01*
X0320531Y0032912D01*
X0320339Y0032701D01*
X0320142Y0032494D01*
X0319940Y0032292D01*
X0319733Y0032095D01*
X0319522Y0031903D01*
X0319306Y0031717D01*
X0319086Y0031535D01*
X0318861Y0031359D01*
X0318632Y0031189D01*
X0318399Y0031024D01*
X0318163Y0030864D01*
X0317922Y0030711D01*
X0317678Y0030563D01*
X0317430Y0030422D01*
X0317179Y0030286D01*
X0316925Y0030156D01*
X0316667Y0030033D01*
X0316407Y0029916D01*
X0316144Y0029805D01*
X0315878Y0029701D01*
X0315610Y0029603D01*
X0315340Y0029511D01*
X0315067Y0029426D01*
X0314793Y0029348D01*
X0314517Y0029276D01*
X0314239Y0029211D01*
X0313959Y0029153D01*
X0313678Y0029102D01*
X0313397Y0029057D01*
X0313114Y0029019D01*
X0312830Y0028988D01*
X0312546Y0028964D01*
X0312261Y0028947D01*
X0311975Y0028936D01*
X0311690Y0028933D01*
X0079406Y0028933D01*
X0079121Y0028936D01*
X0078835Y0028947D01*
X0078550Y0028964D01*
X0078266Y0028988D01*
X0077982Y0029019D01*
X0077699Y0029057D01*
X0077418Y0029102D01*
X0077137Y0029153D01*
X0076857Y0029211D01*
X0076579Y0029276D01*
X0076303Y0029348D01*
X0076029Y0029426D01*
X0075756Y0029511D01*
X0075486Y0029603D01*
X0075218Y0029701D01*
X0074952Y0029805D01*
X0074689Y0029916D01*
X0074429Y0030033D01*
X0074171Y0030156D01*
X0073917Y0030286D01*
X0073666Y0030422D01*
X0073418Y0030563D01*
X0073174Y0030711D01*
X0072933Y0030864D01*
X0072697Y0031024D01*
X0072464Y0031189D01*
X0072235Y0031359D01*
X0072010Y0031535D01*
X0071790Y0031717D01*
X0071574Y0031903D01*
X0071363Y0032095D01*
X0071156Y0032292D01*
X0070954Y0032494D01*
X0070757Y0032701D01*
X0070565Y0032912D01*
X0070379Y0033128D01*
X0070197Y0033348D01*
X0070021Y0033573D01*
X0069851Y0033802D01*
X0069686Y0034035D01*
X0069526Y0034271D01*
X0069373Y0034512D01*
X0069225Y0034756D01*
X0069084Y0035004D01*
X0068948Y0035255D01*
X0068818Y0035509D01*
X0068695Y0035767D01*
X0068578Y0036027D01*
X0068467Y0036290D01*
X0068363Y0036556D01*
X0068265Y0036824D01*
X0068173Y0037094D01*
X0068088Y0037367D01*
X0068010Y0037641D01*
X0067938Y0037917D01*
X0067873Y0038195D01*
X0067815Y0038475D01*
X0067764Y0038756D01*
X0067719Y0039037D01*
X0067681Y0039320D01*
X0067650Y0039604D01*
X0067626Y0039888D01*
X0067609Y0040173D01*
X0067598Y0040459D01*
X0067595Y0040744D01*
X0075863Y0042713D02*
X0075865Y0042861D01*
X0075871Y0043009D01*
X0075881Y0043157D01*
X0075895Y0043304D01*
X0075913Y0043451D01*
X0075934Y0043597D01*
X0075960Y0043743D01*
X0075990Y0043888D01*
X0076023Y0044032D01*
X0076061Y0044175D01*
X0076102Y0044317D01*
X0076147Y0044458D01*
X0076195Y0044598D01*
X0076248Y0044737D01*
X0076304Y0044874D01*
X0076364Y0045009D01*
X0076427Y0045143D01*
X0076494Y0045275D01*
X0076565Y0045405D01*
X0076639Y0045533D01*
X0076716Y0045659D01*
X0076797Y0045783D01*
X0076881Y0045905D01*
X0076968Y0046024D01*
X0077059Y0046141D01*
X0077153Y0046256D01*
X0077249Y0046368D01*
X0077349Y0046478D01*
X0077451Y0046584D01*
X0077557Y0046688D01*
X0077665Y0046789D01*
X0077776Y0046887D01*
X0077889Y0046983D01*
X0078005Y0047075D01*
X0078123Y0047164D01*
X0078244Y0047249D01*
X0078367Y0047332D01*
X0078492Y0047411D01*
X0078619Y0047487D01*
X0078748Y0047559D01*
X0078879Y0047628D01*
X0079012Y0047693D01*
X0079147Y0047754D01*
X0079283Y0047812D01*
X0079420Y0047867D01*
X0079559Y0047917D01*
X0079700Y0047964D01*
X0079841Y0048007D01*
X0079984Y0048047D01*
X0080128Y0048082D01*
X0080272Y0048114D01*
X0080418Y0048141D01*
X0080564Y0048165D01*
X0080711Y0048185D01*
X0080858Y0048201D01*
X0081005Y0048213D01*
X0081153Y0048221D01*
X0081301Y0048225D01*
X0081449Y0048225D01*
X0081597Y0048221D01*
X0081745Y0048213D01*
X0081892Y0048201D01*
X0082039Y0048185D01*
X0082186Y0048165D01*
X0082332Y0048141D01*
X0082478Y0048114D01*
X0082622Y0048082D01*
X0082766Y0048047D01*
X0082909Y0048007D01*
X0083050Y0047964D01*
X0083191Y0047917D01*
X0083330Y0047867D01*
X0083467Y0047812D01*
X0083603Y0047754D01*
X0083738Y0047693D01*
X0083871Y0047628D01*
X0084002Y0047559D01*
X0084131Y0047487D01*
X0084258Y0047411D01*
X0084383Y0047332D01*
X0084506Y0047249D01*
X0084627Y0047164D01*
X0084745Y0047075D01*
X0084861Y0046983D01*
X0084974Y0046887D01*
X0085085Y0046789D01*
X0085193Y0046688D01*
X0085299Y0046584D01*
X0085401Y0046478D01*
X0085501Y0046368D01*
X0085597Y0046256D01*
X0085691Y0046141D01*
X0085782Y0046024D01*
X0085869Y0045905D01*
X0085953Y0045783D01*
X0086034Y0045659D01*
X0086111Y0045533D01*
X0086185Y0045405D01*
X0086256Y0045275D01*
X0086323Y0045143D01*
X0086386Y0045009D01*
X0086446Y0044874D01*
X0086502Y0044737D01*
X0086555Y0044598D01*
X0086603Y0044458D01*
X0086648Y0044317D01*
X0086689Y0044175D01*
X0086727Y0044032D01*
X0086760Y0043888D01*
X0086790Y0043743D01*
X0086816Y0043597D01*
X0086837Y0043451D01*
X0086855Y0043304D01*
X0086869Y0043157D01*
X0086879Y0043009D01*
X0086885Y0042861D01*
X0086887Y0042713D01*
X0086885Y0042565D01*
X0086879Y0042417D01*
X0086869Y0042269D01*
X0086855Y0042122D01*
X0086837Y0041975D01*
X0086816Y0041829D01*
X0086790Y0041683D01*
X0086760Y0041538D01*
X0086727Y0041394D01*
X0086689Y0041251D01*
X0086648Y0041109D01*
X0086603Y0040968D01*
X0086555Y0040828D01*
X0086502Y0040689D01*
X0086446Y0040552D01*
X0086386Y0040417D01*
X0086323Y0040283D01*
X0086256Y0040151D01*
X0086185Y0040021D01*
X0086111Y0039893D01*
X0086034Y0039767D01*
X0085953Y0039643D01*
X0085869Y0039521D01*
X0085782Y0039402D01*
X0085691Y0039285D01*
X0085597Y0039170D01*
X0085501Y0039058D01*
X0085401Y0038948D01*
X0085299Y0038842D01*
X0085193Y0038738D01*
X0085085Y0038637D01*
X0084974Y0038539D01*
X0084861Y0038443D01*
X0084745Y0038351D01*
X0084627Y0038262D01*
X0084506Y0038177D01*
X0084383Y0038094D01*
X0084258Y0038015D01*
X0084131Y0037939D01*
X0084002Y0037867D01*
X0083871Y0037798D01*
X0083738Y0037733D01*
X0083603Y0037672D01*
X0083467Y0037614D01*
X0083330Y0037559D01*
X0083191Y0037509D01*
X0083050Y0037462D01*
X0082909Y0037419D01*
X0082766Y0037379D01*
X0082622Y0037344D01*
X0082478Y0037312D01*
X0082332Y0037285D01*
X0082186Y0037261D01*
X0082039Y0037241D01*
X0081892Y0037225D01*
X0081745Y0037213D01*
X0081597Y0037205D01*
X0081449Y0037201D01*
X0081301Y0037201D01*
X0081153Y0037205D01*
X0081005Y0037213D01*
X0080858Y0037225D01*
X0080711Y0037241D01*
X0080564Y0037261D01*
X0080418Y0037285D01*
X0080272Y0037312D01*
X0080128Y0037344D01*
X0079984Y0037379D01*
X0079841Y0037419D01*
X0079700Y0037462D01*
X0079559Y0037509D01*
X0079420Y0037559D01*
X0079283Y0037614D01*
X0079147Y0037672D01*
X0079012Y0037733D01*
X0078879Y0037798D01*
X0078748Y0037867D01*
X0078619Y0037939D01*
X0078492Y0038015D01*
X0078367Y0038094D01*
X0078244Y0038177D01*
X0078123Y0038262D01*
X0078005Y0038351D01*
X0077889Y0038443D01*
X0077776Y0038539D01*
X0077665Y0038637D01*
X0077557Y0038738D01*
X0077451Y0038842D01*
X0077349Y0038948D01*
X0077249Y0039058D01*
X0077153Y0039170D01*
X0077059Y0039285D01*
X0076968Y0039402D01*
X0076881Y0039521D01*
X0076797Y0039643D01*
X0076716Y0039767D01*
X0076639Y0039893D01*
X0076565Y0040021D01*
X0076494Y0040151D01*
X0076427Y0040283D01*
X0076364Y0040417D01*
X0076304Y0040552D01*
X0076248Y0040689D01*
X0076195Y0040828D01*
X0076147Y0040968D01*
X0076102Y0041109D01*
X0076061Y0041251D01*
X0076023Y0041394D01*
X0075990Y0041538D01*
X0075960Y0041683D01*
X0075934Y0041829D01*
X0075913Y0041975D01*
X0075895Y0042122D01*
X0075881Y0042269D01*
X0075871Y0042417D01*
X0075865Y0042565D01*
X0075863Y0042713D01*
X0082095Y0105933D02*
X0067595Y0105933D01*
X0067595Y0106433D01*
X0082095Y0105933D02*
X0082193Y0105935D01*
X0082291Y0105941D01*
X0082389Y0105950D01*
X0082486Y0105964D01*
X0082583Y0105981D01*
X0082679Y0106002D01*
X0082774Y0106027D01*
X0082868Y0106055D01*
X0082960Y0106088D01*
X0083052Y0106123D01*
X0083142Y0106163D01*
X0083230Y0106205D01*
X0083317Y0106252D01*
X0083401Y0106301D01*
X0083484Y0106354D01*
X0083564Y0106410D01*
X0083643Y0106470D01*
X0083719Y0106532D01*
X0083792Y0106597D01*
X0083863Y0106665D01*
X0083931Y0106736D01*
X0083996Y0106809D01*
X0084058Y0106885D01*
X0084118Y0106964D01*
X0084174Y0107044D01*
X0084227Y0107127D01*
X0084276Y0107211D01*
X0084323Y0107298D01*
X0084365Y0107386D01*
X0084405Y0107476D01*
X0084440Y0107568D01*
X0084473Y0107660D01*
X0084501Y0107754D01*
X0084526Y0107849D01*
X0084547Y0107945D01*
X0084564Y0108042D01*
X0084578Y0108139D01*
X0084587Y0108237D01*
X0084593Y0108335D01*
X0084595Y0108433D01*
X0084595Y0169933D01*
X0084593Y0170031D01*
X0084587Y0170129D01*
X0084578Y0170227D01*
X0084564Y0170324D01*
X0084547Y0170421D01*
X0084526Y0170517D01*
X0084501Y0170612D01*
X0084473Y0170706D01*
X0084440Y0170798D01*
X0084405Y0170890D01*
X0084365Y0170980D01*
X0084323Y0171068D01*
X0084276Y0171155D01*
X0084227Y0171239D01*
X0084174Y0171322D01*
X0084118Y0171402D01*
X0084058Y0171481D01*
X0083996Y0171557D01*
X0083931Y0171630D01*
X0083863Y0171701D01*
X0083792Y0171769D01*
X0083719Y0171834D01*
X0083643Y0171896D01*
X0083564Y0171956D01*
X0083484Y0172012D01*
X0083401Y0172065D01*
X0083317Y0172114D01*
X0083230Y0172161D01*
X0083142Y0172203D01*
X0083052Y0172243D01*
X0082960Y0172278D01*
X0082868Y0172311D01*
X0082774Y0172339D01*
X0082679Y0172364D01*
X0082583Y0172385D01*
X0082486Y0172402D01*
X0082389Y0172416D01*
X0082291Y0172425D01*
X0082193Y0172431D01*
X0082095Y0172433D01*
X0067595Y0172433D01*
X0075863Y0235626D02*
X0075865Y0235774D01*
X0075871Y0235922D01*
X0075881Y0236070D01*
X0075895Y0236217D01*
X0075913Y0236364D01*
X0075934Y0236510D01*
X0075960Y0236656D01*
X0075990Y0236801D01*
X0076023Y0236945D01*
X0076061Y0237088D01*
X0076102Y0237230D01*
X0076147Y0237371D01*
X0076195Y0237511D01*
X0076248Y0237650D01*
X0076304Y0237787D01*
X0076364Y0237922D01*
X0076427Y0238056D01*
X0076494Y0238188D01*
X0076565Y0238318D01*
X0076639Y0238446D01*
X0076716Y0238572D01*
X0076797Y0238696D01*
X0076881Y0238818D01*
X0076968Y0238937D01*
X0077059Y0239054D01*
X0077153Y0239169D01*
X0077249Y0239281D01*
X0077349Y0239391D01*
X0077451Y0239497D01*
X0077557Y0239601D01*
X0077665Y0239702D01*
X0077776Y0239800D01*
X0077889Y0239896D01*
X0078005Y0239988D01*
X0078123Y0240077D01*
X0078244Y0240162D01*
X0078367Y0240245D01*
X0078492Y0240324D01*
X0078619Y0240400D01*
X0078748Y0240472D01*
X0078879Y0240541D01*
X0079012Y0240606D01*
X0079147Y0240667D01*
X0079283Y0240725D01*
X0079420Y0240780D01*
X0079559Y0240830D01*
X0079700Y0240877D01*
X0079841Y0240920D01*
X0079984Y0240960D01*
X0080128Y0240995D01*
X0080272Y0241027D01*
X0080418Y0241054D01*
X0080564Y0241078D01*
X0080711Y0241098D01*
X0080858Y0241114D01*
X0081005Y0241126D01*
X0081153Y0241134D01*
X0081301Y0241138D01*
X0081449Y0241138D01*
X0081597Y0241134D01*
X0081745Y0241126D01*
X0081892Y0241114D01*
X0082039Y0241098D01*
X0082186Y0241078D01*
X0082332Y0241054D01*
X0082478Y0241027D01*
X0082622Y0240995D01*
X0082766Y0240960D01*
X0082909Y0240920D01*
X0083050Y0240877D01*
X0083191Y0240830D01*
X0083330Y0240780D01*
X0083467Y0240725D01*
X0083603Y0240667D01*
X0083738Y0240606D01*
X0083871Y0240541D01*
X0084002Y0240472D01*
X0084131Y0240400D01*
X0084258Y0240324D01*
X0084383Y0240245D01*
X0084506Y0240162D01*
X0084627Y0240077D01*
X0084745Y0239988D01*
X0084861Y0239896D01*
X0084974Y0239800D01*
X0085085Y0239702D01*
X0085193Y0239601D01*
X0085299Y0239497D01*
X0085401Y0239391D01*
X0085501Y0239281D01*
X0085597Y0239169D01*
X0085691Y0239054D01*
X0085782Y0238937D01*
X0085869Y0238818D01*
X0085953Y0238696D01*
X0086034Y0238572D01*
X0086111Y0238446D01*
X0086185Y0238318D01*
X0086256Y0238188D01*
X0086323Y0238056D01*
X0086386Y0237922D01*
X0086446Y0237787D01*
X0086502Y0237650D01*
X0086555Y0237511D01*
X0086603Y0237371D01*
X0086648Y0237230D01*
X0086689Y0237088D01*
X0086727Y0236945D01*
X0086760Y0236801D01*
X0086790Y0236656D01*
X0086816Y0236510D01*
X0086837Y0236364D01*
X0086855Y0236217D01*
X0086869Y0236070D01*
X0086879Y0235922D01*
X0086885Y0235774D01*
X0086887Y0235626D01*
X0086885Y0235478D01*
X0086879Y0235330D01*
X0086869Y0235182D01*
X0086855Y0235035D01*
X0086837Y0234888D01*
X0086816Y0234742D01*
X0086790Y0234596D01*
X0086760Y0234451D01*
X0086727Y0234307D01*
X0086689Y0234164D01*
X0086648Y0234022D01*
X0086603Y0233881D01*
X0086555Y0233741D01*
X0086502Y0233602D01*
X0086446Y0233465D01*
X0086386Y0233330D01*
X0086323Y0233196D01*
X0086256Y0233064D01*
X0086185Y0232934D01*
X0086111Y0232806D01*
X0086034Y0232680D01*
X0085953Y0232556D01*
X0085869Y0232434D01*
X0085782Y0232315D01*
X0085691Y0232198D01*
X0085597Y0232083D01*
X0085501Y0231971D01*
X0085401Y0231861D01*
X0085299Y0231755D01*
X0085193Y0231651D01*
X0085085Y0231550D01*
X0084974Y0231452D01*
X0084861Y0231356D01*
X0084745Y0231264D01*
X0084627Y0231175D01*
X0084506Y0231090D01*
X0084383Y0231007D01*
X0084258Y0230928D01*
X0084131Y0230852D01*
X0084002Y0230780D01*
X0083871Y0230711D01*
X0083738Y0230646D01*
X0083603Y0230585D01*
X0083467Y0230527D01*
X0083330Y0230472D01*
X0083191Y0230422D01*
X0083050Y0230375D01*
X0082909Y0230332D01*
X0082766Y0230292D01*
X0082622Y0230257D01*
X0082478Y0230225D01*
X0082332Y0230198D01*
X0082186Y0230174D01*
X0082039Y0230154D01*
X0081892Y0230138D01*
X0081745Y0230126D01*
X0081597Y0230118D01*
X0081449Y0230114D01*
X0081301Y0230114D01*
X0081153Y0230118D01*
X0081005Y0230126D01*
X0080858Y0230138D01*
X0080711Y0230154D01*
X0080564Y0230174D01*
X0080418Y0230198D01*
X0080272Y0230225D01*
X0080128Y0230257D01*
X0079984Y0230292D01*
X0079841Y0230332D01*
X0079700Y0230375D01*
X0079559Y0230422D01*
X0079420Y0230472D01*
X0079283Y0230527D01*
X0079147Y0230585D01*
X0079012Y0230646D01*
X0078879Y0230711D01*
X0078748Y0230780D01*
X0078619Y0230852D01*
X0078492Y0230928D01*
X0078367Y0231007D01*
X0078244Y0231090D01*
X0078123Y0231175D01*
X0078005Y0231264D01*
X0077889Y0231356D01*
X0077776Y0231452D01*
X0077665Y0231550D01*
X0077557Y0231651D01*
X0077451Y0231755D01*
X0077349Y0231861D01*
X0077249Y0231971D01*
X0077153Y0232083D01*
X0077059Y0232198D01*
X0076968Y0232315D01*
X0076881Y0232434D01*
X0076797Y0232556D01*
X0076716Y0232680D01*
X0076639Y0232806D01*
X0076565Y0232934D01*
X0076494Y0233064D01*
X0076427Y0233196D01*
X0076364Y0233330D01*
X0076304Y0233465D01*
X0076248Y0233602D01*
X0076195Y0233741D01*
X0076147Y0233881D01*
X0076102Y0234022D01*
X0076061Y0234164D01*
X0076023Y0234307D01*
X0075990Y0234451D01*
X0075960Y0234596D01*
X0075934Y0234742D01*
X0075913Y0234888D01*
X0075895Y0235035D01*
X0075881Y0235182D01*
X0075871Y0235330D01*
X0075865Y0235478D01*
X0075863Y0235626D01*
X0241095Y0104933D02*
X0241095Y0043933D01*
X0241097Y0043835D01*
X0241103Y0043737D01*
X0241112Y0043639D01*
X0241126Y0043542D01*
X0241143Y0043445D01*
X0241164Y0043349D01*
X0241189Y0043254D01*
X0241217Y0043160D01*
X0241250Y0043068D01*
X0241285Y0042976D01*
X0241325Y0042886D01*
X0241367Y0042798D01*
X0241414Y0042711D01*
X0241463Y0042627D01*
X0241516Y0042544D01*
X0241572Y0042464D01*
X0241632Y0042385D01*
X0241694Y0042309D01*
X0241759Y0042236D01*
X0241827Y0042165D01*
X0241898Y0042097D01*
X0241971Y0042032D01*
X0242047Y0041970D01*
X0242126Y0041910D01*
X0242206Y0041854D01*
X0242289Y0041801D01*
X0242373Y0041752D01*
X0242460Y0041705D01*
X0242548Y0041663D01*
X0242638Y0041623D01*
X0242730Y0041588D01*
X0242822Y0041555D01*
X0242916Y0041527D01*
X0243011Y0041502D01*
X0243107Y0041481D01*
X0243204Y0041464D01*
X0243301Y0041450D01*
X0243399Y0041441D01*
X0243497Y0041435D01*
X0243595Y0041433D01*
X0246095Y0041433D01*
X0246193Y0041435D01*
X0246291Y0041441D01*
X0246389Y0041450D01*
X0246486Y0041464D01*
X0246583Y0041481D01*
X0246679Y0041502D01*
X0246774Y0041527D01*
X0246868Y0041555D01*
X0246960Y0041588D01*
X0247052Y0041623D01*
X0247142Y0041663D01*
X0247230Y0041705D01*
X0247317Y0041752D01*
X0247401Y0041801D01*
X0247484Y0041854D01*
X0247564Y0041910D01*
X0247643Y0041970D01*
X0247719Y0042032D01*
X0247792Y0042097D01*
X0247863Y0042165D01*
X0247931Y0042236D01*
X0247996Y0042309D01*
X0248058Y0042385D01*
X0248118Y0042464D01*
X0248174Y0042544D01*
X0248227Y0042627D01*
X0248276Y0042711D01*
X0248323Y0042798D01*
X0248365Y0042886D01*
X0248405Y0042976D01*
X0248440Y0043068D01*
X0248473Y0043160D01*
X0248501Y0043254D01*
X0248526Y0043349D01*
X0248547Y0043445D01*
X0248564Y0043542D01*
X0248578Y0043639D01*
X0248587Y0043737D01*
X0248593Y0043835D01*
X0248595Y0043933D01*
X0248595Y0104933D01*
X0248593Y0105031D01*
X0248587Y0105129D01*
X0248578Y0105227D01*
X0248564Y0105324D01*
X0248547Y0105421D01*
X0248526Y0105517D01*
X0248501Y0105612D01*
X0248473Y0105706D01*
X0248440Y0105798D01*
X0248405Y0105890D01*
X0248365Y0105980D01*
X0248323Y0106068D01*
X0248276Y0106155D01*
X0248227Y0106239D01*
X0248174Y0106322D01*
X0248118Y0106402D01*
X0248058Y0106481D01*
X0247996Y0106557D01*
X0247931Y0106630D01*
X0247863Y0106701D01*
X0247792Y0106769D01*
X0247719Y0106834D01*
X0247643Y0106896D01*
X0247564Y0106956D01*
X0247484Y0107012D01*
X0247401Y0107065D01*
X0247317Y0107114D01*
X0247230Y0107161D01*
X0247142Y0107203D01*
X0247052Y0107243D01*
X0246960Y0107278D01*
X0246868Y0107311D01*
X0246774Y0107339D01*
X0246679Y0107364D01*
X0246583Y0107385D01*
X0246486Y0107402D01*
X0246389Y0107416D01*
X0246291Y0107425D01*
X0246193Y0107431D01*
X0246095Y0107433D01*
X0243595Y0107433D01*
X0243497Y0107431D01*
X0243399Y0107425D01*
X0243301Y0107416D01*
X0243204Y0107402D01*
X0243107Y0107385D01*
X0243011Y0107364D01*
X0242916Y0107339D01*
X0242822Y0107311D01*
X0242730Y0107278D01*
X0242638Y0107243D01*
X0242548Y0107203D01*
X0242460Y0107161D01*
X0242373Y0107114D01*
X0242289Y0107065D01*
X0242206Y0107012D01*
X0242126Y0106956D01*
X0242047Y0106896D01*
X0241971Y0106834D01*
X0241898Y0106769D01*
X0241827Y0106701D01*
X0241759Y0106630D01*
X0241694Y0106557D01*
X0241632Y0106481D01*
X0241572Y0106402D01*
X0241516Y0106322D01*
X0241463Y0106239D01*
X0241414Y0106155D01*
X0241367Y0106068D01*
X0241325Y0105980D01*
X0241285Y0105890D01*
X0241250Y0105798D01*
X0241217Y0105706D01*
X0241189Y0105612D01*
X0241164Y0105517D01*
X0241143Y0105421D01*
X0241126Y0105324D01*
X0241112Y0105227D01*
X0241103Y0105129D01*
X0241097Y0105031D01*
X0241095Y0104933D01*
X0304209Y0042713D02*
X0304211Y0042861D01*
X0304217Y0043009D01*
X0304227Y0043157D01*
X0304241Y0043304D01*
X0304259Y0043451D01*
X0304280Y0043597D01*
X0304306Y0043743D01*
X0304336Y0043888D01*
X0304369Y0044032D01*
X0304407Y0044175D01*
X0304448Y0044317D01*
X0304493Y0044458D01*
X0304541Y0044598D01*
X0304594Y0044737D01*
X0304650Y0044874D01*
X0304710Y0045009D01*
X0304773Y0045143D01*
X0304840Y0045275D01*
X0304911Y0045405D01*
X0304985Y0045533D01*
X0305062Y0045659D01*
X0305143Y0045783D01*
X0305227Y0045905D01*
X0305314Y0046024D01*
X0305405Y0046141D01*
X0305499Y0046256D01*
X0305595Y0046368D01*
X0305695Y0046478D01*
X0305797Y0046584D01*
X0305903Y0046688D01*
X0306011Y0046789D01*
X0306122Y0046887D01*
X0306235Y0046983D01*
X0306351Y0047075D01*
X0306469Y0047164D01*
X0306590Y0047249D01*
X0306713Y0047332D01*
X0306838Y0047411D01*
X0306965Y0047487D01*
X0307094Y0047559D01*
X0307225Y0047628D01*
X0307358Y0047693D01*
X0307493Y0047754D01*
X0307629Y0047812D01*
X0307766Y0047867D01*
X0307905Y0047917D01*
X0308046Y0047964D01*
X0308187Y0048007D01*
X0308330Y0048047D01*
X0308474Y0048082D01*
X0308618Y0048114D01*
X0308764Y0048141D01*
X0308910Y0048165D01*
X0309057Y0048185D01*
X0309204Y0048201D01*
X0309351Y0048213D01*
X0309499Y0048221D01*
X0309647Y0048225D01*
X0309795Y0048225D01*
X0309943Y0048221D01*
X0310091Y0048213D01*
X0310238Y0048201D01*
X0310385Y0048185D01*
X0310532Y0048165D01*
X0310678Y0048141D01*
X0310824Y0048114D01*
X0310968Y0048082D01*
X0311112Y0048047D01*
X0311255Y0048007D01*
X0311396Y0047964D01*
X0311537Y0047917D01*
X0311676Y0047867D01*
X0311813Y0047812D01*
X0311949Y0047754D01*
X0312084Y0047693D01*
X0312217Y0047628D01*
X0312348Y0047559D01*
X0312477Y0047487D01*
X0312604Y0047411D01*
X0312729Y0047332D01*
X0312852Y0047249D01*
X0312973Y0047164D01*
X0313091Y0047075D01*
X0313207Y0046983D01*
X0313320Y0046887D01*
X0313431Y0046789D01*
X0313539Y0046688D01*
X0313645Y0046584D01*
X0313747Y0046478D01*
X0313847Y0046368D01*
X0313943Y0046256D01*
X0314037Y0046141D01*
X0314128Y0046024D01*
X0314215Y0045905D01*
X0314299Y0045783D01*
X0314380Y0045659D01*
X0314457Y0045533D01*
X0314531Y0045405D01*
X0314602Y0045275D01*
X0314669Y0045143D01*
X0314732Y0045009D01*
X0314792Y0044874D01*
X0314848Y0044737D01*
X0314901Y0044598D01*
X0314949Y0044458D01*
X0314994Y0044317D01*
X0315035Y0044175D01*
X0315073Y0044032D01*
X0315106Y0043888D01*
X0315136Y0043743D01*
X0315162Y0043597D01*
X0315183Y0043451D01*
X0315201Y0043304D01*
X0315215Y0043157D01*
X0315225Y0043009D01*
X0315231Y0042861D01*
X0315233Y0042713D01*
X0315231Y0042565D01*
X0315225Y0042417D01*
X0315215Y0042269D01*
X0315201Y0042122D01*
X0315183Y0041975D01*
X0315162Y0041829D01*
X0315136Y0041683D01*
X0315106Y0041538D01*
X0315073Y0041394D01*
X0315035Y0041251D01*
X0314994Y0041109D01*
X0314949Y0040968D01*
X0314901Y0040828D01*
X0314848Y0040689D01*
X0314792Y0040552D01*
X0314732Y0040417D01*
X0314669Y0040283D01*
X0314602Y0040151D01*
X0314531Y0040021D01*
X0314457Y0039893D01*
X0314380Y0039767D01*
X0314299Y0039643D01*
X0314215Y0039521D01*
X0314128Y0039402D01*
X0314037Y0039285D01*
X0313943Y0039170D01*
X0313847Y0039058D01*
X0313747Y0038948D01*
X0313645Y0038842D01*
X0313539Y0038738D01*
X0313431Y0038637D01*
X0313320Y0038539D01*
X0313207Y0038443D01*
X0313091Y0038351D01*
X0312973Y0038262D01*
X0312852Y0038177D01*
X0312729Y0038094D01*
X0312604Y0038015D01*
X0312477Y0037939D01*
X0312348Y0037867D01*
X0312217Y0037798D01*
X0312084Y0037733D01*
X0311949Y0037672D01*
X0311813Y0037614D01*
X0311676Y0037559D01*
X0311537Y0037509D01*
X0311396Y0037462D01*
X0311255Y0037419D01*
X0311112Y0037379D01*
X0310968Y0037344D01*
X0310824Y0037312D01*
X0310678Y0037285D01*
X0310532Y0037261D01*
X0310385Y0037241D01*
X0310238Y0037225D01*
X0310091Y0037213D01*
X0309943Y0037205D01*
X0309795Y0037201D01*
X0309647Y0037201D01*
X0309499Y0037205D01*
X0309351Y0037213D01*
X0309204Y0037225D01*
X0309057Y0037241D01*
X0308910Y0037261D01*
X0308764Y0037285D01*
X0308618Y0037312D01*
X0308474Y0037344D01*
X0308330Y0037379D01*
X0308187Y0037419D01*
X0308046Y0037462D01*
X0307905Y0037509D01*
X0307766Y0037559D01*
X0307629Y0037614D01*
X0307493Y0037672D01*
X0307358Y0037733D01*
X0307225Y0037798D01*
X0307094Y0037867D01*
X0306965Y0037939D01*
X0306838Y0038015D01*
X0306713Y0038094D01*
X0306590Y0038177D01*
X0306469Y0038262D01*
X0306351Y0038351D01*
X0306235Y0038443D01*
X0306122Y0038539D01*
X0306011Y0038637D01*
X0305903Y0038738D01*
X0305797Y0038842D01*
X0305695Y0038948D01*
X0305595Y0039058D01*
X0305499Y0039170D01*
X0305405Y0039285D01*
X0305314Y0039402D01*
X0305227Y0039521D01*
X0305143Y0039643D01*
X0305062Y0039767D01*
X0304985Y0039893D01*
X0304911Y0040021D01*
X0304840Y0040151D01*
X0304773Y0040283D01*
X0304710Y0040417D01*
X0304650Y0040552D01*
X0304594Y0040689D01*
X0304541Y0040828D01*
X0304493Y0040968D01*
X0304448Y0041109D01*
X0304407Y0041251D01*
X0304369Y0041394D01*
X0304336Y0041538D01*
X0304306Y0041683D01*
X0304280Y0041829D01*
X0304259Y0041975D01*
X0304241Y0042122D01*
X0304227Y0042269D01*
X0304217Y0042417D01*
X0304211Y0042565D01*
X0304209Y0042713D01*
X0304209Y0235626D02*
X0304211Y0235774D01*
X0304217Y0235922D01*
X0304227Y0236070D01*
X0304241Y0236217D01*
X0304259Y0236364D01*
X0304280Y0236510D01*
X0304306Y0236656D01*
X0304336Y0236801D01*
X0304369Y0236945D01*
X0304407Y0237088D01*
X0304448Y0237230D01*
X0304493Y0237371D01*
X0304541Y0237511D01*
X0304594Y0237650D01*
X0304650Y0237787D01*
X0304710Y0237922D01*
X0304773Y0238056D01*
X0304840Y0238188D01*
X0304911Y0238318D01*
X0304985Y0238446D01*
X0305062Y0238572D01*
X0305143Y0238696D01*
X0305227Y0238818D01*
X0305314Y0238937D01*
X0305405Y0239054D01*
X0305499Y0239169D01*
X0305595Y0239281D01*
X0305695Y0239391D01*
X0305797Y0239497D01*
X0305903Y0239601D01*
X0306011Y0239702D01*
X0306122Y0239800D01*
X0306235Y0239896D01*
X0306351Y0239988D01*
X0306469Y0240077D01*
X0306590Y0240162D01*
X0306713Y0240245D01*
X0306838Y0240324D01*
X0306965Y0240400D01*
X0307094Y0240472D01*
X0307225Y0240541D01*
X0307358Y0240606D01*
X0307493Y0240667D01*
X0307629Y0240725D01*
X0307766Y0240780D01*
X0307905Y0240830D01*
X0308046Y0240877D01*
X0308187Y0240920D01*
X0308330Y0240960D01*
X0308474Y0240995D01*
X0308618Y0241027D01*
X0308764Y0241054D01*
X0308910Y0241078D01*
X0309057Y0241098D01*
X0309204Y0241114D01*
X0309351Y0241126D01*
X0309499Y0241134D01*
X0309647Y0241138D01*
X0309795Y0241138D01*
X0309943Y0241134D01*
X0310091Y0241126D01*
X0310238Y0241114D01*
X0310385Y0241098D01*
X0310532Y0241078D01*
X0310678Y0241054D01*
X0310824Y0241027D01*
X0310968Y0240995D01*
X0311112Y0240960D01*
X0311255Y0240920D01*
X0311396Y0240877D01*
X0311537Y0240830D01*
X0311676Y0240780D01*
X0311813Y0240725D01*
X0311949Y0240667D01*
X0312084Y0240606D01*
X0312217Y0240541D01*
X0312348Y0240472D01*
X0312477Y0240400D01*
X0312604Y0240324D01*
X0312729Y0240245D01*
X0312852Y0240162D01*
X0312973Y0240077D01*
X0313091Y0239988D01*
X0313207Y0239896D01*
X0313320Y0239800D01*
X0313431Y0239702D01*
X0313539Y0239601D01*
X0313645Y0239497D01*
X0313747Y0239391D01*
X0313847Y0239281D01*
X0313943Y0239169D01*
X0314037Y0239054D01*
X0314128Y0238937D01*
X0314215Y0238818D01*
X0314299Y0238696D01*
X0314380Y0238572D01*
X0314457Y0238446D01*
X0314531Y0238318D01*
X0314602Y0238188D01*
X0314669Y0238056D01*
X0314732Y0237922D01*
X0314792Y0237787D01*
X0314848Y0237650D01*
X0314901Y0237511D01*
X0314949Y0237371D01*
X0314994Y0237230D01*
X0315035Y0237088D01*
X0315073Y0236945D01*
X0315106Y0236801D01*
X0315136Y0236656D01*
X0315162Y0236510D01*
X0315183Y0236364D01*
X0315201Y0236217D01*
X0315215Y0236070D01*
X0315225Y0235922D01*
X0315231Y0235774D01*
X0315233Y0235626D01*
X0315231Y0235478D01*
X0315225Y0235330D01*
X0315215Y0235182D01*
X0315201Y0235035D01*
X0315183Y0234888D01*
X0315162Y0234742D01*
X0315136Y0234596D01*
X0315106Y0234451D01*
X0315073Y0234307D01*
X0315035Y0234164D01*
X0314994Y0234022D01*
X0314949Y0233881D01*
X0314901Y0233741D01*
X0314848Y0233602D01*
X0314792Y0233465D01*
X0314732Y0233330D01*
X0314669Y0233196D01*
X0314602Y0233064D01*
X0314531Y0232934D01*
X0314457Y0232806D01*
X0314380Y0232680D01*
X0314299Y0232556D01*
X0314215Y0232434D01*
X0314128Y0232315D01*
X0314037Y0232198D01*
X0313943Y0232083D01*
X0313847Y0231971D01*
X0313747Y0231861D01*
X0313645Y0231755D01*
X0313539Y0231651D01*
X0313431Y0231550D01*
X0313320Y0231452D01*
X0313207Y0231356D01*
X0313091Y0231264D01*
X0312973Y0231175D01*
X0312852Y0231090D01*
X0312729Y0231007D01*
X0312604Y0230928D01*
X0312477Y0230852D01*
X0312348Y0230780D01*
X0312217Y0230711D01*
X0312084Y0230646D01*
X0311949Y0230585D01*
X0311813Y0230527D01*
X0311676Y0230472D01*
X0311537Y0230422D01*
X0311396Y0230375D01*
X0311255Y0230332D01*
X0311112Y0230292D01*
X0310968Y0230257D01*
X0310824Y0230225D01*
X0310678Y0230198D01*
X0310532Y0230174D01*
X0310385Y0230154D01*
X0310238Y0230138D01*
X0310091Y0230126D01*
X0309943Y0230118D01*
X0309795Y0230114D01*
X0309647Y0230114D01*
X0309499Y0230118D01*
X0309351Y0230126D01*
X0309204Y0230138D01*
X0309057Y0230154D01*
X0308910Y0230174D01*
X0308764Y0230198D01*
X0308618Y0230225D01*
X0308474Y0230257D01*
X0308330Y0230292D01*
X0308187Y0230332D01*
X0308046Y0230375D01*
X0307905Y0230422D01*
X0307766Y0230472D01*
X0307629Y0230527D01*
X0307493Y0230585D01*
X0307358Y0230646D01*
X0307225Y0230711D01*
X0307094Y0230780D01*
X0306965Y0230852D01*
X0306838Y0230928D01*
X0306713Y0231007D01*
X0306590Y0231090D01*
X0306469Y0231175D01*
X0306351Y0231264D01*
X0306235Y0231356D01*
X0306122Y0231452D01*
X0306011Y0231550D01*
X0305903Y0231651D01*
X0305797Y0231755D01*
X0305695Y0231861D01*
X0305595Y0231971D01*
X0305499Y0232083D01*
X0305405Y0232198D01*
X0305314Y0232315D01*
X0305227Y0232434D01*
X0305143Y0232556D01*
X0305062Y0232680D01*
X0304985Y0232806D01*
X0304911Y0232934D01*
X0304840Y0233064D01*
X0304773Y0233196D01*
X0304710Y0233330D01*
X0304650Y0233465D01*
X0304594Y0233602D01*
X0304541Y0233741D01*
X0304493Y0233881D01*
X0304448Y0234022D01*
X0304407Y0234164D01*
X0304369Y0234307D01*
X0304336Y0234451D01*
X0304306Y0234596D01*
X0304280Y0234742D01*
X0304259Y0234888D01*
X0304241Y0235035D01*
X0304227Y0235182D01*
X0304217Y0235330D01*
X0304211Y0235478D01*
X0304209Y0235626D01*
D11*
X0252061Y0171682D02*
X0253045Y0170698D01*
X0253045Y0168729D01*
X0252061Y0167745D01*
X0250093Y0169714D02*
X0250093Y0170698D01*
X0251077Y0171682D01*
X0252061Y0171682D01*
X0250093Y0170698D02*
X0249108Y0171682D01*
X0248124Y0171682D01*
X0247140Y0170698D01*
X0247140Y0168729D01*
X0248124Y0167745D01*
X0250093Y0158791D02*
X0251077Y0158791D01*
X0251077Y0154854D01*
X0252061Y0154854D02*
X0250093Y0154854D01*
X0249108Y0155838D01*
X0249108Y0157807D01*
X0250093Y0158791D01*
X0253045Y0157807D02*
X0253045Y0155838D01*
X0252061Y0154854D01*
X0253045Y0152526D02*
X0253045Y0150557D01*
X0253045Y0151541D02*
X0247140Y0151541D01*
X0247140Y0150557D01*
X0249108Y0148048D02*
X0253045Y0148048D01*
X0253045Y0145096D01*
X0252061Y0144112D01*
X0249108Y0144112D01*
X0249108Y0141603D02*
X0249108Y0138650D01*
X0250093Y0137666D01*
X0252061Y0137666D01*
X0253045Y0138650D01*
X0253045Y0141603D01*
X0247140Y0141603D01*
X0250093Y0135157D02*
X0249108Y0134173D01*
X0249108Y0132205D01*
X0250093Y0131221D01*
X0252061Y0131221D01*
X0253045Y0132205D01*
X0253045Y0134173D01*
X0252061Y0135157D01*
X0250093Y0135157D01*
X0253045Y0128712D02*
X0247140Y0128712D01*
X0249108Y0126744D01*
X0247140Y0124775D01*
X0253045Y0124775D01*
X0232545Y0125301D02*
X0231561Y0124317D01*
X0227624Y0128254D01*
X0231561Y0128254D01*
X0232545Y0127270D01*
X0232545Y0125301D01*
X0231561Y0124317D02*
X0227624Y0124317D01*
X0226640Y0125301D01*
X0226640Y0127270D01*
X0227624Y0128254D01*
X0222045Y0129061D02*
X0221061Y0128077D01*
X0220077Y0129061D01*
X0220077Y0132014D01*
X0219093Y0132014D02*
X0222045Y0132014D01*
X0222045Y0129061D01*
X0221061Y0125568D02*
X0218108Y0125568D01*
X0221061Y0125568D02*
X0222045Y0124584D01*
X0221061Y0123600D01*
X0222045Y0122616D01*
X0221061Y0121632D01*
X0218108Y0121632D01*
X0219093Y0119123D02*
X0220077Y0119123D01*
X0220077Y0115186D01*
X0221061Y0115186D02*
X0219093Y0115186D01*
X0218108Y0116170D01*
X0218108Y0118139D01*
X0219093Y0119123D01*
X0222045Y0118139D02*
X0222045Y0116170D01*
X0221061Y0115186D01*
X0222045Y0112857D02*
X0221061Y0111873D01*
X0217124Y0111873D01*
X0218108Y0110889D02*
X0218108Y0112857D01*
X0219093Y0108380D02*
X0222045Y0108380D01*
X0222045Y0105428D01*
X0221061Y0104444D01*
X0220077Y0105428D01*
X0220077Y0108380D01*
X0219093Y0108380D02*
X0218108Y0107396D01*
X0218108Y0105428D01*
X0217124Y0101935D02*
X0216140Y0100951D01*
X0216140Y0098982D01*
X0217124Y0097998D01*
X0221061Y0097998D01*
X0222045Y0098982D01*
X0222045Y0100951D01*
X0221061Y0101935D01*
X0219093Y0101935D01*
X0219093Y0099966D01*
X0211545Y0099249D02*
X0209577Y0097281D01*
X0209577Y0098265D02*
X0209577Y0095312D01*
X0211545Y0095312D02*
X0205640Y0095312D01*
X0205640Y0098265D01*
X0206624Y0099249D01*
X0208593Y0099249D01*
X0209577Y0098265D01*
X0209577Y0101758D02*
X0209577Y0104710D01*
X0208593Y0105695D01*
X0206624Y0105695D01*
X0205640Y0104710D01*
X0205640Y0101758D01*
X0211545Y0101758D01*
X0211545Y0108203D02*
X0211545Y0110172D01*
X0211545Y0109188D02*
X0205640Y0109188D01*
X0205640Y0110172D02*
X0205640Y0108203D01*
X0205640Y0118946D02*
X0211545Y0118946D01*
X0211545Y0122883D01*
X0210561Y0125391D02*
X0208593Y0125391D01*
X0207608Y0126376D01*
X0207608Y0128344D01*
X0208593Y0129328D01*
X0210561Y0129328D01*
X0211545Y0128344D01*
X0211545Y0126376D01*
X0210561Y0125391D01*
X0209577Y0131837D02*
X0207608Y0133805D01*
X0207608Y0134789D01*
X0207608Y0131837D02*
X0211545Y0131837D01*
X0210561Y0137208D02*
X0209577Y0138192D01*
X0209577Y0141145D01*
X0208593Y0141145D02*
X0211545Y0141145D01*
X0211545Y0138192D01*
X0210561Y0137208D01*
X0207608Y0138192D02*
X0207608Y0140161D01*
X0208593Y0141145D01*
X0205295Y0150275D02*
X0199390Y0150275D01*
X0201358Y0152244D01*
X0199390Y0154212D01*
X0205295Y0154212D01*
X0204311Y0156721D02*
X0202343Y0156721D01*
X0201358Y0157705D01*
X0201358Y0159673D01*
X0202343Y0160657D01*
X0204311Y0160657D01*
X0205295Y0159673D01*
X0205295Y0157705D01*
X0204311Y0156721D01*
X0204311Y0163166D02*
X0202343Y0163166D01*
X0201358Y0164150D01*
X0201358Y0167103D01*
X0199390Y0167103D02*
X0205295Y0167103D01*
X0205295Y0164150D01*
X0204311Y0163166D01*
X0209890Y0166299D02*
X0210874Y0165315D01*
X0214811Y0165315D01*
X0215795Y0166299D01*
X0215795Y0168267D01*
X0214811Y0169252D01*
X0215795Y0171760D02*
X0215795Y0175697D01*
X0214811Y0178206D02*
X0210874Y0178206D01*
X0209890Y0179190D01*
X0209890Y0181158D01*
X0210874Y0182142D01*
X0214811Y0178206D01*
X0215795Y0179190D01*
X0215795Y0181158D01*
X0214811Y0182142D01*
X0210874Y0182142D01*
X0205295Y0181338D02*
X0204311Y0180354D01*
X0202343Y0180354D01*
X0201358Y0181338D01*
X0201358Y0183307D01*
X0202343Y0184291D01*
X0203327Y0184291D01*
X0203327Y0180354D01*
X0205295Y0181338D02*
X0205295Y0183307D01*
X0205295Y0178026D02*
X0205295Y0176057D01*
X0205295Y0177041D02*
X0199390Y0177041D01*
X0199390Y0176057D01*
X0201358Y0173548D02*
X0205295Y0173548D01*
X0205295Y0170596D01*
X0204311Y0169612D01*
X0201358Y0169612D01*
X0209890Y0168267D02*
X0209890Y0166299D01*
X0209890Y0168267D02*
X0210874Y0169252D01*
X0209890Y0171760D02*
X0215795Y0171760D01*
X0212843Y0171760D02*
X0212843Y0173729D01*
X0209890Y0175697D02*
X0209890Y0171760D01*
X0205295Y0193245D02*
X0205295Y0197182D01*
X0205295Y0195214D02*
X0199390Y0195214D01*
X0201358Y0193245D01*
X0188382Y0218983D02*
X0186414Y0218983D01*
X0185429Y0219967D01*
X0185429Y0221936D01*
X0186414Y0222920D01*
X0188382Y0222920D01*
X0189366Y0221936D01*
X0189366Y0220951D01*
X0185429Y0220951D01*
X0182921Y0221936D02*
X0182921Y0218983D01*
X0180952Y0218983D02*
X0180952Y0221936D01*
X0181936Y0222920D01*
X0182921Y0221936D01*
X0180952Y0221936D02*
X0179968Y0222920D01*
X0178984Y0222920D01*
X0178984Y0218983D01*
X0176745Y0218983D02*
X0175761Y0218983D01*
X0175761Y0219967D01*
X0176745Y0219967D01*
X0176745Y0218983D01*
X0173252Y0218983D02*
X0170300Y0218983D01*
X0169316Y0219967D01*
X0169316Y0221936D01*
X0170300Y0222920D01*
X0173252Y0222920D01*
X0173252Y0224888D02*
X0173252Y0218983D01*
X0166897Y0222920D02*
X0165913Y0222920D01*
X0163944Y0220951D01*
X0163944Y0218983D02*
X0163944Y0222920D01*
X0161436Y0221936D02*
X0161436Y0218983D01*
X0158483Y0218983D01*
X0157499Y0219967D01*
X0158483Y0220951D01*
X0161436Y0220951D01*
X0161436Y0221936D02*
X0160451Y0222920D01*
X0158483Y0222920D01*
X0154186Y0224888D02*
X0154186Y0218983D01*
X0153202Y0218983D02*
X0155170Y0218983D01*
X0150873Y0218983D02*
X0148905Y0218983D01*
X0149889Y0218983D02*
X0149889Y0224888D01*
X0148905Y0224888D01*
X0146396Y0221936D02*
X0146396Y0218983D01*
X0143444Y0218983D01*
X0142459Y0219967D01*
X0143444Y0220951D01*
X0146396Y0220951D01*
X0146396Y0221936D02*
X0145412Y0222920D01*
X0143444Y0222920D01*
X0139951Y0221936D02*
X0139951Y0218983D01*
X0139951Y0221936D02*
X0138966Y0222920D01*
X0136998Y0222920D01*
X0136014Y0221936D01*
X0136014Y0224888D02*
X0136014Y0218983D01*
X0133505Y0224888D02*
X0129568Y0218983D01*
X0127060Y0224888D02*
X0123123Y0218983D01*
X0120884Y0218983D02*
X0119900Y0218983D01*
X0119900Y0219967D01*
X0120884Y0219967D01*
X0120884Y0218983D01*
X0120884Y0221936D02*
X0119900Y0221936D01*
X0119900Y0222920D01*
X0120884Y0222920D01*
X0120884Y0221936D01*
X0117391Y0221936D02*
X0117391Y0219967D01*
X0116407Y0218983D01*
X0113455Y0218983D01*
X0113455Y0217015D02*
X0113455Y0222920D01*
X0116407Y0222920D01*
X0117391Y0221936D01*
X0111126Y0222920D02*
X0109158Y0222920D01*
X0110142Y0223904D02*
X0110142Y0219967D01*
X0111126Y0218983D01*
X0106829Y0218983D02*
X0105845Y0219967D01*
X0105845Y0223904D01*
X0104861Y0222920D02*
X0106829Y0222920D01*
X0102352Y0221936D02*
X0102352Y0218983D01*
X0102352Y0221936D02*
X0101368Y0222920D01*
X0099399Y0222920D01*
X0098415Y0221936D01*
X0098415Y0224888D02*
X0098415Y0218983D01*
X0153202Y0224888D02*
X0154186Y0224888D01*
X0133657Y0169104D02*
X0133657Y0166168D01*
X0132189Y0167636D02*
X0135125Y0167636D01*
X0218108Y0138459D02*
X0223029Y0138459D01*
X0224013Y0137475D01*
X0224013Y0136491D01*
X0222045Y0135507D02*
X0221061Y0134523D01*
X0218108Y0134523D01*
X0219093Y0132014D02*
X0218108Y0131030D01*
X0218108Y0129061D01*
X0222045Y0135507D02*
X0222045Y0138459D01*
X0231561Y0122079D02*
X0232545Y0122079D01*
X0232545Y0121094D01*
X0231561Y0121094D01*
X0231561Y0122079D01*
X0232545Y0118586D02*
X0232545Y0114649D01*
X0232545Y0116617D02*
X0226640Y0116617D01*
X0228608Y0114649D01*
X0226640Y0112140D02*
X0230577Y0112140D01*
X0232545Y0110172D01*
X0230577Y0108203D01*
X0226640Y0108203D01*
X0205295Y0087182D02*
X0205295Y0083245D01*
X0201358Y0087182D01*
X0200374Y0087182D01*
X0199390Y0086198D01*
X0199390Y0084229D01*
X0200374Y0083245D01*
X0202343Y0074291D02*
X0203327Y0074291D01*
X0203327Y0070354D01*
X0204311Y0070354D02*
X0202343Y0070354D01*
X0201358Y0071338D01*
X0201358Y0073307D01*
X0202343Y0074291D01*
X0205295Y0073307D02*
X0205295Y0071338D01*
X0204311Y0070354D01*
X0205295Y0068026D02*
X0205295Y0066057D01*
X0205295Y0067041D02*
X0199390Y0067041D01*
X0199390Y0066057D01*
X0201358Y0063548D02*
X0205295Y0063548D01*
X0205295Y0060596D01*
X0204311Y0059612D01*
X0201358Y0059612D01*
X0201358Y0057103D02*
X0201358Y0054150D01*
X0202343Y0053166D01*
X0204311Y0053166D01*
X0205295Y0054150D01*
X0205295Y0057103D01*
X0199390Y0057103D01*
X0202343Y0050657D02*
X0201358Y0049673D01*
X0201358Y0047705D01*
X0202343Y0046721D01*
X0204311Y0046721D01*
X0205295Y0047705D01*
X0205295Y0049673D01*
X0204311Y0050657D01*
X0202343Y0050657D01*
X0209890Y0056299D02*
X0210874Y0055315D01*
X0214811Y0055315D01*
X0215795Y0056299D01*
X0215795Y0058267D01*
X0214811Y0059252D01*
X0215795Y0061760D02*
X0215795Y0065697D01*
X0215795Y0068206D02*
X0215795Y0072142D01*
X0215795Y0070174D02*
X0209890Y0070174D01*
X0211858Y0068206D01*
X0209890Y0065697D02*
X0209890Y0061760D01*
X0215795Y0061760D01*
X0212843Y0061760D02*
X0212843Y0063729D01*
X0210874Y0059252D02*
X0209890Y0058267D01*
X0209890Y0056299D01*
X0205295Y0044212D02*
X0199390Y0044212D01*
X0201358Y0042244D01*
X0199390Y0040275D01*
X0205295Y0040275D01*
X0135125Y0057636D02*
X0132189Y0057636D01*
X0133657Y0059104D02*
X0133657Y0056168D01*
D12*
X0151893Y0056843D02*
X0152593Y0057544D01*
X0154695Y0057544D01*
X0154695Y0055442D01*
X0153995Y0054742D01*
X0153294Y0055442D01*
X0153294Y0057544D01*
X0151893Y0056843D02*
X0151893Y0055442D01*
X0151893Y0053007D02*
X0151893Y0052306D01*
X0153294Y0050905D01*
X0154695Y0050905D02*
X0151893Y0050905D01*
X0152593Y0049103D02*
X0151893Y0048403D01*
X0151893Y0047002D01*
X0152593Y0046301D01*
X0153995Y0046301D01*
X0154695Y0047002D01*
X0154695Y0048403D01*
X0153995Y0049103D01*
X0152593Y0049103D01*
X0154695Y0044499D02*
X0154695Y0041697D01*
X0150492Y0041697D01*
X0150492Y0063949D02*
X0150492Y0066051D01*
X0151192Y0066752D01*
X0152593Y0066752D01*
X0153294Y0066051D01*
X0153294Y0063949D01*
X0154695Y0063949D02*
X0150492Y0063949D01*
X0153294Y0065351D02*
X0154695Y0066752D01*
X0154695Y0068553D02*
X0150492Y0068553D01*
X0150492Y0071356D01*
X0150492Y0073157D02*
X0151893Y0074558D01*
X0150492Y0075960D01*
X0154695Y0075960D01*
X0153995Y0077761D02*
X0154695Y0078462D01*
X0154695Y0079863D01*
X0153995Y0080564D01*
X0151192Y0080564D01*
X0150492Y0079863D01*
X0150492Y0078462D01*
X0151192Y0077761D01*
X0151893Y0077761D01*
X0152593Y0078462D01*
X0152593Y0080564D01*
X0151893Y0082365D02*
X0154695Y0085167D01*
X0154695Y0082365D02*
X0151893Y0085167D01*
X0150492Y0073157D02*
X0154695Y0073157D01*
X0152593Y0069954D02*
X0152593Y0068553D01*
X0172595Y0100433D02*
X0192595Y0100433D01*
X0192595Y0110433D01*
X0172595Y0110433D01*
X0172595Y0100433D01*
X0172595Y0122933D02*
X0192595Y0122933D01*
X0192595Y0132933D01*
X0172595Y0132933D01*
X0172595Y0122933D01*
X0154695Y0151697D02*
X0150492Y0151697D01*
X0154695Y0151697D02*
X0154695Y0154499D01*
X0153995Y0156301D02*
X0154695Y0157002D01*
X0154695Y0158403D01*
X0153995Y0159103D01*
X0152593Y0159103D01*
X0151893Y0158403D01*
X0151893Y0157002D01*
X0152593Y0156301D01*
X0153995Y0156301D01*
X0154695Y0160905D02*
X0151893Y0160905D01*
X0153294Y0160905D02*
X0151893Y0162306D01*
X0151893Y0163007D01*
X0151893Y0165442D02*
X0151893Y0166843D01*
X0152593Y0167544D01*
X0154695Y0167544D01*
X0154695Y0165442D01*
X0153995Y0164742D01*
X0153294Y0165442D01*
X0153294Y0167544D01*
X0153294Y0173949D02*
X0153294Y0176051D01*
X0152593Y0176752D01*
X0151192Y0176752D01*
X0150492Y0176051D01*
X0150492Y0173949D01*
X0154695Y0173949D01*
X0153294Y0175351D02*
X0154695Y0176752D01*
X0154695Y0178553D02*
X0150492Y0178553D01*
X0150492Y0181356D01*
X0150492Y0183157D02*
X0151893Y0184558D01*
X0150492Y0185960D01*
X0154695Y0185960D01*
X0153995Y0187761D02*
X0154695Y0188462D01*
X0154695Y0189863D01*
X0153995Y0190564D01*
X0151192Y0190564D01*
X0150492Y0189863D01*
X0150492Y0188462D01*
X0151192Y0187761D01*
X0151893Y0187761D01*
X0152593Y0188462D01*
X0152593Y0190564D01*
X0151893Y0192365D02*
X0154695Y0195167D01*
X0154695Y0192365D02*
X0151893Y0195167D01*
X0150492Y0183157D02*
X0154695Y0183157D01*
X0152593Y0179954D02*
X0152593Y0178553D01*
X0081001Y0190665D02*
X0080213Y0190665D01*
X0080213Y0196177D01*
X0081001Y0196177D01*
X0081001Y0190665D01*
X0080607Y0191059D02*
X0080607Y0196177D01*
X0080607Y0201689D02*
X0080607Y0206807D01*
X0081001Y0207201D02*
X0080213Y0207201D01*
X0069977Y0207201D01*
X0069977Y0201689D01*
X0069977Y0196177D02*
X0069977Y0190665D01*
X0080213Y0190665D01*
X0080213Y0201689D02*
X0081001Y0201689D01*
X0081001Y0207201D01*
X0080213Y0207201D02*
X0080213Y0201689D01*
X0080213Y0094701D02*
X0069977Y0094701D01*
X0069977Y0089189D01*
X0069977Y0083677D02*
X0069977Y0078165D01*
X0080213Y0078165D01*
X0081001Y0078165D01*
X0081001Y0083677D01*
X0080213Y0083677D01*
X0080213Y0078165D01*
X0080607Y0078559D02*
X0080607Y0083677D01*
X0080607Y0089189D02*
X0080607Y0094307D01*
X0081001Y0094701D02*
X0080213Y0094701D01*
X0080213Y0089189D01*
X0081001Y0089189D01*
X0081001Y0094701D01*
X0250095Y0203933D02*
X0270095Y0203933D01*
X0270095Y0213933D01*
X0250095Y0213933D01*
X0250095Y0203933D01*
X0259893Y0182890D02*
X0259893Y0180087D01*
X0258491Y0181489D02*
X0261294Y0181489D01*
X0277345Y0179683D02*
X0279845Y0182183D01*
X0279845Y0179683D01*
X0279845Y0133183D01*
X0278595Y0131933D01*
X0277345Y0133183D01*
X0278595Y0133183D01*
X0278595Y0132683D01*
X0279595Y0131683D01*
X0280095Y0131683D01*
X0281095Y0132683D01*
X0280345Y0132683D01*
X0280095Y0132433D01*
X0279845Y0133183D02*
X0279845Y0130683D01*
X0282345Y0133183D01*
X0279845Y0133183D01*
X0278595Y0133183D01*
X0278595Y0131933D02*
X0279845Y0130683D01*
X0279593Y0118632D02*
X0279593Y0115829D01*
X0272995Y0117230D02*
X0270192Y0117230D01*
X0271593Y0115829D02*
X0271593Y0118632D01*
X0259893Y0105890D02*
X0259893Y0103087D01*
X0289095Y0105433D02*
X0290345Y0104183D01*
X0291595Y0105433D01*
X0291595Y0165683D01*
X0292845Y0166933D01*
X0294095Y0165683D01*
X0292845Y0165683D01*
X0292845Y0166183D01*
X0291845Y0167183D01*
X0291345Y0167183D01*
X0290345Y0166183D01*
X0291095Y0166183D01*
X0291345Y0166433D01*
X0291595Y0165683D02*
X0291595Y0168183D01*
X0289095Y0165683D01*
X0291595Y0165683D01*
X0292845Y0165683D01*
X0292845Y0166933D02*
X0291595Y0168183D01*
X0282345Y0179683D02*
X0281095Y0179683D01*
X0281095Y0180183D01*
X0280095Y0181183D01*
X0279595Y0181183D01*
X0278595Y0180183D01*
X0279345Y0180183D01*
X0279595Y0180433D01*
X0279845Y0179683D02*
X0277345Y0179683D01*
X0279845Y0179683D02*
X0281095Y0180933D01*
X0282345Y0179683D01*
X0281095Y0179683D02*
X0279845Y0179683D01*
X0281095Y0180933D02*
X0279845Y0182183D01*
X0282595Y0203933D02*
X0282595Y0213933D01*
X0312595Y0213933D01*
X0312595Y0203933D01*
X0282595Y0203933D01*
X0289095Y0105433D02*
X0290345Y0105433D01*
X0290345Y0104933D01*
X0291345Y0103933D01*
X0291845Y0103933D01*
X0292845Y0104933D01*
X0292095Y0104933D01*
X0291845Y0104683D01*
X0291595Y0105433D02*
X0291595Y0102933D01*
X0294095Y0105433D01*
X0291595Y0105433D01*
X0290345Y0105433D01*
X0290345Y0104183D02*
X0291595Y0102933D01*
X0286363Y0042339D02*
X0280851Y0042339D01*
X0280851Y0041551D01*
X0286363Y0041551D01*
X0286363Y0042339D01*
X0285969Y0041945D02*
X0280851Y0041945D01*
X0286363Y0041551D02*
X0286363Y0031315D01*
X0280851Y0031315D01*
X0275339Y0031315D02*
X0269827Y0031315D01*
X0269827Y0041551D01*
X0269827Y0042339D01*
X0275339Y0042339D01*
X0275339Y0041551D01*
X0269827Y0041551D01*
X0270221Y0041945D02*
X0275339Y0041945D01*
D13*
X0270161Y0103194D02*
X0270161Y0105596D01*
X0269361Y0105596D02*
X0270962Y0105596D01*
X0268200Y0105596D02*
X0268200Y0103194D01*
X0266598Y0105596D01*
X0266598Y0103194D01*
X0265437Y0103194D02*
X0265437Y0104795D01*
X0264637Y0105596D01*
X0263836Y0104795D01*
X0263836Y0103194D01*
X0263836Y0104395D02*
X0265437Y0104395D01*
X0266321Y0117233D02*
X0266321Y0119635D01*
X0267121Y0119635D02*
X0265520Y0119635D01*
X0264359Y0119635D02*
X0264359Y0117233D01*
X0262757Y0119635D01*
X0262757Y0117233D01*
X0261597Y0117233D02*
X0261597Y0118834D01*
X0260796Y0119635D01*
X0259995Y0118834D01*
X0259995Y0117233D01*
X0259995Y0118434D02*
X0261597Y0118434D01*
X0169876Y0109069D02*
X0169309Y0109636D01*
X0168175Y0109636D01*
X0167608Y0109069D01*
X0169876Y0109069D02*
X0169876Y0108502D01*
X0167608Y0106233D01*
X0169876Y0106233D01*
X0168035Y0103636D02*
X0166901Y0103069D01*
X0165766Y0101935D01*
X0167468Y0101935D01*
X0168035Y0101367D01*
X0168035Y0100800D01*
X0167468Y0100233D01*
X0166333Y0100233D01*
X0165766Y0100800D01*
X0165766Y0101935D01*
X0164352Y0103069D02*
X0163785Y0103636D01*
X0162650Y0103636D01*
X0162083Y0103069D01*
X0162083Y0100800D01*
X0162650Y0100233D01*
X0163785Y0100233D01*
X0164352Y0100800D01*
X0164352Y0103069D01*
X0160762Y0103636D02*
X0159628Y0103636D01*
X0160195Y0103636D02*
X0160195Y0100233D01*
X0159628Y0100233D02*
X0160762Y0100233D01*
X0158213Y0101935D02*
X0157646Y0101367D01*
X0155945Y0101367D01*
X0155945Y0100233D02*
X0155945Y0103636D01*
X0157646Y0103636D01*
X0158213Y0103069D01*
X0158213Y0101935D01*
X0154530Y0101935D02*
X0154530Y0100800D01*
X0153963Y0100233D01*
X0152829Y0100233D01*
X0152261Y0100800D01*
X0152261Y0103069D01*
X0152829Y0103636D01*
X0153963Y0103636D01*
X0154530Y0103069D01*
X0154530Y0101935D02*
X0153396Y0101935D01*
X0152688Y0106233D02*
X0150987Y0106233D01*
X0150420Y0106800D01*
X0150420Y0107935D01*
X0150987Y0108502D01*
X0152688Y0108502D01*
X0152688Y0109636D02*
X0152688Y0106233D01*
X0154103Y0106800D02*
X0154103Y0108502D01*
X0154103Y0106800D02*
X0154670Y0106233D01*
X0156372Y0106233D01*
X0156372Y0108502D01*
X0157786Y0109636D02*
X0158353Y0109636D01*
X0158353Y0106233D01*
X0157786Y0106233D02*
X0158920Y0106233D01*
X0160242Y0106800D02*
X0160242Y0107935D01*
X0160809Y0108502D01*
X0161943Y0108502D01*
X0162510Y0107935D01*
X0162510Y0107367D01*
X0160242Y0107367D01*
X0160242Y0106800D02*
X0160809Y0106233D01*
X0161943Y0106233D01*
X0149005Y0106800D02*
X0149005Y0107935D01*
X0148438Y0108502D01*
X0147304Y0108502D01*
X0146737Y0107935D01*
X0146737Y0106800D01*
X0147304Y0106233D01*
X0148438Y0106233D01*
X0149005Y0106800D01*
X0145322Y0106233D02*
X0145322Y0109636D01*
X0144188Y0108502D01*
X0143054Y0109636D01*
X0143054Y0106233D01*
X0141212Y0103636D02*
X0141212Y0100233D01*
X0142913Y0100233D01*
X0143481Y0100800D01*
X0143481Y0101935D01*
X0142913Y0102502D01*
X0141212Y0102502D01*
X0144895Y0102502D02*
X0144895Y0100800D01*
X0145462Y0100233D01*
X0147164Y0100233D01*
X0147164Y0099666D02*
X0146597Y0099099D01*
X0146029Y0099099D01*
X0147164Y0099666D02*
X0147164Y0102502D01*
X0137956Y0107367D02*
X0135687Y0107367D01*
X0135687Y0106800D02*
X0135687Y0107935D01*
X0136254Y0108502D01*
X0137389Y0108502D01*
X0137956Y0107935D01*
X0137956Y0107367D01*
X0137389Y0106233D02*
X0136254Y0106233D01*
X0135687Y0106800D01*
X0134366Y0106233D02*
X0133232Y0106233D01*
X0133799Y0106233D02*
X0133799Y0109636D01*
X0133232Y0109636D01*
X0131817Y0107935D02*
X0131250Y0108502D01*
X0129549Y0108502D01*
X0129549Y0109636D02*
X0129549Y0106233D01*
X0131250Y0106233D01*
X0131817Y0106800D01*
X0131817Y0107935D01*
X0128134Y0107935D02*
X0128134Y0106233D01*
X0126433Y0106233D01*
X0125866Y0106800D01*
X0126433Y0107367D01*
X0128134Y0107367D01*
X0128134Y0107935D02*
X0127567Y0108502D01*
X0126433Y0108502D01*
X0124451Y0107935D02*
X0124451Y0106233D01*
X0124451Y0107935D02*
X0123884Y0108502D01*
X0122182Y0108502D01*
X0122182Y0106233D01*
X0120768Y0106233D02*
X0118499Y0106233D01*
X0118499Y0109636D01*
X0120768Y0109636D01*
X0119634Y0107935D02*
X0118499Y0107935D01*
X0120341Y0103636D02*
X0122042Y0103636D01*
X0122609Y0103069D01*
X0122609Y0101935D01*
X0122042Y0101367D01*
X0120341Y0101367D01*
X0120341Y0100233D02*
X0120341Y0103636D01*
X0121475Y0101367D02*
X0122609Y0100233D01*
X0124024Y0100800D02*
X0124024Y0101935D01*
X0124591Y0102502D01*
X0125725Y0102502D01*
X0126293Y0101935D01*
X0126293Y0101367D01*
X0124024Y0101367D01*
X0124024Y0100800D02*
X0124591Y0100233D01*
X0125725Y0100233D01*
X0127707Y0100233D02*
X0129409Y0100233D01*
X0129976Y0100800D01*
X0129409Y0101367D01*
X0128274Y0101367D01*
X0127707Y0101935D01*
X0128274Y0102502D01*
X0129976Y0102502D01*
X0131390Y0101935D02*
X0131390Y0100800D01*
X0131957Y0100233D01*
X0133092Y0100233D01*
X0133659Y0101367D02*
X0131390Y0101367D01*
X0131390Y0101935D02*
X0131957Y0102502D01*
X0133092Y0102502D01*
X0133659Y0101935D01*
X0133659Y0101367D01*
X0135073Y0102502D02*
X0136208Y0102502D01*
X0135641Y0103069D02*
X0135641Y0100800D01*
X0136208Y0100233D01*
X0146029Y0122099D02*
X0146597Y0122099D01*
X0147164Y0122666D01*
X0147164Y0125502D01*
X0144895Y0125502D02*
X0144895Y0123800D01*
X0145462Y0123233D01*
X0147164Y0123233D01*
X0152261Y0123800D02*
X0152261Y0126069D01*
X0152829Y0126636D01*
X0153963Y0126636D01*
X0154530Y0126069D01*
X0154530Y0124935D02*
X0153396Y0124935D01*
X0154530Y0124935D02*
X0154530Y0123800D01*
X0153963Y0123233D01*
X0152829Y0123233D01*
X0152261Y0123800D01*
X0155945Y0123233D02*
X0155945Y0126636D01*
X0157646Y0126636D01*
X0158213Y0126069D01*
X0158213Y0124935D01*
X0157646Y0124367D01*
X0155945Y0124367D01*
X0159628Y0123233D02*
X0160762Y0123233D01*
X0160195Y0123233D02*
X0160195Y0126636D01*
X0159628Y0126636D02*
X0160762Y0126636D01*
X0162083Y0126069D02*
X0162083Y0123800D01*
X0162650Y0123233D01*
X0163785Y0123233D01*
X0164352Y0123800D01*
X0164352Y0126069D01*
X0163785Y0126636D01*
X0162650Y0126636D01*
X0162083Y0126069D01*
X0161943Y0129233D02*
X0160809Y0129233D01*
X0160242Y0129800D01*
X0160242Y0130935D01*
X0160809Y0131502D01*
X0161943Y0131502D01*
X0162510Y0130935D01*
X0162510Y0130367D01*
X0160242Y0130367D01*
X0158920Y0129233D02*
X0157786Y0129233D01*
X0158353Y0129233D02*
X0158353Y0132636D01*
X0157786Y0132636D01*
X0156372Y0131502D02*
X0156372Y0129233D01*
X0154670Y0129233D01*
X0154103Y0129800D01*
X0154103Y0131502D01*
X0152688Y0131502D02*
X0150987Y0131502D01*
X0150420Y0130935D01*
X0150420Y0129800D01*
X0150987Y0129233D01*
X0152688Y0129233D01*
X0152688Y0132636D01*
X0149005Y0130935D02*
X0149005Y0129800D01*
X0148438Y0129233D01*
X0147304Y0129233D01*
X0146737Y0129800D01*
X0146737Y0130935D01*
X0147304Y0131502D01*
X0148438Y0131502D01*
X0149005Y0130935D01*
X0145322Y0132636D02*
X0145322Y0129233D01*
X0143054Y0129233D02*
X0143054Y0132636D01*
X0144188Y0131502D01*
X0145322Y0132636D01*
X0141212Y0126636D02*
X0141212Y0123233D01*
X0142913Y0123233D01*
X0143481Y0123800D01*
X0143481Y0124935D01*
X0142913Y0125502D01*
X0141212Y0125502D01*
X0137389Y0129233D02*
X0136254Y0129233D01*
X0135687Y0129800D01*
X0135687Y0130935D01*
X0136254Y0131502D01*
X0137389Y0131502D01*
X0137956Y0130935D01*
X0137956Y0130367D01*
X0135687Y0130367D01*
X0134366Y0129233D02*
X0133232Y0129233D01*
X0133799Y0129233D02*
X0133799Y0132636D01*
X0133232Y0132636D01*
X0131817Y0130935D02*
X0131250Y0131502D01*
X0129549Y0131502D01*
X0129549Y0132636D02*
X0129549Y0129233D01*
X0131250Y0129233D01*
X0131817Y0129800D01*
X0131817Y0130935D01*
X0128134Y0130935D02*
X0128134Y0129233D01*
X0126433Y0129233D01*
X0125866Y0129800D01*
X0126433Y0130367D01*
X0128134Y0130367D01*
X0128134Y0130935D02*
X0127567Y0131502D01*
X0126433Y0131502D01*
X0124451Y0130935D02*
X0124451Y0129233D01*
X0124451Y0130935D02*
X0123884Y0131502D01*
X0122182Y0131502D01*
X0122182Y0129233D01*
X0120768Y0129233D02*
X0118499Y0129233D01*
X0118499Y0132636D01*
X0120768Y0132636D01*
X0119634Y0130935D02*
X0118499Y0130935D01*
X0120341Y0126636D02*
X0122042Y0126636D01*
X0122609Y0126069D01*
X0122609Y0124935D01*
X0122042Y0124367D01*
X0120341Y0124367D01*
X0120341Y0123233D02*
X0120341Y0126636D01*
X0121475Y0124367D02*
X0122609Y0123233D01*
X0124024Y0123800D02*
X0124024Y0124935D01*
X0124591Y0125502D01*
X0125725Y0125502D01*
X0126293Y0124935D01*
X0126293Y0124367D01*
X0124024Y0124367D01*
X0124024Y0123800D02*
X0124591Y0123233D01*
X0125725Y0123233D01*
X0127707Y0123233D02*
X0129409Y0123233D01*
X0129976Y0123800D01*
X0129409Y0124367D01*
X0128274Y0124367D01*
X0127707Y0124935D01*
X0128274Y0125502D01*
X0129976Y0125502D01*
X0131390Y0124935D02*
X0131957Y0125502D01*
X0133092Y0125502D01*
X0133659Y0124935D01*
X0133659Y0124367D01*
X0131390Y0124367D01*
X0131390Y0123800D02*
X0131390Y0124935D01*
X0131390Y0123800D02*
X0131957Y0123233D01*
X0133092Y0123233D01*
X0135641Y0123800D02*
X0135641Y0126069D01*
X0136208Y0125502D02*
X0135073Y0125502D01*
X0135641Y0123800D02*
X0136208Y0123233D01*
X0165766Y0123800D02*
X0166333Y0123233D01*
X0167468Y0123233D01*
X0168035Y0123800D01*
X0168035Y0124935D01*
X0167468Y0125502D01*
X0166901Y0125502D01*
X0165766Y0124935D01*
X0165766Y0126636D01*
X0168035Y0126636D01*
X0167608Y0129233D02*
X0169876Y0129233D01*
X0168742Y0129233D02*
X0168742Y0132636D01*
X0167608Y0131502D01*
X0222188Y0203099D02*
X0222755Y0203099D01*
X0223322Y0203666D01*
X0223322Y0206502D01*
X0221054Y0206502D02*
X0221054Y0204800D01*
X0221621Y0204233D01*
X0223322Y0204233D01*
X0219639Y0204800D02*
X0219639Y0205935D01*
X0219072Y0206502D01*
X0217370Y0206502D01*
X0217370Y0207636D02*
X0217370Y0204233D01*
X0219072Y0204233D01*
X0219639Y0204800D01*
X0221054Y0210233D02*
X0221054Y0213636D01*
X0222188Y0212502D01*
X0223322Y0213636D01*
X0223322Y0210233D01*
X0224737Y0210800D02*
X0224737Y0211935D01*
X0225304Y0212502D01*
X0226438Y0212502D01*
X0227005Y0211935D01*
X0227005Y0210800D01*
X0226438Y0210233D01*
X0225304Y0210233D01*
X0224737Y0210800D01*
X0228420Y0210800D02*
X0228420Y0211935D01*
X0228987Y0212502D01*
X0230688Y0212502D01*
X0230688Y0213636D02*
X0230688Y0210233D01*
X0228987Y0210233D01*
X0228420Y0210800D01*
X0228987Y0207636D02*
X0228420Y0207069D01*
X0228420Y0204800D01*
X0228987Y0204233D01*
X0230121Y0204233D01*
X0230688Y0204800D01*
X0230688Y0205935D01*
X0229554Y0205935D01*
X0230688Y0207069D02*
X0230121Y0207636D01*
X0228987Y0207636D01*
X0232103Y0207636D02*
X0232103Y0204233D01*
X0232103Y0205367D02*
X0233804Y0205367D01*
X0234372Y0205935D01*
X0234372Y0207069D01*
X0233804Y0207636D01*
X0232103Y0207636D01*
X0232670Y0210233D02*
X0234372Y0210233D01*
X0234372Y0212502D01*
X0235786Y0213636D02*
X0236353Y0213636D01*
X0236353Y0210233D01*
X0235786Y0210233D02*
X0236920Y0210233D01*
X0238242Y0210800D02*
X0238242Y0211935D01*
X0238809Y0212502D01*
X0239943Y0212502D01*
X0240510Y0211935D01*
X0240510Y0211367D01*
X0238242Y0211367D01*
X0238242Y0210800D02*
X0238809Y0210233D01*
X0239943Y0210233D01*
X0239943Y0207636D02*
X0240510Y0207069D01*
X0240510Y0204800D01*
X0239943Y0204233D01*
X0238809Y0204233D01*
X0238242Y0204800D01*
X0238242Y0207069D01*
X0238809Y0207636D01*
X0239943Y0207636D01*
X0241925Y0206502D02*
X0243059Y0207636D01*
X0243059Y0204233D01*
X0241925Y0204233D02*
X0244193Y0204233D01*
X0245608Y0204800D02*
X0246175Y0204233D01*
X0247309Y0204233D01*
X0247876Y0204800D01*
X0247876Y0205367D01*
X0247309Y0205935D01*
X0246742Y0205935D01*
X0247309Y0205935D02*
X0247876Y0206502D01*
X0247876Y0207069D01*
X0247309Y0207636D01*
X0246175Y0207636D01*
X0245608Y0207069D01*
X0246175Y0210233D02*
X0245608Y0210800D01*
X0246175Y0210233D02*
X0247309Y0210233D01*
X0247876Y0210800D01*
X0247876Y0211367D01*
X0247309Y0211935D01*
X0246742Y0211935D01*
X0247309Y0211935D02*
X0247876Y0212502D01*
X0247876Y0213069D01*
X0247309Y0213636D01*
X0246175Y0213636D01*
X0245608Y0213069D01*
X0236920Y0207636D02*
X0235786Y0207636D01*
X0236353Y0207636D02*
X0236353Y0204233D01*
X0235786Y0204233D02*
X0236920Y0204233D01*
X0232670Y0210233D02*
X0232103Y0210800D01*
X0232103Y0212502D01*
X0215956Y0211935D02*
X0215956Y0211367D01*
X0213687Y0211367D01*
X0213687Y0210800D02*
X0213687Y0211935D01*
X0214254Y0212502D01*
X0215389Y0212502D01*
X0215956Y0211935D01*
X0215389Y0210233D02*
X0214254Y0210233D01*
X0213687Y0210800D01*
X0212366Y0210233D02*
X0211232Y0210233D01*
X0211799Y0210233D02*
X0211799Y0213636D01*
X0211232Y0213636D01*
X0209817Y0211935D02*
X0209817Y0210800D01*
X0209250Y0210233D01*
X0207549Y0210233D01*
X0207549Y0213636D01*
X0207549Y0212502D02*
X0209250Y0212502D01*
X0209817Y0211935D01*
X0206134Y0211935D02*
X0206134Y0210233D01*
X0204433Y0210233D01*
X0203866Y0210800D01*
X0204433Y0211367D01*
X0206134Y0211367D01*
X0206134Y0211935D02*
X0205567Y0212502D01*
X0204433Y0212502D01*
X0202451Y0211935D02*
X0202451Y0210233D01*
X0202451Y0211935D02*
X0201884Y0212502D01*
X0200182Y0212502D01*
X0200182Y0210233D01*
X0198768Y0210233D02*
X0196499Y0210233D01*
X0196499Y0213636D01*
X0198768Y0213636D01*
X0197634Y0211935D02*
X0196499Y0211935D01*
X0196499Y0207636D02*
X0198201Y0207636D01*
X0198768Y0207069D01*
X0198768Y0205935D01*
X0198201Y0205367D01*
X0196499Y0205367D01*
X0196499Y0204233D02*
X0196499Y0207636D01*
X0197634Y0205367D02*
X0198768Y0204233D01*
X0200182Y0204800D02*
X0200182Y0205935D01*
X0200750Y0206502D01*
X0201884Y0206502D01*
X0202451Y0205935D01*
X0202451Y0205367D01*
X0200182Y0205367D01*
X0200182Y0204800D02*
X0200750Y0204233D01*
X0201884Y0204233D01*
X0203866Y0204233D02*
X0205567Y0204233D01*
X0206134Y0204800D01*
X0205567Y0205367D01*
X0204433Y0205367D01*
X0203866Y0205935D01*
X0204433Y0206502D01*
X0206134Y0206502D01*
X0207549Y0205935D02*
X0207549Y0204800D01*
X0208116Y0204233D01*
X0209250Y0204233D01*
X0209817Y0205367D02*
X0207549Y0205367D01*
X0207549Y0205935D02*
X0208116Y0206502D01*
X0209250Y0206502D01*
X0209817Y0205935D01*
X0209817Y0205367D01*
X0211232Y0206502D02*
X0212366Y0206502D01*
X0211799Y0207069D02*
X0211799Y0204800D01*
X0212366Y0204233D01*
X0282549Y0196069D02*
X0282549Y0193800D01*
X0283116Y0193233D01*
X0284250Y0193233D01*
X0284817Y0193800D01*
X0286232Y0193800D02*
X0286799Y0193233D01*
X0287933Y0193233D01*
X0288500Y0193800D01*
X0288500Y0194367D01*
X0287933Y0194935D01*
X0286799Y0194935D01*
X0286232Y0195502D01*
X0286232Y0196069D01*
X0286799Y0196636D01*
X0287933Y0196636D01*
X0288500Y0196069D01*
X0288027Y0199233D02*
X0287460Y0199800D01*
X0287460Y0200935D01*
X0288027Y0201502D01*
X0289161Y0201502D01*
X0289728Y0200935D01*
X0289728Y0199800D01*
X0289161Y0199233D01*
X0288027Y0199233D01*
X0286045Y0199233D02*
X0286045Y0202636D01*
X0284911Y0201502D01*
X0283776Y0202636D01*
X0283776Y0199233D01*
X0284250Y0196636D02*
X0283116Y0196636D01*
X0282549Y0196069D01*
X0284250Y0196636D02*
X0284817Y0196069D01*
X0291143Y0199800D02*
X0291143Y0200935D01*
X0291710Y0201502D01*
X0293411Y0201502D01*
X0293411Y0202636D02*
X0293411Y0199233D01*
X0291710Y0199233D01*
X0291143Y0199800D01*
X0294826Y0199800D02*
X0294826Y0201502D01*
X0294826Y0199800D02*
X0295393Y0199233D01*
X0297094Y0199233D01*
X0297094Y0201502D01*
X0298509Y0202636D02*
X0299076Y0202636D01*
X0299076Y0199233D01*
X0298509Y0199233D02*
X0299643Y0199233D01*
X0300964Y0199800D02*
X0300964Y0200935D01*
X0301532Y0201502D01*
X0302666Y0201502D01*
X0303233Y0200935D01*
X0303233Y0200367D01*
X0300964Y0200367D01*
X0300964Y0199800D02*
X0301532Y0199233D01*
X0302666Y0199233D01*
X0301532Y0196636D02*
X0301532Y0193233D01*
X0302099Y0193233D02*
X0300964Y0193233D01*
X0299550Y0194367D02*
X0297281Y0194367D01*
X0297281Y0193800D02*
X0297281Y0194935D01*
X0297848Y0195502D01*
X0298983Y0195502D01*
X0299550Y0194935D01*
X0299550Y0194367D01*
X0298983Y0193233D02*
X0297848Y0193233D01*
X0297281Y0193800D01*
X0295867Y0193800D02*
X0295300Y0194367D01*
X0294165Y0194367D01*
X0293598Y0194935D01*
X0294165Y0195502D01*
X0295867Y0195502D01*
X0295867Y0193800D02*
X0295300Y0193233D01*
X0293598Y0193233D01*
X0300964Y0196636D02*
X0301532Y0196636D01*
X0303420Y0194935D02*
X0303987Y0195502D01*
X0305121Y0195502D01*
X0305688Y0194935D01*
X0305688Y0194367D01*
X0303420Y0194367D01*
X0303420Y0193800D02*
X0303420Y0194935D01*
X0303420Y0193800D02*
X0303987Y0193233D01*
X0305121Y0193233D01*
X0307103Y0193800D02*
X0307670Y0193233D01*
X0309372Y0193233D01*
X0311353Y0193800D02*
X0311353Y0196069D01*
X0310786Y0195502D02*
X0311920Y0195502D01*
X0311353Y0193800D02*
X0311920Y0193233D01*
X0309372Y0195502D02*
X0307670Y0195502D01*
X0307103Y0194935D01*
X0307103Y0193800D01*
X0308898Y0199233D02*
X0308331Y0199800D01*
X0308898Y0199233D02*
X0310032Y0199233D01*
X0310599Y0199800D01*
X0310599Y0200367D01*
X0310032Y0200935D01*
X0309465Y0200935D01*
X0310032Y0200935D02*
X0310599Y0201502D01*
X0310599Y0202069D01*
X0310032Y0202636D01*
X0308898Y0202636D01*
X0308331Y0202069D01*
D14*
X0314843Y0205516D02*
X0314843Y0206517D01*
X0314843Y0206016D02*
X0317345Y0206016D01*
X0317845Y0205516D01*
X0317845Y0205015D01*
X0317345Y0204515D01*
X0317845Y0207738D02*
X0314843Y0207738D01*
X0314843Y0209239D01*
X0315343Y0209739D01*
X0316344Y0209739D01*
X0316844Y0209239D01*
X0316844Y0207738D01*
X0315843Y0210960D02*
X0314843Y0211961D01*
X0317845Y0211961D01*
X0317845Y0210960D02*
X0317845Y0212962D01*
X0314032Y0215933D02*
X0314032Y0216434D01*
X0313532Y0216934D01*
X0312031Y0216934D01*
X0312031Y0215933D01*
X0312531Y0215433D01*
X0313532Y0215433D01*
X0314032Y0215933D01*
X0313032Y0217935D02*
X0312031Y0216934D01*
X0310810Y0217435D02*
X0310810Y0217935D01*
X0310309Y0218436D01*
X0309308Y0218436D01*
X0308808Y0217935D01*
X0307587Y0217935D02*
X0307087Y0218436D01*
X0306086Y0218436D01*
X0305585Y0217935D01*
X0305585Y0215933D01*
X0306086Y0215433D01*
X0307087Y0215433D01*
X0307587Y0215933D01*
X0307587Y0217935D01*
X0308808Y0215433D02*
X0310810Y0217435D01*
X0310810Y0215433D02*
X0308808Y0215433D01*
X0304438Y0215433D02*
X0303437Y0215433D01*
X0303937Y0215433D02*
X0303937Y0218436D01*
X0303437Y0218436D02*
X0304438Y0218436D01*
X0299847Y0217935D02*
X0299346Y0218436D01*
X0298346Y0218436D01*
X0297845Y0217935D01*
X0297845Y0217435D01*
X0298346Y0216934D01*
X0299346Y0216934D01*
X0299847Y0216434D01*
X0299847Y0215933D01*
X0299346Y0215433D01*
X0298346Y0215433D01*
X0297845Y0215933D01*
X0296624Y0215933D02*
X0296124Y0215433D01*
X0295123Y0215433D01*
X0294622Y0215933D01*
X0294622Y0217935D01*
X0295123Y0218436D01*
X0296124Y0218436D01*
X0296624Y0217935D01*
X0289958Y0217935D02*
X0287957Y0215933D01*
X0288457Y0215433D01*
X0289458Y0215433D01*
X0289958Y0215933D01*
X0289958Y0217935D01*
X0289458Y0218436D01*
X0288457Y0218436D01*
X0287957Y0217935D01*
X0287957Y0215933D01*
X0286735Y0215433D02*
X0284734Y0215433D01*
X0284734Y0218436D01*
X0286735Y0218436D01*
X0285735Y0216934D02*
X0284734Y0216934D01*
X0283513Y0215933D02*
X0283012Y0215433D01*
X0282011Y0215433D01*
X0281511Y0215933D01*
X0281511Y0217935D01*
X0282011Y0218436D01*
X0283012Y0218436D01*
X0283513Y0217935D01*
X0275845Y0213712D02*
X0275845Y0212711D01*
X0275345Y0212210D01*
X0275845Y0210989D02*
X0275845Y0208988D01*
X0275845Y0209988D02*
X0272843Y0209988D01*
X0273843Y0208988D01*
X0273343Y0207767D02*
X0274344Y0207767D01*
X0274844Y0207266D01*
X0274844Y0205765D01*
X0275845Y0205765D02*
X0272843Y0205765D01*
X0272843Y0207266D01*
X0273343Y0207767D01*
X0272843Y0204544D02*
X0272843Y0203543D01*
X0272843Y0204043D02*
X0275345Y0204043D01*
X0275845Y0203543D01*
X0275845Y0203042D01*
X0275345Y0202542D01*
X0273343Y0212210D02*
X0272843Y0212711D01*
X0272843Y0213712D01*
X0273343Y0214212D01*
X0273843Y0214212D01*
X0274344Y0213712D01*
X0274844Y0214212D01*
X0275345Y0214212D01*
X0275845Y0213712D01*
X0274344Y0213712D02*
X0274344Y0213211D01*
X0269957Y0215433D02*
X0269957Y0218436D01*
X0268957Y0218436D02*
X0270958Y0218436D01*
X0267735Y0217935D02*
X0267235Y0218436D01*
X0266234Y0218436D01*
X0265734Y0217935D01*
X0265734Y0217435D01*
X0266234Y0216934D01*
X0267235Y0216934D01*
X0267735Y0216434D01*
X0267735Y0215933D01*
X0267235Y0215433D01*
X0266234Y0215433D01*
X0265734Y0215933D01*
X0264513Y0215433D02*
X0263512Y0216434D01*
X0264012Y0216434D02*
X0262511Y0216434D01*
X0262511Y0215433D02*
X0262511Y0218436D01*
X0264012Y0218436D01*
X0264513Y0217935D01*
X0264513Y0216934D01*
X0264012Y0216434D01*
X0259032Y0216434D02*
X0259032Y0215933D01*
X0258532Y0215433D01*
X0257531Y0215433D01*
X0257031Y0215933D01*
X0255810Y0215433D02*
X0253808Y0215433D01*
X0254809Y0215433D02*
X0254809Y0218436D01*
X0253808Y0217435D01*
X0252587Y0217935D02*
X0252087Y0218436D01*
X0251086Y0218436D01*
X0250585Y0217935D01*
X0250585Y0215933D01*
X0251086Y0215433D01*
X0252087Y0215433D01*
X0252587Y0215933D01*
X0252587Y0217935D01*
X0249438Y0218436D02*
X0248437Y0218436D01*
X0248937Y0218436D02*
X0248937Y0215433D01*
X0248437Y0215433D02*
X0249438Y0215433D01*
X0257031Y0217935D02*
X0257531Y0218436D01*
X0258532Y0218436D01*
X0259032Y0217935D01*
X0259032Y0217435D01*
X0258532Y0216934D01*
X0259032Y0216434D01*
X0258532Y0216934D02*
X0258032Y0216934D01*
X0249819Y0193186D02*
X0250320Y0192685D01*
X0250320Y0192185D01*
X0249819Y0191684D01*
X0250320Y0191184D01*
X0250320Y0190683D01*
X0249819Y0190183D01*
X0248818Y0190183D01*
X0248318Y0190683D01*
X0247097Y0190683D02*
X0246596Y0190183D01*
X0245596Y0190183D01*
X0245095Y0190683D01*
X0245095Y0192685D01*
X0245596Y0193186D01*
X0246596Y0193186D01*
X0247097Y0192685D01*
X0248318Y0192685D02*
X0248818Y0193186D01*
X0249819Y0193186D01*
X0249819Y0191684D02*
X0249319Y0191684D01*
X0242845Y0187601D02*
X0239843Y0187601D01*
X0239843Y0189603D01*
X0241344Y0188602D02*
X0241344Y0187601D01*
X0240843Y0186380D02*
X0242845Y0186380D01*
X0242845Y0184879D01*
X0242345Y0184379D01*
X0240843Y0184379D01*
X0240343Y0183158D02*
X0242345Y0183158D01*
X0242845Y0182657D01*
X0242845Y0181656D01*
X0242345Y0181156D01*
X0240343Y0183158D01*
X0239843Y0182657D01*
X0239843Y0181656D01*
X0240343Y0181156D01*
X0242345Y0181156D01*
X0242845Y0179935D02*
X0242845Y0177933D01*
X0242845Y0178934D02*
X0239843Y0178934D01*
X0240843Y0177933D01*
X0256099Y0174209D02*
X0256099Y0097437D01*
X0245069Y0120433D02*
X0245069Y0123436D01*
X0243568Y0121934D01*
X0245570Y0121934D01*
X0242347Y0120933D02*
X0241846Y0120433D01*
X0240846Y0120433D01*
X0240345Y0120933D01*
X0240345Y0122935D01*
X0240846Y0123436D01*
X0241846Y0123436D01*
X0242347Y0122935D01*
X0256099Y0124937D02*
X0256099Y0187929D01*
X0275093Y0176358D02*
X0278095Y0176358D01*
X0277094Y0175357D01*
X0278095Y0174356D01*
X0275093Y0174356D01*
X0275593Y0173135D02*
X0275093Y0172635D01*
X0275093Y0171634D01*
X0275593Y0171133D01*
X0277595Y0171133D01*
X0278095Y0171634D01*
X0278095Y0172635D01*
X0277595Y0173135D01*
X0277595Y0169912D02*
X0275593Y0169912D01*
X0275093Y0169412D01*
X0275093Y0168411D01*
X0275593Y0167911D01*
X0276093Y0167911D01*
X0276594Y0168411D01*
X0276594Y0169912D01*
X0277595Y0169912D02*
X0278095Y0169412D01*
X0278095Y0168411D01*
X0277595Y0167911D01*
X0277595Y0166690D02*
X0277094Y0166690D01*
X0276594Y0166189D01*
X0276594Y0164688D01*
X0277595Y0164688D01*
X0278095Y0165188D01*
X0278095Y0166189D01*
X0277595Y0166690D01*
X0275593Y0165689D02*
X0276594Y0164688D01*
X0275593Y0165689D02*
X0275093Y0166690D01*
X0275093Y0163467D02*
X0278095Y0163467D01*
X0278095Y0161465D02*
X0275093Y0161465D01*
X0276093Y0162466D01*
X0275093Y0163467D01*
X0275093Y0160244D02*
X0275093Y0158242D01*
X0278095Y0158242D01*
X0278095Y0157021D02*
X0277094Y0156020D01*
X0277094Y0156521D02*
X0277094Y0155020D01*
X0278095Y0155020D02*
X0275093Y0155020D01*
X0275093Y0156521D01*
X0275593Y0157021D01*
X0276594Y0157021D01*
X0277094Y0156521D01*
X0276594Y0158242D02*
X0276594Y0159243D01*
X0275093Y0153799D02*
X0278095Y0151797D01*
X0278095Y0150576D02*
X0278095Y0148574D01*
X0276093Y0150576D01*
X0275593Y0150576D01*
X0275093Y0150075D01*
X0275093Y0149074D01*
X0275593Y0148574D01*
X0275093Y0146352D02*
X0278095Y0146352D01*
X0278095Y0145351D02*
X0278095Y0147353D01*
X0276093Y0145351D02*
X0275093Y0146352D01*
X0275093Y0144130D02*
X0278095Y0144130D01*
X0278095Y0142129D02*
X0275093Y0142129D01*
X0276093Y0143129D01*
X0275093Y0144130D01*
X0275093Y0140908D02*
X0275093Y0138906D01*
X0278095Y0138906D01*
X0278095Y0137685D02*
X0277094Y0136684D01*
X0277094Y0137184D02*
X0277094Y0135683D01*
X0278095Y0135683D02*
X0275093Y0135683D01*
X0275093Y0137184D01*
X0275593Y0137685D01*
X0276594Y0137685D01*
X0277094Y0137184D01*
X0276594Y0138906D02*
X0276594Y0139907D01*
X0287343Y0140074D02*
X0287843Y0139574D01*
X0288343Y0139574D01*
X0288844Y0140074D01*
X0288844Y0141576D01*
X0289845Y0141576D02*
X0287843Y0141576D01*
X0287343Y0141075D01*
X0287343Y0140074D01*
X0287343Y0138353D02*
X0287843Y0137352D01*
X0288844Y0136351D01*
X0288844Y0137853D01*
X0289344Y0138353D01*
X0289845Y0138353D01*
X0290345Y0137853D01*
X0290345Y0136852D01*
X0289845Y0136351D01*
X0288844Y0136351D01*
X0287343Y0135130D02*
X0290345Y0135130D01*
X0290345Y0133129D02*
X0287343Y0133129D01*
X0288343Y0134129D01*
X0287343Y0135130D01*
X0287343Y0131908D02*
X0287343Y0129906D01*
X0290345Y0129906D01*
X0290345Y0128685D02*
X0289344Y0127684D01*
X0289344Y0128184D02*
X0289344Y0126683D01*
X0290345Y0126683D02*
X0287343Y0126683D01*
X0287343Y0128184D01*
X0287843Y0128685D01*
X0288844Y0128685D01*
X0289344Y0128184D01*
X0288844Y0129906D02*
X0288844Y0130907D01*
X0289845Y0139574D02*
X0290345Y0140074D01*
X0290345Y0141075D01*
X0289845Y0141576D01*
X0289344Y0142797D02*
X0288343Y0142797D01*
X0287343Y0143798D01*
X0287343Y0144945D02*
X0290345Y0144945D01*
X0290345Y0143798D02*
X0289344Y0142797D01*
X0288844Y0144945D02*
X0288844Y0146947D01*
X0287343Y0146947D02*
X0290345Y0146947D01*
X0290345Y0148168D02*
X0289344Y0149169D01*
X0288343Y0149169D01*
X0287343Y0148168D01*
X0287343Y0150317D02*
X0290345Y0150317D01*
X0289344Y0151317D01*
X0290345Y0152318D01*
X0287343Y0152318D01*
X0319091Y0174209D02*
X0319091Y0097437D01*
X0311542Y0083936D02*
X0310541Y0083936D01*
X0310041Y0083435D01*
X0310041Y0081433D01*
X0312042Y0083435D01*
X0312042Y0081433D01*
X0311542Y0080933D01*
X0310541Y0080933D01*
X0310041Y0081433D01*
X0308820Y0081433D02*
X0308820Y0083435D01*
X0308319Y0083936D01*
X0307318Y0083936D01*
X0306818Y0083435D01*
X0306818Y0082935D01*
X0307318Y0082434D01*
X0308820Y0082434D01*
X0308820Y0081433D02*
X0308319Y0080933D01*
X0307318Y0080933D01*
X0306818Y0081433D01*
X0305597Y0081433D02*
X0305096Y0080933D01*
X0304096Y0080933D01*
X0303595Y0081433D01*
X0304596Y0082434D02*
X0305096Y0082434D01*
X0305597Y0081934D01*
X0305597Y0081433D01*
X0305096Y0082434D02*
X0305597Y0082935D01*
X0305597Y0083435D01*
X0305096Y0083936D01*
X0304096Y0083936D01*
X0303595Y0083435D01*
X0311542Y0083936D02*
X0312042Y0083435D01*
X0314593Y0078657D02*
X0316094Y0077156D01*
X0316094Y0079158D01*
X0317595Y0078657D02*
X0314593Y0078657D01*
X0315093Y0075935D02*
X0316094Y0075935D01*
X0316594Y0075434D01*
X0316594Y0073933D01*
X0316594Y0074934D02*
X0317595Y0075935D01*
X0317595Y0073933D02*
X0314593Y0073933D01*
X0314593Y0075434D01*
X0315093Y0075935D01*
X0312190Y0062936D02*
X0311190Y0062936D01*
X0310689Y0062435D01*
X0310689Y0061935D01*
X0311190Y0061434D01*
X0312691Y0061434D01*
X0312691Y0060433D02*
X0312691Y0062435D01*
X0312190Y0062936D01*
X0312691Y0060433D02*
X0312190Y0059933D01*
X0311190Y0059933D01*
X0310689Y0060433D01*
X0309468Y0059933D02*
X0307466Y0059933D01*
X0308467Y0059933D02*
X0308467Y0062936D01*
X0307466Y0061935D01*
X0306245Y0062435D02*
X0305745Y0062936D01*
X0304744Y0062936D01*
X0304244Y0062435D01*
X0304244Y0060433D01*
X0304744Y0059933D01*
X0305745Y0059933D01*
X0306245Y0060433D01*
X0306245Y0062435D01*
X0303096Y0062936D02*
X0302095Y0062936D01*
X0302596Y0062936D02*
X0302596Y0059933D01*
X0303096Y0059933D02*
X0302095Y0059933D01*
X0278397Y0039317D02*
X0276896Y0039317D01*
X0276395Y0038817D01*
X0276395Y0037315D01*
X0278397Y0037315D01*
X0277896Y0036094D02*
X0277896Y0035094D01*
X0276395Y0036094D02*
X0279398Y0036094D01*
X0279398Y0034093D01*
X0279398Y0032872D02*
X0276395Y0032872D01*
X0276395Y0030870D01*
X0190371Y0029937D02*
X0127349Y0029937D01*
X0136345Y0040183D02*
X0145095Y0040183D01*
X0145095Y0052683D01*
X0136345Y0052683D01*
X0136345Y0040183D01*
X0157595Y0037683D02*
X0157595Y0057683D01*
X0178845Y0057683D01*
X0178845Y0037683D01*
X0157595Y0037683D01*
X0113124Y0052686D02*
X0111122Y0052686D01*
X0111122Y0049683D01*
X0109901Y0049683D02*
X0109901Y0051685D01*
X0111122Y0051184D02*
X0112123Y0051184D01*
X0109901Y0049683D02*
X0108400Y0049683D01*
X0107900Y0050183D01*
X0107900Y0051685D01*
X0106679Y0052185D02*
X0104677Y0050183D01*
X0105177Y0049683D01*
X0106178Y0049683D01*
X0106679Y0050183D01*
X0106679Y0052185D01*
X0106178Y0052686D01*
X0105177Y0052686D01*
X0104677Y0052185D01*
X0104677Y0050183D01*
X0103456Y0049683D02*
X0101454Y0049683D01*
X0102455Y0049683D02*
X0102455Y0052686D01*
X0101454Y0051685D01*
X0104900Y0061433D02*
X0105901Y0061433D01*
X0106401Y0061933D01*
X0107622Y0061433D02*
X0109624Y0063435D01*
X0109624Y0063935D01*
X0109124Y0064436D01*
X0108123Y0064436D01*
X0107622Y0063935D01*
X0106401Y0063935D02*
X0105901Y0064436D01*
X0104900Y0064436D01*
X0104400Y0063935D01*
X0104400Y0061933D01*
X0104900Y0061433D01*
X0107622Y0061433D02*
X0109624Y0061433D01*
X0077979Y0086131D02*
X0077979Y0087633D01*
X0077479Y0088133D01*
X0075978Y0088133D01*
X0075978Y0086131D01*
X0074757Y0086632D02*
X0073756Y0086632D01*
X0074757Y0088133D02*
X0074757Y0085131D01*
X0072755Y0085131D01*
X0071534Y0085131D02*
X0071534Y0088133D01*
X0069532Y0088133D01*
X0093427Y0107183D02*
X0093927Y0106683D01*
X0094928Y0106683D01*
X0095429Y0107183D01*
X0095429Y0107684D01*
X0094928Y0108184D01*
X0094428Y0108184D01*
X0094928Y0108184D02*
X0095429Y0108685D01*
X0095429Y0109185D01*
X0094928Y0109686D01*
X0093927Y0109686D01*
X0093427Y0109185D01*
X0096650Y0109185D02*
X0096650Y0108685D01*
X0097150Y0108184D01*
X0098651Y0108184D01*
X0098651Y0107183D02*
X0098651Y0109185D01*
X0098151Y0109686D01*
X0097150Y0109686D01*
X0096650Y0109185D01*
X0096650Y0107183D02*
X0097150Y0106683D01*
X0098151Y0106683D01*
X0098651Y0107183D01*
X0099872Y0107183D02*
X0101874Y0109185D01*
X0101874Y0107183D01*
X0101374Y0106683D01*
X0100373Y0106683D01*
X0099872Y0107183D01*
X0099872Y0109185D01*
X0100373Y0109686D01*
X0101374Y0109686D01*
X0101874Y0109185D01*
X0105150Y0112183D02*
X0105150Y0115186D01*
X0106651Y0115186D01*
X0107151Y0114685D01*
X0107151Y0113684D01*
X0106651Y0113184D01*
X0105150Y0113184D01*
X0106150Y0113184D02*
X0107151Y0112183D01*
X0108372Y0112183D02*
X0110374Y0114185D01*
X0110374Y0114685D01*
X0109874Y0115186D01*
X0108873Y0115186D01*
X0108372Y0114685D01*
X0108372Y0112183D02*
X0110374Y0112183D01*
X0110400Y0122183D02*
X0112401Y0122183D01*
X0111400Y0122183D02*
X0111400Y0125186D01*
X0110400Y0124185D01*
X0109179Y0124685D02*
X0108678Y0125186D01*
X0107677Y0125186D01*
X0107177Y0124685D01*
X0107177Y0122683D01*
X0107677Y0122183D01*
X0108678Y0122183D01*
X0109179Y0122683D01*
X0109179Y0124685D01*
X0106029Y0125186D02*
X0105028Y0125186D01*
X0105529Y0125186D02*
X0105529Y0122183D01*
X0106029Y0122183D02*
X0105028Y0122183D01*
X0113622Y0122183D02*
X0113622Y0122683D01*
X0115624Y0124685D01*
X0115624Y0125186D01*
X0113622Y0125186D01*
X0114190Y0137433D02*
X0113689Y0137933D01*
X0113689Y0138434D01*
X0114190Y0138934D01*
X0115190Y0138934D01*
X0115691Y0138434D01*
X0115691Y0137933D01*
X0115190Y0137433D01*
X0114190Y0137433D01*
X0114190Y0138934D02*
X0113689Y0139435D01*
X0113689Y0139935D01*
X0114190Y0140436D01*
X0115190Y0140436D01*
X0115691Y0139935D01*
X0115691Y0139435D01*
X0115190Y0138934D01*
X0112468Y0137433D02*
X0110466Y0137433D01*
X0111467Y0137433D02*
X0111467Y0140436D01*
X0110466Y0139435D01*
X0109245Y0139935D02*
X0109245Y0137933D01*
X0108745Y0137433D01*
X0107744Y0137433D01*
X0107244Y0137933D01*
X0107244Y0139935D01*
X0107744Y0140436D01*
X0108745Y0140436D01*
X0109245Y0139935D01*
X0106096Y0140436D02*
X0105095Y0140436D01*
X0105596Y0140436D02*
X0105596Y0137433D01*
X0106096Y0137433D02*
X0105095Y0137433D01*
X0105252Y0152183D02*
X0105252Y0155186D01*
X0105752Y0155186D02*
X0104751Y0155186D01*
X0106900Y0154685D02*
X0106900Y0152683D01*
X0107400Y0152183D01*
X0108401Y0152183D01*
X0108901Y0152683D01*
X0108901Y0154685D01*
X0108401Y0155186D01*
X0107400Y0155186D01*
X0106900Y0154685D01*
X0105752Y0152183D02*
X0104751Y0152183D01*
X0110122Y0153684D02*
X0112124Y0153684D01*
X0111624Y0152183D02*
X0111624Y0155186D01*
X0110122Y0153684D01*
X0112343Y0163488D02*
X0112343Y0164989D01*
X0112843Y0165489D01*
X0113844Y0165489D01*
X0114344Y0164989D01*
X0114344Y0163488D01*
X0114344Y0164488D02*
X0115345Y0165489D01*
X0114845Y0166710D02*
X0115345Y0167211D01*
X0115345Y0168212D01*
X0114845Y0168712D01*
X0114344Y0168712D01*
X0113844Y0168212D01*
X0113844Y0167711D01*
X0113844Y0168212D02*
X0113343Y0168712D01*
X0112843Y0168712D01*
X0112343Y0168212D01*
X0112343Y0167211D01*
X0112843Y0166710D01*
X0112343Y0163488D02*
X0115345Y0163488D01*
X0111792Y0173433D02*
X0110791Y0173433D01*
X0110291Y0173933D01*
X0112292Y0175935D01*
X0112292Y0173933D01*
X0111792Y0173433D01*
X0110291Y0173933D02*
X0110291Y0175935D01*
X0110791Y0176436D01*
X0111792Y0176436D01*
X0112292Y0175935D01*
X0109070Y0175935D02*
X0109070Y0173933D01*
X0108569Y0173433D01*
X0107568Y0173433D01*
X0107068Y0173933D01*
X0107568Y0174934D02*
X0109070Y0174934D01*
X0109070Y0175935D02*
X0108569Y0176436D01*
X0107568Y0176436D01*
X0107068Y0175935D01*
X0107068Y0175435D01*
X0107568Y0174934D01*
X0105847Y0174434D02*
X0105847Y0173933D01*
X0105346Y0173433D01*
X0104346Y0173433D01*
X0103845Y0173933D01*
X0104846Y0174934D02*
X0105346Y0174934D01*
X0105847Y0174434D01*
X0105346Y0174934D02*
X0105847Y0175435D01*
X0105847Y0175935D01*
X0105346Y0176436D01*
X0104346Y0176436D01*
X0103845Y0175935D01*
X0100042Y0175685D02*
X0098041Y0173683D01*
X0098541Y0173183D01*
X0099542Y0173183D01*
X0100042Y0173683D01*
X0100042Y0175685D01*
X0099542Y0176186D01*
X0098541Y0176186D01*
X0098041Y0175685D01*
X0098041Y0173683D01*
X0096820Y0173683D02*
X0096820Y0175685D01*
X0096319Y0176186D01*
X0095318Y0176186D01*
X0094818Y0175685D01*
X0094818Y0175185D01*
X0095318Y0174684D01*
X0096820Y0174684D01*
X0096820Y0173683D02*
X0096319Y0173183D01*
X0095318Y0173183D01*
X0094818Y0173683D01*
X0093597Y0173683D02*
X0093096Y0173183D01*
X0092096Y0173183D01*
X0091595Y0173683D01*
X0092596Y0174684D02*
X0093096Y0174684D01*
X0093597Y0174184D01*
X0093597Y0173683D01*
X0093096Y0174684D02*
X0093597Y0175185D01*
X0093597Y0175685D01*
X0093096Y0176186D01*
X0092096Y0176186D01*
X0091595Y0175685D01*
X0099843Y0167961D02*
X0102845Y0167961D01*
X0102845Y0166960D02*
X0102845Y0168962D01*
X0100843Y0166960D02*
X0099843Y0167961D01*
X0100343Y0165739D02*
X0099843Y0165239D01*
X0099843Y0163738D01*
X0102845Y0163738D01*
X0101844Y0163738D02*
X0101844Y0165239D01*
X0101344Y0165739D01*
X0100343Y0165739D01*
X0101844Y0164738D02*
X0102845Y0165739D01*
X0136345Y0162683D02*
X0136345Y0150183D01*
X0145095Y0150183D01*
X0145095Y0162683D01*
X0136345Y0162683D01*
X0157595Y0167683D02*
X0157595Y0147683D01*
X0178845Y0147683D01*
X0178845Y0167683D01*
X0157595Y0167683D01*
X0127349Y0139937D02*
X0190371Y0139937D01*
X0189919Y0137436D02*
X0189919Y0135934D01*
X0190920Y0136435D01*
X0191421Y0136435D01*
X0191921Y0135934D01*
X0191921Y0134933D01*
X0191421Y0134433D01*
X0190420Y0134433D01*
X0189919Y0134933D01*
X0188698Y0134933D02*
X0188698Y0136935D01*
X0188198Y0137436D01*
X0187197Y0137436D01*
X0186697Y0136935D01*
X0186697Y0134933D01*
X0187197Y0134433D01*
X0188198Y0134433D01*
X0188698Y0134933D01*
X0189919Y0137436D02*
X0191921Y0137436D01*
X0185549Y0137436D02*
X0184548Y0137436D01*
X0185049Y0137436D02*
X0185049Y0134433D01*
X0185549Y0134433D02*
X0184548Y0134433D01*
X0181458Y0137436D02*
X0179457Y0137436D01*
X0180457Y0137436D02*
X0180457Y0134433D01*
X0178235Y0134933D02*
X0177735Y0134433D01*
X0176734Y0134433D01*
X0176234Y0134933D01*
X0176734Y0135934D02*
X0177735Y0135934D01*
X0178235Y0135434D01*
X0178235Y0134933D01*
X0176734Y0135934D02*
X0176234Y0136435D01*
X0176234Y0136935D01*
X0176734Y0137436D01*
X0177735Y0137436D01*
X0178235Y0136935D01*
X0175013Y0136935D02*
X0175013Y0135934D01*
X0174512Y0135434D01*
X0173011Y0135434D01*
X0174012Y0135434D02*
X0175013Y0134433D01*
X0173011Y0134433D02*
X0173011Y0137436D01*
X0174512Y0137436D01*
X0175013Y0136935D01*
X0194593Y0131630D02*
X0194593Y0129629D01*
X0196094Y0129629D01*
X0195593Y0130629D01*
X0195593Y0131130D01*
X0196094Y0131630D01*
X0197095Y0131630D01*
X0197595Y0131130D01*
X0197595Y0130129D01*
X0197095Y0129629D01*
X0196094Y0128408D02*
X0196594Y0127907D01*
X0196594Y0126406D01*
X0197595Y0126406D02*
X0194593Y0126406D01*
X0194593Y0127907D01*
X0195093Y0128408D01*
X0196094Y0128408D01*
X0194593Y0125185D02*
X0194593Y0124184D01*
X0194593Y0124684D02*
X0197095Y0124684D01*
X0197595Y0124184D01*
X0197595Y0123683D01*
X0197095Y0123183D01*
X0191921Y0114936D02*
X0190920Y0114435D01*
X0189919Y0113434D01*
X0191421Y0113434D01*
X0191921Y0112934D01*
X0191921Y0112433D01*
X0191421Y0111933D01*
X0190420Y0111933D01*
X0189919Y0112433D01*
X0189919Y0113434D01*
X0188698Y0112433D02*
X0188698Y0114435D01*
X0188198Y0114936D01*
X0187197Y0114936D01*
X0186697Y0114435D01*
X0186697Y0112433D01*
X0187197Y0111933D01*
X0188198Y0111933D01*
X0188698Y0112433D01*
X0185549Y0111933D02*
X0184548Y0111933D01*
X0185049Y0111933D02*
X0185049Y0114936D01*
X0185549Y0114936D02*
X0184548Y0114936D01*
X0181458Y0114936D02*
X0179457Y0114936D01*
X0180457Y0114936D02*
X0180457Y0111933D01*
X0178235Y0112433D02*
X0177735Y0111933D01*
X0176734Y0111933D01*
X0176234Y0112433D01*
X0176734Y0113434D02*
X0177735Y0113434D01*
X0178235Y0112934D01*
X0178235Y0112433D01*
X0176734Y0113434D02*
X0176234Y0113935D01*
X0176234Y0114435D01*
X0176734Y0114936D01*
X0177735Y0114936D01*
X0178235Y0114435D01*
X0175013Y0114435D02*
X0174512Y0114936D01*
X0173011Y0114936D01*
X0173011Y0111933D01*
X0173011Y0112934D02*
X0174512Y0112934D01*
X0175013Y0113434D01*
X0175013Y0114435D01*
X0174012Y0112934D02*
X0175013Y0111933D01*
X0194843Y0109380D02*
X0195343Y0108379D01*
X0196344Y0107379D01*
X0196344Y0108880D01*
X0196844Y0109380D01*
X0197345Y0109380D01*
X0197845Y0108880D01*
X0197845Y0107879D01*
X0197345Y0107379D01*
X0196344Y0107379D01*
X0196344Y0106158D02*
X0196844Y0105657D01*
X0196844Y0104156D01*
X0197845Y0104156D02*
X0194843Y0104156D01*
X0194843Y0105657D01*
X0195343Y0106158D01*
X0196344Y0106158D01*
X0194843Y0102935D02*
X0194843Y0101934D01*
X0194843Y0102434D02*
X0197345Y0102434D01*
X0197845Y0101934D01*
X0197845Y0101433D01*
X0197345Y0100933D01*
X0190371Y0092929D02*
X0127349Y0092929D01*
X0240093Y0139934D02*
X0243095Y0139934D01*
X0243095Y0138933D02*
X0243095Y0140935D01*
X0242595Y0142156D02*
X0240593Y0144158D01*
X0242595Y0144158D01*
X0243095Y0143657D01*
X0243095Y0142656D01*
X0242595Y0142156D01*
X0240593Y0142156D01*
X0240093Y0142656D01*
X0240093Y0143657D01*
X0240593Y0144158D01*
X0241093Y0145379D02*
X0242595Y0145379D01*
X0243095Y0145879D01*
X0243095Y0147380D01*
X0241093Y0147380D01*
X0241594Y0148601D02*
X0241594Y0149602D01*
X0243095Y0148601D02*
X0240093Y0148601D01*
X0240093Y0150603D01*
X0240093Y0139934D02*
X0241093Y0138933D01*
X0319091Y0124937D02*
X0319091Y0187929D01*
X0313032Y0217935D02*
X0314032Y0218436D01*
X0190371Y0202929D02*
X0127349Y0202929D01*
X0133843Y0207933D02*
X0134343Y0207433D01*
X0136345Y0207433D01*
X0136845Y0207933D01*
X0136845Y0208934D01*
X0136345Y0209435D01*
X0136845Y0210656D02*
X0136845Y0212658D01*
X0136845Y0211657D02*
X0133843Y0211657D01*
X0134843Y0210656D01*
X0134343Y0209435D02*
X0133843Y0208934D01*
X0133843Y0207933D01*
X0152093Y0208156D02*
X0152093Y0209157D01*
X0152593Y0209658D01*
X0154595Y0207656D01*
X0155095Y0208156D01*
X0155095Y0209157D01*
X0154595Y0209658D01*
X0152593Y0209658D01*
X0153093Y0210879D02*
X0154595Y0210879D01*
X0155095Y0211379D01*
X0155095Y0212880D01*
X0153093Y0212880D01*
X0153594Y0214101D02*
X0153594Y0215102D01*
X0155095Y0214101D02*
X0152093Y0214101D01*
X0152093Y0216103D01*
X0152093Y0208156D02*
X0152593Y0207656D01*
X0154595Y0207656D01*
X0155095Y0206435D02*
X0155095Y0204433D01*
X0155095Y0205434D02*
X0152093Y0205434D01*
X0153093Y0204433D01*
X0077979Y0200133D02*
X0077479Y0200633D01*
X0075978Y0200633D01*
X0075978Y0198631D01*
X0074757Y0199132D02*
X0073756Y0199132D01*
X0074757Y0200633D02*
X0074757Y0197631D01*
X0072755Y0197631D01*
X0071534Y0197631D02*
X0071534Y0200633D01*
X0069532Y0200633D01*
X0077979Y0200133D02*
X0077979Y0198631D01*
D15*
X0132531Y0199224D02*
X0134400Y0199224D01*
X0134400Y0199691D02*
X0134400Y0197822D01*
X0132531Y0197822D02*
X0132531Y0199691D01*
X0133466Y0200625D01*
X0134400Y0199691D01*
X0133466Y0090625D02*
X0134400Y0089691D01*
X0134400Y0087822D01*
X0134400Y0089224D02*
X0132531Y0089224D01*
X0132531Y0089691D02*
X0133466Y0090625D01*
X0132531Y0089691D02*
X0132531Y0087822D01*
D16*
X0132499Y0081135D02*
X0134968Y0081135D01*
X0181499Y0034135D02*
X0183968Y0034135D01*
X0183968Y0144135D02*
X0181499Y0144135D01*
X0134968Y0191135D02*
X0132499Y0191135D01*
D17*
X0181089Y0198886D02*
X0183825Y0198886D01*
X0183825Y0088886D02*
X0181089Y0088886D01*
D18*
X0240627Y0130146D02*
X0244564Y0130146D01*
X0244564Y0131720D02*
X0240627Y0131720D01*
X0242595Y0132114D02*
X0242595Y0132902D01*
X0242595Y0129752D02*
X0242595Y0128965D01*
X0307201Y0079189D02*
X0307201Y0078402D01*
X0308776Y0077220D01*
X0306414Y0076433D01*
X0308776Y0075252D01*
X0307201Y0074465D01*
X0307201Y0073677D01*
X0306020Y0068795D02*
X0306020Y0066039D01*
X0309564Y0068795D01*
X0309564Y0064071D01*
X0306414Y0066433D01*
X0306020Y0066039D02*
X0306020Y0064071D01*
X0305627Y0064071D02*
X0305627Y0068795D01*
X0307201Y0066433D02*
X0309170Y0064858D01*
X0309170Y0065252D01*
X0308383Y0066433D01*
X0307595Y0066433D01*
X0307201Y0066433D02*
X0308776Y0067614D01*
X0309170Y0067614D02*
X0308383Y0066433D01*
X0309170Y0065252D02*
X0309170Y0067614D01*
X0247595Y0181465D02*
X0247595Y0182252D01*
X0245627Y0182646D02*
X0249564Y0182646D01*
X0249564Y0184220D02*
X0245627Y0184220D01*
X0247595Y0184614D02*
X0247595Y0185402D01*
X0146064Y0209683D02*
X0145276Y0209683D01*
X0144883Y0207715D02*
X0144883Y0211652D01*
X0143308Y0211652D02*
X0143308Y0207715D01*
X0142914Y0209683D02*
X0142127Y0209683D01*
X0110351Y0166827D02*
X0109564Y0166827D01*
X0108383Y0165252D01*
X0107595Y0167614D01*
X0106414Y0165252D01*
X0105627Y0166827D01*
X0104839Y0166827D01*
X0097851Y0166827D02*
X0097064Y0166827D01*
X0095883Y0165252D01*
X0095095Y0167614D01*
X0093914Y0165252D01*
X0093127Y0166827D01*
X0092339Y0166827D01*
X0095627Y0156295D02*
X0095627Y0151571D01*
X0099170Y0154327D01*
X0099170Y0156295D01*
X0099564Y0156295D02*
X0099564Y0151571D01*
X0099170Y0151571D02*
X0099170Y0154327D01*
X0098776Y0153933D02*
X0095627Y0156295D01*
X0096020Y0155508D02*
X0096020Y0155114D01*
X0096808Y0153933D01*
X0097595Y0153933D01*
X0097989Y0153933D02*
X0096020Y0155508D01*
X0096020Y0155114D02*
X0096020Y0152752D01*
X0096808Y0153933D01*
X0097989Y0153933D02*
X0096414Y0152752D01*
X0096020Y0141295D02*
X0096020Y0138539D01*
X0099564Y0141295D01*
X0099564Y0136571D01*
X0096414Y0138933D01*
X0096020Y0138539D02*
X0096020Y0136571D01*
X0095627Y0136571D02*
X0095627Y0141295D01*
X0097201Y0138933D02*
X0099170Y0137358D01*
X0099170Y0137752D01*
X0098383Y0138933D01*
X0097595Y0138933D01*
X0097201Y0138933D02*
X0098776Y0140114D01*
X0099170Y0140114D02*
X0098383Y0138933D01*
X0099170Y0137752D02*
X0099170Y0140114D01*
X0099170Y0126295D02*
X0099170Y0124327D01*
X0095627Y0121571D01*
X0095627Y0126295D01*
X0098776Y0123933D01*
X0099170Y0124327D02*
X0099170Y0121571D01*
X0099564Y0121571D02*
X0099564Y0126295D01*
X0097989Y0123933D02*
X0096414Y0122752D01*
X0096020Y0122752D02*
X0096808Y0123933D01*
X0097595Y0123933D01*
X0097989Y0123933D02*
X0096020Y0125508D01*
X0096020Y0125114D01*
X0096808Y0123933D01*
X0096020Y0125114D02*
X0096020Y0122752D01*
X0097989Y0116689D02*
X0097989Y0115902D01*
X0096414Y0115114D01*
X0098776Y0113933D01*
X0096414Y0113146D01*
X0097989Y0111965D01*
X0097989Y0111177D01*
X0105808Y0059402D02*
X0105808Y0055465D01*
X0107383Y0055465D02*
X0107383Y0059402D01*
X0107776Y0057433D02*
X0108564Y0057433D01*
X0105414Y0057433D02*
X0104627Y0057433D01*
D19*
X0176745Y0096583D02*
X0178680Y0098518D01*
X0178680Y0099002D01*
X0178196Y0099486D01*
X0177229Y0099486D01*
X0176745Y0099002D01*
X0176745Y0096583D02*
X0178680Y0096583D01*
X0186745Y0096583D02*
X0188680Y0096583D01*
X0187713Y0096583D02*
X0187713Y0099486D01*
X0186745Y0098518D01*
X0186745Y0119083D02*
X0188680Y0119083D01*
X0187713Y0119083D02*
X0187713Y0121986D01*
X0186745Y0121018D01*
X0178680Y0121018D02*
X0178680Y0121502D01*
X0178196Y0121986D01*
X0177229Y0121986D01*
X0176745Y0121502D01*
X0178680Y0121018D02*
X0176745Y0119083D01*
X0178680Y0119083D01*
X0254245Y0200083D02*
X0256180Y0202018D01*
X0256180Y0202502D01*
X0255696Y0202986D01*
X0254729Y0202986D01*
X0254245Y0202502D01*
X0254245Y0200083D02*
X0256180Y0200083D01*
X0264245Y0200083D02*
X0266180Y0200083D01*
X0265213Y0200083D02*
X0265213Y0202986D01*
X0264245Y0202018D01*
D20*
X0085095Y0202183D02*
X0085095Y0206683D01*
X0085095Y0195683D02*
X0085095Y0191183D01*
X0085095Y0094183D02*
X0085095Y0089683D01*
X0085095Y0083183D02*
X0085095Y0078683D01*
X0270345Y0046433D02*
X0274845Y0046433D01*
X0281345Y0046433D02*
X0285845Y0046433D01*
D21*
X0237340Y0042683D03*
X0236340Y0040683D03*
X0233850Y0041933D03*
X0233850Y0042183D03*
X0233850Y0042433D03*
X0233850Y0042683D03*
X0233850Y0043683D03*
X0233850Y0043933D03*
X0233850Y0044183D03*
X0233850Y0044433D03*
X0233850Y0044683D03*
X0233850Y0044933D03*
X0233850Y0045183D03*
X0233850Y0045433D03*
X0233850Y0045683D03*
X0233850Y0045933D03*
X0233850Y0046183D03*
X0233850Y0046433D03*
X0233850Y0046683D03*
X0233850Y0046933D03*
X0233850Y0047183D03*
X0233850Y0047433D03*
X0233850Y0047683D03*
X0233850Y0047933D03*
X0233850Y0048183D03*
X0233850Y0048433D03*
X0233850Y0048683D03*
X0233850Y0048933D03*
X0233850Y0049183D03*
X0233850Y0049433D03*
X0233850Y0037433D03*
X0231100Y0035683D03*
X0231100Y0034433D03*
X0230850Y0034183D03*
X0230600Y0033933D03*
X0222590Y0033933D03*
X0222590Y0033683D03*
X0222590Y0033433D03*
X0222590Y0033183D03*
X0222590Y0032933D03*
X0222590Y0032683D03*
X0222590Y0032433D03*
X0222590Y0032183D03*
X0222590Y0031933D03*
X0222590Y0031683D03*
X0222590Y0031433D03*
X0222590Y0031183D03*
X0219340Y0031183D03*
X0217840Y0032183D03*
X0217600Y0032933D03*
X0217600Y0033183D03*
X0217600Y0033433D03*
X0217600Y0033683D03*
X0217600Y0033933D03*
X0217840Y0034683D03*
X0222590Y0034433D03*
X0222590Y0034183D03*
X0222590Y0035183D03*
X0222590Y0035433D03*
X0222590Y0035683D03*
X0222590Y0035933D03*
X0222590Y0036183D03*
X0222590Y0036433D03*
X0222590Y0036683D03*
X0222590Y0036933D03*
X0222590Y0037183D03*
X0222590Y0037433D03*
X0222590Y0037683D03*
X0217600Y0046933D03*
X0217600Y0047183D03*
X0217600Y0047433D03*
X0217600Y0047683D03*
X0217600Y0047933D03*
X0217600Y0048183D03*
X0217600Y0048433D03*
X0217600Y0048683D03*
X0217600Y0048933D03*
X0217600Y0049183D03*
X0217600Y0049433D03*
D22*
X0225720Y0043183D03*
X0225720Y0042933D03*
X0225720Y0042683D03*
X0225720Y0042433D03*
X0225720Y0042183D03*
X0225720Y0041933D03*
X0225720Y0041683D03*
X0225720Y0041433D03*
X0225720Y0041183D03*
X0225720Y0040933D03*
X0225720Y0040683D03*
X0222720Y0040683D03*
X0222720Y0040933D03*
X0225720Y0034183D03*
X0225720Y0033933D03*
X0225720Y0033683D03*
X0225720Y0033433D03*
X0225720Y0033183D03*
X0225720Y0032933D03*
X0225720Y0032683D03*
X0225720Y0032433D03*
X0225720Y0032183D03*
X0225720Y0031933D03*
X0225720Y0031683D03*
X0225720Y0031433D03*
X0225720Y0031183D03*
X0228470Y0035433D03*
X0236720Y0040433D03*
X0236970Y0040183D03*
D23*
X0229850Y0031933D03*
X0229850Y0031683D03*
X0229850Y0031433D03*
X0229850Y0031183D03*
D24*
X0231225Y0034683D03*
X0231225Y0034933D03*
X0231225Y0035183D03*
X0231225Y0035433D03*
X0233975Y0035433D03*
X0233975Y0035183D03*
X0233975Y0034933D03*
X0233975Y0034683D03*
X0233975Y0034433D03*
X0233975Y0034183D03*
X0233975Y0033933D03*
X0233975Y0033683D03*
X0233975Y0033433D03*
X0233975Y0033183D03*
X0233975Y0032933D03*
X0233975Y0032683D03*
X0233975Y0032433D03*
X0233975Y0032183D03*
X0233975Y0031933D03*
X0233975Y0031683D03*
X0233975Y0031433D03*
X0233975Y0031183D03*
X0233975Y0035683D03*
X0233975Y0036933D03*
X0233975Y0037183D03*
X0233975Y0037683D03*
X0237215Y0039933D03*
X0237965Y0042183D03*
X0237715Y0042433D03*
X0229215Y0042433D03*
X0229215Y0042183D03*
X0229215Y0041933D03*
X0229215Y0041683D03*
X0229215Y0041433D03*
X0229215Y0041183D03*
X0229215Y0040933D03*
X0229215Y0040683D03*
X0229215Y0042683D03*
X0229215Y0042933D03*
X0229215Y0043183D03*
X0224725Y0035683D03*
X0220225Y0031933D03*
X0212225Y0047433D03*
D25*
X0213975Y0045183D03*
X0220975Y0043433D03*
X0219225Y0051183D03*
X0220975Y0052183D03*
X0222725Y0053183D03*
X0225725Y0054933D03*
X0228725Y0053183D03*
X0229225Y0052933D03*
X0231725Y0051433D03*
X0232225Y0051183D03*
X0232975Y0050683D03*
X0224715Y0035183D03*
X0219225Y0031433D03*
D26*
X0219225Y0031683D03*
X0219225Y0035183D03*
X0229975Y0036183D03*
X0234725Y0041183D03*
X0227465Y0044433D03*
D27*
X0222225Y0041933D03*
X0222225Y0041683D03*
X0221975Y0042183D03*
X0222715Y0034683D03*
X0218225Y0031933D03*
X0229225Y0032683D03*
X0233725Y0040933D03*
X0233975Y0041683D03*
X0233975Y0042933D03*
X0233725Y0049683D03*
X0233725Y0049933D03*
X0212965Y0046183D03*
D28*
X0220220Y0034933D03*
X0220470Y0032183D03*
X0236220Y0036683D03*
X0236220Y0036933D03*
X0236220Y0037183D03*
X0236220Y0037433D03*
X0236220Y0037683D03*
X0235970Y0037933D03*
X0235970Y0038183D03*
D29*
X0228845Y0032183D03*
X0217845Y0049933D03*
D30*
X0222470Y0041183D03*
X0217720Y0034433D03*
X0217720Y0034183D03*
X0217720Y0032683D03*
X0217720Y0032433D03*
D31*
X0228970Y0032433D03*
X0228720Y0035683D03*
X0228970Y0043683D03*
X0217720Y0049683D03*
X0214220Y0043683D03*
D32*
X0229970Y0036683D03*
X0229970Y0033433D03*
X0229720Y0033183D03*
X0229470Y0032933D03*
D33*
X0230345Y0033683D03*
X0229345Y0040433D03*
X0235845Y0040933D03*
X0222345Y0041433D03*
D34*
X0225595Y0040433D03*
X0225845Y0043433D03*
X0226095Y0043683D03*
X0229095Y0043433D03*
X0234845Y0039183D03*
X0225595Y0034683D03*
X0225595Y0034433D03*
X0218095Y0034933D03*
X0213095Y0045933D03*
D35*
X0220100Y0039433D03*
X0224090Y0034933D03*
D36*
X0228470Y0035183D03*
D37*
X0219350Y0035433D03*
X0214340Y0044933D03*
X0223600Y0053683D03*
X0227840Y0053683D03*
X0229600Y0052683D03*
X0230840Y0051933D03*
X0232600Y0050933D03*
D38*
X0225720Y0055183D03*
X0224720Y0035433D03*
D39*
X0219340Y0035683D03*
X0221850Y0042433D03*
X0221600Y0042683D03*
X0220350Y0044683D03*
X0214350Y0043933D03*
D40*
X0215725Y0042933D03*
X0217725Y0045933D03*
X0227465Y0044183D03*
X0229975Y0035933D03*
X0225725Y0054683D03*
D41*
X0230470Y0052183D03*
X0219720Y0051433D03*
X0218470Y0050683D03*
X0229970Y0036433D03*
D42*
X0233975Y0037933D03*
X0235715Y0038433D03*
X0237715Y0039183D03*
X0237965Y0038433D03*
X0237965Y0037183D03*
X0239975Y0037933D03*
X0239975Y0038183D03*
X0239975Y0038433D03*
X0239975Y0038683D03*
X0239975Y0038933D03*
X0239725Y0039933D03*
D43*
X0239850Y0039683D03*
X0239850Y0039433D03*
X0239850Y0039183D03*
X0238090Y0038183D03*
X0238090Y0037933D03*
X0238090Y0037683D03*
X0238090Y0037433D03*
X0237840Y0038683D03*
X0237840Y0038933D03*
X0237590Y0039433D03*
X0237340Y0039683D03*
X0235590Y0038683D03*
X0238590Y0041683D03*
X0238340Y0041933D03*
X0238840Y0041433D03*
D44*
X0235345Y0038933D03*
X0222845Y0040433D03*
D45*
X0220595Y0039183D03*
X0219095Y0045433D03*
X0213845Y0045433D03*
D46*
X0224100Y0039433D03*
D47*
X0231595Y0040183D03*
X0231845Y0039683D03*
X0232345Y0039433D03*
D48*
X0219590Y0039683D03*
X0216850Y0042183D03*
D49*
X0218470Y0045683D03*
X0220470Y0043933D03*
X0224220Y0039683D03*
D50*
X0219345Y0039933D03*
D51*
X0224345Y0039933D03*
X0214845Y0044433D03*
X0213345Y0047183D03*
D52*
X0217220Y0041933D03*
X0225720Y0054183D03*
X0231470Y0039933D03*
D53*
X0219090Y0040183D03*
X0218850Y0040433D03*
D54*
X0224220Y0040183D03*
D55*
X0239095Y0040933D03*
X0239095Y0041183D03*
X0239345Y0040683D03*
X0239595Y0040433D03*
X0239595Y0040183D03*
D56*
X0233095Y0040433D03*
X0221095Y0043183D03*
D57*
X0218470Y0040683D03*
X0217720Y0041433D03*
D58*
X0233595Y0040683D03*
D59*
X0218225Y0040933D03*
X0217975Y0041183D03*
D60*
X0214470Y0044183D03*
X0222220Y0052933D03*
X0234470Y0041433D03*
D61*
X0217465Y0041683D03*
D62*
X0216465Y0042433D03*
D63*
X0216220Y0042683D03*
D64*
X0214715Y0043433D03*
X0213475Y0045683D03*
X0217975Y0050183D03*
X0219975Y0044933D03*
X0220475Y0044433D03*
X0221475Y0042933D03*
X0236465Y0042933D03*
D65*
X0215220Y0043183D03*
X0214470Y0044683D03*
D66*
X0235095Y0043183D03*
D67*
X0234850Y0043433D03*
D68*
X0231345Y0051683D03*
X0228345Y0053433D03*
X0221845Y0052683D03*
X0220595Y0051933D03*
X0218845Y0050933D03*
X0220345Y0044183D03*
X0220595Y0043683D03*
D69*
X0227470Y0043933D03*
D70*
X0227470Y0044683D03*
X0233220Y0050433D03*
X0233470Y0050183D03*
X0219720Y0045183D03*
X0218220Y0050433D03*
D71*
X0216595Y0046183D03*
D72*
X0215340Y0046433D03*
X0215100Y0046683D03*
D73*
X0214220Y0046933D03*
D74*
X0211595Y0047683D03*
D75*
X0220095Y0051683D03*
X0221345Y0052433D03*
X0223095Y0053433D03*
X0230095Y0052433D03*
D76*
X0225720Y0053933D03*
D77*
X0225720Y0054433D03*
M02*
