G75*
%MOIN*%
%OFA0B0*%
%FSLAX25Y25*%
%IPPOS*%
%LPD*%
%AMOC8*
5,1,8,0,0,1.08239X$1,22.5*
%
%ADD10C,0.00000*%
%ADD11C,0.11824*%
%ADD12C,0.07400*%
%ADD13C,0.04737*%
%ADD14C,0.01969*%
%ADD15R,0.08674X0.05800*%
%ADD16C,0.10800*%
%ADD17R,0.04350X0.05918*%
%ADD18OC8,0.08400*%
%ADD19C,0.01160*%
%ADD20R,0.05800X0.08674*%
%ADD21R,0.05918X0.04350*%
%ADD22C,0.00960*%
%ADD23C,0.05800*%
%ADD24R,0.17800X0.06800*%
%ADD25R,0.06800X0.17800*%
%ADD26C,0.00987*%
D10*
X0067595Y0040744D02*
X0067595Y0239563D01*
X0067598Y0239848D01*
X0067609Y0240134D01*
X0067626Y0240419D01*
X0067650Y0240703D01*
X0067681Y0240987D01*
X0067719Y0241270D01*
X0067764Y0241551D01*
X0067815Y0241832D01*
X0067873Y0242112D01*
X0067938Y0242390D01*
X0068010Y0242666D01*
X0068088Y0242940D01*
X0068173Y0243213D01*
X0068265Y0243483D01*
X0068363Y0243751D01*
X0068467Y0244017D01*
X0068578Y0244280D01*
X0068695Y0244540D01*
X0068818Y0244798D01*
X0068948Y0245052D01*
X0069084Y0245303D01*
X0069225Y0245551D01*
X0069373Y0245795D01*
X0069526Y0246036D01*
X0069686Y0246272D01*
X0069851Y0246505D01*
X0070021Y0246734D01*
X0070197Y0246959D01*
X0070379Y0247179D01*
X0070565Y0247395D01*
X0070757Y0247606D01*
X0070954Y0247813D01*
X0071156Y0248015D01*
X0071363Y0248212D01*
X0071574Y0248404D01*
X0071790Y0248590D01*
X0072010Y0248772D01*
X0072235Y0248948D01*
X0072464Y0249118D01*
X0072697Y0249283D01*
X0072933Y0249443D01*
X0073174Y0249596D01*
X0073418Y0249744D01*
X0073666Y0249885D01*
X0073917Y0250021D01*
X0074171Y0250151D01*
X0074429Y0250274D01*
X0074689Y0250391D01*
X0074952Y0250502D01*
X0075218Y0250606D01*
X0075486Y0250704D01*
X0075756Y0250796D01*
X0076029Y0250881D01*
X0076303Y0250959D01*
X0076579Y0251031D01*
X0076857Y0251096D01*
X0077137Y0251154D01*
X0077418Y0251205D01*
X0077699Y0251250D01*
X0077982Y0251288D01*
X0078266Y0251319D01*
X0078550Y0251343D01*
X0078835Y0251360D01*
X0079121Y0251371D01*
X0079406Y0251374D01*
X0311690Y0251374D01*
X0311975Y0251371D01*
X0312261Y0251360D01*
X0312546Y0251343D01*
X0312830Y0251319D01*
X0313114Y0251288D01*
X0313397Y0251250D01*
X0313678Y0251205D01*
X0313959Y0251154D01*
X0314239Y0251096D01*
X0314517Y0251031D01*
X0314793Y0250959D01*
X0315067Y0250881D01*
X0315340Y0250796D01*
X0315610Y0250704D01*
X0315878Y0250606D01*
X0316144Y0250502D01*
X0316407Y0250391D01*
X0316667Y0250274D01*
X0316925Y0250151D01*
X0317179Y0250021D01*
X0317430Y0249885D01*
X0317678Y0249744D01*
X0317922Y0249596D01*
X0318163Y0249443D01*
X0318399Y0249283D01*
X0318632Y0249118D01*
X0318861Y0248948D01*
X0319086Y0248772D01*
X0319306Y0248590D01*
X0319522Y0248404D01*
X0319733Y0248212D01*
X0319940Y0248015D01*
X0320142Y0247813D01*
X0320339Y0247606D01*
X0320531Y0247395D01*
X0320717Y0247179D01*
X0320899Y0246959D01*
X0321075Y0246734D01*
X0321245Y0246505D01*
X0321410Y0246272D01*
X0321570Y0246036D01*
X0321723Y0245795D01*
X0321871Y0245551D01*
X0322012Y0245303D01*
X0322148Y0245052D01*
X0322278Y0244798D01*
X0322401Y0244540D01*
X0322518Y0244280D01*
X0322629Y0244017D01*
X0322733Y0243751D01*
X0322831Y0243483D01*
X0322923Y0243213D01*
X0323008Y0242940D01*
X0323086Y0242666D01*
X0323158Y0242390D01*
X0323223Y0242112D01*
X0323281Y0241832D01*
X0323332Y0241551D01*
X0323377Y0241270D01*
X0323415Y0240987D01*
X0323446Y0240703D01*
X0323470Y0240419D01*
X0323487Y0240134D01*
X0323498Y0239848D01*
X0323501Y0239563D01*
X0323501Y0040744D01*
X0323498Y0040459D01*
X0323487Y0040173D01*
X0323470Y0039888D01*
X0323446Y0039604D01*
X0323415Y0039320D01*
X0323377Y0039037D01*
X0323332Y0038756D01*
X0323281Y0038475D01*
X0323223Y0038195D01*
X0323158Y0037917D01*
X0323086Y0037641D01*
X0323008Y0037367D01*
X0322923Y0037094D01*
X0322831Y0036824D01*
X0322733Y0036556D01*
X0322629Y0036290D01*
X0322518Y0036027D01*
X0322401Y0035767D01*
X0322278Y0035509D01*
X0322148Y0035255D01*
X0322012Y0035004D01*
X0321871Y0034756D01*
X0321723Y0034512D01*
X0321570Y0034271D01*
X0321410Y0034035D01*
X0321245Y0033802D01*
X0321075Y0033573D01*
X0320899Y0033348D01*
X0320717Y0033128D01*
X0320531Y0032912D01*
X0320339Y0032701D01*
X0320142Y0032494D01*
X0319940Y0032292D01*
X0319733Y0032095D01*
X0319522Y0031903D01*
X0319306Y0031717D01*
X0319086Y0031535D01*
X0318861Y0031359D01*
X0318632Y0031189D01*
X0318399Y0031024D01*
X0318163Y0030864D01*
X0317922Y0030711D01*
X0317678Y0030563D01*
X0317430Y0030422D01*
X0317179Y0030286D01*
X0316925Y0030156D01*
X0316667Y0030033D01*
X0316407Y0029916D01*
X0316144Y0029805D01*
X0315878Y0029701D01*
X0315610Y0029603D01*
X0315340Y0029511D01*
X0315067Y0029426D01*
X0314793Y0029348D01*
X0314517Y0029276D01*
X0314239Y0029211D01*
X0313959Y0029153D01*
X0313678Y0029102D01*
X0313397Y0029057D01*
X0313114Y0029019D01*
X0312830Y0028988D01*
X0312546Y0028964D01*
X0312261Y0028947D01*
X0311975Y0028936D01*
X0311690Y0028933D01*
X0079406Y0028933D01*
X0079121Y0028936D01*
X0078835Y0028947D01*
X0078550Y0028964D01*
X0078266Y0028988D01*
X0077982Y0029019D01*
X0077699Y0029057D01*
X0077418Y0029102D01*
X0077137Y0029153D01*
X0076857Y0029211D01*
X0076579Y0029276D01*
X0076303Y0029348D01*
X0076029Y0029426D01*
X0075756Y0029511D01*
X0075486Y0029603D01*
X0075218Y0029701D01*
X0074952Y0029805D01*
X0074689Y0029916D01*
X0074429Y0030033D01*
X0074171Y0030156D01*
X0073917Y0030286D01*
X0073666Y0030422D01*
X0073418Y0030563D01*
X0073174Y0030711D01*
X0072933Y0030864D01*
X0072697Y0031024D01*
X0072464Y0031189D01*
X0072235Y0031359D01*
X0072010Y0031535D01*
X0071790Y0031717D01*
X0071574Y0031903D01*
X0071363Y0032095D01*
X0071156Y0032292D01*
X0070954Y0032494D01*
X0070757Y0032701D01*
X0070565Y0032912D01*
X0070379Y0033128D01*
X0070197Y0033348D01*
X0070021Y0033573D01*
X0069851Y0033802D01*
X0069686Y0034035D01*
X0069526Y0034271D01*
X0069373Y0034512D01*
X0069225Y0034756D01*
X0069084Y0035004D01*
X0068948Y0035255D01*
X0068818Y0035509D01*
X0068695Y0035767D01*
X0068578Y0036027D01*
X0068467Y0036290D01*
X0068363Y0036556D01*
X0068265Y0036824D01*
X0068173Y0037094D01*
X0068088Y0037367D01*
X0068010Y0037641D01*
X0067938Y0037917D01*
X0067873Y0038195D01*
X0067815Y0038475D01*
X0067764Y0038756D01*
X0067719Y0039037D01*
X0067681Y0039320D01*
X0067650Y0039604D01*
X0067626Y0039888D01*
X0067609Y0040173D01*
X0067598Y0040459D01*
X0067595Y0040744D01*
X0075863Y0042713D02*
X0075865Y0042861D01*
X0075871Y0043009D01*
X0075881Y0043157D01*
X0075895Y0043304D01*
X0075913Y0043451D01*
X0075934Y0043597D01*
X0075960Y0043743D01*
X0075990Y0043888D01*
X0076023Y0044032D01*
X0076061Y0044175D01*
X0076102Y0044317D01*
X0076147Y0044458D01*
X0076195Y0044598D01*
X0076248Y0044737D01*
X0076304Y0044874D01*
X0076364Y0045009D01*
X0076427Y0045143D01*
X0076494Y0045275D01*
X0076565Y0045405D01*
X0076639Y0045533D01*
X0076716Y0045659D01*
X0076797Y0045783D01*
X0076881Y0045905D01*
X0076968Y0046024D01*
X0077059Y0046141D01*
X0077153Y0046256D01*
X0077249Y0046368D01*
X0077349Y0046478D01*
X0077451Y0046584D01*
X0077557Y0046688D01*
X0077665Y0046789D01*
X0077776Y0046887D01*
X0077889Y0046983D01*
X0078005Y0047075D01*
X0078123Y0047164D01*
X0078244Y0047249D01*
X0078367Y0047332D01*
X0078492Y0047411D01*
X0078619Y0047487D01*
X0078748Y0047559D01*
X0078879Y0047628D01*
X0079012Y0047693D01*
X0079147Y0047754D01*
X0079283Y0047812D01*
X0079420Y0047867D01*
X0079559Y0047917D01*
X0079700Y0047964D01*
X0079841Y0048007D01*
X0079984Y0048047D01*
X0080128Y0048082D01*
X0080272Y0048114D01*
X0080418Y0048141D01*
X0080564Y0048165D01*
X0080711Y0048185D01*
X0080858Y0048201D01*
X0081005Y0048213D01*
X0081153Y0048221D01*
X0081301Y0048225D01*
X0081449Y0048225D01*
X0081597Y0048221D01*
X0081745Y0048213D01*
X0081892Y0048201D01*
X0082039Y0048185D01*
X0082186Y0048165D01*
X0082332Y0048141D01*
X0082478Y0048114D01*
X0082622Y0048082D01*
X0082766Y0048047D01*
X0082909Y0048007D01*
X0083050Y0047964D01*
X0083191Y0047917D01*
X0083330Y0047867D01*
X0083467Y0047812D01*
X0083603Y0047754D01*
X0083738Y0047693D01*
X0083871Y0047628D01*
X0084002Y0047559D01*
X0084131Y0047487D01*
X0084258Y0047411D01*
X0084383Y0047332D01*
X0084506Y0047249D01*
X0084627Y0047164D01*
X0084745Y0047075D01*
X0084861Y0046983D01*
X0084974Y0046887D01*
X0085085Y0046789D01*
X0085193Y0046688D01*
X0085299Y0046584D01*
X0085401Y0046478D01*
X0085501Y0046368D01*
X0085597Y0046256D01*
X0085691Y0046141D01*
X0085782Y0046024D01*
X0085869Y0045905D01*
X0085953Y0045783D01*
X0086034Y0045659D01*
X0086111Y0045533D01*
X0086185Y0045405D01*
X0086256Y0045275D01*
X0086323Y0045143D01*
X0086386Y0045009D01*
X0086446Y0044874D01*
X0086502Y0044737D01*
X0086555Y0044598D01*
X0086603Y0044458D01*
X0086648Y0044317D01*
X0086689Y0044175D01*
X0086727Y0044032D01*
X0086760Y0043888D01*
X0086790Y0043743D01*
X0086816Y0043597D01*
X0086837Y0043451D01*
X0086855Y0043304D01*
X0086869Y0043157D01*
X0086879Y0043009D01*
X0086885Y0042861D01*
X0086887Y0042713D01*
X0086885Y0042565D01*
X0086879Y0042417D01*
X0086869Y0042269D01*
X0086855Y0042122D01*
X0086837Y0041975D01*
X0086816Y0041829D01*
X0086790Y0041683D01*
X0086760Y0041538D01*
X0086727Y0041394D01*
X0086689Y0041251D01*
X0086648Y0041109D01*
X0086603Y0040968D01*
X0086555Y0040828D01*
X0086502Y0040689D01*
X0086446Y0040552D01*
X0086386Y0040417D01*
X0086323Y0040283D01*
X0086256Y0040151D01*
X0086185Y0040021D01*
X0086111Y0039893D01*
X0086034Y0039767D01*
X0085953Y0039643D01*
X0085869Y0039521D01*
X0085782Y0039402D01*
X0085691Y0039285D01*
X0085597Y0039170D01*
X0085501Y0039058D01*
X0085401Y0038948D01*
X0085299Y0038842D01*
X0085193Y0038738D01*
X0085085Y0038637D01*
X0084974Y0038539D01*
X0084861Y0038443D01*
X0084745Y0038351D01*
X0084627Y0038262D01*
X0084506Y0038177D01*
X0084383Y0038094D01*
X0084258Y0038015D01*
X0084131Y0037939D01*
X0084002Y0037867D01*
X0083871Y0037798D01*
X0083738Y0037733D01*
X0083603Y0037672D01*
X0083467Y0037614D01*
X0083330Y0037559D01*
X0083191Y0037509D01*
X0083050Y0037462D01*
X0082909Y0037419D01*
X0082766Y0037379D01*
X0082622Y0037344D01*
X0082478Y0037312D01*
X0082332Y0037285D01*
X0082186Y0037261D01*
X0082039Y0037241D01*
X0081892Y0037225D01*
X0081745Y0037213D01*
X0081597Y0037205D01*
X0081449Y0037201D01*
X0081301Y0037201D01*
X0081153Y0037205D01*
X0081005Y0037213D01*
X0080858Y0037225D01*
X0080711Y0037241D01*
X0080564Y0037261D01*
X0080418Y0037285D01*
X0080272Y0037312D01*
X0080128Y0037344D01*
X0079984Y0037379D01*
X0079841Y0037419D01*
X0079700Y0037462D01*
X0079559Y0037509D01*
X0079420Y0037559D01*
X0079283Y0037614D01*
X0079147Y0037672D01*
X0079012Y0037733D01*
X0078879Y0037798D01*
X0078748Y0037867D01*
X0078619Y0037939D01*
X0078492Y0038015D01*
X0078367Y0038094D01*
X0078244Y0038177D01*
X0078123Y0038262D01*
X0078005Y0038351D01*
X0077889Y0038443D01*
X0077776Y0038539D01*
X0077665Y0038637D01*
X0077557Y0038738D01*
X0077451Y0038842D01*
X0077349Y0038948D01*
X0077249Y0039058D01*
X0077153Y0039170D01*
X0077059Y0039285D01*
X0076968Y0039402D01*
X0076881Y0039521D01*
X0076797Y0039643D01*
X0076716Y0039767D01*
X0076639Y0039893D01*
X0076565Y0040021D01*
X0076494Y0040151D01*
X0076427Y0040283D01*
X0076364Y0040417D01*
X0076304Y0040552D01*
X0076248Y0040689D01*
X0076195Y0040828D01*
X0076147Y0040968D01*
X0076102Y0041109D01*
X0076061Y0041251D01*
X0076023Y0041394D01*
X0075990Y0041538D01*
X0075960Y0041683D01*
X0075934Y0041829D01*
X0075913Y0041975D01*
X0075895Y0042122D01*
X0075881Y0042269D01*
X0075871Y0042417D01*
X0075865Y0042565D01*
X0075863Y0042713D01*
X0082095Y0105933D02*
X0067595Y0105933D01*
X0067595Y0106433D01*
X0082095Y0105933D02*
X0082193Y0105935D01*
X0082291Y0105941D01*
X0082389Y0105950D01*
X0082486Y0105964D01*
X0082583Y0105981D01*
X0082679Y0106002D01*
X0082774Y0106027D01*
X0082868Y0106055D01*
X0082960Y0106088D01*
X0083052Y0106123D01*
X0083142Y0106163D01*
X0083230Y0106205D01*
X0083317Y0106252D01*
X0083401Y0106301D01*
X0083484Y0106354D01*
X0083564Y0106410D01*
X0083643Y0106470D01*
X0083719Y0106532D01*
X0083792Y0106597D01*
X0083863Y0106665D01*
X0083931Y0106736D01*
X0083996Y0106809D01*
X0084058Y0106885D01*
X0084118Y0106964D01*
X0084174Y0107044D01*
X0084227Y0107127D01*
X0084276Y0107211D01*
X0084323Y0107298D01*
X0084365Y0107386D01*
X0084405Y0107476D01*
X0084440Y0107568D01*
X0084473Y0107660D01*
X0084501Y0107754D01*
X0084526Y0107849D01*
X0084547Y0107945D01*
X0084564Y0108042D01*
X0084578Y0108139D01*
X0084587Y0108237D01*
X0084593Y0108335D01*
X0084595Y0108433D01*
X0084595Y0169933D01*
X0084593Y0170031D01*
X0084587Y0170129D01*
X0084578Y0170227D01*
X0084564Y0170324D01*
X0084547Y0170421D01*
X0084526Y0170517D01*
X0084501Y0170612D01*
X0084473Y0170706D01*
X0084440Y0170798D01*
X0084405Y0170890D01*
X0084365Y0170980D01*
X0084323Y0171068D01*
X0084276Y0171155D01*
X0084227Y0171239D01*
X0084174Y0171322D01*
X0084118Y0171402D01*
X0084058Y0171481D01*
X0083996Y0171557D01*
X0083931Y0171630D01*
X0083863Y0171701D01*
X0083792Y0171769D01*
X0083719Y0171834D01*
X0083643Y0171896D01*
X0083564Y0171956D01*
X0083484Y0172012D01*
X0083401Y0172065D01*
X0083317Y0172114D01*
X0083230Y0172161D01*
X0083142Y0172203D01*
X0083052Y0172243D01*
X0082960Y0172278D01*
X0082868Y0172311D01*
X0082774Y0172339D01*
X0082679Y0172364D01*
X0082583Y0172385D01*
X0082486Y0172402D01*
X0082389Y0172416D01*
X0082291Y0172425D01*
X0082193Y0172431D01*
X0082095Y0172433D01*
X0067595Y0172433D01*
X0075863Y0235626D02*
X0075865Y0235774D01*
X0075871Y0235922D01*
X0075881Y0236070D01*
X0075895Y0236217D01*
X0075913Y0236364D01*
X0075934Y0236510D01*
X0075960Y0236656D01*
X0075990Y0236801D01*
X0076023Y0236945D01*
X0076061Y0237088D01*
X0076102Y0237230D01*
X0076147Y0237371D01*
X0076195Y0237511D01*
X0076248Y0237650D01*
X0076304Y0237787D01*
X0076364Y0237922D01*
X0076427Y0238056D01*
X0076494Y0238188D01*
X0076565Y0238318D01*
X0076639Y0238446D01*
X0076716Y0238572D01*
X0076797Y0238696D01*
X0076881Y0238818D01*
X0076968Y0238937D01*
X0077059Y0239054D01*
X0077153Y0239169D01*
X0077249Y0239281D01*
X0077349Y0239391D01*
X0077451Y0239497D01*
X0077557Y0239601D01*
X0077665Y0239702D01*
X0077776Y0239800D01*
X0077889Y0239896D01*
X0078005Y0239988D01*
X0078123Y0240077D01*
X0078244Y0240162D01*
X0078367Y0240245D01*
X0078492Y0240324D01*
X0078619Y0240400D01*
X0078748Y0240472D01*
X0078879Y0240541D01*
X0079012Y0240606D01*
X0079147Y0240667D01*
X0079283Y0240725D01*
X0079420Y0240780D01*
X0079559Y0240830D01*
X0079700Y0240877D01*
X0079841Y0240920D01*
X0079984Y0240960D01*
X0080128Y0240995D01*
X0080272Y0241027D01*
X0080418Y0241054D01*
X0080564Y0241078D01*
X0080711Y0241098D01*
X0080858Y0241114D01*
X0081005Y0241126D01*
X0081153Y0241134D01*
X0081301Y0241138D01*
X0081449Y0241138D01*
X0081597Y0241134D01*
X0081745Y0241126D01*
X0081892Y0241114D01*
X0082039Y0241098D01*
X0082186Y0241078D01*
X0082332Y0241054D01*
X0082478Y0241027D01*
X0082622Y0240995D01*
X0082766Y0240960D01*
X0082909Y0240920D01*
X0083050Y0240877D01*
X0083191Y0240830D01*
X0083330Y0240780D01*
X0083467Y0240725D01*
X0083603Y0240667D01*
X0083738Y0240606D01*
X0083871Y0240541D01*
X0084002Y0240472D01*
X0084131Y0240400D01*
X0084258Y0240324D01*
X0084383Y0240245D01*
X0084506Y0240162D01*
X0084627Y0240077D01*
X0084745Y0239988D01*
X0084861Y0239896D01*
X0084974Y0239800D01*
X0085085Y0239702D01*
X0085193Y0239601D01*
X0085299Y0239497D01*
X0085401Y0239391D01*
X0085501Y0239281D01*
X0085597Y0239169D01*
X0085691Y0239054D01*
X0085782Y0238937D01*
X0085869Y0238818D01*
X0085953Y0238696D01*
X0086034Y0238572D01*
X0086111Y0238446D01*
X0086185Y0238318D01*
X0086256Y0238188D01*
X0086323Y0238056D01*
X0086386Y0237922D01*
X0086446Y0237787D01*
X0086502Y0237650D01*
X0086555Y0237511D01*
X0086603Y0237371D01*
X0086648Y0237230D01*
X0086689Y0237088D01*
X0086727Y0236945D01*
X0086760Y0236801D01*
X0086790Y0236656D01*
X0086816Y0236510D01*
X0086837Y0236364D01*
X0086855Y0236217D01*
X0086869Y0236070D01*
X0086879Y0235922D01*
X0086885Y0235774D01*
X0086887Y0235626D01*
X0086885Y0235478D01*
X0086879Y0235330D01*
X0086869Y0235182D01*
X0086855Y0235035D01*
X0086837Y0234888D01*
X0086816Y0234742D01*
X0086790Y0234596D01*
X0086760Y0234451D01*
X0086727Y0234307D01*
X0086689Y0234164D01*
X0086648Y0234022D01*
X0086603Y0233881D01*
X0086555Y0233741D01*
X0086502Y0233602D01*
X0086446Y0233465D01*
X0086386Y0233330D01*
X0086323Y0233196D01*
X0086256Y0233064D01*
X0086185Y0232934D01*
X0086111Y0232806D01*
X0086034Y0232680D01*
X0085953Y0232556D01*
X0085869Y0232434D01*
X0085782Y0232315D01*
X0085691Y0232198D01*
X0085597Y0232083D01*
X0085501Y0231971D01*
X0085401Y0231861D01*
X0085299Y0231755D01*
X0085193Y0231651D01*
X0085085Y0231550D01*
X0084974Y0231452D01*
X0084861Y0231356D01*
X0084745Y0231264D01*
X0084627Y0231175D01*
X0084506Y0231090D01*
X0084383Y0231007D01*
X0084258Y0230928D01*
X0084131Y0230852D01*
X0084002Y0230780D01*
X0083871Y0230711D01*
X0083738Y0230646D01*
X0083603Y0230585D01*
X0083467Y0230527D01*
X0083330Y0230472D01*
X0083191Y0230422D01*
X0083050Y0230375D01*
X0082909Y0230332D01*
X0082766Y0230292D01*
X0082622Y0230257D01*
X0082478Y0230225D01*
X0082332Y0230198D01*
X0082186Y0230174D01*
X0082039Y0230154D01*
X0081892Y0230138D01*
X0081745Y0230126D01*
X0081597Y0230118D01*
X0081449Y0230114D01*
X0081301Y0230114D01*
X0081153Y0230118D01*
X0081005Y0230126D01*
X0080858Y0230138D01*
X0080711Y0230154D01*
X0080564Y0230174D01*
X0080418Y0230198D01*
X0080272Y0230225D01*
X0080128Y0230257D01*
X0079984Y0230292D01*
X0079841Y0230332D01*
X0079700Y0230375D01*
X0079559Y0230422D01*
X0079420Y0230472D01*
X0079283Y0230527D01*
X0079147Y0230585D01*
X0079012Y0230646D01*
X0078879Y0230711D01*
X0078748Y0230780D01*
X0078619Y0230852D01*
X0078492Y0230928D01*
X0078367Y0231007D01*
X0078244Y0231090D01*
X0078123Y0231175D01*
X0078005Y0231264D01*
X0077889Y0231356D01*
X0077776Y0231452D01*
X0077665Y0231550D01*
X0077557Y0231651D01*
X0077451Y0231755D01*
X0077349Y0231861D01*
X0077249Y0231971D01*
X0077153Y0232083D01*
X0077059Y0232198D01*
X0076968Y0232315D01*
X0076881Y0232434D01*
X0076797Y0232556D01*
X0076716Y0232680D01*
X0076639Y0232806D01*
X0076565Y0232934D01*
X0076494Y0233064D01*
X0076427Y0233196D01*
X0076364Y0233330D01*
X0076304Y0233465D01*
X0076248Y0233602D01*
X0076195Y0233741D01*
X0076147Y0233881D01*
X0076102Y0234022D01*
X0076061Y0234164D01*
X0076023Y0234307D01*
X0075990Y0234451D01*
X0075960Y0234596D01*
X0075934Y0234742D01*
X0075913Y0234888D01*
X0075895Y0235035D01*
X0075881Y0235182D01*
X0075871Y0235330D01*
X0075865Y0235478D01*
X0075863Y0235626D01*
X0241095Y0104933D02*
X0241095Y0043933D01*
X0241097Y0043835D01*
X0241103Y0043737D01*
X0241112Y0043639D01*
X0241126Y0043542D01*
X0241143Y0043445D01*
X0241164Y0043349D01*
X0241189Y0043254D01*
X0241217Y0043160D01*
X0241250Y0043068D01*
X0241285Y0042976D01*
X0241325Y0042886D01*
X0241367Y0042798D01*
X0241414Y0042711D01*
X0241463Y0042627D01*
X0241516Y0042544D01*
X0241572Y0042464D01*
X0241632Y0042385D01*
X0241694Y0042309D01*
X0241759Y0042236D01*
X0241827Y0042165D01*
X0241898Y0042097D01*
X0241971Y0042032D01*
X0242047Y0041970D01*
X0242126Y0041910D01*
X0242206Y0041854D01*
X0242289Y0041801D01*
X0242373Y0041752D01*
X0242460Y0041705D01*
X0242548Y0041663D01*
X0242638Y0041623D01*
X0242730Y0041588D01*
X0242822Y0041555D01*
X0242916Y0041527D01*
X0243011Y0041502D01*
X0243107Y0041481D01*
X0243204Y0041464D01*
X0243301Y0041450D01*
X0243399Y0041441D01*
X0243497Y0041435D01*
X0243595Y0041433D01*
X0246095Y0041433D01*
X0246193Y0041435D01*
X0246291Y0041441D01*
X0246389Y0041450D01*
X0246486Y0041464D01*
X0246583Y0041481D01*
X0246679Y0041502D01*
X0246774Y0041527D01*
X0246868Y0041555D01*
X0246960Y0041588D01*
X0247052Y0041623D01*
X0247142Y0041663D01*
X0247230Y0041705D01*
X0247317Y0041752D01*
X0247401Y0041801D01*
X0247484Y0041854D01*
X0247564Y0041910D01*
X0247643Y0041970D01*
X0247719Y0042032D01*
X0247792Y0042097D01*
X0247863Y0042165D01*
X0247931Y0042236D01*
X0247996Y0042309D01*
X0248058Y0042385D01*
X0248118Y0042464D01*
X0248174Y0042544D01*
X0248227Y0042627D01*
X0248276Y0042711D01*
X0248323Y0042798D01*
X0248365Y0042886D01*
X0248405Y0042976D01*
X0248440Y0043068D01*
X0248473Y0043160D01*
X0248501Y0043254D01*
X0248526Y0043349D01*
X0248547Y0043445D01*
X0248564Y0043542D01*
X0248578Y0043639D01*
X0248587Y0043737D01*
X0248593Y0043835D01*
X0248595Y0043933D01*
X0248595Y0104933D01*
X0248593Y0105031D01*
X0248587Y0105129D01*
X0248578Y0105227D01*
X0248564Y0105324D01*
X0248547Y0105421D01*
X0248526Y0105517D01*
X0248501Y0105612D01*
X0248473Y0105706D01*
X0248440Y0105798D01*
X0248405Y0105890D01*
X0248365Y0105980D01*
X0248323Y0106068D01*
X0248276Y0106155D01*
X0248227Y0106239D01*
X0248174Y0106322D01*
X0248118Y0106402D01*
X0248058Y0106481D01*
X0247996Y0106557D01*
X0247931Y0106630D01*
X0247863Y0106701D01*
X0247792Y0106769D01*
X0247719Y0106834D01*
X0247643Y0106896D01*
X0247564Y0106956D01*
X0247484Y0107012D01*
X0247401Y0107065D01*
X0247317Y0107114D01*
X0247230Y0107161D01*
X0247142Y0107203D01*
X0247052Y0107243D01*
X0246960Y0107278D01*
X0246868Y0107311D01*
X0246774Y0107339D01*
X0246679Y0107364D01*
X0246583Y0107385D01*
X0246486Y0107402D01*
X0246389Y0107416D01*
X0246291Y0107425D01*
X0246193Y0107431D01*
X0246095Y0107433D01*
X0243595Y0107433D01*
X0243497Y0107431D01*
X0243399Y0107425D01*
X0243301Y0107416D01*
X0243204Y0107402D01*
X0243107Y0107385D01*
X0243011Y0107364D01*
X0242916Y0107339D01*
X0242822Y0107311D01*
X0242730Y0107278D01*
X0242638Y0107243D01*
X0242548Y0107203D01*
X0242460Y0107161D01*
X0242373Y0107114D01*
X0242289Y0107065D01*
X0242206Y0107012D01*
X0242126Y0106956D01*
X0242047Y0106896D01*
X0241971Y0106834D01*
X0241898Y0106769D01*
X0241827Y0106701D01*
X0241759Y0106630D01*
X0241694Y0106557D01*
X0241632Y0106481D01*
X0241572Y0106402D01*
X0241516Y0106322D01*
X0241463Y0106239D01*
X0241414Y0106155D01*
X0241367Y0106068D01*
X0241325Y0105980D01*
X0241285Y0105890D01*
X0241250Y0105798D01*
X0241217Y0105706D01*
X0241189Y0105612D01*
X0241164Y0105517D01*
X0241143Y0105421D01*
X0241126Y0105324D01*
X0241112Y0105227D01*
X0241103Y0105129D01*
X0241097Y0105031D01*
X0241095Y0104933D01*
X0304209Y0042713D02*
X0304211Y0042861D01*
X0304217Y0043009D01*
X0304227Y0043157D01*
X0304241Y0043304D01*
X0304259Y0043451D01*
X0304280Y0043597D01*
X0304306Y0043743D01*
X0304336Y0043888D01*
X0304369Y0044032D01*
X0304407Y0044175D01*
X0304448Y0044317D01*
X0304493Y0044458D01*
X0304541Y0044598D01*
X0304594Y0044737D01*
X0304650Y0044874D01*
X0304710Y0045009D01*
X0304773Y0045143D01*
X0304840Y0045275D01*
X0304911Y0045405D01*
X0304985Y0045533D01*
X0305062Y0045659D01*
X0305143Y0045783D01*
X0305227Y0045905D01*
X0305314Y0046024D01*
X0305405Y0046141D01*
X0305499Y0046256D01*
X0305595Y0046368D01*
X0305695Y0046478D01*
X0305797Y0046584D01*
X0305903Y0046688D01*
X0306011Y0046789D01*
X0306122Y0046887D01*
X0306235Y0046983D01*
X0306351Y0047075D01*
X0306469Y0047164D01*
X0306590Y0047249D01*
X0306713Y0047332D01*
X0306838Y0047411D01*
X0306965Y0047487D01*
X0307094Y0047559D01*
X0307225Y0047628D01*
X0307358Y0047693D01*
X0307493Y0047754D01*
X0307629Y0047812D01*
X0307766Y0047867D01*
X0307905Y0047917D01*
X0308046Y0047964D01*
X0308187Y0048007D01*
X0308330Y0048047D01*
X0308474Y0048082D01*
X0308618Y0048114D01*
X0308764Y0048141D01*
X0308910Y0048165D01*
X0309057Y0048185D01*
X0309204Y0048201D01*
X0309351Y0048213D01*
X0309499Y0048221D01*
X0309647Y0048225D01*
X0309795Y0048225D01*
X0309943Y0048221D01*
X0310091Y0048213D01*
X0310238Y0048201D01*
X0310385Y0048185D01*
X0310532Y0048165D01*
X0310678Y0048141D01*
X0310824Y0048114D01*
X0310968Y0048082D01*
X0311112Y0048047D01*
X0311255Y0048007D01*
X0311396Y0047964D01*
X0311537Y0047917D01*
X0311676Y0047867D01*
X0311813Y0047812D01*
X0311949Y0047754D01*
X0312084Y0047693D01*
X0312217Y0047628D01*
X0312348Y0047559D01*
X0312477Y0047487D01*
X0312604Y0047411D01*
X0312729Y0047332D01*
X0312852Y0047249D01*
X0312973Y0047164D01*
X0313091Y0047075D01*
X0313207Y0046983D01*
X0313320Y0046887D01*
X0313431Y0046789D01*
X0313539Y0046688D01*
X0313645Y0046584D01*
X0313747Y0046478D01*
X0313847Y0046368D01*
X0313943Y0046256D01*
X0314037Y0046141D01*
X0314128Y0046024D01*
X0314215Y0045905D01*
X0314299Y0045783D01*
X0314380Y0045659D01*
X0314457Y0045533D01*
X0314531Y0045405D01*
X0314602Y0045275D01*
X0314669Y0045143D01*
X0314732Y0045009D01*
X0314792Y0044874D01*
X0314848Y0044737D01*
X0314901Y0044598D01*
X0314949Y0044458D01*
X0314994Y0044317D01*
X0315035Y0044175D01*
X0315073Y0044032D01*
X0315106Y0043888D01*
X0315136Y0043743D01*
X0315162Y0043597D01*
X0315183Y0043451D01*
X0315201Y0043304D01*
X0315215Y0043157D01*
X0315225Y0043009D01*
X0315231Y0042861D01*
X0315233Y0042713D01*
X0315231Y0042565D01*
X0315225Y0042417D01*
X0315215Y0042269D01*
X0315201Y0042122D01*
X0315183Y0041975D01*
X0315162Y0041829D01*
X0315136Y0041683D01*
X0315106Y0041538D01*
X0315073Y0041394D01*
X0315035Y0041251D01*
X0314994Y0041109D01*
X0314949Y0040968D01*
X0314901Y0040828D01*
X0314848Y0040689D01*
X0314792Y0040552D01*
X0314732Y0040417D01*
X0314669Y0040283D01*
X0314602Y0040151D01*
X0314531Y0040021D01*
X0314457Y0039893D01*
X0314380Y0039767D01*
X0314299Y0039643D01*
X0314215Y0039521D01*
X0314128Y0039402D01*
X0314037Y0039285D01*
X0313943Y0039170D01*
X0313847Y0039058D01*
X0313747Y0038948D01*
X0313645Y0038842D01*
X0313539Y0038738D01*
X0313431Y0038637D01*
X0313320Y0038539D01*
X0313207Y0038443D01*
X0313091Y0038351D01*
X0312973Y0038262D01*
X0312852Y0038177D01*
X0312729Y0038094D01*
X0312604Y0038015D01*
X0312477Y0037939D01*
X0312348Y0037867D01*
X0312217Y0037798D01*
X0312084Y0037733D01*
X0311949Y0037672D01*
X0311813Y0037614D01*
X0311676Y0037559D01*
X0311537Y0037509D01*
X0311396Y0037462D01*
X0311255Y0037419D01*
X0311112Y0037379D01*
X0310968Y0037344D01*
X0310824Y0037312D01*
X0310678Y0037285D01*
X0310532Y0037261D01*
X0310385Y0037241D01*
X0310238Y0037225D01*
X0310091Y0037213D01*
X0309943Y0037205D01*
X0309795Y0037201D01*
X0309647Y0037201D01*
X0309499Y0037205D01*
X0309351Y0037213D01*
X0309204Y0037225D01*
X0309057Y0037241D01*
X0308910Y0037261D01*
X0308764Y0037285D01*
X0308618Y0037312D01*
X0308474Y0037344D01*
X0308330Y0037379D01*
X0308187Y0037419D01*
X0308046Y0037462D01*
X0307905Y0037509D01*
X0307766Y0037559D01*
X0307629Y0037614D01*
X0307493Y0037672D01*
X0307358Y0037733D01*
X0307225Y0037798D01*
X0307094Y0037867D01*
X0306965Y0037939D01*
X0306838Y0038015D01*
X0306713Y0038094D01*
X0306590Y0038177D01*
X0306469Y0038262D01*
X0306351Y0038351D01*
X0306235Y0038443D01*
X0306122Y0038539D01*
X0306011Y0038637D01*
X0305903Y0038738D01*
X0305797Y0038842D01*
X0305695Y0038948D01*
X0305595Y0039058D01*
X0305499Y0039170D01*
X0305405Y0039285D01*
X0305314Y0039402D01*
X0305227Y0039521D01*
X0305143Y0039643D01*
X0305062Y0039767D01*
X0304985Y0039893D01*
X0304911Y0040021D01*
X0304840Y0040151D01*
X0304773Y0040283D01*
X0304710Y0040417D01*
X0304650Y0040552D01*
X0304594Y0040689D01*
X0304541Y0040828D01*
X0304493Y0040968D01*
X0304448Y0041109D01*
X0304407Y0041251D01*
X0304369Y0041394D01*
X0304336Y0041538D01*
X0304306Y0041683D01*
X0304280Y0041829D01*
X0304259Y0041975D01*
X0304241Y0042122D01*
X0304227Y0042269D01*
X0304217Y0042417D01*
X0304211Y0042565D01*
X0304209Y0042713D01*
X0304209Y0235626D02*
X0304211Y0235774D01*
X0304217Y0235922D01*
X0304227Y0236070D01*
X0304241Y0236217D01*
X0304259Y0236364D01*
X0304280Y0236510D01*
X0304306Y0236656D01*
X0304336Y0236801D01*
X0304369Y0236945D01*
X0304407Y0237088D01*
X0304448Y0237230D01*
X0304493Y0237371D01*
X0304541Y0237511D01*
X0304594Y0237650D01*
X0304650Y0237787D01*
X0304710Y0237922D01*
X0304773Y0238056D01*
X0304840Y0238188D01*
X0304911Y0238318D01*
X0304985Y0238446D01*
X0305062Y0238572D01*
X0305143Y0238696D01*
X0305227Y0238818D01*
X0305314Y0238937D01*
X0305405Y0239054D01*
X0305499Y0239169D01*
X0305595Y0239281D01*
X0305695Y0239391D01*
X0305797Y0239497D01*
X0305903Y0239601D01*
X0306011Y0239702D01*
X0306122Y0239800D01*
X0306235Y0239896D01*
X0306351Y0239988D01*
X0306469Y0240077D01*
X0306590Y0240162D01*
X0306713Y0240245D01*
X0306838Y0240324D01*
X0306965Y0240400D01*
X0307094Y0240472D01*
X0307225Y0240541D01*
X0307358Y0240606D01*
X0307493Y0240667D01*
X0307629Y0240725D01*
X0307766Y0240780D01*
X0307905Y0240830D01*
X0308046Y0240877D01*
X0308187Y0240920D01*
X0308330Y0240960D01*
X0308474Y0240995D01*
X0308618Y0241027D01*
X0308764Y0241054D01*
X0308910Y0241078D01*
X0309057Y0241098D01*
X0309204Y0241114D01*
X0309351Y0241126D01*
X0309499Y0241134D01*
X0309647Y0241138D01*
X0309795Y0241138D01*
X0309943Y0241134D01*
X0310091Y0241126D01*
X0310238Y0241114D01*
X0310385Y0241098D01*
X0310532Y0241078D01*
X0310678Y0241054D01*
X0310824Y0241027D01*
X0310968Y0240995D01*
X0311112Y0240960D01*
X0311255Y0240920D01*
X0311396Y0240877D01*
X0311537Y0240830D01*
X0311676Y0240780D01*
X0311813Y0240725D01*
X0311949Y0240667D01*
X0312084Y0240606D01*
X0312217Y0240541D01*
X0312348Y0240472D01*
X0312477Y0240400D01*
X0312604Y0240324D01*
X0312729Y0240245D01*
X0312852Y0240162D01*
X0312973Y0240077D01*
X0313091Y0239988D01*
X0313207Y0239896D01*
X0313320Y0239800D01*
X0313431Y0239702D01*
X0313539Y0239601D01*
X0313645Y0239497D01*
X0313747Y0239391D01*
X0313847Y0239281D01*
X0313943Y0239169D01*
X0314037Y0239054D01*
X0314128Y0238937D01*
X0314215Y0238818D01*
X0314299Y0238696D01*
X0314380Y0238572D01*
X0314457Y0238446D01*
X0314531Y0238318D01*
X0314602Y0238188D01*
X0314669Y0238056D01*
X0314732Y0237922D01*
X0314792Y0237787D01*
X0314848Y0237650D01*
X0314901Y0237511D01*
X0314949Y0237371D01*
X0314994Y0237230D01*
X0315035Y0237088D01*
X0315073Y0236945D01*
X0315106Y0236801D01*
X0315136Y0236656D01*
X0315162Y0236510D01*
X0315183Y0236364D01*
X0315201Y0236217D01*
X0315215Y0236070D01*
X0315225Y0235922D01*
X0315231Y0235774D01*
X0315233Y0235626D01*
X0315231Y0235478D01*
X0315225Y0235330D01*
X0315215Y0235182D01*
X0315201Y0235035D01*
X0315183Y0234888D01*
X0315162Y0234742D01*
X0315136Y0234596D01*
X0315106Y0234451D01*
X0315073Y0234307D01*
X0315035Y0234164D01*
X0314994Y0234022D01*
X0314949Y0233881D01*
X0314901Y0233741D01*
X0314848Y0233602D01*
X0314792Y0233465D01*
X0314732Y0233330D01*
X0314669Y0233196D01*
X0314602Y0233064D01*
X0314531Y0232934D01*
X0314457Y0232806D01*
X0314380Y0232680D01*
X0314299Y0232556D01*
X0314215Y0232434D01*
X0314128Y0232315D01*
X0314037Y0232198D01*
X0313943Y0232083D01*
X0313847Y0231971D01*
X0313747Y0231861D01*
X0313645Y0231755D01*
X0313539Y0231651D01*
X0313431Y0231550D01*
X0313320Y0231452D01*
X0313207Y0231356D01*
X0313091Y0231264D01*
X0312973Y0231175D01*
X0312852Y0231090D01*
X0312729Y0231007D01*
X0312604Y0230928D01*
X0312477Y0230852D01*
X0312348Y0230780D01*
X0312217Y0230711D01*
X0312084Y0230646D01*
X0311949Y0230585D01*
X0311813Y0230527D01*
X0311676Y0230472D01*
X0311537Y0230422D01*
X0311396Y0230375D01*
X0311255Y0230332D01*
X0311112Y0230292D01*
X0310968Y0230257D01*
X0310824Y0230225D01*
X0310678Y0230198D01*
X0310532Y0230174D01*
X0310385Y0230154D01*
X0310238Y0230138D01*
X0310091Y0230126D01*
X0309943Y0230118D01*
X0309795Y0230114D01*
X0309647Y0230114D01*
X0309499Y0230118D01*
X0309351Y0230126D01*
X0309204Y0230138D01*
X0309057Y0230154D01*
X0308910Y0230174D01*
X0308764Y0230198D01*
X0308618Y0230225D01*
X0308474Y0230257D01*
X0308330Y0230292D01*
X0308187Y0230332D01*
X0308046Y0230375D01*
X0307905Y0230422D01*
X0307766Y0230472D01*
X0307629Y0230527D01*
X0307493Y0230585D01*
X0307358Y0230646D01*
X0307225Y0230711D01*
X0307094Y0230780D01*
X0306965Y0230852D01*
X0306838Y0230928D01*
X0306713Y0231007D01*
X0306590Y0231090D01*
X0306469Y0231175D01*
X0306351Y0231264D01*
X0306235Y0231356D01*
X0306122Y0231452D01*
X0306011Y0231550D01*
X0305903Y0231651D01*
X0305797Y0231755D01*
X0305695Y0231861D01*
X0305595Y0231971D01*
X0305499Y0232083D01*
X0305405Y0232198D01*
X0305314Y0232315D01*
X0305227Y0232434D01*
X0305143Y0232556D01*
X0305062Y0232680D01*
X0304985Y0232806D01*
X0304911Y0232934D01*
X0304840Y0233064D01*
X0304773Y0233196D01*
X0304710Y0233330D01*
X0304650Y0233465D01*
X0304594Y0233602D01*
X0304541Y0233741D01*
X0304493Y0233881D01*
X0304448Y0234022D01*
X0304407Y0234164D01*
X0304369Y0234307D01*
X0304336Y0234451D01*
X0304306Y0234596D01*
X0304280Y0234742D01*
X0304259Y0234888D01*
X0304241Y0235035D01*
X0304227Y0235182D01*
X0304217Y0235330D01*
X0304211Y0235478D01*
X0304209Y0235626D01*
D11*
X0309721Y0235626D03*
X0081375Y0235626D03*
X0081375Y0042713D03*
X0309721Y0042713D03*
D12*
X0290548Y0230626D03*
X0280548Y0230626D03*
X0270548Y0230626D03*
X0260548Y0230626D03*
X0250548Y0230626D03*
X0240548Y0230626D03*
X0230548Y0230626D03*
X0220548Y0230626D03*
X0210548Y0230626D03*
X0200548Y0230626D03*
X0190548Y0230626D03*
X0180548Y0230626D03*
X0170548Y0230626D03*
X0160548Y0230626D03*
X0150548Y0230626D03*
X0140548Y0230626D03*
X0130548Y0230626D03*
X0120548Y0230626D03*
X0110548Y0230626D03*
X0100548Y0230626D03*
X0100548Y0240626D03*
X0110548Y0240626D03*
X0120548Y0240626D03*
X0130548Y0240626D03*
X0140548Y0240626D03*
X0150548Y0240626D03*
X0160548Y0240626D03*
X0170548Y0240626D03*
X0180548Y0240626D03*
X0190548Y0240626D03*
X0200548Y0240626D03*
X0210548Y0240626D03*
X0220548Y0240626D03*
X0230548Y0240626D03*
X0240548Y0240626D03*
X0250548Y0240626D03*
X0260548Y0240626D03*
X0270548Y0240626D03*
X0280548Y0240626D03*
X0290548Y0240626D03*
D13*
X0297595Y0223933D03*
X0100595Y0034933D03*
D14*
X0097642Y0034933D02*
X0097644Y0034825D01*
X0097650Y0034717D01*
X0097660Y0034610D01*
X0097673Y0034503D01*
X0097691Y0034397D01*
X0097713Y0034291D01*
X0097738Y0034186D01*
X0097767Y0034082D01*
X0097800Y0033980D01*
X0097837Y0033878D01*
X0097877Y0033778D01*
X0097921Y0033680D01*
X0097969Y0033583D01*
X0098020Y0033488D01*
X0098074Y0033395D01*
X0098132Y0033304D01*
X0098193Y0033215D01*
X0098258Y0033128D01*
X0098325Y0033044D01*
X0098396Y0032962D01*
X0098469Y0032883D01*
X0098545Y0032807D01*
X0098624Y0032734D01*
X0098706Y0032663D01*
X0098790Y0032596D01*
X0098877Y0032531D01*
X0098966Y0032470D01*
X0099057Y0032412D01*
X0099150Y0032358D01*
X0099245Y0032307D01*
X0099342Y0032259D01*
X0099440Y0032215D01*
X0099540Y0032175D01*
X0099642Y0032138D01*
X0099744Y0032105D01*
X0099848Y0032076D01*
X0099953Y0032051D01*
X0100059Y0032029D01*
X0100165Y0032011D01*
X0100272Y0031998D01*
X0100379Y0031988D01*
X0100487Y0031982D01*
X0100595Y0031980D01*
X0100703Y0031982D01*
X0100811Y0031988D01*
X0100918Y0031998D01*
X0101025Y0032011D01*
X0101131Y0032029D01*
X0101237Y0032051D01*
X0101342Y0032076D01*
X0101446Y0032105D01*
X0101548Y0032138D01*
X0101650Y0032175D01*
X0101750Y0032215D01*
X0101848Y0032259D01*
X0101945Y0032307D01*
X0102040Y0032358D01*
X0102133Y0032412D01*
X0102224Y0032470D01*
X0102313Y0032531D01*
X0102400Y0032596D01*
X0102484Y0032663D01*
X0102566Y0032734D01*
X0102645Y0032807D01*
X0102721Y0032883D01*
X0102794Y0032962D01*
X0102865Y0033044D01*
X0102932Y0033128D01*
X0102997Y0033215D01*
X0103058Y0033304D01*
X0103116Y0033395D01*
X0103170Y0033488D01*
X0103221Y0033583D01*
X0103269Y0033680D01*
X0103313Y0033778D01*
X0103353Y0033878D01*
X0103390Y0033980D01*
X0103423Y0034082D01*
X0103452Y0034186D01*
X0103477Y0034291D01*
X0103499Y0034397D01*
X0103517Y0034503D01*
X0103530Y0034610D01*
X0103540Y0034717D01*
X0103546Y0034825D01*
X0103548Y0034933D01*
X0103546Y0035041D01*
X0103540Y0035149D01*
X0103530Y0035256D01*
X0103517Y0035363D01*
X0103499Y0035469D01*
X0103477Y0035575D01*
X0103452Y0035680D01*
X0103423Y0035784D01*
X0103390Y0035886D01*
X0103353Y0035988D01*
X0103313Y0036088D01*
X0103269Y0036186D01*
X0103221Y0036283D01*
X0103170Y0036378D01*
X0103116Y0036471D01*
X0103058Y0036562D01*
X0102997Y0036651D01*
X0102932Y0036738D01*
X0102865Y0036822D01*
X0102794Y0036904D01*
X0102721Y0036983D01*
X0102645Y0037059D01*
X0102566Y0037132D01*
X0102484Y0037203D01*
X0102400Y0037270D01*
X0102313Y0037335D01*
X0102224Y0037396D01*
X0102133Y0037454D01*
X0102040Y0037508D01*
X0101945Y0037559D01*
X0101848Y0037607D01*
X0101750Y0037651D01*
X0101650Y0037691D01*
X0101548Y0037728D01*
X0101446Y0037761D01*
X0101342Y0037790D01*
X0101237Y0037815D01*
X0101131Y0037837D01*
X0101025Y0037855D01*
X0100918Y0037868D01*
X0100811Y0037878D01*
X0100703Y0037884D01*
X0100595Y0037886D01*
X0100487Y0037884D01*
X0100379Y0037878D01*
X0100272Y0037868D01*
X0100165Y0037855D01*
X0100059Y0037837D01*
X0099953Y0037815D01*
X0099848Y0037790D01*
X0099744Y0037761D01*
X0099642Y0037728D01*
X0099540Y0037691D01*
X0099440Y0037651D01*
X0099342Y0037607D01*
X0099245Y0037559D01*
X0099150Y0037508D01*
X0099057Y0037454D01*
X0098966Y0037396D01*
X0098877Y0037335D01*
X0098790Y0037270D01*
X0098706Y0037203D01*
X0098624Y0037132D01*
X0098545Y0037059D01*
X0098469Y0036983D01*
X0098396Y0036904D01*
X0098325Y0036822D01*
X0098258Y0036738D01*
X0098193Y0036651D01*
X0098132Y0036562D01*
X0098074Y0036471D01*
X0098020Y0036378D01*
X0097969Y0036283D01*
X0097921Y0036186D01*
X0097877Y0036088D01*
X0097837Y0035988D01*
X0097800Y0035886D01*
X0097767Y0035784D01*
X0097738Y0035680D01*
X0097713Y0035575D01*
X0097691Y0035469D01*
X0097673Y0035363D01*
X0097660Y0035256D01*
X0097650Y0035149D01*
X0097644Y0035041D01*
X0097642Y0034933D01*
X0294642Y0223933D02*
X0294644Y0223825D01*
X0294650Y0223717D01*
X0294660Y0223610D01*
X0294673Y0223503D01*
X0294691Y0223397D01*
X0294713Y0223291D01*
X0294738Y0223186D01*
X0294767Y0223082D01*
X0294800Y0222980D01*
X0294837Y0222878D01*
X0294877Y0222778D01*
X0294921Y0222680D01*
X0294969Y0222583D01*
X0295020Y0222488D01*
X0295074Y0222395D01*
X0295132Y0222304D01*
X0295193Y0222215D01*
X0295258Y0222128D01*
X0295325Y0222044D01*
X0295396Y0221962D01*
X0295469Y0221883D01*
X0295545Y0221807D01*
X0295624Y0221734D01*
X0295706Y0221663D01*
X0295790Y0221596D01*
X0295877Y0221531D01*
X0295966Y0221470D01*
X0296057Y0221412D01*
X0296150Y0221358D01*
X0296245Y0221307D01*
X0296342Y0221259D01*
X0296440Y0221215D01*
X0296540Y0221175D01*
X0296642Y0221138D01*
X0296744Y0221105D01*
X0296848Y0221076D01*
X0296953Y0221051D01*
X0297059Y0221029D01*
X0297165Y0221011D01*
X0297272Y0220998D01*
X0297379Y0220988D01*
X0297487Y0220982D01*
X0297595Y0220980D01*
X0297703Y0220982D01*
X0297811Y0220988D01*
X0297918Y0220998D01*
X0298025Y0221011D01*
X0298131Y0221029D01*
X0298237Y0221051D01*
X0298342Y0221076D01*
X0298446Y0221105D01*
X0298548Y0221138D01*
X0298650Y0221175D01*
X0298750Y0221215D01*
X0298848Y0221259D01*
X0298945Y0221307D01*
X0299040Y0221358D01*
X0299133Y0221412D01*
X0299224Y0221470D01*
X0299313Y0221531D01*
X0299400Y0221596D01*
X0299484Y0221663D01*
X0299566Y0221734D01*
X0299645Y0221807D01*
X0299721Y0221883D01*
X0299794Y0221962D01*
X0299865Y0222044D01*
X0299932Y0222128D01*
X0299997Y0222215D01*
X0300058Y0222304D01*
X0300116Y0222395D01*
X0300170Y0222488D01*
X0300221Y0222583D01*
X0300269Y0222680D01*
X0300313Y0222778D01*
X0300353Y0222878D01*
X0300390Y0222980D01*
X0300423Y0223082D01*
X0300452Y0223186D01*
X0300477Y0223291D01*
X0300499Y0223397D01*
X0300517Y0223503D01*
X0300530Y0223610D01*
X0300540Y0223717D01*
X0300546Y0223825D01*
X0300548Y0223933D01*
X0300546Y0224041D01*
X0300540Y0224149D01*
X0300530Y0224256D01*
X0300517Y0224363D01*
X0300499Y0224469D01*
X0300477Y0224575D01*
X0300452Y0224680D01*
X0300423Y0224784D01*
X0300390Y0224886D01*
X0300353Y0224988D01*
X0300313Y0225088D01*
X0300269Y0225186D01*
X0300221Y0225283D01*
X0300170Y0225378D01*
X0300116Y0225471D01*
X0300058Y0225562D01*
X0299997Y0225651D01*
X0299932Y0225738D01*
X0299865Y0225822D01*
X0299794Y0225904D01*
X0299721Y0225983D01*
X0299645Y0226059D01*
X0299566Y0226132D01*
X0299484Y0226203D01*
X0299400Y0226270D01*
X0299313Y0226335D01*
X0299224Y0226396D01*
X0299133Y0226454D01*
X0299040Y0226508D01*
X0298945Y0226559D01*
X0298848Y0226607D01*
X0298750Y0226651D01*
X0298650Y0226691D01*
X0298548Y0226728D01*
X0298446Y0226761D01*
X0298342Y0226790D01*
X0298237Y0226815D01*
X0298131Y0226837D01*
X0298025Y0226855D01*
X0297918Y0226868D01*
X0297811Y0226878D01*
X0297703Y0226884D01*
X0297595Y0226886D01*
X0297487Y0226884D01*
X0297379Y0226878D01*
X0297272Y0226868D01*
X0297165Y0226855D01*
X0297059Y0226837D01*
X0296953Y0226815D01*
X0296848Y0226790D01*
X0296744Y0226761D01*
X0296642Y0226728D01*
X0296540Y0226691D01*
X0296440Y0226651D01*
X0296342Y0226607D01*
X0296245Y0226559D01*
X0296150Y0226508D01*
X0296057Y0226454D01*
X0295966Y0226396D01*
X0295877Y0226335D01*
X0295790Y0226270D01*
X0295706Y0226203D01*
X0295624Y0226132D01*
X0295545Y0226059D01*
X0295469Y0225983D01*
X0295396Y0225904D01*
X0295325Y0225822D01*
X0295258Y0225738D01*
X0295193Y0225651D01*
X0295132Y0225562D01*
X0295074Y0225471D01*
X0295020Y0225378D01*
X0294969Y0225283D01*
X0294921Y0225186D01*
X0294877Y0225088D01*
X0294837Y0224988D01*
X0294800Y0224886D01*
X0294767Y0224784D01*
X0294738Y0224680D01*
X0294713Y0224575D01*
X0294691Y0224469D01*
X0294673Y0224363D01*
X0294660Y0224256D01*
X0294650Y0224149D01*
X0294644Y0224041D01*
X0294642Y0223933D01*
D15*
X0190371Y0198992D03*
X0190349Y0190868D03*
X0190341Y0182870D03*
X0190341Y0175370D03*
X0190371Y0167448D03*
X0190349Y0159622D03*
X0190371Y0151748D03*
X0190341Y0143874D03*
X0127341Y0143874D03*
X0127349Y0159622D03*
X0127349Y0167496D03*
X0127349Y0191118D03*
X0127349Y0198992D03*
X0127349Y0088992D03*
X0127349Y0081118D03*
X0127349Y0057496D03*
X0127349Y0049622D03*
X0127341Y0033874D03*
X0190341Y0033874D03*
X0190371Y0041748D03*
X0190349Y0049622D03*
X0190371Y0057448D03*
X0190341Y0065370D03*
X0190341Y0072870D03*
X0190349Y0080868D03*
X0190371Y0088992D03*
D16*
X0112595Y0096433D03*
X0102595Y0086433D03*
X0092595Y0076433D03*
X0112595Y0076433D03*
X0092595Y0096433D03*
X0092595Y0188933D03*
X0102595Y0198933D03*
X0092595Y0208933D03*
X0112595Y0208933D03*
X0112595Y0188933D03*
X0268095Y0083933D03*
X0278095Y0073933D03*
X0268095Y0063933D03*
X0288095Y0063933D03*
X0288095Y0083933D03*
D17*
X0148032Y0209683D03*
X0140158Y0209683D03*
X0110532Y0057433D03*
X0102658Y0057433D03*
D18*
X0177595Y0105433D03*
X0187595Y0105433D03*
X0187595Y0127933D03*
X0177595Y0127933D03*
X0255095Y0208933D03*
X0265095Y0208933D03*
X0287595Y0208933D03*
X0297595Y0208933D03*
X0307595Y0208933D03*
D19*
X0308897Y0191686D02*
X0308897Y0184172D01*
X0308897Y0191686D02*
X0313537Y0191686D01*
X0313537Y0184172D01*
X0308897Y0184172D01*
X0308897Y0185331D02*
X0313537Y0185331D01*
X0313537Y0186490D02*
X0308897Y0186490D01*
X0308897Y0187649D02*
X0313537Y0187649D01*
X0313537Y0188808D02*
X0308897Y0188808D01*
X0308897Y0189967D02*
X0313537Y0189967D01*
X0313537Y0191126D02*
X0308897Y0191126D01*
X0301023Y0191686D02*
X0301023Y0184172D01*
X0301023Y0191686D02*
X0305663Y0191686D01*
X0305663Y0184172D01*
X0301023Y0184172D01*
X0301023Y0185331D02*
X0305663Y0185331D01*
X0305663Y0186490D02*
X0301023Y0186490D01*
X0301023Y0187649D02*
X0305663Y0187649D01*
X0305663Y0188808D02*
X0301023Y0188808D01*
X0301023Y0189967D02*
X0305663Y0189967D01*
X0305663Y0191126D02*
X0301023Y0191126D01*
X0277401Y0191694D02*
X0277401Y0184180D01*
X0277401Y0191694D02*
X0282041Y0191694D01*
X0282041Y0184180D01*
X0277401Y0184180D01*
X0277401Y0185339D02*
X0282041Y0185339D01*
X0282041Y0186498D02*
X0277401Y0186498D01*
X0277401Y0187657D02*
X0282041Y0187657D01*
X0282041Y0188816D02*
X0277401Y0188816D01*
X0277401Y0189975D02*
X0282041Y0189975D01*
X0282041Y0191134D02*
X0277401Y0191134D01*
X0269527Y0191694D02*
X0269527Y0184180D01*
X0269527Y0191694D02*
X0274167Y0191694D01*
X0274167Y0184180D01*
X0269527Y0184180D01*
X0269527Y0185339D02*
X0274167Y0185339D01*
X0274167Y0186498D02*
X0269527Y0186498D01*
X0269527Y0187657D02*
X0274167Y0187657D01*
X0274167Y0188816D02*
X0269527Y0188816D01*
X0269527Y0189975D02*
X0274167Y0189975D01*
X0274167Y0191134D02*
X0269527Y0191134D01*
X0269527Y0128694D02*
X0269527Y0121180D01*
X0269527Y0128694D02*
X0274167Y0128694D01*
X0274167Y0121180D01*
X0269527Y0121180D01*
X0269527Y0122339D02*
X0274167Y0122339D01*
X0274167Y0123498D02*
X0269527Y0123498D01*
X0269527Y0124657D02*
X0274167Y0124657D01*
X0274167Y0125816D02*
X0269527Y0125816D01*
X0269527Y0126975D02*
X0274167Y0126975D01*
X0274167Y0128134D02*
X0269527Y0128134D01*
X0261653Y0128694D02*
X0261653Y0121180D01*
X0261653Y0128694D02*
X0266293Y0128694D01*
X0266293Y0121180D01*
X0261653Y0121180D01*
X0261653Y0122339D02*
X0266293Y0122339D01*
X0266293Y0123498D02*
X0261653Y0123498D01*
X0261653Y0124657D02*
X0266293Y0124657D01*
X0266293Y0125816D02*
X0261653Y0125816D01*
X0261653Y0126975D02*
X0266293Y0126975D01*
X0266293Y0128134D02*
X0261653Y0128134D01*
X0277401Y0128694D02*
X0277401Y0121180D01*
X0277401Y0128694D02*
X0282041Y0128694D01*
X0282041Y0121180D01*
X0277401Y0121180D01*
X0277401Y0122339D02*
X0282041Y0122339D01*
X0282041Y0123498D02*
X0277401Y0123498D01*
X0277401Y0124657D02*
X0282041Y0124657D01*
X0282041Y0125816D02*
X0277401Y0125816D01*
X0277401Y0126975D02*
X0282041Y0126975D01*
X0282041Y0128134D02*
X0277401Y0128134D01*
X0293149Y0128694D02*
X0293149Y0121180D01*
X0293149Y0128694D02*
X0297789Y0128694D01*
X0297789Y0121180D01*
X0293149Y0121180D01*
X0293149Y0122339D02*
X0297789Y0122339D01*
X0297789Y0123498D02*
X0293149Y0123498D01*
X0293149Y0124657D02*
X0297789Y0124657D01*
X0297789Y0125816D02*
X0293149Y0125816D01*
X0293149Y0126975D02*
X0297789Y0126975D01*
X0297789Y0128134D02*
X0293149Y0128134D01*
X0301023Y0128694D02*
X0301023Y0121180D01*
X0301023Y0128694D02*
X0305663Y0128694D01*
X0305663Y0121180D01*
X0301023Y0121180D01*
X0301023Y0122339D02*
X0305663Y0122339D01*
X0305663Y0123498D02*
X0301023Y0123498D01*
X0301023Y0124657D02*
X0305663Y0124657D01*
X0305663Y0125816D02*
X0301023Y0125816D01*
X0301023Y0126975D02*
X0305663Y0126975D01*
X0305663Y0128134D02*
X0301023Y0128134D01*
X0308897Y0128694D02*
X0308897Y0121180D01*
X0308897Y0128694D02*
X0313537Y0128694D01*
X0313537Y0121180D01*
X0308897Y0121180D01*
X0308897Y0122339D02*
X0313537Y0122339D01*
X0313537Y0123498D02*
X0308897Y0123498D01*
X0308897Y0124657D02*
X0313537Y0124657D01*
X0313537Y0125816D02*
X0308897Y0125816D01*
X0308897Y0126975D02*
X0313537Y0126975D01*
X0313537Y0128134D02*
X0308897Y0128134D01*
D20*
X0307280Y0097437D03*
X0299406Y0097437D03*
X0291532Y0097437D03*
X0283658Y0097437D03*
X0267910Y0097437D03*
X0260036Y0097437D03*
X0260036Y0174209D03*
X0291580Y0174209D03*
X0307280Y0174209D03*
X0315280Y0174209D03*
D21*
X0247595Y0179496D03*
X0247595Y0187370D03*
X0242595Y0134870D03*
X0242595Y0126996D03*
D22*
X0280015Y0046982D02*
X0280015Y0041142D01*
X0276175Y0041142D01*
X0276175Y0046982D01*
X0280015Y0046982D01*
X0280015Y0042101D02*
X0276175Y0042101D01*
X0276175Y0043060D02*
X0280015Y0043060D01*
X0280015Y0044019D02*
X0276175Y0044019D01*
X0276175Y0044978D02*
X0280015Y0044978D01*
X0280015Y0045937D02*
X0276175Y0045937D01*
X0276175Y0046896D02*
X0280015Y0046896D01*
X0285804Y0041933D02*
X0285804Y0033433D01*
X0281964Y0033433D01*
X0281964Y0041933D01*
X0285804Y0041933D01*
X0285804Y0034392D02*
X0281964Y0034392D01*
X0281964Y0035351D02*
X0285804Y0035351D01*
X0285804Y0036310D02*
X0281964Y0036310D01*
X0281964Y0037269D02*
X0285804Y0037269D01*
X0285804Y0038228D02*
X0281964Y0038228D01*
X0281964Y0039187D02*
X0285804Y0039187D01*
X0285804Y0040146D02*
X0281964Y0040146D01*
X0281964Y0041105D02*
X0285804Y0041105D01*
X0274227Y0041933D02*
X0274227Y0033433D01*
X0270387Y0033433D01*
X0270387Y0041933D01*
X0274227Y0041933D01*
X0274227Y0034392D02*
X0270387Y0034392D01*
X0270387Y0035351D02*
X0274227Y0035351D01*
X0274227Y0036310D02*
X0270387Y0036310D01*
X0270387Y0037269D02*
X0274227Y0037269D01*
X0274227Y0038228D02*
X0270387Y0038228D01*
X0270387Y0039187D02*
X0274227Y0039187D01*
X0274227Y0040146D02*
X0270387Y0040146D01*
X0270387Y0041105D02*
X0274227Y0041105D01*
X0085644Y0084513D02*
X0079804Y0084513D01*
X0079804Y0088353D01*
X0085644Y0088353D01*
X0085644Y0084513D01*
X0085644Y0085472D02*
X0079804Y0085472D01*
X0079804Y0086431D02*
X0085644Y0086431D01*
X0085644Y0087390D02*
X0079804Y0087390D01*
X0079804Y0088349D02*
X0085644Y0088349D01*
X0080595Y0090301D02*
X0072095Y0090301D01*
X0072095Y0094141D01*
X0080595Y0094141D01*
X0080595Y0090301D01*
X0080595Y0091260D02*
X0072095Y0091260D01*
X0072095Y0092219D02*
X0080595Y0092219D01*
X0080595Y0093178D02*
X0072095Y0093178D01*
X0072095Y0094137D02*
X0080595Y0094137D01*
X0080595Y0078725D02*
X0072095Y0078725D01*
X0072095Y0082565D01*
X0080595Y0082565D01*
X0080595Y0078725D01*
X0080595Y0079684D02*
X0072095Y0079684D01*
X0072095Y0080643D02*
X0080595Y0080643D01*
X0080595Y0081602D02*
X0072095Y0081602D01*
X0072095Y0082561D02*
X0080595Y0082561D01*
X0080595Y0191225D02*
X0072095Y0191225D01*
X0072095Y0195065D01*
X0080595Y0195065D01*
X0080595Y0191225D01*
X0080595Y0192184D02*
X0072095Y0192184D01*
X0072095Y0193143D02*
X0080595Y0193143D01*
X0080595Y0194102D02*
X0072095Y0194102D01*
X0072095Y0195061D02*
X0080595Y0195061D01*
X0079804Y0197013D02*
X0085644Y0197013D01*
X0079804Y0197013D02*
X0079804Y0200853D01*
X0085644Y0200853D01*
X0085644Y0197013D01*
X0085644Y0197972D02*
X0079804Y0197972D01*
X0079804Y0198931D02*
X0085644Y0198931D01*
X0085644Y0199890D02*
X0079804Y0199890D01*
X0079804Y0200849D02*
X0085644Y0200849D01*
X0080595Y0202801D02*
X0072095Y0202801D01*
X0072095Y0206641D01*
X0080595Y0206641D01*
X0080595Y0202801D01*
X0080595Y0203760D02*
X0072095Y0203760D01*
X0072095Y0204719D02*
X0080595Y0204719D01*
X0080595Y0205678D02*
X0072095Y0205678D01*
X0072095Y0206637D02*
X0080595Y0206637D01*
D23*
X0087595Y0198933D03*
X0087595Y0086433D03*
X0278095Y0048933D03*
D24*
X0076845Y0076433D03*
X0076845Y0096433D03*
X0076845Y0188933D03*
X0076845Y0208933D03*
D25*
X0268095Y0038183D03*
X0288095Y0038183D03*
D26*
X0302176Y0063967D02*
X0305140Y0063967D01*
X0302176Y0063967D02*
X0302176Y0068899D01*
X0305140Y0068899D01*
X0305140Y0063967D01*
X0305140Y0064953D02*
X0302176Y0064953D01*
X0302176Y0065939D02*
X0305140Y0065939D01*
X0305140Y0066925D02*
X0302176Y0066925D01*
X0302176Y0067911D02*
X0305140Y0067911D01*
X0305140Y0068897D02*
X0302176Y0068897D01*
X0302176Y0073967D02*
X0305140Y0073967D01*
X0302176Y0073967D02*
X0302176Y0078899D01*
X0305140Y0078899D01*
X0305140Y0073967D01*
X0305140Y0074953D02*
X0302176Y0074953D01*
X0302176Y0075939D02*
X0305140Y0075939D01*
X0305140Y0076925D02*
X0302176Y0076925D01*
X0302176Y0077911D02*
X0305140Y0077911D01*
X0305140Y0078897D02*
X0302176Y0078897D01*
X0310050Y0073967D02*
X0313014Y0073967D01*
X0310050Y0073967D02*
X0310050Y0078899D01*
X0313014Y0078899D01*
X0313014Y0073967D01*
X0313014Y0074953D02*
X0310050Y0074953D01*
X0310050Y0075939D02*
X0313014Y0075939D01*
X0313014Y0076925D02*
X0310050Y0076925D01*
X0310050Y0077911D02*
X0313014Y0077911D01*
X0313014Y0078897D02*
X0310050Y0078897D01*
X0310050Y0063967D02*
X0313014Y0063967D01*
X0310050Y0063967D02*
X0310050Y0068899D01*
X0313014Y0068899D01*
X0313014Y0063967D01*
X0313014Y0064953D02*
X0310050Y0064953D01*
X0310050Y0065939D02*
X0313014Y0065939D01*
X0313014Y0066925D02*
X0310050Y0066925D01*
X0310050Y0067911D02*
X0313014Y0067911D01*
X0313014Y0068897D02*
X0310050Y0068897D01*
X0105129Y0161014D02*
X0105129Y0163978D01*
X0110061Y0163978D01*
X0110061Y0161014D01*
X0105129Y0161014D01*
X0105129Y0162000D02*
X0110061Y0162000D01*
X0110061Y0162986D02*
X0105129Y0162986D01*
X0105129Y0163972D02*
X0110061Y0163972D01*
X0105129Y0168888D02*
X0105129Y0171852D01*
X0110061Y0171852D01*
X0110061Y0168888D01*
X0105129Y0168888D01*
X0105129Y0169874D02*
X0110061Y0169874D01*
X0110061Y0170860D02*
X0105129Y0170860D01*
X0105129Y0171846D02*
X0110061Y0171846D01*
X0092629Y0171852D02*
X0092629Y0168888D01*
X0092629Y0171852D02*
X0097561Y0171852D01*
X0097561Y0168888D01*
X0092629Y0168888D01*
X0092629Y0169874D02*
X0097561Y0169874D01*
X0097561Y0170860D02*
X0092629Y0170860D01*
X0092629Y0171846D02*
X0097561Y0171846D01*
X0092629Y0163978D02*
X0092629Y0161014D01*
X0092629Y0163978D02*
X0097561Y0163978D01*
X0097561Y0161014D01*
X0092629Y0161014D01*
X0092629Y0162000D02*
X0097561Y0162000D01*
X0097561Y0162986D02*
X0092629Y0162986D01*
X0092629Y0163972D02*
X0097561Y0163972D01*
X0095140Y0156399D02*
X0092176Y0156399D01*
X0095140Y0156399D02*
X0095140Y0151467D01*
X0092176Y0151467D01*
X0092176Y0156399D01*
X0092176Y0152453D02*
X0095140Y0152453D01*
X0095140Y0153439D02*
X0092176Y0153439D01*
X0092176Y0154425D02*
X0095140Y0154425D01*
X0095140Y0155411D02*
X0092176Y0155411D01*
X0092176Y0156397D02*
X0095140Y0156397D01*
X0100050Y0156399D02*
X0103014Y0156399D01*
X0103014Y0151467D01*
X0100050Y0151467D01*
X0100050Y0156399D01*
X0100050Y0152453D02*
X0103014Y0152453D01*
X0103014Y0153439D02*
X0100050Y0153439D01*
X0100050Y0154425D02*
X0103014Y0154425D01*
X0103014Y0155411D02*
X0100050Y0155411D01*
X0100050Y0156397D02*
X0103014Y0156397D01*
X0103014Y0136467D02*
X0100050Y0136467D01*
X0100050Y0141399D01*
X0103014Y0141399D01*
X0103014Y0136467D01*
X0103014Y0137453D02*
X0100050Y0137453D01*
X0100050Y0138439D02*
X0103014Y0138439D01*
X0103014Y0139425D02*
X0100050Y0139425D01*
X0100050Y0140411D02*
X0103014Y0140411D01*
X0103014Y0141397D02*
X0100050Y0141397D01*
X0095140Y0136467D02*
X0092176Y0136467D01*
X0092176Y0141399D01*
X0095140Y0141399D01*
X0095140Y0136467D01*
X0095140Y0137453D02*
X0092176Y0137453D01*
X0092176Y0138439D02*
X0095140Y0138439D01*
X0095140Y0139425D02*
X0092176Y0139425D01*
X0092176Y0140411D02*
X0095140Y0140411D01*
X0095140Y0141397D02*
X0092176Y0141397D01*
X0092176Y0126399D02*
X0095140Y0126399D01*
X0095140Y0121467D01*
X0092176Y0121467D01*
X0092176Y0126399D01*
X0092176Y0122453D02*
X0095140Y0122453D01*
X0095140Y0123439D02*
X0092176Y0123439D01*
X0092176Y0124425D02*
X0095140Y0124425D01*
X0095140Y0125411D02*
X0092176Y0125411D01*
X0092176Y0126397D02*
X0095140Y0126397D01*
X0100050Y0126399D02*
X0103014Y0126399D01*
X0103014Y0121467D01*
X0100050Y0121467D01*
X0100050Y0126399D01*
X0100050Y0122453D02*
X0103014Y0122453D01*
X0103014Y0123439D02*
X0100050Y0123439D01*
X0100050Y0124425D02*
X0103014Y0124425D01*
X0103014Y0125411D02*
X0100050Y0125411D01*
X0100050Y0126397D02*
X0103014Y0126397D01*
X0103014Y0116399D02*
X0100050Y0116399D01*
X0103014Y0116399D02*
X0103014Y0111467D01*
X0100050Y0111467D01*
X0100050Y0116399D01*
X0100050Y0112453D02*
X0103014Y0112453D01*
X0103014Y0113439D02*
X0100050Y0113439D01*
X0100050Y0114425D02*
X0103014Y0114425D01*
X0103014Y0115411D02*
X0100050Y0115411D01*
X0100050Y0116397D02*
X0103014Y0116397D01*
X0095140Y0116399D02*
X0092176Y0116399D01*
X0095140Y0116399D02*
X0095140Y0111467D01*
X0092176Y0111467D01*
X0092176Y0116399D01*
X0092176Y0112453D02*
X0095140Y0112453D01*
X0095140Y0113439D02*
X0092176Y0113439D01*
X0092176Y0114425D02*
X0095140Y0114425D01*
X0095140Y0115411D02*
X0092176Y0115411D01*
X0092176Y0116397D02*
X0095140Y0116397D01*
M02*
