G75*
%MOIN*%
%OFA0B0*%
%FSLAX25Y25*%
%IPPOS*%
%LPD*%
%AMOC8*
5,1,8,0,0,1.08239X$1,22.5*
%
%ADD10C,0.00000*%
%ADD11C,0.01300*%
%ADD12C,0.01000*%
%ADD13R,0.02990X0.00250*%
%ADD14R,0.02010X0.00250*%
%ADD15R,0.01990X0.00250*%
%ADD16R,0.06250X0.00250*%
%ADD17R,0.02000X0.00250*%
%ADD18R,0.03990X0.00250*%
%ADD19R,0.04750X0.00250*%
%ADD20R,0.05000X0.00250*%
%ADD21R,0.06500X0.00250*%
%ADD22R,0.05240X0.00250*%
%ADD23R,0.02500X0.00250*%
%ADD24R,0.01490X0.00250*%
%ADD25R,0.02240X0.00250*%
%ADD26R,0.00750X0.00250*%
%ADD27R,0.03010X0.00250*%
%ADD28R,0.00500X0.00250*%
%ADD29R,0.02760X0.00250*%
%ADD30R,0.01750X0.00250*%
%ADD31R,0.02510X0.00250*%
%ADD32R,0.02490X0.00250*%
%ADD33R,0.02260X0.00250*%
%ADD34R,0.00250X0.00250*%
%ADD35R,0.00740X0.00250*%
%ADD36R,0.03000X0.00250*%
%ADD37R,0.02750X0.00250*%
%ADD38R,0.01740X0.00250*%
%ADD39R,0.04990X0.00250*%
%ADD40R,0.00760X0.00250*%
%ADD41R,0.04000X0.00250*%
%ADD42R,0.01260X0.00250*%
%ADD43R,0.03500X0.00250*%
%ADD44R,0.01760X0.00250*%
%ADD45R,0.03740X0.00250*%
%ADD46R,0.02740X0.00250*%
%ADD47R,0.01510X0.00250*%
%ADD48R,0.05750X0.00250*%
%ADD49R,0.05250X0.00250*%
%ADD50R,0.04250X0.00250*%
%ADD51R,0.03490X0.00250*%
%ADD52R,0.01250X0.00250*%
%ADD53R,0.01010X0.00250*%
%ADD54R,0.02250X0.00250*%
%ADD55R,0.01500X0.00250*%
%ADD56R,0.01000X0.00250*%
%ADD57R,0.06740X0.00250*%
%ADD58R,0.03750X0.00250*%
%ADD59R,0.08990X0.00250*%
%ADD60R,0.07490X0.00250*%
%ADD61R,0.09000X0.00250*%
%ADD62R,0.07740X0.00250*%
%ADD63R,0.04500X0.00250*%
%ADD64R,0.08750X0.00250*%
%ADD65R,0.08240X0.00250*%
%ADD66R,0.05010X0.00250*%
%ADD67R,0.08000X0.00250*%
%ADD68R,0.08510X0.00250*%
%ADD69R,0.05260X0.00250*%
%ADD70R,0.08250X0.00250*%
%ADD71R,0.08500X0.00250*%
%ADD72R,0.04260X0.00250*%
%ADD73R,0.09010X0.00250*%
%ADD74R,0.03250X0.00250*%
%ADD75R,0.01240X0.00250*%
%ADD76R,0.05490X0.00250*%
%ADD77R,0.04490X0.00250*%
%ADD78R,0.08740X0.00250*%
%ADD79R,0.08010X0.00250*%
%ADD80R,0.07750X0.00250*%
%ADD81R,0.07240X0.00250*%
%ADD82R,0.07000X0.00250*%
%ADD83R,0.06760X0.00250*%
%ADD84R,0.06000X0.00250*%
%ADD85R,0.07250X0.00250*%
%ADD86R,0.05500X0.00250*%
%ADD87R,0.06750X0.00250*%
%ADD88R,0.04740X0.00250*%
%ADD89R,0.03260X0.00250*%
%ADD90R,0.05510X0.00250*%
%ADD91R,0.04010X0.00250*%
%ADD92R,0.04510X0.00250*%
%ADD93R,0.06510X0.00250*%
%ADD94R,0.11010X0.00250*%
%ADD95R,0.10490X0.00250*%
%ADD96R,0.10000X0.00250*%
%ADD97R,0.10250X0.00250*%
%ADD98R,0.07260X0.00250*%
%ADD99R,0.06010X0.00250*%
%ADD100R,0.00510X0.00250*%
%ADD101R,0.03760X0.00250*%
%ADD102R,0.04240X0.00250*%
%ADD103R,0.04760X0.00250*%
%ADD104R,0.10260X0.00250*%
%ADD105R,0.09240X0.00250*%
%ADD106R,0.05740X0.00250*%
D10*
X0067595Y0040744D02*
X0067595Y0239563D01*
X0067598Y0239848D01*
X0067609Y0240134D01*
X0067626Y0240419D01*
X0067650Y0240703D01*
X0067681Y0240987D01*
X0067719Y0241270D01*
X0067764Y0241551D01*
X0067815Y0241832D01*
X0067873Y0242112D01*
X0067938Y0242390D01*
X0068010Y0242666D01*
X0068088Y0242940D01*
X0068173Y0243213D01*
X0068265Y0243483D01*
X0068363Y0243751D01*
X0068467Y0244017D01*
X0068578Y0244280D01*
X0068695Y0244540D01*
X0068818Y0244798D01*
X0068948Y0245052D01*
X0069084Y0245303D01*
X0069225Y0245551D01*
X0069373Y0245795D01*
X0069526Y0246036D01*
X0069686Y0246272D01*
X0069851Y0246505D01*
X0070021Y0246734D01*
X0070197Y0246959D01*
X0070379Y0247179D01*
X0070565Y0247395D01*
X0070757Y0247606D01*
X0070954Y0247813D01*
X0071156Y0248015D01*
X0071363Y0248212D01*
X0071574Y0248404D01*
X0071790Y0248590D01*
X0072010Y0248772D01*
X0072235Y0248948D01*
X0072464Y0249118D01*
X0072697Y0249283D01*
X0072933Y0249443D01*
X0073174Y0249596D01*
X0073418Y0249744D01*
X0073666Y0249885D01*
X0073917Y0250021D01*
X0074171Y0250151D01*
X0074429Y0250274D01*
X0074689Y0250391D01*
X0074952Y0250502D01*
X0075218Y0250606D01*
X0075486Y0250704D01*
X0075756Y0250796D01*
X0076029Y0250881D01*
X0076303Y0250959D01*
X0076579Y0251031D01*
X0076857Y0251096D01*
X0077137Y0251154D01*
X0077418Y0251205D01*
X0077699Y0251250D01*
X0077982Y0251288D01*
X0078266Y0251319D01*
X0078550Y0251343D01*
X0078835Y0251360D01*
X0079121Y0251371D01*
X0079406Y0251374D01*
X0311690Y0251374D01*
X0311975Y0251371D01*
X0312261Y0251360D01*
X0312546Y0251343D01*
X0312830Y0251319D01*
X0313114Y0251288D01*
X0313397Y0251250D01*
X0313678Y0251205D01*
X0313959Y0251154D01*
X0314239Y0251096D01*
X0314517Y0251031D01*
X0314793Y0250959D01*
X0315067Y0250881D01*
X0315340Y0250796D01*
X0315610Y0250704D01*
X0315878Y0250606D01*
X0316144Y0250502D01*
X0316407Y0250391D01*
X0316667Y0250274D01*
X0316925Y0250151D01*
X0317179Y0250021D01*
X0317430Y0249885D01*
X0317678Y0249744D01*
X0317922Y0249596D01*
X0318163Y0249443D01*
X0318399Y0249283D01*
X0318632Y0249118D01*
X0318861Y0248948D01*
X0319086Y0248772D01*
X0319306Y0248590D01*
X0319522Y0248404D01*
X0319733Y0248212D01*
X0319940Y0248015D01*
X0320142Y0247813D01*
X0320339Y0247606D01*
X0320531Y0247395D01*
X0320717Y0247179D01*
X0320899Y0246959D01*
X0321075Y0246734D01*
X0321245Y0246505D01*
X0321410Y0246272D01*
X0321570Y0246036D01*
X0321723Y0245795D01*
X0321871Y0245551D01*
X0322012Y0245303D01*
X0322148Y0245052D01*
X0322278Y0244798D01*
X0322401Y0244540D01*
X0322518Y0244280D01*
X0322629Y0244017D01*
X0322733Y0243751D01*
X0322831Y0243483D01*
X0322923Y0243213D01*
X0323008Y0242940D01*
X0323086Y0242666D01*
X0323158Y0242390D01*
X0323223Y0242112D01*
X0323281Y0241832D01*
X0323332Y0241551D01*
X0323377Y0241270D01*
X0323415Y0240987D01*
X0323446Y0240703D01*
X0323470Y0240419D01*
X0323487Y0240134D01*
X0323498Y0239848D01*
X0323501Y0239563D01*
X0323501Y0040744D01*
X0323498Y0040459D01*
X0323487Y0040173D01*
X0323470Y0039888D01*
X0323446Y0039604D01*
X0323415Y0039320D01*
X0323377Y0039037D01*
X0323332Y0038756D01*
X0323281Y0038475D01*
X0323223Y0038195D01*
X0323158Y0037917D01*
X0323086Y0037641D01*
X0323008Y0037367D01*
X0322923Y0037094D01*
X0322831Y0036824D01*
X0322733Y0036556D01*
X0322629Y0036290D01*
X0322518Y0036027D01*
X0322401Y0035767D01*
X0322278Y0035509D01*
X0322148Y0035255D01*
X0322012Y0035004D01*
X0321871Y0034756D01*
X0321723Y0034512D01*
X0321570Y0034271D01*
X0321410Y0034035D01*
X0321245Y0033802D01*
X0321075Y0033573D01*
X0320899Y0033348D01*
X0320717Y0033128D01*
X0320531Y0032912D01*
X0320339Y0032701D01*
X0320142Y0032494D01*
X0319940Y0032292D01*
X0319733Y0032095D01*
X0319522Y0031903D01*
X0319306Y0031717D01*
X0319086Y0031535D01*
X0318861Y0031359D01*
X0318632Y0031189D01*
X0318399Y0031024D01*
X0318163Y0030864D01*
X0317922Y0030711D01*
X0317678Y0030563D01*
X0317430Y0030422D01*
X0317179Y0030286D01*
X0316925Y0030156D01*
X0316667Y0030033D01*
X0316407Y0029916D01*
X0316144Y0029805D01*
X0315878Y0029701D01*
X0315610Y0029603D01*
X0315340Y0029511D01*
X0315067Y0029426D01*
X0314793Y0029348D01*
X0314517Y0029276D01*
X0314239Y0029211D01*
X0313959Y0029153D01*
X0313678Y0029102D01*
X0313397Y0029057D01*
X0313114Y0029019D01*
X0312830Y0028988D01*
X0312546Y0028964D01*
X0312261Y0028947D01*
X0311975Y0028936D01*
X0311690Y0028933D01*
X0079406Y0028933D01*
X0079121Y0028936D01*
X0078835Y0028947D01*
X0078550Y0028964D01*
X0078266Y0028988D01*
X0077982Y0029019D01*
X0077699Y0029057D01*
X0077418Y0029102D01*
X0077137Y0029153D01*
X0076857Y0029211D01*
X0076579Y0029276D01*
X0076303Y0029348D01*
X0076029Y0029426D01*
X0075756Y0029511D01*
X0075486Y0029603D01*
X0075218Y0029701D01*
X0074952Y0029805D01*
X0074689Y0029916D01*
X0074429Y0030033D01*
X0074171Y0030156D01*
X0073917Y0030286D01*
X0073666Y0030422D01*
X0073418Y0030563D01*
X0073174Y0030711D01*
X0072933Y0030864D01*
X0072697Y0031024D01*
X0072464Y0031189D01*
X0072235Y0031359D01*
X0072010Y0031535D01*
X0071790Y0031717D01*
X0071574Y0031903D01*
X0071363Y0032095D01*
X0071156Y0032292D01*
X0070954Y0032494D01*
X0070757Y0032701D01*
X0070565Y0032912D01*
X0070379Y0033128D01*
X0070197Y0033348D01*
X0070021Y0033573D01*
X0069851Y0033802D01*
X0069686Y0034035D01*
X0069526Y0034271D01*
X0069373Y0034512D01*
X0069225Y0034756D01*
X0069084Y0035004D01*
X0068948Y0035255D01*
X0068818Y0035509D01*
X0068695Y0035767D01*
X0068578Y0036027D01*
X0068467Y0036290D01*
X0068363Y0036556D01*
X0068265Y0036824D01*
X0068173Y0037094D01*
X0068088Y0037367D01*
X0068010Y0037641D01*
X0067938Y0037917D01*
X0067873Y0038195D01*
X0067815Y0038475D01*
X0067764Y0038756D01*
X0067719Y0039037D01*
X0067681Y0039320D01*
X0067650Y0039604D01*
X0067626Y0039888D01*
X0067609Y0040173D01*
X0067598Y0040459D01*
X0067595Y0040744D01*
X0075863Y0042713D02*
X0075865Y0042861D01*
X0075871Y0043009D01*
X0075881Y0043157D01*
X0075895Y0043304D01*
X0075913Y0043451D01*
X0075934Y0043597D01*
X0075960Y0043743D01*
X0075990Y0043888D01*
X0076023Y0044032D01*
X0076061Y0044175D01*
X0076102Y0044317D01*
X0076147Y0044458D01*
X0076195Y0044598D01*
X0076248Y0044737D01*
X0076304Y0044874D01*
X0076364Y0045009D01*
X0076427Y0045143D01*
X0076494Y0045275D01*
X0076565Y0045405D01*
X0076639Y0045533D01*
X0076716Y0045659D01*
X0076797Y0045783D01*
X0076881Y0045905D01*
X0076968Y0046024D01*
X0077059Y0046141D01*
X0077153Y0046256D01*
X0077249Y0046368D01*
X0077349Y0046478D01*
X0077451Y0046584D01*
X0077557Y0046688D01*
X0077665Y0046789D01*
X0077776Y0046887D01*
X0077889Y0046983D01*
X0078005Y0047075D01*
X0078123Y0047164D01*
X0078244Y0047249D01*
X0078367Y0047332D01*
X0078492Y0047411D01*
X0078619Y0047487D01*
X0078748Y0047559D01*
X0078879Y0047628D01*
X0079012Y0047693D01*
X0079147Y0047754D01*
X0079283Y0047812D01*
X0079420Y0047867D01*
X0079559Y0047917D01*
X0079700Y0047964D01*
X0079841Y0048007D01*
X0079984Y0048047D01*
X0080128Y0048082D01*
X0080272Y0048114D01*
X0080418Y0048141D01*
X0080564Y0048165D01*
X0080711Y0048185D01*
X0080858Y0048201D01*
X0081005Y0048213D01*
X0081153Y0048221D01*
X0081301Y0048225D01*
X0081449Y0048225D01*
X0081597Y0048221D01*
X0081745Y0048213D01*
X0081892Y0048201D01*
X0082039Y0048185D01*
X0082186Y0048165D01*
X0082332Y0048141D01*
X0082478Y0048114D01*
X0082622Y0048082D01*
X0082766Y0048047D01*
X0082909Y0048007D01*
X0083050Y0047964D01*
X0083191Y0047917D01*
X0083330Y0047867D01*
X0083467Y0047812D01*
X0083603Y0047754D01*
X0083738Y0047693D01*
X0083871Y0047628D01*
X0084002Y0047559D01*
X0084131Y0047487D01*
X0084258Y0047411D01*
X0084383Y0047332D01*
X0084506Y0047249D01*
X0084627Y0047164D01*
X0084745Y0047075D01*
X0084861Y0046983D01*
X0084974Y0046887D01*
X0085085Y0046789D01*
X0085193Y0046688D01*
X0085299Y0046584D01*
X0085401Y0046478D01*
X0085501Y0046368D01*
X0085597Y0046256D01*
X0085691Y0046141D01*
X0085782Y0046024D01*
X0085869Y0045905D01*
X0085953Y0045783D01*
X0086034Y0045659D01*
X0086111Y0045533D01*
X0086185Y0045405D01*
X0086256Y0045275D01*
X0086323Y0045143D01*
X0086386Y0045009D01*
X0086446Y0044874D01*
X0086502Y0044737D01*
X0086555Y0044598D01*
X0086603Y0044458D01*
X0086648Y0044317D01*
X0086689Y0044175D01*
X0086727Y0044032D01*
X0086760Y0043888D01*
X0086790Y0043743D01*
X0086816Y0043597D01*
X0086837Y0043451D01*
X0086855Y0043304D01*
X0086869Y0043157D01*
X0086879Y0043009D01*
X0086885Y0042861D01*
X0086887Y0042713D01*
X0086885Y0042565D01*
X0086879Y0042417D01*
X0086869Y0042269D01*
X0086855Y0042122D01*
X0086837Y0041975D01*
X0086816Y0041829D01*
X0086790Y0041683D01*
X0086760Y0041538D01*
X0086727Y0041394D01*
X0086689Y0041251D01*
X0086648Y0041109D01*
X0086603Y0040968D01*
X0086555Y0040828D01*
X0086502Y0040689D01*
X0086446Y0040552D01*
X0086386Y0040417D01*
X0086323Y0040283D01*
X0086256Y0040151D01*
X0086185Y0040021D01*
X0086111Y0039893D01*
X0086034Y0039767D01*
X0085953Y0039643D01*
X0085869Y0039521D01*
X0085782Y0039402D01*
X0085691Y0039285D01*
X0085597Y0039170D01*
X0085501Y0039058D01*
X0085401Y0038948D01*
X0085299Y0038842D01*
X0085193Y0038738D01*
X0085085Y0038637D01*
X0084974Y0038539D01*
X0084861Y0038443D01*
X0084745Y0038351D01*
X0084627Y0038262D01*
X0084506Y0038177D01*
X0084383Y0038094D01*
X0084258Y0038015D01*
X0084131Y0037939D01*
X0084002Y0037867D01*
X0083871Y0037798D01*
X0083738Y0037733D01*
X0083603Y0037672D01*
X0083467Y0037614D01*
X0083330Y0037559D01*
X0083191Y0037509D01*
X0083050Y0037462D01*
X0082909Y0037419D01*
X0082766Y0037379D01*
X0082622Y0037344D01*
X0082478Y0037312D01*
X0082332Y0037285D01*
X0082186Y0037261D01*
X0082039Y0037241D01*
X0081892Y0037225D01*
X0081745Y0037213D01*
X0081597Y0037205D01*
X0081449Y0037201D01*
X0081301Y0037201D01*
X0081153Y0037205D01*
X0081005Y0037213D01*
X0080858Y0037225D01*
X0080711Y0037241D01*
X0080564Y0037261D01*
X0080418Y0037285D01*
X0080272Y0037312D01*
X0080128Y0037344D01*
X0079984Y0037379D01*
X0079841Y0037419D01*
X0079700Y0037462D01*
X0079559Y0037509D01*
X0079420Y0037559D01*
X0079283Y0037614D01*
X0079147Y0037672D01*
X0079012Y0037733D01*
X0078879Y0037798D01*
X0078748Y0037867D01*
X0078619Y0037939D01*
X0078492Y0038015D01*
X0078367Y0038094D01*
X0078244Y0038177D01*
X0078123Y0038262D01*
X0078005Y0038351D01*
X0077889Y0038443D01*
X0077776Y0038539D01*
X0077665Y0038637D01*
X0077557Y0038738D01*
X0077451Y0038842D01*
X0077349Y0038948D01*
X0077249Y0039058D01*
X0077153Y0039170D01*
X0077059Y0039285D01*
X0076968Y0039402D01*
X0076881Y0039521D01*
X0076797Y0039643D01*
X0076716Y0039767D01*
X0076639Y0039893D01*
X0076565Y0040021D01*
X0076494Y0040151D01*
X0076427Y0040283D01*
X0076364Y0040417D01*
X0076304Y0040552D01*
X0076248Y0040689D01*
X0076195Y0040828D01*
X0076147Y0040968D01*
X0076102Y0041109D01*
X0076061Y0041251D01*
X0076023Y0041394D01*
X0075990Y0041538D01*
X0075960Y0041683D01*
X0075934Y0041829D01*
X0075913Y0041975D01*
X0075895Y0042122D01*
X0075881Y0042269D01*
X0075871Y0042417D01*
X0075865Y0042565D01*
X0075863Y0042713D01*
X0082095Y0105933D02*
X0067595Y0105933D01*
X0067595Y0106433D01*
X0082095Y0105933D02*
X0082193Y0105935D01*
X0082291Y0105941D01*
X0082389Y0105950D01*
X0082486Y0105964D01*
X0082583Y0105981D01*
X0082679Y0106002D01*
X0082774Y0106027D01*
X0082868Y0106055D01*
X0082960Y0106088D01*
X0083052Y0106123D01*
X0083142Y0106163D01*
X0083230Y0106205D01*
X0083317Y0106252D01*
X0083401Y0106301D01*
X0083484Y0106354D01*
X0083564Y0106410D01*
X0083643Y0106470D01*
X0083719Y0106532D01*
X0083792Y0106597D01*
X0083863Y0106665D01*
X0083931Y0106736D01*
X0083996Y0106809D01*
X0084058Y0106885D01*
X0084118Y0106964D01*
X0084174Y0107044D01*
X0084227Y0107127D01*
X0084276Y0107211D01*
X0084323Y0107298D01*
X0084365Y0107386D01*
X0084405Y0107476D01*
X0084440Y0107568D01*
X0084473Y0107660D01*
X0084501Y0107754D01*
X0084526Y0107849D01*
X0084547Y0107945D01*
X0084564Y0108042D01*
X0084578Y0108139D01*
X0084587Y0108237D01*
X0084593Y0108335D01*
X0084595Y0108433D01*
X0084595Y0169933D01*
X0084593Y0170031D01*
X0084587Y0170129D01*
X0084578Y0170227D01*
X0084564Y0170324D01*
X0084547Y0170421D01*
X0084526Y0170517D01*
X0084501Y0170612D01*
X0084473Y0170706D01*
X0084440Y0170798D01*
X0084405Y0170890D01*
X0084365Y0170980D01*
X0084323Y0171068D01*
X0084276Y0171155D01*
X0084227Y0171239D01*
X0084174Y0171322D01*
X0084118Y0171402D01*
X0084058Y0171481D01*
X0083996Y0171557D01*
X0083931Y0171630D01*
X0083863Y0171701D01*
X0083792Y0171769D01*
X0083719Y0171834D01*
X0083643Y0171896D01*
X0083564Y0171956D01*
X0083484Y0172012D01*
X0083401Y0172065D01*
X0083317Y0172114D01*
X0083230Y0172161D01*
X0083142Y0172203D01*
X0083052Y0172243D01*
X0082960Y0172278D01*
X0082868Y0172311D01*
X0082774Y0172339D01*
X0082679Y0172364D01*
X0082583Y0172385D01*
X0082486Y0172402D01*
X0082389Y0172416D01*
X0082291Y0172425D01*
X0082193Y0172431D01*
X0082095Y0172433D01*
X0067595Y0172433D01*
X0075863Y0235626D02*
X0075865Y0235774D01*
X0075871Y0235922D01*
X0075881Y0236070D01*
X0075895Y0236217D01*
X0075913Y0236364D01*
X0075934Y0236510D01*
X0075960Y0236656D01*
X0075990Y0236801D01*
X0076023Y0236945D01*
X0076061Y0237088D01*
X0076102Y0237230D01*
X0076147Y0237371D01*
X0076195Y0237511D01*
X0076248Y0237650D01*
X0076304Y0237787D01*
X0076364Y0237922D01*
X0076427Y0238056D01*
X0076494Y0238188D01*
X0076565Y0238318D01*
X0076639Y0238446D01*
X0076716Y0238572D01*
X0076797Y0238696D01*
X0076881Y0238818D01*
X0076968Y0238937D01*
X0077059Y0239054D01*
X0077153Y0239169D01*
X0077249Y0239281D01*
X0077349Y0239391D01*
X0077451Y0239497D01*
X0077557Y0239601D01*
X0077665Y0239702D01*
X0077776Y0239800D01*
X0077889Y0239896D01*
X0078005Y0239988D01*
X0078123Y0240077D01*
X0078244Y0240162D01*
X0078367Y0240245D01*
X0078492Y0240324D01*
X0078619Y0240400D01*
X0078748Y0240472D01*
X0078879Y0240541D01*
X0079012Y0240606D01*
X0079147Y0240667D01*
X0079283Y0240725D01*
X0079420Y0240780D01*
X0079559Y0240830D01*
X0079700Y0240877D01*
X0079841Y0240920D01*
X0079984Y0240960D01*
X0080128Y0240995D01*
X0080272Y0241027D01*
X0080418Y0241054D01*
X0080564Y0241078D01*
X0080711Y0241098D01*
X0080858Y0241114D01*
X0081005Y0241126D01*
X0081153Y0241134D01*
X0081301Y0241138D01*
X0081449Y0241138D01*
X0081597Y0241134D01*
X0081745Y0241126D01*
X0081892Y0241114D01*
X0082039Y0241098D01*
X0082186Y0241078D01*
X0082332Y0241054D01*
X0082478Y0241027D01*
X0082622Y0240995D01*
X0082766Y0240960D01*
X0082909Y0240920D01*
X0083050Y0240877D01*
X0083191Y0240830D01*
X0083330Y0240780D01*
X0083467Y0240725D01*
X0083603Y0240667D01*
X0083738Y0240606D01*
X0083871Y0240541D01*
X0084002Y0240472D01*
X0084131Y0240400D01*
X0084258Y0240324D01*
X0084383Y0240245D01*
X0084506Y0240162D01*
X0084627Y0240077D01*
X0084745Y0239988D01*
X0084861Y0239896D01*
X0084974Y0239800D01*
X0085085Y0239702D01*
X0085193Y0239601D01*
X0085299Y0239497D01*
X0085401Y0239391D01*
X0085501Y0239281D01*
X0085597Y0239169D01*
X0085691Y0239054D01*
X0085782Y0238937D01*
X0085869Y0238818D01*
X0085953Y0238696D01*
X0086034Y0238572D01*
X0086111Y0238446D01*
X0086185Y0238318D01*
X0086256Y0238188D01*
X0086323Y0238056D01*
X0086386Y0237922D01*
X0086446Y0237787D01*
X0086502Y0237650D01*
X0086555Y0237511D01*
X0086603Y0237371D01*
X0086648Y0237230D01*
X0086689Y0237088D01*
X0086727Y0236945D01*
X0086760Y0236801D01*
X0086790Y0236656D01*
X0086816Y0236510D01*
X0086837Y0236364D01*
X0086855Y0236217D01*
X0086869Y0236070D01*
X0086879Y0235922D01*
X0086885Y0235774D01*
X0086887Y0235626D01*
X0086885Y0235478D01*
X0086879Y0235330D01*
X0086869Y0235182D01*
X0086855Y0235035D01*
X0086837Y0234888D01*
X0086816Y0234742D01*
X0086790Y0234596D01*
X0086760Y0234451D01*
X0086727Y0234307D01*
X0086689Y0234164D01*
X0086648Y0234022D01*
X0086603Y0233881D01*
X0086555Y0233741D01*
X0086502Y0233602D01*
X0086446Y0233465D01*
X0086386Y0233330D01*
X0086323Y0233196D01*
X0086256Y0233064D01*
X0086185Y0232934D01*
X0086111Y0232806D01*
X0086034Y0232680D01*
X0085953Y0232556D01*
X0085869Y0232434D01*
X0085782Y0232315D01*
X0085691Y0232198D01*
X0085597Y0232083D01*
X0085501Y0231971D01*
X0085401Y0231861D01*
X0085299Y0231755D01*
X0085193Y0231651D01*
X0085085Y0231550D01*
X0084974Y0231452D01*
X0084861Y0231356D01*
X0084745Y0231264D01*
X0084627Y0231175D01*
X0084506Y0231090D01*
X0084383Y0231007D01*
X0084258Y0230928D01*
X0084131Y0230852D01*
X0084002Y0230780D01*
X0083871Y0230711D01*
X0083738Y0230646D01*
X0083603Y0230585D01*
X0083467Y0230527D01*
X0083330Y0230472D01*
X0083191Y0230422D01*
X0083050Y0230375D01*
X0082909Y0230332D01*
X0082766Y0230292D01*
X0082622Y0230257D01*
X0082478Y0230225D01*
X0082332Y0230198D01*
X0082186Y0230174D01*
X0082039Y0230154D01*
X0081892Y0230138D01*
X0081745Y0230126D01*
X0081597Y0230118D01*
X0081449Y0230114D01*
X0081301Y0230114D01*
X0081153Y0230118D01*
X0081005Y0230126D01*
X0080858Y0230138D01*
X0080711Y0230154D01*
X0080564Y0230174D01*
X0080418Y0230198D01*
X0080272Y0230225D01*
X0080128Y0230257D01*
X0079984Y0230292D01*
X0079841Y0230332D01*
X0079700Y0230375D01*
X0079559Y0230422D01*
X0079420Y0230472D01*
X0079283Y0230527D01*
X0079147Y0230585D01*
X0079012Y0230646D01*
X0078879Y0230711D01*
X0078748Y0230780D01*
X0078619Y0230852D01*
X0078492Y0230928D01*
X0078367Y0231007D01*
X0078244Y0231090D01*
X0078123Y0231175D01*
X0078005Y0231264D01*
X0077889Y0231356D01*
X0077776Y0231452D01*
X0077665Y0231550D01*
X0077557Y0231651D01*
X0077451Y0231755D01*
X0077349Y0231861D01*
X0077249Y0231971D01*
X0077153Y0232083D01*
X0077059Y0232198D01*
X0076968Y0232315D01*
X0076881Y0232434D01*
X0076797Y0232556D01*
X0076716Y0232680D01*
X0076639Y0232806D01*
X0076565Y0232934D01*
X0076494Y0233064D01*
X0076427Y0233196D01*
X0076364Y0233330D01*
X0076304Y0233465D01*
X0076248Y0233602D01*
X0076195Y0233741D01*
X0076147Y0233881D01*
X0076102Y0234022D01*
X0076061Y0234164D01*
X0076023Y0234307D01*
X0075990Y0234451D01*
X0075960Y0234596D01*
X0075934Y0234742D01*
X0075913Y0234888D01*
X0075895Y0235035D01*
X0075881Y0235182D01*
X0075871Y0235330D01*
X0075865Y0235478D01*
X0075863Y0235626D01*
X0241095Y0104933D02*
X0241095Y0043933D01*
X0241097Y0043835D01*
X0241103Y0043737D01*
X0241112Y0043639D01*
X0241126Y0043542D01*
X0241143Y0043445D01*
X0241164Y0043349D01*
X0241189Y0043254D01*
X0241217Y0043160D01*
X0241250Y0043068D01*
X0241285Y0042976D01*
X0241325Y0042886D01*
X0241367Y0042798D01*
X0241414Y0042711D01*
X0241463Y0042627D01*
X0241516Y0042544D01*
X0241572Y0042464D01*
X0241632Y0042385D01*
X0241694Y0042309D01*
X0241759Y0042236D01*
X0241827Y0042165D01*
X0241898Y0042097D01*
X0241971Y0042032D01*
X0242047Y0041970D01*
X0242126Y0041910D01*
X0242206Y0041854D01*
X0242289Y0041801D01*
X0242373Y0041752D01*
X0242460Y0041705D01*
X0242548Y0041663D01*
X0242638Y0041623D01*
X0242730Y0041588D01*
X0242822Y0041555D01*
X0242916Y0041527D01*
X0243011Y0041502D01*
X0243107Y0041481D01*
X0243204Y0041464D01*
X0243301Y0041450D01*
X0243399Y0041441D01*
X0243497Y0041435D01*
X0243595Y0041433D01*
X0246095Y0041433D01*
X0246193Y0041435D01*
X0246291Y0041441D01*
X0246389Y0041450D01*
X0246486Y0041464D01*
X0246583Y0041481D01*
X0246679Y0041502D01*
X0246774Y0041527D01*
X0246868Y0041555D01*
X0246960Y0041588D01*
X0247052Y0041623D01*
X0247142Y0041663D01*
X0247230Y0041705D01*
X0247317Y0041752D01*
X0247401Y0041801D01*
X0247484Y0041854D01*
X0247564Y0041910D01*
X0247643Y0041970D01*
X0247719Y0042032D01*
X0247792Y0042097D01*
X0247863Y0042165D01*
X0247931Y0042236D01*
X0247996Y0042309D01*
X0248058Y0042385D01*
X0248118Y0042464D01*
X0248174Y0042544D01*
X0248227Y0042627D01*
X0248276Y0042711D01*
X0248323Y0042798D01*
X0248365Y0042886D01*
X0248405Y0042976D01*
X0248440Y0043068D01*
X0248473Y0043160D01*
X0248501Y0043254D01*
X0248526Y0043349D01*
X0248547Y0043445D01*
X0248564Y0043542D01*
X0248578Y0043639D01*
X0248587Y0043737D01*
X0248593Y0043835D01*
X0248595Y0043933D01*
X0248595Y0104933D01*
X0248593Y0105031D01*
X0248587Y0105129D01*
X0248578Y0105227D01*
X0248564Y0105324D01*
X0248547Y0105421D01*
X0248526Y0105517D01*
X0248501Y0105612D01*
X0248473Y0105706D01*
X0248440Y0105798D01*
X0248405Y0105890D01*
X0248365Y0105980D01*
X0248323Y0106068D01*
X0248276Y0106155D01*
X0248227Y0106239D01*
X0248174Y0106322D01*
X0248118Y0106402D01*
X0248058Y0106481D01*
X0247996Y0106557D01*
X0247931Y0106630D01*
X0247863Y0106701D01*
X0247792Y0106769D01*
X0247719Y0106834D01*
X0247643Y0106896D01*
X0247564Y0106956D01*
X0247484Y0107012D01*
X0247401Y0107065D01*
X0247317Y0107114D01*
X0247230Y0107161D01*
X0247142Y0107203D01*
X0247052Y0107243D01*
X0246960Y0107278D01*
X0246868Y0107311D01*
X0246774Y0107339D01*
X0246679Y0107364D01*
X0246583Y0107385D01*
X0246486Y0107402D01*
X0246389Y0107416D01*
X0246291Y0107425D01*
X0246193Y0107431D01*
X0246095Y0107433D01*
X0243595Y0107433D01*
X0243497Y0107431D01*
X0243399Y0107425D01*
X0243301Y0107416D01*
X0243204Y0107402D01*
X0243107Y0107385D01*
X0243011Y0107364D01*
X0242916Y0107339D01*
X0242822Y0107311D01*
X0242730Y0107278D01*
X0242638Y0107243D01*
X0242548Y0107203D01*
X0242460Y0107161D01*
X0242373Y0107114D01*
X0242289Y0107065D01*
X0242206Y0107012D01*
X0242126Y0106956D01*
X0242047Y0106896D01*
X0241971Y0106834D01*
X0241898Y0106769D01*
X0241827Y0106701D01*
X0241759Y0106630D01*
X0241694Y0106557D01*
X0241632Y0106481D01*
X0241572Y0106402D01*
X0241516Y0106322D01*
X0241463Y0106239D01*
X0241414Y0106155D01*
X0241367Y0106068D01*
X0241325Y0105980D01*
X0241285Y0105890D01*
X0241250Y0105798D01*
X0241217Y0105706D01*
X0241189Y0105612D01*
X0241164Y0105517D01*
X0241143Y0105421D01*
X0241126Y0105324D01*
X0241112Y0105227D01*
X0241103Y0105129D01*
X0241097Y0105031D01*
X0241095Y0104933D01*
X0304209Y0042713D02*
X0304211Y0042861D01*
X0304217Y0043009D01*
X0304227Y0043157D01*
X0304241Y0043304D01*
X0304259Y0043451D01*
X0304280Y0043597D01*
X0304306Y0043743D01*
X0304336Y0043888D01*
X0304369Y0044032D01*
X0304407Y0044175D01*
X0304448Y0044317D01*
X0304493Y0044458D01*
X0304541Y0044598D01*
X0304594Y0044737D01*
X0304650Y0044874D01*
X0304710Y0045009D01*
X0304773Y0045143D01*
X0304840Y0045275D01*
X0304911Y0045405D01*
X0304985Y0045533D01*
X0305062Y0045659D01*
X0305143Y0045783D01*
X0305227Y0045905D01*
X0305314Y0046024D01*
X0305405Y0046141D01*
X0305499Y0046256D01*
X0305595Y0046368D01*
X0305695Y0046478D01*
X0305797Y0046584D01*
X0305903Y0046688D01*
X0306011Y0046789D01*
X0306122Y0046887D01*
X0306235Y0046983D01*
X0306351Y0047075D01*
X0306469Y0047164D01*
X0306590Y0047249D01*
X0306713Y0047332D01*
X0306838Y0047411D01*
X0306965Y0047487D01*
X0307094Y0047559D01*
X0307225Y0047628D01*
X0307358Y0047693D01*
X0307493Y0047754D01*
X0307629Y0047812D01*
X0307766Y0047867D01*
X0307905Y0047917D01*
X0308046Y0047964D01*
X0308187Y0048007D01*
X0308330Y0048047D01*
X0308474Y0048082D01*
X0308618Y0048114D01*
X0308764Y0048141D01*
X0308910Y0048165D01*
X0309057Y0048185D01*
X0309204Y0048201D01*
X0309351Y0048213D01*
X0309499Y0048221D01*
X0309647Y0048225D01*
X0309795Y0048225D01*
X0309943Y0048221D01*
X0310091Y0048213D01*
X0310238Y0048201D01*
X0310385Y0048185D01*
X0310532Y0048165D01*
X0310678Y0048141D01*
X0310824Y0048114D01*
X0310968Y0048082D01*
X0311112Y0048047D01*
X0311255Y0048007D01*
X0311396Y0047964D01*
X0311537Y0047917D01*
X0311676Y0047867D01*
X0311813Y0047812D01*
X0311949Y0047754D01*
X0312084Y0047693D01*
X0312217Y0047628D01*
X0312348Y0047559D01*
X0312477Y0047487D01*
X0312604Y0047411D01*
X0312729Y0047332D01*
X0312852Y0047249D01*
X0312973Y0047164D01*
X0313091Y0047075D01*
X0313207Y0046983D01*
X0313320Y0046887D01*
X0313431Y0046789D01*
X0313539Y0046688D01*
X0313645Y0046584D01*
X0313747Y0046478D01*
X0313847Y0046368D01*
X0313943Y0046256D01*
X0314037Y0046141D01*
X0314128Y0046024D01*
X0314215Y0045905D01*
X0314299Y0045783D01*
X0314380Y0045659D01*
X0314457Y0045533D01*
X0314531Y0045405D01*
X0314602Y0045275D01*
X0314669Y0045143D01*
X0314732Y0045009D01*
X0314792Y0044874D01*
X0314848Y0044737D01*
X0314901Y0044598D01*
X0314949Y0044458D01*
X0314994Y0044317D01*
X0315035Y0044175D01*
X0315073Y0044032D01*
X0315106Y0043888D01*
X0315136Y0043743D01*
X0315162Y0043597D01*
X0315183Y0043451D01*
X0315201Y0043304D01*
X0315215Y0043157D01*
X0315225Y0043009D01*
X0315231Y0042861D01*
X0315233Y0042713D01*
X0315231Y0042565D01*
X0315225Y0042417D01*
X0315215Y0042269D01*
X0315201Y0042122D01*
X0315183Y0041975D01*
X0315162Y0041829D01*
X0315136Y0041683D01*
X0315106Y0041538D01*
X0315073Y0041394D01*
X0315035Y0041251D01*
X0314994Y0041109D01*
X0314949Y0040968D01*
X0314901Y0040828D01*
X0314848Y0040689D01*
X0314792Y0040552D01*
X0314732Y0040417D01*
X0314669Y0040283D01*
X0314602Y0040151D01*
X0314531Y0040021D01*
X0314457Y0039893D01*
X0314380Y0039767D01*
X0314299Y0039643D01*
X0314215Y0039521D01*
X0314128Y0039402D01*
X0314037Y0039285D01*
X0313943Y0039170D01*
X0313847Y0039058D01*
X0313747Y0038948D01*
X0313645Y0038842D01*
X0313539Y0038738D01*
X0313431Y0038637D01*
X0313320Y0038539D01*
X0313207Y0038443D01*
X0313091Y0038351D01*
X0312973Y0038262D01*
X0312852Y0038177D01*
X0312729Y0038094D01*
X0312604Y0038015D01*
X0312477Y0037939D01*
X0312348Y0037867D01*
X0312217Y0037798D01*
X0312084Y0037733D01*
X0311949Y0037672D01*
X0311813Y0037614D01*
X0311676Y0037559D01*
X0311537Y0037509D01*
X0311396Y0037462D01*
X0311255Y0037419D01*
X0311112Y0037379D01*
X0310968Y0037344D01*
X0310824Y0037312D01*
X0310678Y0037285D01*
X0310532Y0037261D01*
X0310385Y0037241D01*
X0310238Y0037225D01*
X0310091Y0037213D01*
X0309943Y0037205D01*
X0309795Y0037201D01*
X0309647Y0037201D01*
X0309499Y0037205D01*
X0309351Y0037213D01*
X0309204Y0037225D01*
X0309057Y0037241D01*
X0308910Y0037261D01*
X0308764Y0037285D01*
X0308618Y0037312D01*
X0308474Y0037344D01*
X0308330Y0037379D01*
X0308187Y0037419D01*
X0308046Y0037462D01*
X0307905Y0037509D01*
X0307766Y0037559D01*
X0307629Y0037614D01*
X0307493Y0037672D01*
X0307358Y0037733D01*
X0307225Y0037798D01*
X0307094Y0037867D01*
X0306965Y0037939D01*
X0306838Y0038015D01*
X0306713Y0038094D01*
X0306590Y0038177D01*
X0306469Y0038262D01*
X0306351Y0038351D01*
X0306235Y0038443D01*
X0306122Y0038539D01*
X0306011Y0038637D01*
X0305903Y0038738D01*
X0305797Y0038842D01*
X0305695Y0038948D01*
X0305595Y0039058D01*
X0305499Y0039170D01*
X0305405Y0039285D01*
X0305314Y0039402D01*
X0305227Y0039521D01*
X0305143Y0039643D01*
X0305062Y0039767D01*
X0304985Y0039893D01*
X0304911Y0040021D01*
X0304840Y0040151D01*
X0304773Y0040283D01*
X0304710Y0040417D01*
X0304650Y0040552D01*
X0304594Y0040689D01*
X0304541Y0040828D01*
X0304493Y0040968D01*
X0304448Y0041109D01*
X0304407Y0041251D01*
X0304369Y0041394D01*
X0304336Y0041538D01*
X0304306Y0041683D01*
X0304280Y0041829D01*
X0304259Y0041975D01*
X0304241Y0042122D01*
X0304227Y0042269D01*
X0304217Y0042417D01*
X0304211Y0042565D01*
X0304209Y0042713D01*
X0304209Y0235626D02*
X0304211Y0235774D01*
X0304217Y0235922D01*
X0304227Y0236070D01*
X0304241Y0236217D01*
X0304259Y0236364D01*
X0304280Y0236510D01*
X0304306Y0236656D01*
X0304336Y0236801D01*
X0304369Y0236945D01*
X0304407Y0237088D01*
X0304448Y0237230D01*
X0304493Y0237371D01*
X0304541Y0237511D01*
X0304594Y0237650D01*
X0304650Y0237787D01*
X0304710Y0237922D01*
X0304773Y0238056D01*
X0304840Y0238188D01*
X0304911Y0238318D01*
X0304985Y0238446D01*
X0305062Y0238572D01*
X0305143Y0238696D01*
X0305227Y0238818D01*
X0305314Y0238937D01*
X0305405Y0239054D01*
X0305499Y0239169D01*
X0305595Y0239281D01*
X0305695Y0239391D01*
X0305797Y0239497D01*
X0305903Y0239601D01*
X0306011Y0239702D01*
X0306122Y0239800D01*
X0306235Y0239896D01*
X0306351Y0239988D01*
X0306469Y0240077D01*
X0306590Y0240162D01*
X0306713Y0240245D01*
X0306838Y0240324D01*
X0306965Y0240400D01*
X0307094Y0240472D01*
X0307225Y0240541D01*
X0307358Y0240606D01*
X0307493Y0240667D01*
X0307629Y0240725D01*
X0307766Y0240780D01*
X0307905Y0240830D01*
X0308046Y0240877D01*
X0308187Y0240920D01*
X0308330Y0240960D01*
X0308474Y0240995D01*
X0308618Y0241027D01*
X0308764Y0241054D01*
X0308910Y0241078D01*
X0309057Y0241098D01*
X0309204Y0241114D01*
X0309351Y0241126D01*
X0309499Y0241134D01*
X0309647Y0241138D01*
X0309795Y0241138D01*
X0309943Y0241134D01*
X0310091Y0241126D01*
X0310238Y0241114D01*
X0310385Y0241098D01*
X0310532Y0241078D01*
X0310678Y0241054D01*
X0310824Y0241027D01*
X0310968Y0240995D01*
X0311112Y0240960D01*
X0311255Y0240920D01*
X0311396Y0240877D01*
X0311537Y0240830D01*
X0311676Y0240780D01*
X0311813Y0240725D01*
X0311949Y0240667D01*
X0312084Y0240606D01*
X0312217Y0240541D01*
X0312348Y0240472D01*
X0312477Y0240400D01*
X0312604Y0240324D01*
X0312729Y0240245D01*
X0312852Y0240162D01*
X0312973Y0240077D01*
X0313091Y0239988D01*
X0313207Y0239896D01*
X0313320Y0239800D01*
X0313431Y0239702D01*
X0313539Y0239601D01*
X0313645Y0239497D01*
X0313747Y0239391D01*
X0313847Y0239281D01*
X0313943Y0239169D01*
X0314037Y0239054D01*
X0314128Y0238937D01*
X0314215Y0238818D01*
X0314299Y0238696D01*
X0314380Y0238572D01*
X0314457Y0238446D01*
X0314531Y0238318D01*
X0314602Y0238188D01*
X0314669Y0238056D01*
X0314732Y0237922D01*
X0314792Y0237787D01*
X0314848Y0237650D01*
X0314901Y0237511D01*
X0314949Y0237371D01*
X0314994Y0237230D01*
X0315035Y0237088D01*
X0315073Y0236945D01*
X0315106Y0236801D01*
X0315136Y0236656D01*
X0315162Y0236510D01*
X0315183Y0236364D01*
X0315201Y0236217D01*
X0315215Y0236070D01*
X0315225Y0235922D01*
X0315231Y0235774D01*
X0315233Y0235626D01*
X0315231Y0235478D01*
X0315225Y0235330D01*
X0315215Y0235182D01*
X0315201Y0235035D01*
X0315183Y0234888D01*
X0315162Y0234742D01*
X0315136Y0234596D01*
X0315106Y0234451D01*
X0315073Y0234307D01*
X0315035Y0234164D01*
X0314994Y0234022D01*
X0314949Y0233881D01*
X0314901Y0233741D01*
X0314848Y0233602D01*
X0314792Y0233465D01*
X0314732Y0233330D01*
X0314669Y0233196D01*
X0314602Y0233064D01*
X0314531Y0232934D01*
X0314457Y0232806D01*
X0314380Y0232680D01*
X0314299Y0232556D01*
X0314215Y0232434D01*
X0314128Y0232315D01*
X0314037Y0232198D01*
X0313943Y0232083D01*
X0313847Y0231971D01*
X0313747Y0231861D01*
X0313645Y0231755D01*
X0313539Y0231651D01*
X0313431Y0231550D01*
X0313320Y0231452D01*
X0313207Y0231356D01*
X0313091Y0231264D01*
X0312973Y0231175D01*
X0312852Y0231090D01*
X0312729Y0231007D01*
X0312604Y0230928D01*
X0312477Y0230852D01*
X0312348Y0230780D01*
X0312217Y0230711D01*
X0312084Y0230646D01*
X0311949Y0230585D01*
X0311813Y0230527D01*
X0311676Y0230472D01*
X0311537Y0230422D01*
X0311396Y0230375D01*
X0311255Y0230332D01*
X0311112Y0230292D01*
X0310968Y0230257D01*
X0310824Y0230225D01*
X0310678Y0230198D01*
X0310532Y0230174D01*
X0310385Y0230154D01*
X0310238Y0230138D01*
X0310091Y0230126D01*
X0309943Y0230118D01*
X0309795Y0230114D01*
X0309647Y0230114D01*
X0309499Y0230118D01*
X0309351Y0230126D01*
X0309204Y0230138D01*
X0309057Y0230154D01*
X0308910Y0230174D01*
X0308764Y0230198D01*
X0308618Y0230225D01*
X0308474Y0230257D01*
X0308330Y0230292D01*
X0308187Y0230332D01*
X0308046Y0230375D01*
X0307905Y0230422D01*
X0307766Y0230472D01*
X0307629Y0230527D01*
X0307493Y0230585D01*
X0307358Y0230646D01*
X0307225Y0230711D01*
X0307094Y0230780D01*
X0306965Y0230852D01*
X0306838Y0230928D01*
X0306713Y0231007D01*
X0306590Y0231090D01*
X0306469Y0231175D01*
X0306351Y0231264D01*
X0306235Y0231356D01*
X0306122Y0231452D01*
X0306011Y0231550D01*
X0305903Y0231651D01*
X0305797Y0231755D01*
X0305695Y0231861D01*
X0305595Y0231971D01*
X0305499Y0232083D01*
X0305405Y0232198D01*
X0305314Y0232315D01*
X0305227Y0232434D01*
X0305143Y0232556D01*
X0305062Y0232680D01*
X0304985Y0232806D01*
X0304911Y0232934D01*
X0304840Y0233064D01*
X0304773Y0233196D01*
X0304710Y0233330D01*
X0304650Y0233465D01*
X0304594Y0233602D01*
X0304541Y0233741D01*
X0304493Y0233881D01*
X0304448Y0234022D01*
X0304407Y0234164D01*
X0304369Y0234307D01*
X0304336Y0234451D01*
X0304306Y0234596D01*
X0304280Y0234742D01*
X0304259Y0234888D01*
X0304241Y0235035D01*
X0304227Y0235182D01*
X0304217Y0235330D01*
X0304211Y0235478D01*
X0304209Y0235626D01*
D11*
X0266996Y0185539D02*
X0263343Y0185539D01*
X0262125Y0184322D01*
X0262125Y0181886D01*
X0263343Y0180668D01*
X0266996Y0180668D01*
X0266996Y0178233D02*
X0266996Y0185539D01*
X0264560Y0180668D02*
X0262125Y0178233D01*
X0259077Y0178233D02*
X0259077Y0185539D01*
X0255424Y0185539D01*
X0254206Y0184322D01*
X0254206Y0181886D01*
X0255424Y0180668D01*
X0259077Y0180668D01*
X0251158Y0178233D02*
X0248723Y0178233D01*
X0249941Y0178233D02*
X0249941Y0185539D01*
X0251158Y0185539D02*
X0248723Y0185539D01*
X0237960Y0185539D02*
X0237960Y0178233D01*
X0233090Y0178233D01*
X0230042Y0179451D02*
X0230042Y0181886D01*
X0228824Y0183104D01*
X0226388Y0183104D01*
X0225171Y0181886D01*
X0225171Y0179451D01*
X0226388Y0178233D01*
X0228824Y0178233D01*
X0230042Y0179451D01*
X0222123Y0180668D02*
X0219687Y0183104D01*
X0218470Y0183104D01*
X0222123Y0183104D02*
X0222123Y0178233D01*
X0220803Y0172639D02*
X0220803Y0167768D01*
X0218368Y0165333D01*
X0215932Y0167768D01*
X0215932Y0172639D01*
X0212884Y0170204D02*
X0210449Y0172639D01*
X0210449Y0165333D01*
X0212884Y0165333D02*
X0208013Y0165333D01*
X0204965Y0165333D02*
X0203748Y0165333D01*
X0203748Y0166551D01*
X0204965Y0166551D01*
X0204965Y0165333D01*
X0201006Y0166551D02*
X0196135Y0171422D01*
X0196135Y0166551D01*
X0197353Y0165333D01*
X0199788Y0165333D01*
X0201006Y0166551D01*
X0201006Y0171422D01*
X0199788Y0172639D01*
X0197353Y0172639D01*
X0196135Y0171422D01*
X0196033Y0178233D02*
X0194815Y0179451D01*
X0194815Y0181886D01*
X0197251Y0181886D01*
X0199686Y0179451D02*
X0198469Y0178233D01*
X0196033Y0178233D01*
X0199686Y0179451D02*
X0199686Y0184322D01*
X0198469Y0185539D01*
X0196033Y0185539D01*
X0194815Y0184322D01*
X0190550Y0183104D02*
X0188114Y0183104D01*
X0186897Y0181886D01*
X0186897Y0178233D01*
X0190550Y0178233D01*
X0191768Y0179451D01*
X0190550Y0180668D01*
X0186897Y0180668D01*
X0183849Y0183104D02*
X0181413Y0183104D01*
X0182631Y0184322D02*
X0182631Y0179451D01*
X0181413Y0178233D01*
X0178570Y0179451D02*
X0178570Y0181886D01*
X0177352Y0183104D01*
X0174917Y0183104D01*
X0173699Y0181886D01*
X0173699Y0180668D01*
X0178570Y0180668D01*
X0178570Y0179451D02*
X0177352Y0178233D01*
X0174917Y0178233D01*
X0170651Y0179451D02*
X0169433Y0178233D01*
X0168215Y0179451D01*
X0166998Y0178233D01*
X0165780Y0179451D01*
X0165780Y0183104D01*
X0161514Y0183104D02*
X0159079Y0183104D01*
X0157861Y0181886D01*
X0157861Y0178233D01*
X0161514Y0178233D01*
X0162732Y0179451D01*
X0161514Y0180668D01*
X0157861Y0180668D01*
X0154813Y0179451D02*
X0153596Y0178233D01*
X0149943Y0178233D01*
X0149943Y0177015D02*
X0151160Y0175798D01*
X0152378Y0175798D01*
X0149943Y0177015D02*
X0149943Y0183104D01*
X0154813Y0183104D02*
X0154813Y0179451D01*
X0170651Y0179451D02*
X0170651Y0183104D01*
X0210653Y0181886D02*
X0210653Y0178233D01*
X0214306Y0178233D01*
X0215524Y0179451D01*
X0214306Y0180668D01*
X0210653Y0180668D01*
X0210653Y0181886D02*
X0211871Y0183104D01*
X0214306Y0183104D01*
D12*
X0074795Y0197583D02*
X0074740Y0197666D01*
X0074688Y0197751D01*
X0074639Y0197838D01*
X0074594Y0197927D01*
X0074552Y0198018D01*
X0074513Y0198109D01*
X0074478Y0198203D01*
X0074447Y0198297D01*
X0074419Y0198393D01*
X0074395Y0198490D01*
X0074374Y0198587D01*
X0074357Y0198686D01*
X0074344Y0198785D01*
X0074335Y0198884D01*
X0074329Y0198983D01*
X0074327Y0199083D01*
X0074329Y0199183D01*
X0074335Y0199282D01*
X0074344Y0199381D01*
X0074357Y0199480D01*
X0074374Y0199579D01*
X0074395Y0199676D01*
X0074419Y0199773D01*
X0074447Y0199869D01*
X0074478Y0199963D01*
X0074513Y0200057D01*
X0074552Y0200148D01*
X0074594Y0200239D01*
X0074639Y0200328D01*
X0074688Y0200415D01*
X0074740Y0200500D01*
X0074795Y0200583D01*
X0071795Y0203283D02*
X0071684Y0203169D01*
X0071576Y0203053D01*
X0071471Y0202934D01*
X0071369Y0202813D01*
X0071270Y0202689D01*
X0071175Y0202562D01*
X0071082Y0202433D01*
X0070993Y0202302D01*
X0070906Y0202169D01*
X0070824Y0202033D01*
X0070744Y0201896D01*
X0070668Y0201757D01*
X0070596Y0201616D01*
X0070527Y0201473D01*
X0070462Y0201328D01*
X0070400Y0201182D01*
X0070342Y0201034D01*
X0070288Y0200885D01*
X0070238Y0200734D01*
X0070191Y0200583D01*
X0070148Y0200430D01*
X0070109Y0200276D01*
X0070073Y0200122D01*
X0070042Y0199966D01*
X0070014Y0199810D01*
X0069991Y0199653D01*
X0069971Y0199496D01*
X0069955Y0199338D01*
X0069943Y0199179D01*
X0069935Y0199021D01*
X0069931Y0198862D01*
X0069931Y0198704D01*
X0069935Y0198545D01*
X0069943Y0198387D01*
X0069955Y0198228D01*
X0069971Y0198070D01*
X0069991Y0197913D01*
X0070014Y0197756D01*
X0070042Y0197600D01*
X0070073Y0197444D01*
X0070109Y0197290D01*
X0070148Y0197136D01*
X0070191Y0196983D01*
X0070238Y0196832D01*
X0070288Y0196681D01*
X0070342Y0196532D01*
X0070400Y0196384D01*
X0070462Y0196238D01*
X0070527Y0196093D01*
X0070596Y0195950D01*
X0070668Y0195809D01*
X0070744Y0195670D01*
X0070824Y0195533D01*
X0070906Y0195397D01*
X0070993Y0195264D01*
X0071082Y0195133D01*
X0071175Y0195004D01*
X0071270Y0194877D01*
X0071369Y0194753D01*
X0071471Y0194632D01*
X0071576Y0194513D01*
X0071684Y0194397D01*
X0071795Y0194283D01*
X0073345Y0195983D02*
X0073257Y0196081D01*
X0073173Y0196183D01*
X0073092Y0196286D01*
X0073013Y0196392D01*
X0072938Y0196500D01*
X0072866Y0196611D01*
X0072798Y0196723D01*
X0072733Y0196837D01*
X0072671Y0196954D01*
X0072612Y0197072D01*
X0072558Y0197191D01*
X0072506Y0197313D01*
X0072459Y0197436D01*
X0072415Y0197560D01*
X0072375Y0197685D01*
X0072338Y0197812D01*
X0072305Y0197939D01*
X0072276Y0198068D01*
X0072251Y0198197D01*
X0072230Y0198327D01*
X0072212Y0198457D01*
X0072199Y0198588D01*
X0072189Y0198720D01*
X0072183Y0198851D01*
X0072181Y0198983D01*
X0072183Y0199115D01*
X0072189Y0199246D01*
X0072199Y0199378D01*
X0072212Y0199509D01*
X0072230Y0199639D01*
X0072251Y0199769D01*
X0072276Y0199898D01*
X0072305Y0200027D01*
X0072338Y0200154D01*
X0072375Y0200281D01*
X0072415Y0200406D01*
X0072459Y0200530D01*
X0072506Y0200653D01*
X0072558Y0200775D01*
X0072612Y0200894D01*
X0072671Y0201012D01*
X0072733Y0201129D01*
X0072798Y0201243D01*
X0072866Y0201355D01*
X0072938Y0201466D01*
X0073013Y0201574D01*
X0073092Y0201680D01*
X0073173Y0201783D01*
X0073257Y0201885D01*
X0073345Y0201983D01*
X0074795Y0088083D02*
X0074740Y0088000D01*
X0074688Y0087915D01*
X0074639Y0087828D01*
X0074594Y0087739D01*
X0074552Y0087648D01*
X0074513Y0087557D01*
X0074478Y0087463D01*
X0074447Y0087369D01*
X0074419Y0087273D01*
X0074395Y0087176D01*
X0074374Y0087079D01*
X0074357Y0086980D01*
X0074344Y0086881D01*
X0074335Y0086782D01*
X0074329Y0086683D01*
X0074327Y0086583D01*
X0074329Y0086483D01*
X0074335Y0086384D01*
X0074344Y0086285D01*
X0074357Y0086186D01*
X0074374Y0086087D01*
X0074395Y0085990D01*
X0074419Y0085893D01*
X0074447Y0085797D01*
X0074478Y0085703D01*
X0074513Y0085609D01*
X0074552Y0085518D01*
X0074594Y0085427D01*
X0074639Y0085338D01*
X0074688Y0085251D01*
X0074740Y0085166D01*
X0074795Y0085083D01*
X0071795Y0081783D02*
X0071684Y0081897D01*
X0071576Y0082013D01*
X0071471Y0082132D01*
X0071369Y0082253D01*
X0071270Y0082377D01*
X0071175Y0082504D01*
X0071082Y0082633D01*
X0070993Y0082764D01*
X0070906Y0082897D01*
X0070824Y0083033D01*
X0070744Y0083170D01*
X0070668Y0083309D01*
X0070596Y0083450D01*
X0070527Y0083593D01*
X0070462Y0083738D01*
X0070400Y0083884D01*
X0070342Y0084032D01*
X0070288Y0084181D01*
X0070238Y0084332D01*
X0070191Y0084483D01*
X0070148Y0084636D01*
X0070109Y0084790D01*
X0070073Y0084944D01*
X0070042Y0085100D01*
X0070014Y0085256D01*
X0069991Y0085413D01*
X0069971Y0085570D01*
X0069955Y0085728D01*
X0069943Y0085887D01*
X0069935Y0086045D01*
X0069931Y0086204D01*
X0069931Y0086362D01*
X0069935Y0086521D01*
X0069943Y0086679D01*
X0069955Y0086838D01*
X0069971Y0086996D01*
X0069991Y0087153D01*
X0070014Y0087310D01*
X0070042Y0087466D01*
X0070073Y0087622D01*
X0070109Y0087776D01*
X0070148Y0087930D01*
X0070191Y0088083D01*
X0070238Y0088234D01*
X0070288Y0088385D01*
X0070342Y0088534D01*
X0070400Y0088682D01*
X0070462Y0088828D01*
X0070527Y0088973D01*
X0070596Y0089116D01*
X0070668Y0089257D01*
X0070744Y0089396D01*
X0070824Y0089533D01*
X0070906Y0089669D01*
X0070993Y0089802D01*
X0071082Y0089933D01*
X0071175Y0090062D01*
X0071270Y0090189D01*
X0071369Y0090313D01*
X0071471Y0090434D01*
X0071576Y0090553D01*
X0071684Y0090669D01*
X0071795Y0090783D01*
X0073345Y0089483D02*
X0073257Y0089385D01*
X0073173Y0089283D01*
X0073092Y0089180D01*
X0073013Y0089074D01*
X0072938Y0088966D01*
X0072866Y0088855D01*
X0072798Y0088743D01*
X0072733Y0088629D01*
X0072671Y0088512D01*
X0072612Y0088394D01*
X0072558Y0088275D01*
X0072506Y0088153D01*
X0072459Y0088030D01*
X0072415Y0087906D01*
X0072375Y0087781D01*
X0072338Y0087654D01*
X0072305Y0087527D01*
X0072276Y0087398D01*
X0072251Y0087269D01*
X0072230Y0087139D01*
X0072212Y0087009D01*
X0072199Y0086878D01*
X0072189Y0086746D01*
X0072183Y0086615D01*
X0072181Y0086483D01*
X0072183Y0086351D01*
X0072189Y0086220D01*
X0072199Y0086088D01*
X0072212Y0085957D01*
X0072230Y0085827D01*
X0072251Y0085697D01*
X0072276Y0085568D01*
X0072305Y0085439D01*
X0072338Y0085312D01*
X0072375Y0085185D01*
X0072415Y0085060D01*
X0072459Y0084936D01*
X0072506Y0084813D01*
X0072558Y0084691D01*
X0072612Y0084572D01*
X0072671Y0084454D01*
X0072733Y0084337D01*
X0072798Y0084223D01*
X0072866Y0084111D01*
X0072938Y0084000D01*
X0073013Y0083892D01*
X0073092Y0083786D01*
X0073173Y0083683D01*
X0073257Y0083581D01*
X0073345Y0083483D01*
X0276445Y0036133D02*
X0276528Y0036078D01*
X0276613Y0036026D01*
X0276700Y0035977D01*
X0276789Y0035932D01*
X0276880Y0035890D01*
X0276971Y0035851D01*
X0277065Y0035816D01*
X0277159Y0035785D01*
X0277255Y0035757D01*
X0277352Y0035733D01*
X0277449Y0035712D01*
X0277548Y0035695D01*
X0277647Y0035682D01*
X0277746Y0035673D01*
X0277845Y0035667D01*
X0277945Y0035665D01*
X0278045Y0035667D01*
X0278144Y0035673D01*
X0278243Y0035682D01*
X0278342Y0035695D01*
X0278441Y0035712D01*
X0278538Y0035733D01*
X0278635Y0035757D01*
X0278731Y0035785D01*
X0278825Y0035816D01*
X0278919Y0035851D01*
X0279010Y0035890D01*
X0279101Y0035932D01*
X0279190Y0035977D01*
X0279277Y0036026D01*
X0279362Y0036078D01*
X0279445Y0036133D01*
X0282745Y0033133D02*
X0282631Y0033022D01*
X0282515Y0032914D01*
X0282396Y0032809D01*
X0282275Y0032707D01*
X0282151Y0032608D01*
X0282024Y0032513D01*
X0281895Y0032420D01*
X0281764Y0032331D01*
X0281631Y0032244D01*
X0281495Y0032162D01*
X0281358Y0032082D01*
X0281219Y0032006D01*
X0281078Y0031934D01*
X0280935Y0031865D01*
X0280790Y0031800D01*
X0280644Y0031738D01*
X0280496Y0031680D01*
X0280347Y0031626D01*
X0280196Y0031576D01*
X0280045Y0031529D01*
X0279892Y0031486D01*
X0279738Y0031447D01*
X0279584Y0031411D01*
X0279428Y0031380D01*
X0279272Y0031352D01*
X0279115Y0031329D01*
X0278958Y0031309D01*
X0278800Y0031293D01*
X0278641Y0031281D01*
X0278483Y0031273D01*
X0278324Y0031269D01*
X0278166Y0031269D01*
X0278007Y0031273D01*
X0277849Y0031281D01*
X0277690Y0031293D01*
X0277532Y0031309D01*
X0277375Y0031329D01*
X0277218Y0031352D01*
X0277062Y0031380D01*
X0276906Y0031411D01*
X0276752Y0031447D01*
X0276598Y0031486D01*
X0276445Y0031529D01*
X0276294Y0031576D01*
X0276143Y0031626D01*
X0275994Y0031680D01*
X0275846Y0031738D01*
X0275700Y0031800D01*
X0275555Y0031865D01*
X0275412Y0031934D01*
X0275271Y0032006D01*
X0275132Y0032082D01*
X0274995Y0032162D01*
X0274859Y0032244D01*
X0274726Y0032331D01*
X0274595Y0032420D01*
X0274466Y0032513D01*
X0274339Y0032608D01*
X0274215Y0032707D01*
X0274094Y0032809D01*
X0273975Y0032914D01*
X0273859Y0033022D01*
X0273745Y0033133D01*
X0275045Y0034683D02*
X0275143Y0034595D01*
X0275245Y0034511D01*
X0275348Y0034430D01*
X0275454Y0034351D01*
X0275562Y0034276D01*
X0275673Y0034204D01*
X0275785Y0034136D01*
X0275899Y0034071D01*
X0276016Y0034009D01*
X0276134Y0033950D01*
X0276253Y0033896D01*
X0276375Y0033844D01*
X0276498Y0033797D01*
X0276622Y0033753D01*
X0276747Y0033713D01*
X0276874Y0033676D01*
X0277001Y0033643D01*
X0277130Y0033614D01*
X0277259Y0033589D01*
X0277389Y0033568D01*
X0277519Y0033550D01*
X0277650Y0033537D01*
X0277782Y0033527D01*
X0277913Y0033521D01*
X0278045Y0033519D01*
X0278177Y0033521D01*
X0278308Y0033527D01*
X0278440Y0033537D01*
X0278571Y0033550D01*
X0278701Y0033568D01*
X0278831Y0033589D01*
X0278960Y0033614D01*
X0279089Y0033643D01*
X0279216Y0033676D01*
X0279343Y0033713D01*
X0279468Y0033753D01*
X0279592Y0033797D01*
X0279715Y0033844D01*
X0279837Y0033896D01*
X0279956Y0033950D01*
X0280074Y0034009D01*
X0280191Y0034071D01*
X0280305Y0034136D01*
X0280417Y0034204D01*
X0280528Y0034276D01*
X0280636Y0034351D01*
X0280742Y0034430D01*
X0280845Y0034511D01*
X0280947Y0034595D01*
X0281045Y0034683D01*
D13*
X0217970Y0102433D03*
X0220220Y0132433D03*
D14*
X0202220Y0122183D03*
X0202220Y0121933D03*
X0201970Y0121683D03*
X0201970Y0121433D03*
X0201970Y0121183D03*
X0201970Y0120933D03*
X0201970Y0120683D03*
X0201970Y0120433D03*
X0201970Y0120183D03*
X0201970Y0119933D03*
X0201970Y0119683D03*
X0201970Y0119433D03*
X0201970Y0119183D03*
X0201970Y0118933D03*
X0201970Y0118683D03*
X0201970Y0118433D03*
X0201970Y0118183D03*
X0201970Y0117933D03*
X0201970Y0117683D03*
X0201970Y0117433D03*
X0212470Y0112933D03*
X0212470Y0112683D03*
X0212470Y0112433D03*
X0212470Y0112183D03*
X0212470Y0111933D03*
X0212470Y0111683D03*
X0212470Y0111433D03*
X0212470Y0111183D03*
X0212470Y0110933D03*
X0212470Y0110683D03*
X0212470Y0110433D03*
X0212470Y0110183D03*
X0212470Y0109933D03*
X0212470Y0109683D03*
X0212470Y0109433D03*
X0212470Y0109183D03*
X0212470Y0108933D03*
X0212470Y0107433D03*
X0212470Y0107183D03*
X0212470Y0106933D03*
X0212470Y0106683D03*
X0212470Y0106433D03*
X0212470Y0106183D03*
X0212470Y0105933D03*
X0212470Y0105683D03*
X0212470Y0105433D03*
X0212470Y0105183D03*
X0212470Y0104933D03*
X0212470Y0104683D03*
X0212470Y0104433D03*
X0212470Y0104183D03*
X0212470Y0103933D03*
X0212470Y0103683D03*
X0212470Y0103433D03*
X0212470Y0103183D03*
X0212470Y0102933D03*
X0212470Y0102683D03*
X0212470Y0102433D03*
D15*
X0207470Y0102433D03*
X0207470Y0102683D03*
X0207470Y0102933D03*
X0207470Y0103183D03*
X0207470Y0103433D03*
X0207470Y0103683D03*
X0207470Y0103933D03*
X0207470Y0104183D03*
X0207470Y0104433D03*
X0207470Y0104683D03*
X0207470Y0104933D03*
X0207470Y0105183D03*
X0207470Y0105433D03*
X0207470Y0105683D03*
X0207470Y0105933D03*
X0207470Y0106183D03*
X0207470Y0106433D03*
X0207470Y0106683D03*
X0207470Y0106933D03*
X0207470Y0107183D03*
X0207720Y0107683D03*
X0198970Y0107933D03*
X0198720Y0108183D03*
X0198720Y0108433D03*
X0198720Y0108683D03*
X0198720Y0108933D03*
X0198720Y0109183D03*
X0207720Y0117433D03*
X0207470Y0118183D03*
X0207470Y0118433D03*
X0207470Y0118683D03*
X0207470Y0118933D03*
X0207470Y0119183D03*
X0207470Y0119433D03*
X0207470Y0119683D03*
X0207470Y0119933D03*
X0207470Y0120183D03*
X0207470Y0120433D03*
X0207470Y0120683D03*
X0207470Y0120933D03*
X0207470Y0121183D03*
X0207470Y0121433D03*
X0207470Y0121683D03*
X0207470Y0121933D03*
X0207220Y0122183D03*
X0229470Y0128433D03*
D16*
X0200850Y0102933D03*
X0200850Y0102683D03*
X0200850Y0102433D03*
X0192590Y0121683D03*
D17*
X0188215Y0120183D03*
X0194465Y0112683D03*
X0194465Y0112433D03*
X0194465Y0111933D03*
X0194465Y0109933D03*
X0194465Y0109683D03*
X0194465Y0109433D03*
X0194465Y0109183D03*
X0194465Y0108933D03*
X0194465Y0108683D03*
X0194465Y0108433D03*
X0194465Y0108183D03*
X0194465Y0107933D03*
X0194465Y0107683D03*
X0194465Y0107433D03*
X0194465Y0107183D03*
X0194465Y0106933D03*
X0194465Y0106683D03*
X0194465Y0106433D03*
X0194465Y0106183D03*
X0194465Y0105933D03*
X0194465Y0105683D03*
X0194465Y0105433D03*
X0194465Y0105183D03*
X0194465Y0104933D03*
X0194465Y0104683D03*
X0194465Y0104433D03*
X0194465Y0104183D03*
X0194465Y0103933D03*
X0194465Y0103683D03*
X0194465Y0103433D03*
X0194465Y0103183D03*
X0194465Y0102933D03*
X0194465Y0102683D03*
X0194465Y0102433D03*
X0212715Y0118183D03*
X0212715Y0118433D03*
X0212965Y0118683D03*
X0220215Y0107933D03*
X0220215Y0107683D03*
X0220465Y0107433D03*
X0220465Y0107183D03*
X0220465Y0106933D03*
X0220465Y0106683D03*
X0220465Y0106433D03*
X0220465Y0106183D03*
X0220465Y0105933D03*
X0220465Y0105683D03*
X0220465Y0105433D03*
X0220465Y0105183D03*
X0220465Y0104933D03*
X0220465Y0104683D03*
X0220215Y0104183D03*
D18*
X0217970Y0102683D03*
X0214970Y0121683D03*
X0215220Y0121933D03*
X0217720Y0124933D03*
D19*
X0216090Y0122683D03*
X0225340Y0123183D03*
X0217340Y0134683D03*
X0216090Y0135433D03*
X0214340Y0136433D03*
X0200850Y0136433D03*
X0199090Y0135433D03*
X0197840Y0134683D03*
X0200850Y0110433D03*
X0217850Y0109183D03*
X0217850Y0102933D03*
D20*
X0217975Y0103183D03*
X0217975Y0108933D03*
X0225715Y0124183D03*
X0204715Y0123683D03*
D21*
X0204715Y0122933D03*
X0210225Y0108683D03*
X0210225Y0108433D03*
X0200975Y0103683D03*
X0200975Y0103433D03*
X0200975Y0103183D03*
D22*
X0218095Y0103433D03*
X0215595Y0115183D03*
D23*
X0213215Y0119183D03*
X0213215Y0119433D03*
X0213465Y0119683D03*
X0220465Y0131683D03*
X0220465Y0131933D03*
X0194715Y0131933D03*
X0194715Y0131683D03*
X0188965Y0120683D03*
X0200465Y0106183D03*
X0200715Y0105933D03*
X0200965Y0105683D03*
X0201215Y0105433D03*
X0201465Y0105183D03*
X0219715Y0103683D03*
D24*
X0216470Y0103683D03*
X0192220Y0114683D03*
X0191970Y0114433D03*
X0186220Y0118183D03*
X0186220Y0118433D03*
X0186470Y0118683D03*
X0186720Y0118933D03*
X0186970Y0119183D03*
X0185970Y0117933D03*
X0185720Y0117433D03*
D25*
X0198845Y0109433D03*
X0199095Y0109683D03*
X0199095Y0107683D03*
X0199345Y0107433D03*
X0207595Y0107433D03*
X0207845Y0107933D03*
X0207845Y0117183D03*
X0219845Y0108183D03*
X0220095Y0103933D03*
X0207595Y0140933D03*
D26*
X0230090Y0128683D03*
X0216100Y0103933D03*
X0190850Y0111183D03*
X0187840Y0111933D03*
X0184850Y0112933D03*
D27*
X0189470Y0120933D03*
X0202720Y0103933D03*
X0211970Y0108183D03*
X0225720Y0122183D03*
D28*
X0215975Y0104183D03*
D29*
X0202595Y0104183D03*
X0202345Y0104433D03*
X0202845Y0109683D03*
D30*
X0194340Y0111683D03*
X0187590Y0119683D03*
X0187840Y0119933D03*
X0220340Y0104433D03*
D31*
X0212220Y0107933D03*
X0202970Y0109433D03*
X0201720Y0104933D03*
X0201970Y0104683D03*
X0225970Y0122433D03*
X0227970Y0126183D03*
D32*
X0227720Y0125933D03*
X0204720Y0124183D03*
X0193220Y0115183D03*
X0199470Y0107183D03*
X0199720Y0106933D03*
X0199970Y0106683D03*
X0200220Y0106433D03*
D33*
X0212345Y0107683D03*
X0190845Y0117683D03*
D34*
X0194340Y0111183D03*
X0203100Y0108433D03*
X0216100Y0107933D03*
X0207590Y0141183D03*
D35*
X0216345Y0108183D03*
D36*
X0209215Y0109433D03*
X0208225Y0108183D03*
X0194965Y0117683D03*
X0194215Y0119183D03*
X0194965Y0132433D03*
X0195215Y0132683D03*
X0213715Y0120183D03*
X0213975Y0120433D03*
X0216215Y0123933D03*
X0219965Y0132683D03*
X0227465Y0125683D03*
D37*
X0213590Y0119933D03*
X0200840Y0111183D03*
X0194840Y0117933D03*
X0191340Y0117933D03*
X0194840Y0132183D03*
X0219590Y0108433D03*
D38*
X0216595Y0108433D03*
X0207595Y0117683D03*
X0207595Y0117933D03*
X0192595Y0114933D03*
D39*
X0193220Y0118433D03*
X0218220Y0108683D03*
X0224470Y0121683D03*
D40*
X0203095Y0108683D03*
D41*
X0209215Y0108933D03*
X0224965Y0121933D03*
X0228215Y0128183D03*
X0219215Y0133433D03*
D42*
X0190845Y0112683D03*
X0184845Y0113183D03*
X0184845Y0113433D03*
X0184845Y0113683D03*
X0184845Y0113933D03*
X0184845Y0114183D03*
X0184845Y0114433D03*
X0184845Y0114683D03*
X0184845Y0114933D03*
X0184845Y0115183D03*
X0184845Y0115433D03*
X0203095Y0108933D03*
D43*
X0209215Y0109183D03*
X0215965Y0123433D03*
X0217225Y0124683D03*
X0226965Y0125433D03*
D44*
X0212595Y0117933D03*
X0203095Y0109183D03*
X0190345Y0117433D03*
X0190095Y0117183D03*
D45*
X0193845Y0118933D03*
X0214845Y0121433D03*
X0226845Y0125183D03*
X0217845Y0109433D03*
D46*
X0217845Y0109683D03*
X0220345Y0132183D03*
D47*
X0212470Y0117683D03*
X0212470Y0117433D03*
X0212220Y0117183D03*
X0209220Y0109683D03*
X0189720Y0116933D03*
X0184970Y0115683D03*
D48*
X0192840Y0121933D03*
X0200850Y0109933D03*
X0209850Y0116683D03*
X0209850Y0116933D03*
D49*
X0200850Y0110183D03*
X0207600Y0140183D03*
D50*
X0207600Y0140433D03*
X0218840Y0133683D03*
X0210090Y0115683D03*
X0200850Y0110683D03*
D51*
X0200720Y0110933D03*
D52*
X0200590Y0111433D03*
X0194340Y0111433D03*
X0191350Y0113683D03*
X0191600Y0114183D03*
X0188590Y0115433D03*
X0188340Y0115183D03*
X0188340Y0114933D03*
X0188090Y0114683D03*
X0188090Y0114433D03*
X0188090Y0114183D03*
X0187840Y0113683D03*
X0187840Y0113433D03*
X0187840Y0113183D03*
X0187840Y0112933D03*
X0187840Y0112683D03*
X0187840Y0112433D03*
X0187840Y0112183D03*
X0188840Y0115933D03*
X0185600Y0117183D03*
X0185350Y0116683D03*
X0185100Y0116183D03*
X0185100Y0115933D03*
D53*
X0190720Y0112433D03*
X0190720Y0112183D03*
X0190720Y0111933D03*
X0190720Y0111683D03*
X0190720Y0111433D03*
D54*
X0194340Y0112183D03*
X0194590Y0119433D03*
X0194590Y0119683D03*
X0194590Y0119933D03*
X0194590Y0120183D03*
X0194590Y0120433D03*
X0194590Y0120683D03*
X0194590Y0120933D03*
X0194590Y0122433D03*
X0194590Y0122683D03*
X0194590Y0122933D03*
X0194590Y0123183D03*
X0194590Y0123433D03*
X0194590Y0123683D03*
X0194590Y0123933D03*
X0194590Y0124183D03*
X0194590Y0124433D03*
X0194590Y0124683D03*
X0194590Y0124933D03*
X0194590Y0125183D03*
X0194590Y0125433D03*
X0194590Y0125683D03*
X0194590Y0125933D03*
X0194590Y0126183D03*
X0194590Y0126433D03*
X0194590Y0126683D03*
X0194590Y0126933D03*
X0194590Y0127183D03*
X0194590Y0127433D03*
X0194590Y0127683D03*
X0194590Y0127933D03*
X0194590Y0128183D03*
X0194590Y0128433D03*
X0194590Y0128683D03*
X0194590Y0128933D03*
X0194590Y0129183D03*
X0194590Y0129433D03*
X0194590Y0129683D03*
X0194590Y0129933D03*
X0194590Y0130183D03*
X0194590Y0130433D03*
X0194590Y0130683D03*
X0194590Y0130933D03*
X0194590Y0131183D03*
X0194590Y0131433D03*
X0188590Y0120433D03*
X0201590Y0117183D03*
X0213090Y0118933D03*
X0220590Y0127683D03*
X0220590Y0127933D03*
X0220590Y0128183D03*
X0220590Y0128433D03*
X0220590Y0128683D03*
X0220590Y0128933D03*
X0220590Y0129183D03*
X0220590Y0129433D03*
X0220590Y0129683D03*
X0220590Y0129933D03*
X0220590Y0130183D03*
X0220590Y0130433D03*
X0220590Y0130683D03*
X0220590Y0130933D03*
X0220590Y0131183D03*
X0220590Y0131433D03*
D55*
X0194465Y0112933D03*
X0189465Y0116683D03*
X0189215Y0116433D03*
X0188965Y0116183D03*
X0188715Y0115683D03*
X0185475Y0116933D03*
X0185225Y0116433D03*
X0187215Y0119433D03*
D56*
X0187965Y0113933D03*
X0190975Y0113183D03*
X0190975Y0112933D03*
X0191225Y0113433D03*
X0191475Y0113933D03*
X0194465Y0113183D03*
D57*
X0216595Y0115433D03*
X0207595Y0139683D03*
D58*
X0219590Y0133183D03*
X0225600Y0122933D03*
X0214600Y0121183D03*
X0210340Y0115433D03*
D59*
X0219970Y0118433D03*
X0220220Y0118683D03*
X0196720Y0115433D03*
D60*
X0216970Y0115683D03*
D61*
X0218715Y0117183D03*
X0219465Y0117933D03*
X0219715Y0118183D03*
X0198215Y0116933D03*
X0197215Y0115683D03*
D62*
X0217345Y0115933D03*
X0207595Y0139433D03*
D63*
X0212965Y0137183D03*
X0216965Y0134933D03*
X0218225Y0134183D03*
X0218225Y0125183D03*
X0216215Y0123183D03*
X0209965Y0115933D03*
X0198715Y0135183D03*
X0198215Y0134933D03*
X0197465Y0134433D03*
X0196965Y0134183D03*
X0201225Y0136683D03*
X0203465Y0137933D03*
D64*
X0220600Y0118933D03*
X0218340Y0116933D03*
X0197590Y0115933D03*
D65*
X0217595Y0116183D03*
D66*
X0209970Y0116183D03*
X0225470Y0123933D03*
D67*
X0198215Y0116183D03*
D68*
X0217970Y0116433D03*
D69*
X0216345Y0122933D03*
X0209845Y0116433D03*
D70*
X0198340Y0116433D03*
X0221090Y0119433D03*
X0221340Y0119683D03*
D71*
X0218215Y0116683D03*
X0198215Y0116683D03*
D72*
X0195845Y0117183D03*
X0196345Y0133683D03*
X0196595Y0133933D03*
D73*
X0218970Y0117433D03*
X0219220Y0117683D03*
D74*
X0214350Y0120933D03*
X0214100Y0120683D03*
X0216090Y0123683D03*
X0216590Y0124183D03*
X0216840Y0124433D03*
X0219840Y0132933D03*
X0207590Y0140683D03*
X0195090Y0117433D03*
D75*
X0185845Y0117683D03*
D76*
X0193220Y0118183D03*
D77*
X0193470Y0118683D03*
X0199970Y0135933D03*
X0200470Y0136183D03*
X0211720Y0137933D03*
X0212220Y0137683D03*
X0214720Y0136183D03*
X0215220Y0135933D03*
X0217720Y0134433D03*
X0225970Y0124433D03*
X0215470Y0122183D03*
D78*
X0220845Y0119183D03*
X0207595Y0139183D03*
D79*
X0221720Y0119933D03*
D80*
X0222090Y0120183D03*
X0221590Y0126183D03*
D81*
X0222345Y0120433D03*
D82*
X0222715Y0120683D03*
X0204715Y0122433D03*
D83*
X0223095Y0120933D03*
D84*
X0223475Y0121183D03*
X0204715Y0123183D03*
D85*
X0192090Y0121183D03*
D86*
X0204715Y0123433D03*
X0219715Y0125683D03*
X0223965Y0121433D03*
D87*
X0204840Y0122683D03*
X0192340Y0121433D03*
D88*
X0193345Y0122183D03*
X0199595Y0135683D03*
X0212595Y0137433D03*
X0215595Y0135683D03*
X0218845Y0125433D03*
X0215845Y0122433D03*
D89*
X0225845Y0122683D03*
X0195345Y0132933D03*
D90*
X0225220Y0123683D03*
X0225220Y0123433D03*
D91*
X0226470Y0124933D03*
X0204720Y0123933D03*
X0195970Y0133433D03*
D92*
X0201720Y0136933D03*
X0202220Y0137183D03*
X0202970Y0137683D03*
X0203970Y0138183D03*
X0211220Y0138183D03*
X0213470Y0136933D03*
X0213970Y0136683D03*
X0216470Y0135183D03*
X0226220Y0124683D03*
D93*
X0220470Y0125933D03*
D94*
X0223720Y0126433D03*
D95*
X0224220Y0126683D03*
D96*
X0224465Y0126933D03*
D97*
X0224590Y0127183D03*
X0224590Y0127433D03*
D98*
X0226345Y0127683D03*
D99*
X0226970Y0127933D03*
D100*
X0230470Y0128933D03*
D101*
X0195595Y0133183D03*
D102*
X0218595Y0133933D03*
D103*
X0210845Y0138433D03*
X0204345Y0138433D03*
X0202595Y0137433D03*
D104*
X0207595Y0138683D03*
D105*
X0207595Y0138933D03*
D106*
X0207595Y0139933D03*
M02*
