G75*
%MOIN*%
%OFA0B0*%
%FSLAX25Y25*%
%IPPOS*%
%LPD*%
%AMOC8*
5,1,8,0,0,1.08239X$1,22.5*
%
%ADD10C,0.00000*%
%ADD11C,0.06600*%
%ADD12C,0.10000*%
%ADD13OC8,0.07600*%
%ADD14C,0.05000*%
%ADD15C,0.00450*%
%ADD16R,0.17000X0.06000*%
%ADD17R,0.06000X0.17000*%
%ADD18C,0.01200*%
%ADD19C,0.02600*%
%ADD20C,0.02800*%
%ADD21C,0.01600*%
D10*
X0067595Y0040744D02*
X0067595Y0239563D01*
X0067598Y0239848D01*
X0067609Y0240134D01*
X0067626Y0240419D01*
X0067650Y0240703D01*
X0067681Y0240987D01*
X0067719Y0241270D01*
X0067764Y0241551D01*
X0067815Y0241832D01*
X0067873Y0242112D01*
X0067938Y0242390D01*
X0068010Y0242666D01*
X0068088Y0242940D01*
X0068173Y0243213D01*
X0068265Y0243483D01*
X0068363Y0243751D01*
X0068467Y0244017D01*
X0068578Y0244280D01*
X0068695Y0244540D01*
X0068818Y0244798D01*
X0068948Y0245052D01*
X0069084Y0245303D01*
X0069225Y0245551D01*
X0069373Y0245795D01*
X0069526Y0246036D01*
X0069686Y0246272D01*
X0069851Y0246505D01*
X0070021Y0246734D01*
X0070197Y0246959D01*
X0070379Y0247179D01*
X0070565Y0247395D01*
X0070757Y0247606D01*
X0070954Y0247813D01*
X0071156Y0248015D01*
X0071363Y0248212D01*
X0071574Y0248404D01*
X0071790Y0248590D01*
X0072010Y0248772D01*
X0072235Y0248948D01*
X0072464Y0249118D01*
X0072697Y0249283D01*
X0072933Y0249443D01*
X0073174Y0249596D01*
X0073418Y0249744D01*
X0073666Y0249885D01*
X0073917Y0250021D01*
X0074171Y0250151D01*
X0074429Y0250274D01*
X0074689Y0250391D01*
X0074952Y0250502D01*
X0075218Y0250606D01*
X0075486Y0250704D01*
X0075756Y0250796D01*
X0076029Y0250881D01*
X0076303Y0250959D01*
X0076579Y0251031D01*
X0076857Y0251096D01*
X0077137Y0251154D01*
X0077418Y0251205D01*
X0077699Y0251250D01*
X0077982Y0251288D01*
X0078266Y0251319D01*
X0078550Y0251343D01*
X0078835Y0251360D01*
X0079121Y0251371D01*
X0079406Y0251374D01*
X0311690Y0251374D01*
X0311975Y0251371D01*
X0312261Y0251360D01*
X0312546Y0251343D01*
X0312830Y0251319D01*
X0313114Y0251288D01*
X0313397Y0251250D01*
X0313678Y0251205D01*
X0313959Y0251154D01*
X0314239Y0251096D01*
X0314517Y0251031D01*
X0314793Y0250959D01*
X0315067Y0250881D01*
X0315340Y0250796D01*
X0315610Y0250704D01*
X0315878Y0250606D01*
X0316144Y0250502D01*
X0316407Y0250391D01*
X0316667Y0250274D01*
X0316925Y0250151D01*
X0317179Y0250021D01*
X0317430Y0249885D01*
X0317678Y0249744D01*
X0317922Y0249596D01*
X0318163Y0249443D01*
X0318399Y0249283D01*
X0318632Y0249118D01*
X0318861Y0248948D01*
X0319086Y0248772D01*
X0319306Y0248590D01*
X0319522Y0248404D01*
X0319733Y0248212D01*
X0319940Y0248015D01*
X0320142Y0247813D01*
X0320339Y0247606D01*
X0320531Y0247395D01*
X0320717Y0247179D01*
X0320899Y0246959D01*
X0321075Y0246734D01*
X0321245Y0246505D01*
X0321410Y0246272D01*
X0321570Y0246036D01*
X0321723Y0245795D01*
X0321871Y0245551D01*
X0322012Y0245303D01*
X0322148Y0245052D01*
X0322278Y0244798D01*
X0322401Y0244540D01*
X0322518Y0244280D01*
X0322629Y0244017D01*
X0322733Y0243751D01*
X0322831Y0243483D01*
X0322923Y0243213D01*
X0323008Y0242940D01*
X0323086Y0242666D01*
X0323158Y0242390D01*
X0323223Y0242112D01*
X0323281Y0241832D01*
X0323332Y0241551D01*
X0323377Y0241270D01*
X0323415Y0240987D01*
X0323446Y0240703D01*
X0323470Y0240419D01*
X0323487Y0240134D01*
X0323498Y0239848D01*
X0323501Y0239563D01*
X0323501Y0040744D01*
X0323498Y0040459D01*
X0323487Y0040173D01*
X0323470Y0039888D01*
X0323446Y0039604D01*
X0323415Y0039320D01*
X0323377Y0039037D01*
X0323332Y0038756D01*
X0323281Y0038475D01*
X0323223Y0038195D01*
X0323158Y0037917D01*
X0323086Y0037641D01*
X0323008Y0037367D01*
X0322923Y0037094D01*
X0322831Y0036824D01*
X0322733Y0036556D01*
X0322629Y0036290D01*
X0322518Y0036027D01*
X0322401Y0035767D01*
X0322278Y0035509D01*
X0322148Y0035255D01*
X0322012Y0035004D01*
X0321871Y0034756D01*
X0321723Y0034512D01*
X0321570Y0034271D01*
X0321410Y0034035D01*
X0321245Y0033802D01*
X0321075Y0033573D01*
X0320899Y0033348D01*
X0320717Y0033128D01*
X0320531Y0032912D01*
X0320339Y0032701D01*
X0320142Y0032494D01*
X0319940Y0032292D01*
X0319733Y0032095D01*
X0319522Y0031903D01*
X0319306Y0031717D01*
X0319086Y0031535D01*
X0318861Y0031359D01*
X0318632Y0031189D01*
X0318399Y0031024D01*
X0318163Y0030864D01*
X0317922Y0030711D01*
X0317678Y0030563D01*
X0317430Y0030422D01*
X0317179Y0030286D01*
X0316925Y0030156D01*
X0316667Y0030033D01*
X0316407Y0029916D01*
X0316144Y0029805D01*
X0315878Y0029701D01*
X0315610Y0029603D01*
X0315340Y0029511D01*
X0315067Y0029426D01*
X0314793Y0029348D01*
X0314517Y0029276D01*
X0314239Y0029211D01*
X0313959Y0029153D01*
X0313678Y0029102D01*
X0313397Y0029057D01*
X0313114Y0029019D01*
X0312830Y0028988D01*
X0312546Y0028964D01*
X0312261Y0028947D01*
X0311975Y0028936D01*
X0311690Y0028933D01*
X0079406Y0028933D01*
X0079121Y0028936D01*
X0078835Y0028947D01*
X0078550Y0028964D01*
X0078266Y0028988D01*
X0077982Y0029019D01*
X0077699Y0029057D01*
X0077418Y0029102D01*
X0077137Y0029153D01*
X0076857Y0029211D01*
X0076579Y0029276D01*
X0076303Y0029348D01*
X0076029Y0029426D01*
X0075756Y0029511D01*
X0075486Y0029603D01*
X0075218Y0029701D01*
X0074952Y0029805D01*
X0074689Y0029916D01*
X0074429Y0030033D01*
X0074171Y0030156D01*
X0073917Y0030286D01*
X0073666Y0030422D01*
X0073418Y0030563D01*
X0073174Y0030711D01*
X0072933Y0030864D01*
X0072697Y0031024D01*
X0072464Y0031189D01*
X0072235Y0031359D01*
X0072010Y0031535D01*
X0071790Y0031717D01*
X0071574Y0031903D01*
X0071363Y0032095D01*
X0071156Y0032292D01*
X0070954Y0032494D01*
X0070757Y0032701D01*
X0070565Y0032912D01*
X0070379Y0033128D01*
X0070197Y0033348D01*
X0070021Y0033573D01*
X0069851Y0033802D01*
X0069686Y0034035D01*
X0069526Y0034271D01*
X0069373Y0034512D01*
X0069225Y0034756D01*
X0069084Y0035004D01*
X0068948Y0035255D01*
X0068818Y0035509D01*
X0068695Y0035767D01*
X0068578Y0036027D01*
X0068467Y0036290D01*
X0068363Y0036556D01*
X0068265Y0036824D01*
X0068173Y0037094D01*
X0068088Y0037367D01*
X0068010Y0037641D01*
X0067938Y0037917D01*
X0067873Y0038195D01*
X0067815Y0038475D01*
X0067764Y0038756D01*
X0067719Y0039037D01*
X0067681Y0039320D01*
X0067650Y0039604D01*
X0067626Y0039888D01*
X0067609Y0040173D01*
X0067598Y0040459D01*
X0067595Y0040744D01*
X0075863Y0042713D02*
X0075865Y0042861D01*
X0075871Y0043009D01*
X0075881Y0043157D01*
X0075895Y0043304D01*
X0075913Y0043451D01*
X0075934Y0043597D01*
X0075960Y0043743D01*
X0075990Y0043888D01*
X0076023Y0044032D01*
X0076061Y0044175D01*
X0076102Y0044317D01*
X0076147Y0044458D01*
X0076195Y0044598D01*
X0076248Y0044737D01*
X0076304Y0044874D01*
X0076364Y0045009D01*
X0076427Y0045143D01*
X0076494Y0045275D01*
X0076565Y0045405D01*
X0076639Y0045533D01*
X0076716Y0045659D01*
X0076797Y0045783D01*
X0076881Y0045905D01*
X0076968Y0046024D01*
X0077059Y0046141D01*
X0077153Y0046256D01*
X0077249Y0046368D01*
X0077349Y0046478D01*
X0077451Y0046584D01*
X0077557Y0046688D01*
X0077665Y0046789D01*
X0077776Y0046887D01*
X0077889Y0046983D01*
X0078005Y0047075D01*
X0078123Y0047164D01*
X0078244Y0047249D01*
X0078367Y0047332D01*
X0078492Y0047411D01*
X0078619Y0047487D01*
X0078748Y0047559D01*
X0078879Y0047628D01*
X0079012Y0047693D01*
X0079147Y0047754D01*
X0079283Y0047812D01*
X0079420Y0047867D01*
X0079559Y0047917D01*
X0079700Y0047964D01*
X0079841Y0048007D01*
X0079984Y0048047D01*
X0080128Y0048082D01*
X0080272Y0048114D01*
X0080418Y0048141D01*
X0080564Y0048165D01*
X0080711Y0048185D01*
X0080858Y0048201D01*
X0081005Y0048213D01*
X0081153Y0048221D01*
X0081301Y0048225D01*
X0081449Y0048225D01*
X0081597Y0048221D01*
X0081745Y0048213D01*
X0081892Y0048201D01*
X0082039Y0048185D01*
X0082186Y0048165D01*
X0082332Y0048141D01*
X0082478Y0048114D01*
X0082622Y0048082D01*
X0082766Y0048047D01*
X0082909Y0048007D01*
X0083050Y0047964D01*
X0083191Y0047917D01*
X0083330Y0047867D01*
X0083467Y0047812D01*
X0083603Y0047754D01*
X0083738Y0047693D01*
X0083871Y0047628D01*
X0084002Y0047559D01*
X0084131Y0047487D01*
X0084258Y0047411D01*
X0084383Y0047332D01*
X0084506Y0047249D01*
X0084627Y0047164D01*
X0084745Y0047075D01*
X0084861Y0046983D01*
X0084974Y0046887D01*
X0085085Y0046789D01*
X0085193Y0046688D01*
X0085299Y0046584D01*
X0085401Y0046478D01*
X0085501Y0046368D01*
X0085597Y0046256D01*
X0085691Y0046141D01*
X0085782Y0046024D01*
X0085869Y0045905D01*
X0085953Y0045783D01*
X0086034Y0045659D01*
X0086111Y0045533D01*
X0086185Y0045405D01*
X0086256Y0045275D01*
X0086323Y0045143D01*
X0086386Y0045009D01*
X0086446Y0044874D01*
X0086502Y0044737D01*
X0086555Y0044598D01*
X0086603Y0044458D01*
X0086648Y0044317D01*
X0086689Y0044175D01*
X0086727Y0044032D01*
X0086760Y0043888D01*
X0086790Y0043743D01*
X0086816Y0043597D01*
X0086837Y0043451D01*
X0086855Y0043304D01*
X0086869Y0043157D01*
X0086879Y0043009D01*
X0086885Y0042861D01*
X0086887Y0042713D01*
X0086885Y0042565D01*
X0086879Y0042417D01*
X0086869Y0042269D01*
X0086855Y0042122D01*
X0086837Y0041975D01*
X0086816Y0041829D01*
X0086790Y0041683D01*
X0086760Y0041538D01*
X0086727Y0041394D01*
X0086689Y0041251D01*
X0086648Y0041109D01*
X0086603Y0040968D01*
X0086555Y0040828D01*
X0086502Y0040689D01*
X0086446Y0040552D01*
X0086386Y0040417D01*
X0086323Y0040283D01*
X0086256Y0040151D01*
X0086185Y0040021D01*
X0086111Y0039893D01*
X0086034Y0039767D01*
X0085953Y0039643D01*
X0085869Y0039521D01*
X0085782Y0039402D01*
X0085691Y0039285D01*
X0085597Y0039170D01*
X0085501Y0039058D01*
X0085401Y0038948D01*
X0085299Y0038842D01*
X0085193Y0038738D01*
X0085085Y0038637D01*
X0084974Y0038539D01*
X0084861Y0038443D01*
X0084745Y0038351D01*
X0084627Y0038262D01*
X0084506Y0038177D01*
X0084383Y0038094D01*
X0084258Y0038015D01*
X0084131Y0037939D01*
X0084002Y0037867D01*
X0083871Y0037798D01*
X0083738Y0037733D01*
X0083603Y0037672D01*
X0083467Y0037614D01*
X0083330Y0037559D01*
X0083191Y0037509D01*
X0083050Y0037462D01*
X0082909Y0037419D01*
X0082766Y0037379D01*
X0082622Y0037344D01*
X0082478Y0037312D01*
X0082332Y0037285D01*
X0082186Y0037261D01*
X0082039Y0037241D01*
X0081892Y0037225D01*
X0081745Y0037213D01*
X0081597Y0037205D01*
X0081449Y0037201D01*
X0081301Y0037201D01*
X0081153Y0037205D01*
X0081005Y0037213D01*
X0080858Y0037225D01*
X0080711Y0037241D01*
X0080564Y0037261D01*
X0080418Y0037285D01*
X0080272Y0037312D01*
X0080128Y0037344D01*
X0079984Y0037379D01*
X0079841Y0037419D01*
X0079700Y0037462D01*
X0079559Y0037509D01*
X0079420Y0037559D01*
X0079283Y0037614D01*
X0079147Y0037672D01*
X0079012Y0037733D01*
X0078879Y0037798D01*
X0078748Y0037867D01*
X0078619Y0037939D01*
X0078492Y0038015D01*
X0078367Y0038094D01*
X0078244Y0038177D01*
X0078123Y0038262D01*
X0078005Y0038351D01*
X0077889Y0038443D01*
X0077776Y0038539D01*
X0077665Y0038637D01*
X0077557Y0038738D01*
X0077451Y0038842D01*
X0077349Y0038948D01*
X0077249Y0039058D01*
X0077153Y0039170D01*
X0077059Y0039285D01*
X0076968Y0039402D01*
X0076881Y0039521D01*
X0076797Y0039643D01*
X0076716Y0039767D01*
X0076639Y0039893D01*
X0076565Y0040021D01*
X0076494Y0040151D01*
X0076427Y0040283D01*
X0076364Y0040417D01*
X0076304Y0040552D01*
X0076248Y0040689D01*
X0076195Y0040828D01*
X0076147Y0040968D01*
X0076102Y0041109D01*
X0076061Y0041251D01*
X0076023Y0041394D01*
X0075990Y0041538D01*
X0075960Y0041683D01*
X0075934Y0041829D01*
X0075913Y0041975D01*
X0075895Y0042122D01*
X0075881Y0042269D01*
X0075871Y0042417D01*
X0075865Y0042565D01*
X0075863Y0042713D01*
X0082095Y0105933D02*
X0067595Y0105933D01*
X0067595Y0106433D01*
X0082095Y0105933D02*
X0082193Y0105935D01*
X0082291Y0105941D01*
X0082389Y0105950D01*
X0082486Y0105964D01*
X0082583Y0105981D01*
X0082679Y0106002D01*
X0082774Y0106027D01*
X0082868Y0106055D01*
X0082960Y0106088D01*
X0083052Y0106123D01*
X0083142Y0106163D01*
X0083230Y0106205D01*
X0083317Y0106252D01*
X0083401Y0106301D01*
X0083484Y0106354D01*
X0083564Y0106410D01*
X0083643Y0106470D01*
X0083719Y0106532D01*
X0083792Y0106597D01*
X0083863Y0106665D01*
X0083931Y0106736D01*
X0083996Y0106809D01*
X0084058Y0106885D01*
X0084118Y0106964D01*
X0084174Y0107044D01*
X0084227Y0107127D01*
X0084276Y0107211D01*
X0084323Y0107298D01*
X0084365Y0107386D01*
X0084405Y0107476D01*
X0084440Y0107568D01*
X0084473Y0107660D01*
X0084501Y0107754D01*
X0084526Y0107849D01*
X0084547Y0107945D01*
X0084564Y0108042D01*
X0084578Y0108139D01*
X0084587Y0108237D01*
X0084593Y0108335D01*
X0084595Y0108433D01*
X0084595Y0169933D01*
X0084593Y0170031D01*
X0084587Y0170129D01*
X0084578Y0170227D01*
X0084564Y0170324D01*
X0084547Y0170421D01*
X0084526Y0170517D01*
X0084501Y0170612D01*
X0084473Y0170706D01*
X0084440Y0170798D01*
X0084405Y0170890D01*
X0084365Y0170980D01*
X0084323Y0171068D01*
X0084276Y0171155D01*
X0084227Y0171239D01*
X0084174Y0171322D01*
X0084118Y0171402D01*
X0084058Y0171481D01*
X0083996Y0171557D01*
X0083931Y0171630D01*
X0083863Y0171701D01*
X0083792Y0171769D01*
X0083719Y0171834D01*
X0083643Y0171896D01*
X0083564Y0171956D01*
X0083484Y0172012D01*
X0083401Y0172065D01*
X0083317Y0172114D01*
X0083230Y0172161D01*
X0083142Y0172203D01*
X0083052Y0172243D01*
X0082960Y0172278D01*
X0082868Y0172311D01*
X0082774Y0172339D01*
X0082679Y0172364D01*
X0082583Y0172385D01*
X0082486Y0172402D01*
X0082389Y0172416D01*
X0082291Y0172425D01*
X0082193Y0172431D01*
X0082095Y0172433D01*
X0067595Y0172433D01*
X0075863Y0235626D02*
X0075865Y0235774D01*
X0075871Y0235922D01*
X0075881Y0236070D01*
X0075895Y0236217D01*
X0075913Y0236364D01*
X0075934Y0236510D01*
X0075960Y0236656D01*
X0075990Y0236801D01*
X0076023Y0236945D01*
X0076061Y0237088D01*
X0076102Y0237230D01*
X0076147Y0237371D01*
X0076195Y0237511D01*
X0076248Y0237650D01*
X0076304Y0237787D01*
X0076364Y0237922D01*
X0076427Y0238056D01*
X0076494Y0238188D01*
X0076565Y0238318D01*
X0076639Y0238446D01*
X0076716Y0238572D01*
X0076797Y0238696D01*
X0076881Y0238818D01*
X0076968Y0238937D01*
X0077059Y0239054D01*
X0077153Y0239169D01*
X0077249Y0239281D01*
X0077349Y0239391D01*
X0077451Y0239497D01*
X0077557Y0239601D01*
X0077665Y0239702D01*
X0077776Y0239800D01*
X0077889Y0239896D01*
X0078005Y0239988D01*
X0078123Y0240077D01*
X0078244Y0240162D01*
X0078367Y0240245D01*
X0078492Y0240324D01*
X0078619Y0240400D01*
X0078748Y0240472D01*
X0078879Y0240541D01*
X0079012Y0240606D01*
X0079147Y0240667D01*
X0079283Y0240725D01*
X0079420Y0240780D01*
X0079559Y0240830D01*
X0079700Y0240877D01*
X0079841Y0240920D01*
X0079984Y0240960D01*
X0080128Y0240995D01*
X0080272Y0241027D01*
X0080418Y0241054D01*
X0080564Y0241078D01*
X0080711Y0241098D01*
X0080858Y0241114D01*
X0081005Y0241126D01*
X0081153Y0241134D01*
X0081301Y0241138D01*
X0081449Y0241138D01*
X0081597Y0241134D01*
X0081745Y0241126D01*
X0081892Y0241114D01*
X0082039Y0241098D01*
X0082186Y0241078D01*
X0082332Y0241054D01*
X0082478Y0241027D01*
X0082622Y0240995D01*
X0082766Y0240960D01*
X0082909Y0240920D01*
X0083050Y0240877D01*
X0083191Y0240830D01*
X0083330Y0240780D01*
X0083467Y0240725D01*
X0083603Y0240667D01*
X0083738Y0240606D01*
X0083871Y0240541D01*
X0084002Y0240472D01*
X0084131Y0240400D01*
X0084258Y0240324D01*
X0084383Y0240245D01*
X0084506Y0240162D01*
X0084627Y0240077D01*
X0084745Y0239988D01*
X0084861Y0239896D01*
X0084974Y0239800D01*
X0085085Y0239702D01*
X0085193Y0239601D01*
X0085299Y0239497D01*
X0085401Y0239391D01*
X0085501Y0239281D01*
X0085597Y0239169D01*
X0085691Y0239054D01*
X0085782Y0238937D01*
X0085869Y0238818D01*
X0085953Y0238696D01*
X0086034Y0238572D01*
X0086111Y0238446D01*
X0086185Y0238318D01*
X0086256Y0238188D01*
X0086323Y0238056D01*
X0086386Y0237922D01*
X0086446Y0237787D01*
X0086502Y0237650D01*
X0086555Y0237511D01*
X0086603Y0237371D01*
X0086648Y0237230D01*
X0086689Y0237088D01*
X0086727Y0236945D01*
X0086760Y0236801D01*
X0086790Y0236656D01*
X0086816Y0236510D01*
X0086837Y0236364D01*
X0086855Y0236217D01*
X0086869Y0236070D01*
X0086879Y0235922D01*
X0086885Y0235774D01*
X0086887Y0235626D01*
X0086885Y0235478D01*
X0086879Y0235330D01*
X0086869Y0235182D01*
X0086855Y0235035D01*
X0086837Y0234888D01*
X0086816Y0234742D01*
X0086790Y0234596D01*
X0086760Y0234451D01*
X0086727Y0234307D01*
X0086689Y0234164D01*
X0086648Y0234022D01*
X0086603Y0233881D01*
X0086555Y0233741D01*
X0086502Y0233602D01*
X0086446Y0233465D01*
X0086386Y0233330D01*
X0086323Y0233196D01*
X0086256Y0233064D01*
X0086185Y0232934D01*
X0086111Y0232806D01*
X0086034Y0232680D01*
X0085953Y0232556D01*
X0085869Y0232434D01*
X0085782Y0232315D01*
X0085691Y0232198D01*
X0085597Y0232083D01*
X0085501Y0231971D01*
X0085401Y0231861D01*
X0085299Y0231755D01*
X0085193Y0231651D01*
X0085085Y0231550D01*
X0084974Y0231452D01*
X0084861Y0231356D01*
X0084745Y0231264D01*
X0084627Y0231175D01*
X0084506Y0231090D01*
X0084383Y0231007D01*
X0084258Y0230928D01*
X0084131Y0230852D01*
X0084002Y0230780D01*
X0083871Y0230711D01*
X0083738Y0230646D01*
X0083603Y0230585D01*
X0083467Y0230527D01*
X0083330Y0230472D01*
X0083191Y0230422D01*
X0083050Y0230375D01*
X0082909Y0230332D01*
X0082766Y0230292D01*
X0082622Y0230257D01*
X0082478Y0230225D01*
X0082332Y0230198D01*
X0082186Y0230174D01*
X0082039Y0230154D01*
X0081892Y0230138D01*
X0081745Y0230126D01*
X0081597Y0230118D01*
X0081449Y0230114D01*
X0081301Y0230114D01*
X0081153Y0230118D01*
X0081005Y0230126D01*
X0080858Y0230138D01*
X0080711Y0230154D01*
X0080564Y0230174D01*
X0080418Y0230198D01*
X0080272Y0230225D01*
X0080128Y0230257D01*
X0079984Y0230292D01*
X0079841Y0230332D01*
X0079700Y0230375D01*
X0079559Y0230422D01*
X0079420Y0230472D01*
X0079283Y0230527D01*
X0079147Y0230585D01*
X0079012Y0230646D01*
X0078879Y0230711D01*
X0078748Y0230780D01*
X0078619Y0230852D01*
X0078492Y0230928D01*
X0078367Y0231007D01*
X0078244Y0231090D01*
X0078123Y0231175D01*
X0078005Y0231264D01*
X0077889Y0231356D01*
X0077776Y0231452D01*
X0077665Y0231550D01*
X0077557Y0231651D01*
X0077451Y0231755D01*
X0077349Y0231861D01*
X0077249Y0231971D01*
X0077153Y0232083D01*
X0077059Y0232198D01*
X0076968Y0232315D01*
X0076881Y0232434D01*
X0076797Y0232556D01*
X0076716Y0232680D01*
X0076639Y0232806D01*
X0076565Y0232934D01*
X0076494Y0233064D01*
X0076427Y0233196D01*
X0076364Y0233330D01*
X0076304Y0233465D01*
X0076248Y0233602D01*
X0076195Y0233741D01*
X0076147Y0233881D01*
X0076102Y0234022D01*
X0076061Y0234164D01*
X0076023Y0234307D01*
X0075990Y0234451D01*
X0075960Y0234596D01*
X0075934Y0234742D01*
X0075913Y0234888D01*
X0075895Y0235035D01*
X0075881Y0235182D01*
X0075871Y0235330D01*
X0075865Y0235478D01*
X0075863Y0235626D01*
X0241095Y0104933D02*
X0241095Y0043933D01*
X0241097Y0043835D01*
X0241103Y0043737D01*
X0241112Y0043639D01*
X0241126Y0043542D01*
X0241143Y0043445D01*
X0241164Y0043349D01*
X0241189Y0043254D01*
X0241217Y0043160D01*
X0241250Y0043068D01*
X0241285Y0042976D01*
X0241325Y0042886D01*
X0241367Y0042798D01*
X0241414Y0042711D01*
X0241463Y0042627D01*
X0241516Y0042544D01*
X0241572Y0042464D01*
X0241632Y0042385D01*
X0241694Y0042309D01*
X0241759Y0042236D01*
X0241827Y0042165D01*
X0241898Y0042097D01*
X0241971Y0042032D01*
X0242047Y0041970D01*
X0242126Y0041910D01*
X0242206Y0041854D01*
X0242289Y0041801D01*
X0242373Y0041752D01*
X0242460Y0041705D01*
X0242548Y0041663D01*
X0242638Y0041623D01*
X0242730Y0041588D01*
X0242822Y0041555D01*
X0242916Y0041527D01*
X0243011Y0041502D01*
X0243107Y0041481D01*
X0243204Y0041464D01*
X0243301Y0041450D01*
X0243399Y0041441D01*
X0243497Y0041435D01*
X0243595Y0041433D01*
X0246095Y0041433D01*
X0246193Y0041435D01*
X0246291Y0041441D01*
X0246389Y0041450D01*
X0246486Y0041464D01*
X0246583Y0041481D01*
X0246679Y0041502D01*
X0246774Y0041527D01*
X0246868Y0041555D01*
X0246960Y0041588D01*
X0247052Y0041623D01*
X0247142Y0041663D01*
X0247230Y0041705D01*
X0247317Y0041752D01*
X0247401Y0041801D01*
X0247484Y0041854D01*
X0247564Y0041910D01*
X0247643Y0041970D01*
X0247719Y0042032D01*
X0247792Y0042097D01*
X0247863Y0042165D01*
X0247931Y0042236D01*
X0247996Y0042309D01*
X0248058Y0042385D01*
X0248118Y0042464D01*
X0248174Y0042544D01*
X0248227Y0042627D01*
X0248276Y0042711D01*
X0248323Y0042798D01*
X0248365Y0042886D01*
X0248405Y0042976D01*
X0248440Y0043068D01*
X0248473Y0043160D01*
X0248501Y0043254D01*
X0248526Y0043349D01*
X0248547Y0043445D01*
X0248564Y0043542D01*
X0248578Y0043639D01*
X0248587Y0043737D01*
X0248593Y0043835D01*
X0248595Y0043933D01*
X0248595Y0104933D01*
X0248593Y0105031D01*
X0248587Y0105129D01*
X0248578Y0105227D01*
X0248564Y0105324D01*
X0248547Y0105421D01*
X0248526Y0105517D01*
X0248501Y0105612D01*
X0248473Y0105706D01*
X0248440Y0105798D01*
X0248405Y0105890D01*
X0248365Y0105980D01*
X0248323Y0106068D01*
X0248276Y0106155D01*
X0248227Y0106239D01*
X0248174Y0106322D01*
X0248118Y0106402D01*
X0248058Y0106481D01*
X0247996Y0106557D01*
X0247931Y0106630D01*
X0247863Y0106701D01*
X0247792Y0106769D01*
X0247719Y0106834D01*
X0247643Y0106896D01*
X0247564Y0106956D01*
X0247484Y0107012D01*
X0247401Y0107065D01*
X0247317Y0107114D01*
X0247230Y0107161D01*
X0247142Y0107203D01*
X0247052Y0107243D01*
X0246960Y0107278D01*
X0246868Y0107311D01*
X0246774Y0107339D01*
X0246679Y0107364D01*
X0246583Y0107385D01*
X0246486Y0107402D01*
X0246389Y0107416D01*
X0246291Y0107425D01*
X0246193Y0107431D01*
X0246095Y0107433D01*
X0243595Y0107433D01*
X0243497Y0107431D01*
X0243399Y0107425D01*
X0243301Y0107416D01*
X0243204Y0107402D01*
X0243107Y0107385D01*
X0243011Y0107364D01*
X0242916Y0107339D01*
X0242822Y0107311D01*
X0242730Y0107278D01*
X0242638Y0107243D01*
X0242548Y0107203D01*
X0242460Y0107161D01*
X0242373Y0107114D01*
X0242289Y0107065D01*
X0242206Y0107012D01*
X0242126Y0106956D01*
X0242047Y0106896D01*
X0241971Y0106834D01*
X0241898Y0106769D01*
X0241827Y0106701D01*
X0241759Y0106630D01*
X0241694Y0106557D01*
X0241632Y0106481D01*
X0241572Y0106402D01*
X0241516Y0106322D01*
X0241463Y0106239D01*
X0241414Y0106155D01*
X0241367Y0106068D01*
X0241325Y0105980D01*
X0241285Y0105890D01*
X0241250Y0105798D01*
X0241217Y0105706D01*
X0241189Y0105612D01*
X0241164Y0105517D01*
X0241143Y0105421D01*
X0241126Y0105324D01*
X0241112Y0105227D01*
X0241103Y0105129D01*
X0241097Y0105031D01*
X0241095Y0104933D01*
X0304209Y0042713D02*
X0304211Y0042861D01*
X0304217Y0043009D01*
X0304227Y0043157D01*
X0304241Y0043304D01*
X0304259Y0043451D01*
X0304280Y0043597D01*
X0304306Y0043743D01*
X0304336Y0043888D01*
X0304369Y0044032D01*
X0304407Y0044175D01*
X0304448Y0044317D01*
X0304493Y0044458D01*
X0304541Y0044598D01*
X0304594Y0044737D01*
X0304650Y0044874D01*
X0304710Y0045009D01*
X0304773Y0045143D01*
X0304840Y0045275D01*
X0304911Y0045405D01*
X0304985Y0045533D01*
X0305062Y0045659D01*
X0305143Y0045783D01*
X0305227Y0045905D01*
X0305314Y0046024D01*
X0305405Y0046141D01*
X0305499Y0046256D01*
X0305595Y0046368D01*
X0305695Y0046478D01*
X0305797Y0046584D01*
X0305903Y0046688D01*
X0306011Y0046789D01*
X0306122Y0046887D01*
X0306235Y0046983D01*
X0306351Y0047075D01*
X0306469Y0047164D01*
X0306590Y0047249D01*
X0306713Y0047332D01*
X0306838Y0047411D01*
X0306965Y0047487D01*
X0307094Y0047559D01*
X0307225Y0047628D01*
X0307358Y0047693D01*
X0307493Y0047754D01*
X0307629Y0047812D01*
X0307766Y0047867D01*
X0307905Y0047917D01*
X0308046Y0047964D01*
X0308187Y0048007D01*
X0308330Y0048047D01*
X0308474Y0048082D01*
X0308618Y0048114D01*
X0308764Y0048141D01*
X0308910Y0048165D01*
X0309057Y0048185D01*
X0309204Y0048201D01*
X0309351Y0048213D01*
X0309499Y0048221D01*
X0309647Y0048225D01*
X0309795Y0048225D01*
X0309943Y0048221D01*
X0310091Y0048213D01*
X0310238Y0048201D01*
X0310385Y0048185D01*
X0310532Y0048165D01*
X0310678Y0048141D01*
X0310824Y0048114D01*
X0310968Y0048082D01*
X0311112Y0048047D01*
X0311255Y0048007D01*
X0311396Y0047964D01*
X0311537Y0047917D01*
X0311676Y0047867D01*
X0311813Y0047812D01*
X0311949Y0047754D01*
X0312084Y0047693D01*
X0312217Y0047628D01*
X0312348Y0047559D01*
X0312477Y0047487D01*
X0312604Y0047411D01*
X0312729Y0047332D01*
X0312852Y0047249D01*
X0312973Y0047164D01*
X0313091Y0047075D01*
X0313207Y0046983D01*
X0313320Y0046887D01*
X0313431Y0046789D01*
X0313539Y0046688D01*
X0313645Y0046584D01*
X0313747Y0046478D01*
X0313847Y0046368D01*
X0313943Y0046256D01*
X0314037Y0046141D01*
X0314128Y0046024D01*
X0314215Y0045905D01*
X0314299Y0045783D01*
X0314380Y0045659D01*
X0314457Y0045533D01*
X0314531Y0045405D01*
X0314602Y0045275D01*
X0314669Y0045143D01*
X0314732Y0045009D01*
X0314792Y0044874D01*
X0314848Y0044737D01*
X0314901Y0044598D01*
X0314949Y0044458D01*
X0314994Y0044317D01*
X0315035Y0044175D01*
X0315073Y0044032D01*
X0315106Y0043888D01*
X0315136Y0043743D01*
X0315162Y0043597D01*
X0315183Y0043451D01*
X0315201Y0043304D01*
X0315215Y0043157D01*
X0315225Y0043009D01*
X0315231Y0042861D01*
X0315233Y0042713D01*
X0315231Y0042565D01*
X0315225Y0042417D01*
X0315215Y0042269D01*
X0315201Y0042122D01*
X0315183Y0041975D01*
X0315162Y0041829D01*
X0315136Y0041683D01*
X0315106Y0041538D01*
X0315073Y0041394D01*
X0315035Y0041251D01*
X0314994Y0041109D01*
X0314949Y0040968D01*
X0314901Y0040828D01*
X0314848Y0040689D01*
X0314792Y0040552D01*
X0314732Y0040417D01*
X0314669Y0040283D01*
X0314602Y0040151D01*
X0314531Y0040021D01*
X0314457Y0039893D01*
X0314380Y0039767D01*
X0314299Y0039643D01*
X0314215Y0039521D01*
X0314128Y0039402D01*
X0314037Y0039285D01*
X0313943Y0039170D01*
X0313847Y0039058D01*
X0313747Y0038948D01*
X0313645Y0038842D01*
X0313539Y0038738D01*
X0313431Y0038637D01*
X0313320Y0038539D01*
X0313207Y0038443D01*
X0313091Y0038351D01*
X0312973Y0038262D01*
X0312852Y0038177D01*
X0312729Y0038094D01*
X0312604Y0038015D01*
X0312477Y0037939D01*
X0312348Y0037867D01*
X0312217Y0037798D01*
X0312084Y0037733D01*
X0311949Y0037672D01*
X0311813Y0037614D01*
X0311676Y0037559D01*
X0311537Y0037509D01*
X0311396Y0037462D01*
X0311255Y0037419D01*
X0311112Y0037379D01*
X0310968Y0037344D01*
X0310824Y0037312D01*
X0310678Y0037285D01*
X0310532Y0037261D01*
X0310385Y0037241D01*
X0310238Y0037225D01*
X0310091Y0037213D01*
X0309943Y0037205D01*
X0309795Y0037201D01*
X0309647Y0037201D01*
X0309499Y0037205D01*
X0309351Y0037213D01*
X0309204Y0037225D01*
X0309057Y0037241D01*
X0308910Y0037261D01*
X0308764Y0037285D01*
X0308618Y0037312D01*
X0308474Y0037344D01*
X0308330Y0037379D01*
X0308187Y0037419D01*
X0308046Y0037462D01*
X0307905Y0037509D01*
X0307766Y0037559D01*
X0307629Y0037614D01*
X0307493Y0037672D01*
X0307358Y0037733D01*
X0307225Y0037798D01*
X0307094Y0037867D01*
X0306965Y0037939D01*
X0306838Y0038015D01*
X0306713Y0038094D01*
X0306590Y0038177D01*
X0306469Y0038262D01*
X0306351Y0038351D01*
X0306235Y0038443D01*
X0306122Y0038539D01*
X0306011Y0038637D01*
X0305903Y0038738D01*
X0305797Y0038842D01*
X0305695Y0038948D01*
X0305595Y0039058D01*
X0305499Y0039170D01*
X0305405Y0039285D01*
X0305314Y0039402D01*
X0305227Y0039521D01*
X0305143Y0039643D01*
X0305062Y0039767D01*
X0304985Y0039893D01*
X0304911Y0040021D01*
X0304840Y0040151D01*
X0304773Y0040283D01*
X0304710Y0040417D01*
X0304650Y0040552D01*
X0304594Y0040689D01*
X0304541Y0040828D01*
X0304493Y0040968D01*
X0304448Y0041109D01*
X0304407Y0041251D01*
X0304369Y0041394D01*
X0304336Y0041538D01*
X0304306Y0041683D01*
X0304280Y0041829D01*
X0304259Y0041975D01*
X0304241Y0042122D01*
X0304227Y0042269D01*
X0304217Y0042417D01*
X0304211Y0042565D01*
X0304209Y0042713D01*
X0304209Y0235626D02*
X0304211Y0235774D01*
X0304217Y0235922D01*
X0304227Y0236070D01*
X0304241Y0236217D01*
X0304259Y0236364D01*
X0304280Y0236510D01*
X0304306Y0236656D01*
X0304336Y0236801D01*
X0304369Y0236945D01*
X0304407Y0237088D01*
X0304448Y0237230D01*
X0304493Y0237371D01*
X0304541Y0237511D01*
X0304594Y0237650D01*
X0304650Y0237787D01*
X0304710Y0237922D01*
X0304773Y0238056D01*
X0304840Y0238188D01*
X0304911Y0238318D01*
X0304985Y0238446D01*
X0305062Y0238572D01*
X0305143Y0238696D01*
X0305227Y0238818D01*
X0305314Y0238937D01*
X0305405Y0239054D01*
X0305499Y0239169D01*
X0305595Y0239281D01*
X0305695Y0239391D01*
X0305797Y0239497D01*
X0305903Y0239601D01*
X0306011Y0239702D01*
X0306122Y0239800D01*
X0306235Y0239896D01*
X0306351Y0239988D01*
X0306469Y0240077D01*
X0306590Y0240162D01*
X0306713Y0240245D01*
X0306838Y0240324D01*
X0306965Y0240400D01*
X0307094Y0240472D01*
X0307225Y0240541D01*
X0307358Y0240606D01*
X0307493Y0240667D01*
X0307629Y0240725D01*
X0307766Y0240780D01*
X0307905Y0240830D01*
X0308046Y0240877D01*
X0308187Y0240920D01*
X0308330Y0240960D01*
X0308474Y0240995D01*
X0308618Y0241027D01*
X0308764Y0241054D01*
X0308910Y0241078D01*
X0309057Y0241098D01*
X0309204Y0241114D01*
X0309351Y0241126D01*
X0309499Y0241134D01*
X0309647Y0241138D01*
X0309795Y0241138D01*
X0309943Y0241134D01*
X0310091Y0241126D01*
X0310238Y0241114D01*
X0310385Y0241098D01*
X0310532Y0241078D01*
X0310678Y0241054D01*
X0310824Y0241027D01*
X0310968Y0240995D01*
X0311112Y0240960D01*
X0311255Y0240920D01*
X0311396Y0240877D01*
X0311537Y0240830D01*
X0311676Y0240780D01*
X0311813Y0240725D01*
X0311949Y0240667D01*
X0312084Y0240606D01*
X0312217Y0240541D01*
X0312348Y0240472D01*
X0312477Y0240400D01*
X0312604Y0240324D01*
X0312729Y0240245D01*
X0312852Y0240162D01*
X0312973Y0240077D01*
X0313091Y0239988D01*
X0313207Y0239896D01*
X0313320Y0239800D01*
X0313431Y0239702D01*
X0313539Y0239601D01*
X0313645Y0239497D01*
X0313747Y0239391D01*
X0313847Y0239281D01*
X0313943Y0239169D01*
X0314037Y0239054D01*
X0314128Y0238937D01*
X0314215Y0238818D01*
X0314299Y0238696D01*
X0314380Y0238572D01*
X0314457Y0238446D01*
X0314531Y0238318D01*
X0314602Y0238188D01*
X0314669Y0238056D01*
X0314732Y0237922D01*
X0314792Y0237787D01*
X0314848Y0237650D01*
X0314901Y0237511D01*
X0314949Y0237371D01*
X0314994Y0237230D01*
X0315035Y0237088D01*
X0315073Y0236945D01*
X0315106Y0236801D01*
X0315136Y0236656D01*
X0315162Y0236510D01*
X0315183Y0236364D01*
X0315201Y0236217D01*
X0315215Y0236070D01*
X0315225Y0235922D01*
X0315231Y0235774D01*
X0315233Y0235626D01*
X0315231Y0235478D01*
X0315225Y0235330D01*
X0315215Y0235182D01*
X0315201Y0235035D01*
X0315183Y0234888D01*
X0315162Y0234742D01*
X0315136Y0234596D01*
X0315106Y0234451D01*
X0315073Y0234307D01*
X0315035Y0234164D01*
X0314994Y0234022D01*
X0314949Y0233881D01*
X0314901Y0233741D01*
X0314848Y0233602D01*
X0314792Y0233465D01*
X0314732Y0233330D01*
X0314669Y0233196D01*
X0314602Y0233064D01*
X0314531Y0232934D01*
X0314457Y0232806D01*
X0314380Y0232680D01*
X0314299Y0232556D01*
X0314215Y0232434D01*
X0314128Y0232315D01*
X0314037Y0232198D01*
X0313943Y0232083D01*
X0313847Y0231971D01*
X0313747Y0231861D01*
X0313645Y0231755D01*
X0313539Y0231651D01*
X0313431Y0231550D01*
X0313320Y0231452D01*
X0313207Y0231356D01*
X0313091Y0231264D01*
X0312973Y0231175D01*
X0312852Y0231090D01*
X0312729Y0231007D01*
X0312604Y0230928D01*
X0312477Y0230852D01*
X0312348Y0230780D01*
X0312217Y0230711D01*
X0312084Y0230646D01*
X0311949Y0230585D01*
X0311813Y0230527D01*
X0311676Y0230472D01*
X0311537Y0230422D01*
X0311396Y0230375D01*
X0311255Y0230332D01*
X0311112Y0230292D01*
X0310968Y0230257D01*
X0310824Y0230225D01*
X0310678Y0230198D01*
X0310532Y0230174D01*
X0310385Y0230154D01*
X0310238Y0230138D01*
X0310091Y0230126D01*
X0309943Y0230118D01*
X0309795Y0230114D01*
X0309647Y0230114D01*
X0309499Y0230118D01*
X0309351Y0230126D01*
X0309204Y0230138D01*
X0309057Y0230154D01*
X0308910Y0230174D01*
X0308764Y0230198D01*
X0308618Y0230225D01*
X0308474Y0230257D01*
X0308330Y0230292D01*
X0308187Y0230332D01*
X0308046Y0230375D01*
X0307905Y0230422D01*
X0307766Y0230472D01*
X0307629Y0230527D01*
X0307493Y0230585D01*
X0307358Y0230646D01*
X0307225Y0230711D01*
X0307094Y0230780D01*
X0306965Y0230852D01*
X0306838Y0230928D01*
X0306713Y0231007D01*
X0306590Y0231090D01*
X0306469Y0231175D01*
X0306351Y0231264D01*
X0306235Y0231356D01*
X0306122Y0231452D01*
X0306011Y0231550D01*
X0305903Y0231651D01*
X0305797Y0231755D01*
X0305695Y0231861D01*
X0305595Y0231971D01*
X0305499Y0232083D01*
X0305405Y0232198D01*
X0305314Y0232315D01*
X0305227Y0232434D01*
X0305143Y0232556D01*
X0305062Y0232680D01*
X0304985Y0232806D01*
X0304911Y0232934D01*
X0304840Y0233064D01*
X0304773Y0233196D01*
X0304710Y0233330D01*
X0304650Y0233465D01*
X0304594Y0233602D01*
X0304541Y0233741D01*
X0304493Y0233881D01*
X0304448Y0234022D01*
X0304407Y0234164D01*
X0304369Y0234307D01*
X0304336Y0234451D01*
X0304306Y0234596D01*
X0304280Y0234742D01*
X0304259Y0234888D01*
X0304241Y0235035D01*
X0304227Y0235182D01*
X0304217Y0235330D01*
X0304211Y0235478D01*
X0304209Y0235626D01*
D11*
X0290548Y0240626D03*
X0280548Y0240626D03*
X0270548Y0240626D03*
X0260548Y0240626D03*
X0250548Y0240626D03*
X0240548Y0240626D03*
X0230548Y0240626D03*
X0220548Y0240626D03*
X0210548Y0240626D03*
X0200548Y0240626D03*
X0190548Y0240626D03*
X0180548Y0240626D03*
X0170548Y0240626D03*
X0160548Y0240626D03*
X0150548Y0240626D03*
X0140548Y0240626D03*
X0130548Y0240626D03*
X0120548Y0240626D03*
X0110548Y0240626D03*
X0100548Y0240626D03*
X0100548Y0230626D03*
X0110548Y0230626D03*
X0120548Y0230626D03*
X0130548Y0230626D03*
X0140548Y0230626D03*
X0150548Y0230626D03*
X0160548Y0230626D03*
X0170548Y0230626D03*
X0180548Y0230626D03*
X0190548Y0230626D03*
X0200548Y0230626D03*
X0210548Y0230626D03*
X0220548Y0230626D03*
X0230548Y0230626D03*
X0240548Y0230626D03*
X0250548Y0230626D03*
X0260548Y0230626D03*
X0270548Y0230626D03*
X0280548Y0230626D03*
X0290548Y0230626D03*
D12*
X0112595Y0208933D03*
X0102595Y0198933D03*
X0092595Y0188933D03*
X0112595Y0188933D03*
X0092595Y0208933D03*
X0092595Y0096433D03*
X0102595Y0086433D03*
X0092595Y0076433D03*
X0112595Y0076433D03*
X0112595Y0096433D03*
X0268095Y0083933D03*
X0278095Y0073933D03*
X0268095Y0063933D03*
X0288095Y0063933D03*
X0288095Y0083933D03*
D13*
X0187595Y0105433D03*
X0177595Y0105433D03*
X0177595Y0127933D03*
X0187595Y0127933D03*
X0255095Y0208933D03*
X0265095Y0208933D03*
X0287595Y0208933D03*
X0297595Y0208933D03*
X0307595Y0208933D03*
D14*
X0278095Y0048933D03*
X0087595Y0086433D03*
X0087595Y0198933D03*
D15*
X0085499Y0200958D02*
X0077949Y0200958D01*
X0085499Y0200958D02*
X0085499Y0196908D01*
X0077949Y0196908D01*
X0077949Y0200958D01*
X0077949Y0197357D02*
X0085499Y0197357D01*
X0085499Y0197806D02*
X0077949Y0197806D01*
X0077949Y0198255D02*
X0085499Y0198255D01*
X0085499Y0198704D02*
X0077949Y0198704D01*
X0077949Y0199153D02*
X0085499Y0199153D01*
X0085499Y0199602D02*
X0077949Y0199602D01*
X0077949Y0200051D02*
X0085499Y0200051D01*
X0085499Y0200500D02*
X0077949Y0200500D01*
X0077949Y0200949D02*
X0085499Y0200949D01*
X0085499Y0088458D02*
X0077949Y0088458D01*
X0085499Y0088458D02*
X0085499Y0084408D01*
X0077949Y0084408D01*
X0077949Y0088458D01*
X0077949Y0084857D02*
X0085499Y0084857D01*
X0085499Y0085306D02*
X0077949Y0085306D01*
X0077949Y0085755D02*
X0085499Y0085755D01*
X0085499Y0086204D02*
X0077949Y0086204D01*
X0077949Y0086653D02*
X0085499Y0086653D01*
X0085499Y0087102D02*
X0077949Y0087102D01*
X0077949Y0087551D02*
X0085499Y0087551D01*
X0085499Y0088000D02*
X0077949Y0088000D01*
X0077949Y0088449D02*
X0085499Y0088449D01*
X0276070Y0046837D02*
X0276070Y0039287D01*
X0276070Y0046837D02*
X0280120Y0046837D01*
X0280120Y0039287D01*
X0276070Y0039287D01*
X0276070Y0039736D02*
X0280120Y0039736D01*
X0280120Y0040185D02*
X0276070Y0040185D01*
X0276070Y0040634D02*
X0280120Y0040634D01*
X0280120Y0041083D02*
X0276070Y0041083D01*
X0276070Y0041532D02*
X0280120Y0041532D01*
X0280120Y0041981D02*
X0276070Y0041981D01*
X0276070Y0042430D02*
X0280120Y0042430D01*
X0280120Y0042879D02*
X0276070Y0042879D01*
X0276070Y0043328D02*
X0280120Y0043328D01*
X0280120Y0043777D02*
X0276070Y0043777D01*
X0276070Y0044226D02*
X0280120Y0044226D01*
X0280120Y0044675D02*
X0276070Y0044675D01*
X0276070Y0045124D02*
X0280120Y0045124D01*
X0280120Y0045573D02*
X0276070Y0045573D01*
X0276070Y0046022D02*
X0280120Y0046022D01*
X0280120Y0046471D02*
X0276070Y0046471D01*
D16*
X0076845Y0076433D03*
X0076845Y0096433D03*
X0076845Y0188933D03*
X0076845Y0208933D03*
D17*
X0268095Y0038183D03*
X0288095Y0038183D03*
D18*
X0070130Y0036018D02*
X0069123Y0039115D01*
X0068995Y0040744D01*
X0068995Y0072233D01*
X0085842Y0072233D01*
X0086545Y0072936D01*
X0086545Y0073792D01*
X0086663Y0073508D01*
X0087096Y0072758D01*
X0087622Y0072072D01*
X0088234Y0071460D01*
X0088921Y0070934D01*
X0089670Y0070501D01*
X0090469Y0070170D01*
X0091305Y0069946D01*
X0091995Y0069855D01*
X0091995Y0075833D01*
X0093195Y0075833D01*
X0093195Y0069855D01*
X0093885Y0069946D01*
X0094721Y0070170D01*
X0095521Y0070501D01*
X0096270Y0070934D01*
X0096956Y0071460D01*
X0097568Y0072072D01*
X0098095Y0072758D01*
X0098527Y0073508D01*
X0098858Y0074307D01*
X0099082Y0075143D01*
X0099173Y0075833D01*
X0093195Y0075833D01*
X0093195Y0077033D01*
X0091995Y0077033D01*
X0091995Y0083011D01*
X0091305Y0082920D01*
X0090469Y0082696D01*
X0089670Y0082365D01*
X0088921Y0081933D01*
X0088234Y0081406D01*
X0087622Y0080794D01*
X0087096Y0080108D01*
X0086663Y0079358D01*
X0086545Y0079074D01*
X0086545Y0079930D01*
X0085842Y0080633D01*
X0068995Y0080633D01*
X0068995Y0092233D01*
X0085842Y0092233D01*
X0086545Y0092936D01*
X0086545Y0093792D01*
X0086663Y0093508D01*
X0087096Y0092758D01*
X0087622Y0092072D01*
X0088234Y0091460D01*
X0088921Y0090934D01*
X0089670Y0090501D01*
X0090469Y0090170D01*
X0091305Y0089946D01*
X0091995Y0089855D01*
X0091995Y0095833D01*
X0093195Y0095833D01*
X0093195Y0089855D01*
X0093885Y0089946D01*
X0094721Y0090170D01*
X0095521Y0090501D01*
X0096270Y0090934D01*
X0096956Y0091460D01*
X0097568Y0092072D01*
X0098095Y0092758D01*
X0098527Y0093508D01*
X0098858Y0094307D01*
X0099082Y0095143D01*
X0099173Y0095833D01*
X0093195Y0095833D01*
X0093195Y0097033D01*
X0091995Y0097033D01*
X0091995Y0103011D01*
X0091305Y0102920D01*
X0090469Y0102696D01*
X0089670Y0102365D01*
X0088921Y0101933D01*
X0088234Y0101406D01*
X0087622Y0100794D01*
X0087096Y0100108D01*
X0086663Y0099358D01*
X0086545Y0099074D01*
X0086545Y0099930D01*
X0085842Y0100633D01*
X0068995Y0100633D01*
X0068995Y0104533D01*
X0083140Y0104533D01*
X0084950Y0105578D01*
X0084950Y0105578D01*
X0085995Y0107388D01*
X0085995Y0170978D01*
X0084950Y0172788D01*
X0083140Y0173833D01*
X0068995Y0173833D01*
X0068995Y0184733D01*
X0085842Y0184733D01*
X0086545Y0185436D01*
X0086545Y0186292D01*
X0086663Y0186008D01*
X0087096Y0185258D01*
X0087622Y0184572D01*
X0088234Y0183960D01*
X0088921Y0183434D01*
X0089670Y0183001D01*
X0090469Y0182670D01*
X0091305Y0182446D01*
X0091995Y0182355D01*
X0091995Y0188333D01*
X0093195Y0188333D01*
X0093195Y0182355D01*
X0093885Y0182446D01*
X0094721Y0182670D01*
X0095521Y0183001D01*
X0096270Y0183434D01*
X0096956Y0183960D01*
X0097568Y0184572D01*
X0098095Y0185258D01*
X0098527Y0186008D01*
X0098858Y0186807D01*
X0099082Y0187643D01*
X0099173Y0188333D01*
X0093195Y0188333D01*
X0093195Y0189533D01*
X0091995Y0189533D01*
X0091995Y0195511D01*
X0091305Y0195420D01*
X0090469Y0195196D01*
X0089670Y0194865D01*
X0088921Y0194433D01*
X0088234Y0193906D01*
X0087622Y0193294D01*
X0087096Y0192608D01*
X0086663Y0191858D01*
X0086545Y0191574D01*
X0086545Y0192430D01*
X0085842Y0193133D01*
X0068995Y0193133D01*
X0068995Y0204733D01*
X0085842Y0204733D01*
X0086545Y0205436D01*
X0086545Y0206292D01*
X0086663Y0206008D01*
X0087096Y0205258D01*
X0087622Y0204572D01*
X0088234Y0203960D01*
X0088921Y0203434D01*
X0089670Y0203001D01*
X0090469Y0202670D01*
X0091305Y0202446D01*
X0091995Y0202355D01*
X0091995Y0208333D01*
X0093195Y0208333D01*
X0093195Y0202355D01*
X0093885Y0202446D01*
X0094721Y0202670D01*
X0095521Y0203001D01*
X0096270Y0203434D01*
X0096956Y0203960D01*
X0097568Y0204572D01*
X0098095Y0205258D01*
X0098527Y0206008D01*
X0098858Y0206807D01*
X0099082Y0207643D01*
X0099173Y0208333D01*
X0093195Y0208333D01*
X0093195Y0209533D01*
X0091995Y0209533D01*
X0091995Y0215511D01*
X0091305Y0215420D01*
X0090469Y0215196D01*
X0089670Y0214865D01*
X0088921Y0214433D01*
X0088234Y0213906D01*
X0087622Y0213294D01*
X0087096Y0212608D01*
X0086663Y0211858D01*
X0086545Y0211574D01*
X0086545Y0212430D01*
X0085842Y0213133D01*
X0068995Y0213133D01*
X0068995Y0239563D01*
X0069123Y0241192D01*
X0070130Y0244290D01*
X0072044Y0246925D01*
X0074680Y0248839D01*
X0077778Y0249846D01*
X0079406Y0249974D01*
X0311690Y0249974D01*
X0313318Y0249846D01*
X0316416Y0248839D01*
X0319051Y0246925D01*
X0320966Y0244289D01*
X0321972Y0241192D01*
X0322101Y0239563D01*
X0322101Y0040744D01*
X0321972Y0039115D01*
X0320966Y0036018D01*
X0319051Y0033382D01*
X0316416Y0031468D01*
X0313318Y0030461D01*
X0311690Y0030333D01*
X0292295Y0030333D01*
X0292295Y0047180D01*
X0291592Y0047883D01*
X0284598Y0047883D01*
X0283895Y0047180D01*
X0283895Y0030333D01*
X0272295Y0030333D01*
X0272295Y0047180D01*
X0271592Y0047883D01*
X0264598Y0047883D01*
X0263895Y0047180D01*
X0263895Y0030333D01*
X0079406Y0030333D01*
X0077778Y0030461D01*
X0074680Y0031468D01*
X0072044Y0033382D01*
X0070130Y0036018D01*
X0070095Y0036124D02*
X0079219Y0036124D01*
X0080000Y0035801D02*
X0082750Y0035801D01*
X0085290Y0036853D01*
X0087234Y0038797D01*
X0088286Y0041338D01*
X0088286Y0044087D01*
X0087234Y0046628D01*
X0085290Y0048572D01*
X0082750Y0049624D01*
X0080000Y0049624D01*
X0077459Y0048572D01*
X0075515Y0046628D01*
X0074463Y0044087D01*
X0074463Y0041338D01*
X0075515Y0038797D01*
X0077459Y0036853D01*
X0080000Y0035801D01*
X0076990Y0037323D02*
X0069706Y0037323D01*
X0069316Y0038521D02*
X0075791Y0038521D01*
X0075133Y0039720D02*
X0069076Y0039720D01*
X0068995Y0040918D02*
X0074637Y0040918D01*
X0074463Y0042117D02*
X0068995Y0042117D01*
X0068995Y0043315D02*
X0074463Y0043315D01*
X0074639Y0044514D02*
X0068995Y0044514D01*
X0068995Y0045712D02*
X0075136Y0045712D01*
X0075798Y0046911D02*
X0068995Y0046911D01*
X0068995Y0048109D02*
X0076997Y0048109D01*
X0079235Y0049308D02*
X0068995Y0049308D01*
X0068995Y0050506D02*
X0198748Y0050506D01*
X0198748Y0049308D02*
X0083514Y0049308D01*
X0085753Y0048109D02*
X0198748Y0048109D01*
X0198748Y0046911D02*
X0086951Y0046911D01*
X0087613Y0045712D02*
X0198748Y0045712D01*
X0198748Y0045131D02*
X0197650Y0044033D01*
X0197078Y0044033D01*
X0196122Y0043637D01*
X0195391Y0042906D01*
X0194995Y0041950D01*
X0194995Y0040916D01*
X0195391Y0039960D01*
X0196122Y0039229D01*
X0197078Y0038833D01*
X0198112Y0038833D01*
X0199068Y0039229D01*
X0199799Y0039960D01*
X0200195Y0040916D01*
X0200195Y0041487D01*
X0202348Y0043640D01*
X0202348Y0147056D01*
X0202752Y0147460D01*
X0203148Y0148416D01*
X0203148Y0149450D01*
X0202752Y0150406D01*
X0202348Y0150810D01*
X0202348Y0226501D01*
X0203097Y0226811D01*
X0203795Y0227509D01*
X0203795Y0189810D01*
X0203391Y0189406D01*
X0202995Y0188450D01*
X0202995Y0187416D01*
X0203391Y0186460D01*
X0204122Y0185729D01*
X0205078Y0185333D01*
X0206112Y0185333D01*
X0207068Y0185729D01*
X0207799Y0186460D01*
X0208195Y0187416D01*
X0208195Y0188450D01*
X0207799Y0189406D01*
X0207395Y0189810D01*
X0207395Y0227415D01*
X0207999Y0226811D01*
X0208748Y0226501D01*
X0208748Y0163310D01*
X0208344Y0162906D01*
X0207948Y0161950D01*
X0207948Y0160916D01*
X0208344Y0159960D01*
X0208748Y0159556D01*
X0208748Y0145810D01*
X0208344Y0145406D01*
X0207948Y0144450D01*
X0207948Y0143416D01*
X0208344Y0142460D01*
X0208748Y0142056D01*
X0208748Y0064208D01*
X0208736Y0064195D01*
X0208748Y0063465D01*
X0208748Y0062735D01*
X0208760Y0062722D01*
X0208764Y0062529D01*
X0208391Y0062156D01*
X0207995Y0061200D01*
X0207995Y0060166D01*
X0208391Y0059210D01*
X0209122Y0058479D01*
X0210078Y0058083D01*
X0211112Y0058083D01*
X0212068Y0058479D01*
X0212799Y0059210D01*
X0213195Y0060166D01*
X0213195Y0061200D01*
X0212799Y0062156D01*
X0212363Y0062592D01*
X0212348Y0063496D01*
X0212348Y0142056D01*
X0212752Y0142460D01*
X0213148Y0143416D01*
X0213148Y0144450D01*
X0212752Y0145406D01*
X0212348Y0145810D01*
X0212348Y0159556D01*
X0212752Y0159960D01*
X0213148Y0160916D01*
X0213148Y0161950D01*
X0212752Y0162906D01*
X0212348Y0163310D01*
X0212348Y0226501D01*
X0213097Y0226811D01*
X0213795Y0227509D01*
X0213795Y0076310D01*
X0213391Y0075906D01*
X0212995Y0074950D01*
X0212995Y0073916D01*
X0213391Y0072960D01*
X0214122Y0072229D01*
X0215078Y0071833D01*
X0216112Y0071833D01*
X0217068Y0072229D01*
X0217799Y0072960D01*
X0218195Y0073916D01*
X0218195Y0074950D01*
X0217799Y0075906D01*
X0217395Y0076310D01*
X0217395Y0226860D01*
X0217980Y0226435D01*
X0218667Y0226085D01*
X0219400Y0225847D01*
X0220162Y0225726D01*
X0220262Y0225726D01*
X0220262Y0230340D01*
X0220834Y0230340D01*
X0220834Y0225726D01*
X0220934Y0225726D01*
X0221695Y0225847D01*
X0222429Y0226085D01*
X0223116Y0226435D01*
X0223740Y0226888D01*
X0223795Y0226944D01*
X0223795Y0222679D01*
X0218295Y0217179D01*
X0218295Y0090810D01*
X0217891Y0090406D01*
X0217495Y0089450D01*
X0217495Y0088416D01*
X0217891Y0087460D01*
X0218622Y0086729D01*
X0219578Y0086333D01*
X0220612Y0086333D01*
X0221568Y0086729D01*
X0222299Y0087460D01*
X0222695Y0088416D01*
X0222695Y0089450D01*
X0222299Y0090406D01*
X0221895Y0090810D01*
X0221895Y0126456D01*
X0222622Y0125729D01*
X0223578Y0125333D01*
X0224612Y0125333D01*
X0225568Y0125729D01*
X0226299Y0126460D01*
X0226695Y0127416D01*
X0226695Y0127987D01*
X0228341Y0129633D01*
X0229395Y0130687D01*
X0229395Y0213187D01*
X0242348Y0226140D01*
X0242348Y0226501D01*
X0243097Y0226811D01*
X0244363Y0228077D01*
X0245048Y0229731D01*
X0245048Y0231521D01*
X0244363Y0233175D01*
X0243655Y0233883D01*
X0247091Y0233883D01*
X0248145Y0234937D01*
X0249427Y0236219D01*
X0249653Y0236126D01*
X0251443Y0236126D01*
X0253097Y0236811D01*
X0254363Y0238077D01*
X0255048Y0239731D01*
X0255048Y0241521D01*
X0254363Y0243175D01*
X0253097Y0244441D01*
X0252633Y0244633D01*
X0257727Y0244633D01*
X0257356Y0244363D01*
X0256810Y0243818D01*
X0256357Y0243194D01*
X0256007Y0242507D01*
X0255769Y0241773D01*
X0255648Y0241012D01*
X0255648Y0240912D01*
X0260262Y0240912D01*
X0260262Y0240340D01*
X0260834Y0240340D01*
X0260834Y0240912D01*
X0265448Y0240912D01*
X0265448Y0241012D01*
X0265327Y0241773D01*
X0265089Y0242507D01*
X0264739Y0243194D01*
X0264285Y0243818D01*
X0263740Y0244363D01*
X0263369Y0244633D01*
X0266850Y0244633D01*
X0267520Y0243962D01*
X0266733Y0243175D01*
X0266048Y0241521D01*
X0266048Y0239731D01*
X0266733Y0238077D01*
X0267999Y0236811D01*
X0269653Y0236126D01*
X0271443Y0236126D01*
X0273097Y0236811D01*
X0274363Y0238077D01*
X0275048Y0239731D01*
X0275048Y0241521D01*
X0274363Y0243175D01*
X0273097Y0244441D01*
X0271451Y0245123D01*
X0269395Y0247179D01*
X0268341Y0248233D01*
X0157350Y0248233D01*
X0156295Y0247179D01*
X0156295Y0247179D01*
X0154850Y0245733D01*
X0154850Y0245733D01*
X0153795Y0244679D01*
X0153795Y0243743D01*
X0153097Y0244441D01*
X0151443Y0245126D01*
X0149653Y0245126D01*
X0147999Y0244441D01*
X0146733Y0243175D01*
X0146048Y0241521D01*
X0146048Y0239731D01*
X0146355Y0238989D01*
X0144850Y0237483D01*
X0143795Y0236429D01*
X0143795Y0234308D01*
X0143740Y0234363D01*
X0143116Y0234817D01*
X0142429Y0235167D01*
X0141695Y0235405D01*
X0140934Y0235526D01*
X0140834Y0235526D01*
X0140834Y0230912D01*
X0140262Y0230912D01*
X0140262Y0235526D01*
X0140162Y0235526D01*
X0139400Y0235405D01*
X0138667Y0235167D01*
X0137980Y0234817D01*
X0137356Y0234363D01*
X0136810Y0233818D01*
X0136357Y0233194D01*
X0136007Y0232507D01*
X0135769Y0231773D01*
X0135648Y0231012D01*
X0135648Y0230912D01*
X0140262Y0230912D01*
X0140262Y0230340D01*
X0140834Y0230340D01*
X0140834Y0225726D01*
X0140934Y0225726D01*
X0141695Y0225847D01*
X0142429Y0226085D01*
X0143116Y0226435D01*
X0143740Y0226888D01*
X0143795Y0226944D01*
X0143795Y0186429D01*
X0140795Y0183429D01*
X0139975Y0182608D01*
X0131850Y0174483D01*
X0131681Y0174483D01*
X0132215Y0175017D01*
X0132595Y0175936D01*
X0132595Y0176387D01*
X0141895Y0185687D01*
X0141895Y0219679D01*
X0133930Y0227644D01*
X0134363Y0228077D01*
X0135048Y0229731D01*
X0135048Y0231521D01*
X0134363Y0233175D01*
X0133097Y0234441D01*
X0131443Y0235126D01*
X0129653Y0235126D01*
X0127999Y0234441D01*
X0126733Y0233175D01*
X0126048Y0231521D01*
X0126048Y0229731D01*
X0126733Y0228077D01*
X0127999Y0226811D01*
X0129653Y0226126D01*
X0130357Y0226126D01*
X0138295Y0218187D01*
X0138295Y0187179D01*
X0130050Y0178933D01*
X0129598Y0178933D01*
X0128679Y0178552D01*
X0127976Y0177849D01*
X0127595Y0176930D01*
X0127595Y0175936D01*
X0127976Y0175017D01*
X0128510Y0174483D01*
X0119472Y0174483D01*
X0119068Y0174887D01*
X0118112Y0175283D01*
X0117078Y0175283D01*
X0116122Y0174887D01*
X0115391Y0174156D01*
X0114995Y0173200D01*
X0114995Y0172166D01*
X0115391Y0171210D01*
X0116122Y0170479D01*
X0117078Y0170083D01*
X0118112Y0170083D01*
X0119068Y0170479D01*
X0119472Y0170883D01*
X0133341Y0170883D01*
X0134395Y0171937D01*
X0142520Y0180062D01*
X0143341Y0180883D01*
X0147395Y0184937D01*
X0147395Y0227415D01*
X0147999Y0226811D01*
X0148748Y0226501D01*
X0148748Y0132631D01*
X0126850Y0110733D01*
X0114472Y0110733D01*
X0114068Y0111137D01*
X0113112Y0111533D01*
X0112078Y0111533D01*
X0111122Y0111137D01*
X0110391Y0110406D01*
X0109995Y0109450D01*
X0109995Y0108416D01*
X0110391Y0107460D01*
X0111122Y0106729D01*
X0112078Y0106333D01*
X0113112Y0106333D01*
X0114068Y0106729D01*
X0114472Y0107133D01*
X0128341Y0107133D01*
X0151293Y0130086D01*
X0152348Y0131140D01*
X0152348Y0226501D01*
X0153097Y0226811D01*
X0153795Y0227509D01*
X0153795Y0060179D01*
X0150150Y0056533D01*
X0149578Y0056533D01*
X0148622Y0056137D01*
X0147891Y0055406D01*
X0147495Y0054450D01*
X0147495Y0053416D01*
X0147891Y0052460D01*
X0148622Y0051729D01*
X0149578Y0051333D01*
X0150612Y0051333D01*
X0151568Y0051729D01*
X0152299Y0052460D01*
X0152695Y0053416D01*
X0152695Y0053987D01*
X0157395Y0058687D01*
X0157395Y0227415D01*
X0157999Y0226811D01*
X0159653Y0226126D01*
X0161443Y0226126D01*
X0163097Y0226811D01*
X0164363Y0228077D01*
X0165048Y0229731D01*
X0165048Y0231521D01*
X0164363Y0233175D01*
X0163097Y0234441D01*
X0161443Y0235126D01*
X0159653Y0235126D01*
X0157999Y0234441D01*
X0157395Y0233837D01*
X0157395Y0236860D01*
X0157980Y0236435D01*
X0158667Y0236085D01*
X0159400Y0235847D01*
X0160162Y0235726D01*
X0160262Y0235726D01*
X0160262Y0240340D01*
X0160834Y0240340D01*
X0160834Y0240912D01*
X0165448Y0240912D01*
X0165448Y0241012D01*
X0165327Y0241773D01*
X0165089Y0242507D01*
X0164739Y0243194D01*
X0164285Y0243818D01*
X0163740Y0244363D01*
X0163369Y0244633D01*
X0168463Y0244633D01*
X0167999Y0244441D01*
X0166733Y0243175D01*
X0166048Y0241521D01*
X0166048Y0239731D01*
X0166733Y0238077D01*
X0167999Y0236811D01*
X0169653Y0236126D01*
X0171443Y0236126D01*
X0173097Y0236811D01*
X0174363Y0238077D01*
X0175048Y0239731D01*
X0175048Y0241521D01*
X0174363Y0243175D01*
X0173097Y0244441D01*
X0172633Y0244633D01*
X0178463Y0244633D01*
X0177999Y0244441D01*
X0176733Y0243175D01*
X0176048Y0241521D01*
X0176048Y0239731D01*
X0176358Y0238982D01*
X0174850Y0237473D01*
X0173795Y0236419D01*
X0173795Y0233743D01*
X0173097Y0234441D01*
X0171443Y0235126D01*
X0169653Y0235126D01*
X0167999Y0234441D01*
X0166733Y0233175D01*
X0166048Y0231521D01*
X0166048Y0229731D01*
X0166733Y0228077D01*
X0167999Y0226811D01*
X0168295Y0226688D01*
X0168295Y0215669D01*
X0167976Y0215349D01*
X0167595Y0214430D01*
X0167595Y0213436D01*
X0167976Y0212517D01*
X0168679Y0211814D01*
X0169598Y0211433D01*
X0170592Y0211433D01*
X0171511Y0211814D01*
X0172215Y0212517D01*
X0172595Y0213436D01*
X0172595Y0214430D01*
X0172215Y0215349D01*
X0171895Y0215669D01*
X0171895Y0226313D01*
X0173097Y0226811D01*
X0173795Y0227509D01*
X0173795Y0199169D01*
X0173476Y0198849D01*
X0173095Y0197930D01*
X0173095Y0196936D01*
X0173476Y0196017D01*
X0174179Y0195314D01*
X0175098Y0194933D01*
X0176092Y0194933D01*
X0177011Y0195314D01*
X0177715Y0196017D01*
X0178095Y0196936D01*
X0178095Y0197930D01*
X0177715Y0198849D01*
X0177395Y0199169D01*
X0177395Y0227415D01*
X0177999Y0226811D01*
X0179653Y0226126D01*
X0181443Y0226126D01*
X0183097Y0226811D01*
X0184363Y0228077D01*
X0185048Y0229731D01*
X0185048Y0231521D01*
X0184363Y0233175D01*
X0183097Y0234441D01*
X0181443Y0235126D01*
X0179653Y0235126D01*
X0177999Y0234441D01*
X0177395Y0233837D01*
X0177395Y0234928D01*
X0178904Y0236436D01*
X0179653Y0236126D01*
X0181443Y0236126D01*
X0183097Y0236811D01*
X0184363Y0238077D01*
X0185048Y0239731D01*
X0185048Y0241521D01*
X0184363Y0243175D01*
X0183097Y0244441D01*
X0182633Y0244633D01*
X0187727Y0244633D01*
X0187356Y0244363D01*
X0186810Y0243818D01*
X0186357Y0243194D01*
X0186007Y0242507D01*
X0185769Y0241773D01*
X0185648Y0241012D01*
X0185648Y0240912D01*
X0190262Y0240912D01*
X0190262Y0240340D01*
X0190834Y0240340D01*
X0190834Y0240912D01*
X0195448Y0240912D01*
X0195448Y0241012D01*
X0195327Y0241773D01*
X0195089Y0242507D01*
X0194739Y0243194D01*
X0194285Y0243818D01*
X0193740Y0244363D01*
X0193369Y0244633D01*
X0198463Y0244633D01*
X0197999Y0244441D01*
X0196733Y0243175D01*
X0196048Y0241521D01*
X0196048Y0239931D01*
X0195198Y0239082D01*
X0195327Y0239479D01*
X0195448Y0240240D01*
X0195448Y0240340D01*
X0190834Y0240340D01*
X0190834Y0235726D01*
X0190934Y0235726D01*
X0191695Y0235847D01*
X0192429Y0236085D01*
X0193116Y0236435D01*
X0193740Y0236888D01*
X0193795Y0236944D01*
X0193795Y0233743D01*
X0193097Y0234441D01*
X0191443Y0235126D01*
X0189653Y0235126D01*
X0187999Y0234441D01*
X0186733Y0233175D01*
X0186048Y0231521D01*
X0186048Y0229731D01*
X0186733Y0228077D01*
X0187999Y0226811D01*
X0188748Y0226501D01*
X0188748Y0215131D01*
X0179350Y0205733D01*
X0178295Y0204679D01*
X0178295Y0163310D01*
X0177891Y0162906D01*
X0177495Y0161950D01*
X0177495Y0160916D01*
X0177891Y0159960D01*
X0178295Y0159556D01*
X0178295Y0154679D01*
X0159350Y0135733D01*
X0158295Y0134679D01*
X0158295Y0058187D01*
X0162495Y0053987D01*
X0162495Y0053416D01*
X0162891Y0052460D01*
X0163622Y0051729D01*
X0164578Y0051333D01*
X0165612Y0051333D01*
X0166568Y0051729D01*
X0167299Y0052460D01*
X0167695Y0053416D01*
X0167695Y0054450D01*
X0167299Y0055406D01*
X0166568Y0056137D01*
X0165612Y0056533D01*
X0165041Y0056533D01*
X0161895Y0059679D01*
X0161895Y0133187D01*
X0181895Y0153187D01*
X0181895Y0159556D01*
X0182299Y0159960D01*
X0182695Y0160916D01*
X0182695Y0161950D01*
X0182299Y0162906D01*
X0181895Y0163310D01*
X0181895Y0203187D01*
X0191293Y0212586D01*
X0191293Y0212586D01*
X0192348Y0213640D01*
X0192348Y0226501D01*
X0193097Y0226811D01*
X0193795Y0227509D01*
X0193795Y0210179D01*
X0192650Y0209033D01*
X0192078Y0209033D01*
X0191122Y0208637D01*
X0190391Y0207906D01*
X0189995Y0206950D01*
X0189995Y0205916D01*
X0190391Y0204960D01*
X0191122Y0204229D01*
X0192078Y0203833D01*
X0193112Y0203833D01*
X0194068Y0204229D01*
X0194799Y0204960D01*
X0195195Y0205916D01*
X0195195Y0206487D01*
X0197395Y0208687D01*
X0197395Y0227415D01*
X0197999Y0226811D01*
X0198748Y0226501D01*
X0198748Y0150810D01*
X0198344Y0150406D01*
X0197948Y0149450D01*
X0197948Y0148416D01*
X0198344Y0147460D01*
X0198748Y0147056D01*
X0198748Y0045131D01*
X0198130Y0044514D02*
X0088110Y0044514D01*
X0088286Y0043315D02*
X0195800Y0043315D01*
X0195064Y0042117D02*
X0088286Y0042117D01*
X0088113Y0040918D02*
X0194995Y0040918D01*
X0195632Y0039720D02*
X0087616Y0039720D01*
X0086958Y0038521D02*
X0263895Y0038521D01*
X0263895Y0037323D02*
X0085759Y0037323D01*
X0083530Y0036124D02*
X0263895Y0036124D01*
X0263895Y0034926D02*
X0070923Y0034926D01*
X0071794Y0033727D02*
X0263895Y0033727D01*
X0263895Y0032529D02*
X0073220Y0032529D01*
X0075103Y0031330D02*
X0263895Y0031330D01*
X0263895Y0039720D02*
X0199559Y0039720D01*
X0200195Y0040918D02*
X0241017Y0040918D01*
X0240740Y0041078D02*
X0242550Y0040033D01*
X0244175Y0040033D01*
X0245515Y0040033D01*
X0247140Y0040033D01*
X0248950Y0041078D01*
X0248950Y0041078D01*
X0249995Y0042888D01*
X0249995Y0105978D01*
X0248950Y0107788D01*
X0247140Y0108833D01*
X0242550Y0108833D01*
X0240740Y0107788D01*
X0239695Y0105978D01*
X0239695Y0042888D01*
X0240740Y0041078D01*
X0240740Y0041078D01*
X0240740Y0041078D01*
X0240140Y0042117D02*
X0200824Y0042117D01*
X0202023Y0043315D02*
X0239695Y0043315D01*
X0239695Y0044514D02*
X0202348Y0044514D01*
X0202348Y0045712D02*
X0239695Y0045712D01*
X0239695Y0046911D02*
X0202348Y0046911D01*
X0202348Y0048109D02*
X0239695Y0048109D01*
X0239695Y0049308D02*
X0202348Y0049308D01*
X0202348Y0050506D02*
X0239695Y0050506D01*
X0239695Y0051705D02*
X0202348Y0051705D01*
X0202348Y0052903D02*
X0239695Y0052903D01*
X0239695Y0054102D02*
X0202348Y0054102D01*
X0202348Y0055300D02*
X0239695Y0055300D01*
X0239695Y0056499D02*
X0202348Y0056499D01*
X0202348Y0057697D02*
X0239695Y0057697D01*
X0239695Y0058896D02*
X0212485Y0058896D01*
X0213166Y0060094D02*
X0239695Y0060094D01*
X0239695Y0061293D02*
X0213157Y0061293D01*
X0212464Y0062491D02*
X0239695Y0062491D01*
X0239695Y0063690D02*
X0212348Y0063690D01*
X0212348Y0064888D02*
X0239695Y0064888D01*
X0239695Y0066087D02*
X0212348Y0066087D01*
X0212348Y0067285D02*
X0239695Y0067285D01*
X0239695Y0068484D02*
X0212348Y0068484D01*
X0212348Y0069682D02*
X0239695Y0069682D01*
X0239695Y0070881D02*
X0212348Y0070881D01*
X0212348Y0072079D02*
X0214483Y0072079D01*
X0213259Y0073278D02*
X0212348Y0073278D01*
X0212348Y0074477D02*
X0212995Y0074477D01*
X0213295Y0075675D02*
X0212348Y0075675D01*
X0212348Y0076874D02*
X0213795Y0076874D01*
X0213795Y0078072D02*
X0212348Y0078072D01*
X0212348Y0079271D02*
X0213795Y0079271D01*
X0213795Y0080469D02*
X0212348Y0080469D01*
X0212348Y0081668D02*
X0213795Y0081668D01*
X0213795Y0082866D02*
X0212348Y0082866D01*
X0212348Y0084065D02*
X0213795Y0084065D01*
X0213795Y0085263D02*
X0212348Y0085263D01*
X0212348Y0086462D02*
X0213795Y0086462D01*
X0213795Y0087660D02*
X0212348Y0087660D01*
X0212348Y0088859D02*
X0213795Y0088859D01*
X0213795Y0090057D02*
X0212348Y0090057D01*
X0212348Y0091256D02*
X0213795Y0091256D01*
X0213795Y0092454D02*
X0212348Y0092454D01*
X0212348Y0093653D02*
X0213795Y0093653D01*
X0213795Y0094851D02*
X0212348Y0094851D01*
X0212348Y0096050D02*
X0213795Y0096050D01*
X0213795Y0097248D02*
X0212348Y0097248D01*
X0212348Y0098447D02*
X0213795Y0098447D01*
X0213795Y0099645D02*
X0212348Y0099645D01*
X0212348Y0100844D02*
X0213795Y0100844D01*
X0213795Y0102042D02*
X0212348Y0102042D01*
X0212348Y0103241D02*
X0213795Y0103241D01*
X0213795Y0104439D02*
X0212348Y0104439D01*
X0212348Y0105638D02*
X0213795Y0105638D01*
X0213795Y0106836D02*
X0212348Y0106836D01*
X0212348Y0108035D02*
X0213795Y0108035D01*
X0213795Y0109233D02*
X0212348Y0109233D01*
X0212348Y0110432D02*
X0213795Y0110432D01*
X0213795Y0111630D02*
X0212348Y0111630D01*
X0212348Y0112829D02*
X0213795Y0112829D01*
X0213795Y0114027D02*
X0212348Y0114027D01*
X0212348Y0115226D02*
X0213795Y0115226D01*
X0213795Y0116424D02*
X0212348Y0116424D01*
X0212348Y0117623D02*
X0213795Y0117623D01*
X0213795Y0118821D02*
X0212348Y0118821D01*
X0212348Y0120020D02*
X0213795Y0120020D01*
X0213795Y0121218D02*
X0212348Y0121218D01*
X0212348Y0122417D02*
X0213795Y0122417D01*
X0213795Y0123615D02*
X0212348Y0123615D01*
X0212348Y0124814D02*
X0213795Y0124814D01*
X0213795Y0126012D02*
X0212348Y0126012D01*
X0212348Y0127211D02*
X0213795Y0127211D01*
X0213795Y0128410D02*
X0212348Y0128410D01*
X0212348Y0129608D02*
X0213795Y0129608D01*
X0213795Y0130807D02*
X0212348Y0130807D01*
X0212348Y0132005D02*
X0213795Y0132005D01*
X0213795Y0133204D02*
X0212348Y0133204D01*
X0212348Y0134402D02*
X0213795Y0134402D01*
X0213795Y0135601D02*
X0212348Y0135601D01*
X0212348Y0136799D02*
X0213795Y0136799D01*
X0213795Y0137998D02*
X0212348Y0137998D01*
X0212348Y0139196D02*
X0213795Y0139196D01*
X0213795Y0140395D02*
X0212348Y0140395D01*
X0212348Y0141593D02*
X0213795Y0141593D01*
X0213795Y0142792D02*
X0212889Y0142792D01*
X0213148Y0143990D02*
X0213795Y0143990D01*
X0213795Y0145189D02*
X0212842Y0145189D01*
X0212348Y0146387D02*
X0213795Y0146387D01*
X0213795Y0147586D02*
X0212348Y0147586D01*
X0212348Y0148784D02*
X0213795Y0148784D01*
X0213795Y0149983D02*
X0212348Y0149983D01*
X0212348Y0151181D02*
X0213795Y0151181D01*
X0213795Y0152380D02*
X0212348Y0152380D01*
X0212348Y0153578D02*
X0213795Y0153578D01*
X0213795Y0154777D02*
X0212348Y0154777D01*
X0212348Y0155975D02*
X0213795Y0155975D01*
X0213795Y0157174D02*
X0212348Y0157174D01*
X0212348Y0158372D02*
X0213795Y0158372D01*
X0213795Y0159571D02*
X0212363Y0159571D01*
X0213087Y0160769D02*
X0213795Y0160769D01*
X0213795Y0161968D02*
X0213141Y0161968D01*
X0212492Y0163166D02*
X0213795Y0163166D01*
X0213795Y0164365D02*
X0212348Y0164365D01*
X0212348Y0165563D02*
X0213795Y0165563D01*
X0213795Y0166762D02*
X0212348Y0166762D01*
X0212348Y0167960D02*
X0213795Y0167960D01*
X0213795Y0169159D02*
X0212348Y0169159D01*
X0212348Y0170357D02*
X0213795Y0170357D01*
X0213795Y0171556D02*
X0212348Y0171556D01*
X0212348Y0172754D02*
X0213795Y0172754D01*
X0213795Y0173953D02*
X0212348Y0173953D01*
X0212348Y0175151D02*
X0213795Y0175151D01*
X0213795Y0176350D02*
X0212348Y0176350D01*
X0212348Y0177548D02*
X0213795Y0177548D01*
X0213795Y0178747D02*
X0212348Y0178747D01*
X0212348Y0179945D02*
X0213795Y0179945D01*
X0213795Y0181144D02*
X0212348Y0181144D01*
X0212348Y0182343D02*
X0213795Y0182343D01*
X0213795Y0183541D02*
X0212348Y0183541D01*
X0212348Y0184740D02*
X0213795Y0184740D01*
X0213795Y0185938D02*
X0212348Y0185938D01*
X0212348Y0187137D02*
X0213795Y0187137D01*
X0213795Y0188335D02*
X0212348Y0188335D01*
X0212348Y0189534D02*
X0213795Y0189534D01*
X0213795Y0190732D02*
X0212348Y0190732D01*
X0212348Y0191931D02*
X0213795Y0191931D01*
X0213795Y0193129D02*
X0212348Y0193129D01*
X0212348Y0194328D02*
X0213795Y0194328D01*
X0213795Y0195526D02*
X0212348Y0195526D01*
X0212348Y0196725D02*
X0213795Y0196725D01*
X0213795Y0197923D02*
X0212348Y0197923D01*
X0212348Y0199122D02*
X0213795Y0199122D01*
X0213795Y0200320D02*
X0212348Y0200320D01*
X0212348Y0201519D02*
X0213795Y0201519D01*
X0213795Y0202717D02*
X0212348Y0202717D01*
X0212348Y0203916D02*
X0213795Y0203916D01*
X0213795Y0205114D02*
X0212348Y0205114D01*
X0212348Y0206313D02*
X0213795Y0206313D01*
X0213795Y0207511D02*
X0212348Y0207511D01*
X0212348Y0208710D02*
X0213795Y0208710D01*
X0213795Y0209908D02*
X0212348Y0209908D01*
X0212348Y0211107D02*
X0213795Y0211107D01*
X0213795Y0212305D02*
X0212348Y0212305D01*
X0212348Y0213504D02*
X0213795Y0213504D01*
X0213795Y0214702D02*
X0212348Y0214702D01*
X0212348Y0215901D02*
X0213795Y0215901D01*
X0213795Y0217099D02*
X0212348Y0217099D01*
X0212348Y0218298D02*
X0213795Y0218298D01*
X0213795Y0219496D02*
X0212348Y0219496D01*
X0212348Y0220695D02*
X0213795Y0220695D01*
X0213795Y0221893D02*
X0212348Y0221893D01*
X0212348Y0223092D02*
X0213795Y0223092D01*
X0213795Y0224290D02*
X0212348Y0224290D01*
X0212348Y0225489D02*
X0213795Y0225489D01*
X0213795Y0226687D02*
X0212798Y0226687D01*
X0208748Y0225489D02*
X0207395Y0225489D01*
X0207395Y0226687D02*
X0208297Y0226687D01*
X0208748Y0224290D02*
X0207395Y0224290D01*
X0207395Y0223092D02*
X0208748Y0223092D01*
X0208748Y0221893D02*
X0207395Y0221893D01*
X0207395Y0220695D02*
X0208748Y0220695D01*
X0208748Y0219496D02*
X0207395Y0219496D01*
X0207395Y0218298D02*
X0208748Y0218298D01*
X0208748Y0217099D02*
X0207395Y0217099D01*
X0207395Y0215901D02*
X0208748Y0215901D01*
X0208748Y0214702D02*
X0207395Y0214702D01*
X0207395Y0213504D02*
X0208748Y0213504D01*
X0208748Y0212305D02*
X0207395Y0212305D01*
X0207395Y0211107D02*
X0208748Y0211107D01*
X0208748Y0209908D02*
X0207395Y0209908D01*
X0207395Y0208710D02*
X0208748Y0208710D01*
X0208748Y0207511D02*
X0207395Y0207511D01*
X0207395Y0206313D02*
X0208748Y0206313D01*
X0208748Y0205114D02*
X0207395Y0205114D01*
X0207395Y0203916D02*
X0208748Y0203916D01*
X0208748Y0202717D02*
X0207395Y0202717D01*
X0207395Y0201519D02*
X0208748Y0201519D01*
X0208748Y0200320D02*
X0207395Y0200320D01*
X0207395Y0199122D02*
X0208748Y0199122D01*
X0208748Y0197923D02*
X0207395Y0197923D01*
X0207395Y0196725D02*
X0208748Y0196725D01*
X0208748Y0195526D02*
X0207395Y0195526D01*
X0207395Y0194328D02*
X0208748Y0194328D01*
X0208748Y0193129D02*
X0207395Y0193129D01*
X0207395Y0191931D02*
X0208748Y0191931D01*
X0208748Y0190732D02*
X0207395Y0190732D01*
X0207672Y0189534D02*
X0208748Y0189534D01*
X0208748Y0188335D02*
X0208195Y0188335D01*
X0208079Y0187137D02*
X0208748Y0187137D01*
X0208748Y0185938D02*
X0207277Y0185938D01*
X0208748Y0184740D02*
X0202348Y0184740D01*
X0202348Y0185938D02*
X0203913Y0185938D01*
X0203111Y0187137D02*
X0202348Y0187137D01*
X0202348Y0188335D02*
X0202995Y0188335D01*
X0203519Y0189534D02*
X0202348Y0189534D01*
X0202348Y0190732D02*
X0203795Y0190732D01*
X0203795Y0191931D02*
X0202348Y0191931D01*
X0202348Y0193129D02*
X0203795Y0193129D01*
X0203795Y0194328D02*
X0202348Y0194328D01*
X0202348Y0195526D02*
X0203795Y0195526D01*
X0203795Y0196725D02*
X0202348Y0196725D01*
X0202348Y0197923D02*
X0203795Y0197923D01*
X0203795Y0199122D02*
X0202348Y0199122D01*
X0202348Y0200320D02*
X0203795Y0200320D01*
X0203795Y0201519D02*
X0202348Y0201519D01*
X0202348Y0202717D02*
X0203795Y0202717D01*
X0203795Y0203916D02*
X0202348Y0203916D01*
X0202348Y0205114D02*
X0203795Y0205114D01*
X0203795Y0206313D02*
X0202348Y0206313D01*
X0202348Y0207511D02*
X0203795Y0207511D01*
X0203795Y0208710D02*
X0202348Y0208710D01*
X0202348Y0209908D02*
X0203795Y0209908D01*
X0203795Y0211107D02*
X0202348Y0211107D01*
X0202348Y0212305D02*
X0203795Y0212305D01*
X0203795Y0213504D02*
X0202348Y0213504D01*
X0202348Y0214702D02*
X0203795Y0214702D01*
X0203795Y0215901D02*
X0202348Y0215901D01*
X0202348Y0217099D02*
X0203795Y0217099D01*
X0203795Y0218298D02*
X0202348Y0218298D01*
X0202348Y0219496D02*
X0203795Y0219496D01*
X0203795Y0220695D02*
X0202348Y0220695D01*
X0202348Y0221893D02*
X0203795Y0221893D01*
X0203795Y0223092D02*
X0202348Y0223092D01*
X0202348Y0224290D02*
X0203795Y0224290D01*
X0203795Y0225489D02*
X0202348Y0225489D01*
X0202798Y0226687D02*
X0203795Y0226687D01*
X0200548Y0230626D02*
X0200548Y0148933D01*
X0200548Y0044386D01*
X0197595Y0041433D01*
X0198748Y0051705D02*
X0166510Y0051705D01*
X0167483Y0052903D02*
X0198748Y0052903D01*
X0198748Y0054102D02*
X0167695Y0054102D01*
X0167343Y0055300D02*
X0198748Y0055300D01*
X0198748Y0056499D02*
X0165695Y0056499D01*
X0163876Y0057697D02*
X0198748Y0057697D01*
X0198748Y0058896D02*
X0162678Y0058896D01*
X0161895Y0060094D02*
X0198748Y0060094D01*
X0198748Y0061293D02*
X0161895Y0061293D01*
X0161895Y0062491D02*
X0198748Y0062491D01*
X0198748Y0063690D02*
X0161895Y0063690D01*
X0161895Y0064888D02*
X0198748Y0064888D01*
X0198748Y0066087D02*
X0161895Y0066087D01*
X0161895Y0067285D02*
X0198748Y0067285D01*
X0198748Y0068484D02*
X0161895Y0068484D01*
X0161895Y0069682D02*
X0198748Y0069682D01*
X0198748Y0070881D02*
X0161895Y0070881D01*
X0161895Y0072079D02*
X0198748Y0072079D01*
X0198748Y0073278D02*
X0161895Y0073278D01*
X0161895Y0074477D02*
X0198748Y0074477D01*
X0198748Y0075675D02*
X0161895Y0075675D01*
X0161895Y0076874D02*
X0198748Y0076874D01*
X0198748Y0078072D02*
X0161895Y0078072D01*
X0161895Y0079271D02*
X0198748Y0079271D01*
X0198748Y0080469D02*
X0161895Y0080469D01*
X0161895Y0081668D02*
X0198748Y0081668D01*
X0198748Y0082866D02*
X0161895Y0082866D01*
X0161895Y0084065D02*
X0198748Y0084065D01*
X0198748Y0085263D02*
X0161895Y0085263D01*
X0161895Y0086462D02*
X0198748Y0086462D01*
X0198748Y0087660D02*
X0161895Y0087660D01*
X0161895Y0088859D02*
X0198748Y0088859D01*
X0198748Y0090057D02*
X0161895Y0090057D01*
X0161895Y0091256D02*
X0198748Y0091256D01*
X0198748Y0092454D02*
X0161895Y0092454D01*
X0161895Y0093653D02*
X0198748Y0093653D01*
X0198748Y0094851D02*
X0161895Y0094851D01*
X0161895Y0096050D02*
X0198748Y0096050D01*
X0198748Y0097248D02*
X0161895Y0097248D01*
X0161895Y0098447D02*
X0198748Y0098447D01*
X0198748Y0099645D02*
X0161895Y0099645D01*
X0161895Y0100844D02*
X0175113Y0100844D01*
X0175524Y0100433D02*
X0179666Y0100433D01*
X0182595Y0103362D01*
X0182595Y0107504D01*
X0179666Y0110433D01*
X0175524Y0110433D01*
X0172595Y0107504D01*
X0172595Y0103362D01*
X0175524Y0100433D01*
X0173915Y0102042D02*
X0161895Y0102042D01*
X0161895Y0103241D02*
X0172716Y0103241D01*
X0172595Y0104439D02*
X0161895Y0104439D01*
X0161895Y0105638D02*
X0172595Y0105638D01*
X0172595Y0106836D02*
X0161895Y0106836D01*
X0161895Y0108035D02*
X0173126Y0108035D01*
X0174324Y0109233D02*
X0161895Y0109233D01*
X0161895Y0110432D02*
X0175523Y0110432D01*
X0179667Y0110432D02*
X0185523Y0110432D01*
X0185524Y0110433D02*
X0182595Y0107504D01*
X0182595Y0103362D01*
X0185524Y0100433D01*
X0189666Y0100433D01*
X0192595Y0103362D01*
X0192595Y0107504D01*
X0189666Y0110433D01*
X0185524Y0110433D01*
X0184324Y0109233D02*
X0180866Y0109233D01*
X0182064Y0108035D02*
X0183126Y0108035D01*
X0182595Y0106836D02*
X0182595Y0106836D01*
X0182595Y0105638D02*
X0182595Y0105638D01*
X0182595Y0104439D02*
X0182595Y0104439D01*
X0182474Y0103241D02*
X0182716Y0103241D01*
X0183915Y0102042D02*
X0181275Y0102042D01*
X0180077Y0100844D02*
X0185113Y0100844D01*
X0190077Y0100844D02*
X0198748Y0100844D01*
X0198748Y0102042D02*
X0191275Y0102042D01*
X0192474Y0103241D02*
X0198748Y0103241D01*
X0198748Y0104439D02*
X0192595Y0104439D01*
X0192595Y0105638D02*
X0198748Y0105638D01*
X0198748Y0106836D02*
X0192595Y0106836D01*
X0192064Y0108035D02*
X0198748Y0108035D01*
X0198748Y0109233D02*
X0190866Y0109233D01*
X0189667Y0110432D02*
X0198748Y0110432D01*
X0198748Y0111630D02*
X0161895Y0111630D01*
X0161895Y0112829D02*
X0198748Y0112829D01*
X0198748Y0114027D02*
X0161895Y0114027D01*
X0161895Y0115226D02*
X0198748Y0115226D01*
X0198748Y0116424D02*
X0161895Y0116424D01*
X0161895Y0117623D02*
X0198748Y0117623D01*
X0198748Y0118821D02*
X0161895Y0118821D01*
X0161895Y0120020D02*
X0198748Y0120020D01*
X0198748Y0121218D02*
X0161895Y0121218D01*
X0161895Y0122417D02*
X0198748Y0122417D01*
X0198748Y0123615D02*
X0190349Y0123615D01*
X0189666Y0122933D02*
X0192595Y0125862D01*
X0192595Y0130004D01*
X0189666Y0132933D01*
X0185524Y0132933D01*
X0182595Y0130004D01*
X0179666Y0132933D01*
X0175524Y0132933D01*
X0172595Y0130004D01*
X0172595Y0125862D01*
X0175524Y0122933D01*
X0179666Y0122933D01*
X0182595Y0125862D01*
X0182595Y0130004D01*
X0182595Y0125862D01*
X0185524Y0122933D01*
X0189666Y0122933D01*
X0191547Y0124814D02*
X0198748Y0124814D01*
X0198748Y0126012D02*
X0192595Y0126012D01*
X0192595Y0127211D02*
X0198748Y0127211D01*
X0198748Y0128410D02*
X0192595Y0128410D01*
X0192595Y0129608D02*
X0198748Y0129608D01*
X0198748Y0130807D02*
X0191793Y0130807D01*
X0190594Y0132005D02*
X0198748Y0132005D01*
X0198748Y0133204D02*
X0161911Y0133204D01*
X0161895Y0132005D02*
X0174596Y0132005D01*
X0173398Y0130807D02*
X0161895Y0130807D01*
X0161895Y0129608D02*
X0172595Y0129608D01*
X0172595Y0128410D02*
X0161895Y0128410D01*
X0161895Y0127211D02*
X0172595Y0127211D01*
X0172595Y0126012D02*
X0161895Y0126012D01*
X0161895Y0124814D02*
X0173643Y0124814D01*
X0174842Y0123615D02*
X0161895Y0123615D01*
X0158295Y0123615D02*
X0157395Y0123615D01*
X0157395Y0122417D02*
X0158295Y0122417D01*
X0158295Y0121218D02*
X0157395Y0121218D01*
X0157395Y0120020D02*
X0158295Y0120020D01*
X0158295Y0118821D02*
X0157395Y0118821D01*
X0157395Y0117623D02*
X0158295Y0117623D01*
X0158295Y0116424D02*
X0157395Y0116424D01*
X0157395Y0115226D02*
X0158295Y0115226D01*
X0158295Y0114027D02*
X0157395Y0114027D01*
X0157395Y0112829D02*
X0158295Y0112829D01*
X0158295Y0111630D02*
X0157395Y0111630D01*
X0157395Y0110432D02*
X0158295Y0110432D01*
X0158295Y0109233D02*
X0157395Y0109233D01*
X0157395Y0108035D02*
X0158295Y0108035D01*
X0158295Y0106836D02*
X0157395Y0106836D01*
X0157395Y0105638D02*
X0158295Y0105638D01*
X0158295Y0104439D02*
X0157395Y0104439D01*
X0157395Y0103241D02*
X0158295Y0103241D01*
X0158295Y0102042D02*
X0157395Y0102042D01*
X0157395Y0100844D02*
X0158295Y0100844D01*
X0158295Y0099645D02*
X0157395Y0099645D01*
X0157395Y0098447D02*
X0158295Y0098447D01*
X0158295Y0097248D02*
X0157395Y0097248D01*
X0157395Y0096050D02*
X0158295Y0096050D01*
X0158295Y0094851D02*
X0157395Y0094851D01*
X0157395Y0093653D02*
X0158295Y0093653D01*
X0158295Y0092454D02*
X0157395Y0092454D01*
X0157395Y0091256D02*
X0158295Y0091256D01*
X0158295Y0090057D02*
X0157395Y0090057D01*
X0157395Y0088859D02*
X0158295Y0088859D01*
X0158295Y0087660D02*
X0157395Y0087660D01*
X0157395Y0086462D02*
X0158295Y0086462D01*
X0158295Y0085263D02*
X0157395Y0085263D01*
X0157395Y0084065D02*
X0158295Y0084065D01*
X0158295Y0082866D02*
X0157395Y0082866D01*
X0157395Y0081668D02*
X0158295Y0081668D01*
X0158295Y0080469D02*
X0157395Y0080469D01*
X0157395Y0079271D02*
X0158295Y0079271D01*
X0158295Y0078072D02*
X0157395Y0078072D01*
X0157395Y0076874D02*
X0158295Y0076874D01*
X0158295Y0075675D02*
X0157395Y0075675D01*
X0157395Y0074477D02*
X0158295Y0074477D01*
X0158295Y0073278D02*
X0157395Y0073278D01*
X0157395Y0072079D02*
X0158295Y0072079D01*
X0158295Y0070881D02*
X0157395Y0070881D01*
X0157395Y0069682D02*
X0158295Y0069682D01*
X0158295Y0068484D02*
X0157395Y0068484D01*
X0157395Y0067285D02*
X0158295Y0067285D01*
X0158295Y0066087D02*
X0157395Y0066087D01*
X0157395Y0064888D02*
X0158295Y0064888D01*
X0158295Y0063690D02*
X0157395Y0063690D01*
X0157395Y0062491D02*
X0158295Y0062491D01*
X0158295Y0061293D02*
X0157395Y0061293D01*
X0157395Y0060094D02*
X0158295Y0060094D01*
X0158295Y0058896D02*
X0157395Y0058896D01*
X0156405Y0057697D02*
X0158785Y0057697D01*
X0159984Y0056499D02*
X0155206Y0056499D01*
X0154008Y0055300D02*
X0161182Y0055300D01*
X0162381Y0054102D02*
X0152809Y0054102D01*
X0152483Y0052903D02*
X0162707Y0052903D01*
X0163681Y0051705D02*
X0151510Y0051705D01*
X0150095Y0053933D02*
X0155595Y0059433D01*
X0155595Y0243933D01*
X0158095Y0246433D01*
X0267595Y0246433D01*
X0270548Y0243480D01*
X0270548Y0240626D01*
X0273760Y0237474D02*
X0277336Y0237474D01*
X0276733Y0238077D02*
X0277999Y0236811D01*
X0279653Y0236126D01*
X0281443Y0236126D01*
X0283097Y0236811D01*
X0284363Y0238077D01*
X0285048Y0239731D01*
X0285048Y0241521D01*
X0284363Y0243175D01*
X0283097Y0244441D01*
X0281443Y0245126D01*
X0279653Y0245126D01*
X0277999Y0244441D01*
X0276733Y0243175D01*
X0276048Y0241521D01*
X0276048Y0239731D01*
X0276733Y0238077D01*
X0276486Y0238673D02*
X0274610Y0238673D01*
X0275048Y0239871D02*
X0276048Y0239871D01*
X0276048Y0241070D02*
X0275048Y0241070D01*
X0274738Y0242268D02*
X0276357Y0242268D01*
X0277025Y0243467D02*
X0274071Y0243467D01*
X0272556Y0244665D02*
X0278540Y0244665D01*
X0282556Y0244665D02*
X0288540Y0244665D01*
X0287999Y0244441D02*
X0286733Y0243175D01*
X0286048Y0241521D01*
X0286048Y0239731D01*
X0286733Y0238077D01*
X0287999Y0236811D01*
X0289653Y0236126D01*
X0291443Y0236126D01*
X0293097Y0236811D01*
X0294363Y0238077D01*
X0295048Y0239731D01*
X0295048Y0241521D01*
X0294363Y0243175D01*
X0293097Y0244441D01*
X0291443Y0245126D01*
X0289653Y0245126D01*
X0287999Y0244441D01*
X0287025Y0243467D02*
X0284071Y0243467D01*
X0284738Y0242268D02*
X0286357Y0242268D01*
X0286048Y0241070D02*
X0285048Y0241070D01*
X0285048Y0239871D02*
X0286048Y0239871D01*
X0286486Y0238673D02*
X0284610Y0238673D01*
X0283760Y0237474D02*
X0287336Y0237474D01*
X0289292Y0236276D02*
X0281804Y0236276D01*
X0281443Y0235126D02*
X0279653Y0235126D01*
X0277999Y0234441D01*
X0276733Y0233175D01*
X0276048Y0231521D01*
X0276048Y0229731D01*
X0276733Y0228077D01*
X0277999Y0226811D01*
X0279653Y0226126D01*
X0280357Y0226126D01*
X0288295Y0218187D01*
X0289350Y0217133D01*
X0296850Y0217133D01*
X0302787Y0211196D01*
X0302595Y0211004D01*
X0299666Y0213933D01*
X0295524Y0213933D01*
X0292595Y0211004D01*
X0292595Y0206862D01*
X0289666Y0203933D01*
X0289395Y0203933D01*
X0289395Y0165669D01*
X0289715Y0165349D01*
X0290095Y0164430D01*
X0290095Y0163436D01*
X0289715Y0162517D01*
X0289011Y0161814D01*
X0288092Y0161433D01*
X0287098Y0161433D01*
X0286179Y0161814D01*
X0285476Y0162517D01*
X0285095Y0163436D01*
X0285095Y0164430D01*
X0285476Y0165349D01*
X0285795Y0165669D01*
X0285795Y0203933D01*
X0285524Y0203933D01*
X0282595Y0206862D01*
X0282595Y0211004D01*
X0285524Y0213933D01*
X0289666Y0213933D01*
X0292595Y0211004D01*
X0292595Y0206862D01*
X0295524Y0203933D01*
X0295795Y0203933D01*
X0295795Y0148187D01*
X0300095Y0143887D01*
X0300095Y0143436D01*
X0300476Y0142517D01*
X0301179Y0141814D01*
X0302098Y0141433D01*
X0303092Y0141433D01*
X0304011Y0141814D01*
X0304715Y0142517D01*
X0305095Y0143436D01*
X0305095Y0144430D01*
X0304715Y0145349D01*
X0304011Y0146052D01*
X0303092Y0146433D01*
X0302641Y0146433D01*
X0299395Y0149679D01*
X0299395Y0203933D01*
X0299666Y0203933D01*
X0302595Y0206862D01*
X0302595Y0211004D01*
X0302595Y0206862D01*
X0305524Y0203933D01*
X0309666Y0203933D01*
X0312595Y0206862D01*
X0312595Y0211004D01*
X0309666Y0213933D01*
X0305524Y0213933D01*
X0305332Y0213741D01*
X0298341Y0220733D01*
X0290841Y0220733D01*
X0283930Y0227644D01*
X0284363Y0228077D01*
X0285048Y0229731D01*
X0285048Y0231521D01*
X0284363Y0233175D01*
X0283097Y0234441D01*
X0281443Y0235126D01*
X0281561Y0235077D02*
X0288490Y0235077D01*
X0288667Y0235167D02*
X0287980Y0234817D01*
X0287356Y0234363D01*
X0286810Y0233818D01*
X0286357Y0233194D01*
X0286007Y0232507D01*
X0285769Y0231773D01*
X0285648Y0231012D01*
X0285648Y0230912D01*
X0290262Y0230912D01*
X0290262Y0235526D01*
X0290162Y0235526D01*
X0289400Y0235405D01*
X0288667Y0235167D01*
X0290262Y0235077D02*
X0290834Y0235077D01*
X0290834Y0235526D02*
X0290934Y0235526D01*
X0291695Y0235405D01*
X0292429Y0235167D01*
X0293116Y0234817D01*
X0293740Y0234363D01*
X0294285Y0233818D01*
X0294739Y0233194D01*
X0295089Y0232507D01*
X0295327Y0231773D01*
X0295448Y0231012D01*
X0295448Y0230912D01*
X0290834Y0230912D01*
X0290834Y0230340D01*
X0295448Y0230340D01*
X0295448Y0230240D01*
X0295327Y0229479D01*
X0295089Y0228745D01*
X0294739Y0228058D01*
X0294285Y0227434D01*
X0293740Y0226888D01*
X0293116Y0226435D01*
X0292429Y0226085D01*
X0291695Y0225847D01*
X0290934Y0225726D01*
X0290834Y0225726D01*
X0290834Y0230340D01*
X0290262Y0230340D01*
X0290262Y0225726D01*
X0290162Y0225726D01*
X0289400Y0225847D01*
X0288667Y0226085D01*
X0287980Y0226435D01*
X0287356Y0226888D01*
X0286810Y0227434D01*
X0286357Y0228058D01*
X0286007Y0228745D01*
X0285769Y0229479D01*
X0285648Y0230240D01*
X0285648Y0230340D01*
X0290262Y0230340D01*
X0290262Y0230912D01*
X0290834Y0230912D01*
X0290834Y0235526D01*
X0291804Y0236276D02*
X0302809Y0236276D01*
X0302809Y0237001D02*
X0302809Y0234251D01*
X0303862Y0231711D01*
X0305806Y0229766D01*
X0308346Y0228714D01*
X0311096Y0228714D01*
X0313636Y0229766D01*
X0315581Y0231711D01*
X0316633Y0234251D01*
X0316633Y0237001D01*
X0315581Y0239541D01*
X0313636Y0241486D01*
X0311096Y0242538D01*
X0308346Y0242538D01*
X0305806Y0241486D01*
X0303862Y0239541D01*
X0302809Y0237001D01*
X0303005Y0237474D02*
X0293760Y0237474D01*
X0294610Y0238673D02*
X0303502Y0238673D01*
X0304191Y0239871D02*
X0295048Y0239871D01*
X0295048Y0241070D02*
X0305390Y0241070D01*
X0307695Y0242268D02*
X0294738Y0242268D01*
X0294071Y0243467D02*
X0321233Y0243467D01*
X0321623Y0242268D02*
X0311747Y0242268D01*
X0314052Y0241070D02*
X0321982Y0241070D01*
X0322076Y0239871D02*
X0315251Y0239871D01*
X0315940Y0238673D02*
X0322101Y0238673D01*
X0322101Y0237474D02*
X0316437Y0237474D01*
X0316633Y0236276D02*
X0322101Y0236276D01*
X0322101Y0235077D02*
X0316633Y0235077D01*
X0316479Y0233879D02*
X0322101Y0233879D01*
X0322101Y0232680D02*
X0315982Y0232680D01*
X0315351Y0231481D02*
X0322101Y0231481D01*
X0322101Y0230283D02*
X0314153Y0230283D01*
X0311990Y0229084D02*
X0322101Y0229084D01*
X0322101Y0227886D02*
X0294614Y0227886D01*
X0295199Y0229084D02*
X0307452Y0229084D01*
X0305289Y0230283D02*
X0295448Y0230283D01*
X0295373Y0231481D02*
X0304091Y0231481D01*
X0303460Y0232680D02*
X0295001Y0232680D01*
X0294225Y0233879D02*
X0302964Y0233879D01*
X0302809Y0235077D02*
X0292605Y0235077D01*
X0290834Y0233879D02*
X0290262Y0233879D01*
X0290262Y0232680D02*
X0290834Y0232680D01*
X0290834Y0231481D02*
X0290262Y0231481D01*
X0290262Y0230283D02*
X0290834Y0230283D01*
X0290834Y0229084D02*
X0290262Y0229084D01*
X0290262Y0227886D02*
X0290834Y0227886D01*
X0290834Y0226687D02*
X0290262Y0226687D01*
X0287632Y0226687D02*
X0284886Y0226687D01*
X0284172Y0227886D02*
X0286482Y0227886D01*
X0285897Y0229084D02*
X0284780Y0229084D01*
X0285048Y0230283D02*
X0285648Y0230283D01*
X0285722Y0231481D02*
X0285048Y0231481D01*
X0284568Y0232680D02*
X0286095Y0232680D01*
X0286871Y0233879D02*
X0283659Y0233879D01*
X0279535Y0235077D02*
X0271561Y0235077D01*
X0271443Y0235126D02*
X0269653Y0235126D01*
X0267999Y0234441D01*
X0266733Y0233175D01*
X0266048Y0231521D01*
X0266048Y0229731D01*
X0266733Y0228077D01*
X0267999Y0226811D01*
X0268748Y0226501D01*
X0268748Y0212351D01*
X0267166Y0213933D01*
X0263024Y0213933D01*
X0260095Y0211004D01*
X0260095Y0206862D01*
X0260095Y0211004D01*
X0257166Y0213933D01*
X0256895Y0213933D01*
X0256895Y0215687D01*
X0262348Y0221140D01*
X0262348Y0226501D01*
X0263097Y0226811D01*
X0264363Y0228077D01*
X0265048Y0229731D01*
X0265048Y0231521D01*
X0264363Y0233175D01*
X0263097Y0234441D01*
X0261443Y0235126D01*
X0259653Y0235126D01*
X0257999Y0234441D01*
X0256733Y0233175D01*
X0256048Y0231521D01*
X0256048Y0229731D01*
X0256733Y0228077D01*
X0257999Y0226811D01*
X0258748Y0226501D01*
X0258748Y0222631D01*
X0253295Y0217179D01*
X0253295Y0213933D01*
X0253024Y0213933D01*
X0250095Y0211004D01*
X0250095Y0206862D01*
X0253024Y0203933D01*
X0257166Y0203933D01*
X0260095Y0206862D01*
X0263024Y0203933D01*
X0267166Y0203933D01*
X0268748Y0205515D01*
X0268748Y0142735D01*
X0295795Y0115687D01*
X0295795Y0082060D01*
X0295391Y0081656D01*
X0294995Y0080700D01*
X0294995Y0079666D01*
X0295391Y0078710D01*
X0296122Y0077979D01*
X0297078Y0077583D01*
X0298112Y0077583D01*
X0299068Y0077979D01*
X0299799Y0078710D01*
X0300195Y0079666D01*
X0300195Y0080700D01*
X0299799Y0081656D01*
X0299395Y0082060D01*
X0299395Y0117179D01*
X0298341Y0118233D01*
X0272348Y0144226D01*
X0272348Y0226501D01*
X0273097Y0226811D01*
X0274363Y0228077D01*
X0275048Y0229731D01*
X0275048Y0231521D01*
X0274363Y0233175D01*
X0273097Y0234441D01*
X0271443Y0235126D01*
X0271804Y0236276D02*
X0279292Y0236276D01*
X0277436Y0233879D02*
X0273659Y0233879D01*
X0274568Y0232680D02*
X0276528Y0232680D01*
X0276048Y0231481D02*
X0275048Y0231481D01*
X0275048Y0230283D02*
X0276048Y0230283D01*
X0276316Y0229084D02*
X0274780Y0229084D01*
X0274172Y0227886D02*
X0276924Y0227886D01*
X0278297Y0226687D02*
X0272798Y0226687D01*
X0272348Y0225489D02*
X0280994Y0225489D01*
X0282192Y0224290D02*
X0272348Y0224290D01*
X0272348Y0223092D02*
X0283391Y0223092D01*
X0284589Y0221893D02*
X0272348Y0221893D01*
X0272348Y0220695D02*
X0285788Y0220695D01*
X0286986Y0219496D02*
X0272348Y0219496D01*
X0272348Y0218298D02*
X0288185Y0218298D01*
X0290095Y0218933D02*
X0297595Y0218933D01*
X0307595Y0208933D01*
X0312595Y0208710D02*
X0322101Y0208710D01*
X0322101Y0209908D02*
X0312595Y0209908D01*
X0312492Y0211107D02*
X0322101Y0211107D01*
X0322101Y0212305D02*
X0311294Y0212305D01*
X0310095Y0213504D02*
X0322101Y0213504D01*
X0322101Y0214702D02*
X0304371Y0214702D01*
X0303173Y0215901D02*
X0322101Y0215901D01*
X0322101Y0217099D02*
X0301974Y0217099D01*
X0300776Y0218298D02*
X0322101Y0218298D01*
X0322101Y0219496D02*
X0299577Y0219496D01*
X0298379Y0220695D02*
X0322101Y0220695D01*
X0322101Y0221893D02*
X0289680Y0221893D01*
X0288482Y0223092D02*
X0322101Y0223092D01*
X0322101Y0224290D02*
X0287283Y0224290D01*
X0286085Y0225489D02*
X0322101Y0225489D01*
X0322101Y0226687D02*
X0293463Y0226687D01*
X0290095Y0218933D02*
X0280548Y0228480D01*
X0280548Y0230626D01*
X0270548Y0230626D02*
X0270548Y0143480D01*
X0297595Y0116433D01*
X0297595Y0080183D01*
X0295159Y0079271D02*
X0292766Y0079271D01*
X0293068Y0079572D02*
X0293595Y0080258D01*
X0294027Y0081008D01*
X0294358Y0081807D01*
X0294582Y0082643D01*
X0294673Y0083333D01*
X0288695Y0083333D01*
X0288695Y0077355D01*
X0289385Y0077446D01*
X0290221Y0077670D01*
X0291021Y0078001D01*
X0291770Y0078434D01*
X0292456Y0078960D01*
X0293068Y0079572D01*
X0293716Y0080469D02*
X0294995Y0080469D01*
X0295403Y0081668D02*
X0294301Y0081668D01*
X0294612Y0082866D02*
X0295795Y0082866D01*
X0295795Y0084065D02*
X0288695Y0084065D01*
X0288695Y0084533D02*
X0294673Y0084533D01*
X0294582Y0085223D01*
X0294358Y0086059D01*
X0294027Y0086858D01*
X0293595Y0087608D01*
X0293068Y0088294D01*
X0292456Y0088906D01*
X0291770Y0089433D01*
X0291021Y0089865D01*
X0290221Y0090196D01*
X0289385Y0090420D01*
X0288695Y0090511D01*
X0288695Y0084533D01*
X0287495Y0084533D01*
X0287495Y0083333D01*
X0281517Y0083333D01*
X0281608Y0082643D01*
X0281832Y0081807D01*
X0282163Y0081008D01*
X0282596Y0080258D01*
X0283122Y0079572D01*
X0283734Y0078960D01*
X0284421Y0078434D01*
X0285170Y0078001D01*
X0285969Y0077670D01*
X0286805Y0077446D01*
X0287495Y0077355D01*
X0287495Y0083333D01*
X0288695Y0083333D01*
X0288695Y0084533D01*
X0288695Y0085263D02*
X0287495Y0085263D01*
X0287495Y0084533D02*
X0287495Y0090511D01*
X0286805Y0090420D01*
X0285969Y0090196D01*
X0285170Y0089865D01*
X0284421Y0089433D01*
X0283734Y0088906D01*
X0283122Y0088294D01*
X0282596Y0087608D01*
X0282163Y0086858D01*
X0281832Y0086059D01*
X0281608Y0085223D01*
X0281517Y0084533D01*
X0287495Y0084533D01*
X0287495Y0084065D02*
X0268695Y0084065D01*
X0268695Y0084533D02*
X0274673Y0084533D01*
X0274582Y0085223D01*
X0274358Y0086059D01*
X0274027Y0086858D01*
X0273595Y0087608D01*
X0273068Y0088294D01*
X0272456Y0088906D01*
X0271770Y0089433D01*
X0271021Y0089865D01*
X0270221Y0090196D01*
X0269385Y0090420D01*
X0268695Y0090511D01*
X0268695Y0084533D01*
X0267495Y0084533D01*
X0267495Y0083333D01*
X0261517Y0083333D01*
X0261608Y0082643D01*
X0261832Y0081807D01*
X0262163Y0081008D01*
X0262596Y0080258D01*
X0263122Y0079572D01*
X0263734Y0078960D01*
X0264421Y0078434D01*
X0265170Y0078001D01*
X0265969Y0077670D01*
X0266805Y0077446D01*
X0267495Y0077355D01*
X0267495Y0083333D01*
X0268695Y0083333D01*
X0268695Y0077355D01*
X0269385Y0077446D01*
X0270221Y0077670D01*
X0271021Y0078001D01*
X0271770Y0078434D01*
X0272456Y0078960D01*
X0273068Y0079572D01*
X0273595Y0080258D01*
X0274027Y0081008D01*
X0274358Y0081807D01*
X0274582Y0082643D01*
X0274673Y0083333D01*
X0268695Y0083333D01*
X0268695Y0084533D01*
X0268695Y0085263D02*
X0267495Y0085263D01*
X0267495Y0084533D02*
X0267495Y0090511D01*
X0266805Y0090420D01*
X0265969Y0090196D01*
X0265170Y0089865D01*
X0264421Y0089433D01*
X0263734Y0088906D01*
X0263122Y0088294D01*
X0262596Y0087608D01*
X0262163Y0086858D01*
X0261832Y0086059D01*
X0261608Y0085223D01*
X0261517Y0084533D01*
X0267495Y0084533D01*
X0267495Y0084065D02*
X0249995Y0084065D01*
X0249995Y0085263D02*
X0261619Y0085263D01*
X0261999Y0086462D02*
X0249995Y0086462D01*
X0249995Y0087660D02*
X0262636Y0087660D01*
X0263687Y0088859D02*
X0249995Y0088859D01*
X0249995Y0090057D02*
X0265633Y0090057D01*
X0267495Y0090057D02*
X0268695Y0090057D01*
X0268695Y0088859D02*
X0267495Y0088859D01*
X0267495Y0087660D02*
X0268695Y0087660D01*
X0268695Y0086462D02*
X0267495Y0086462D01*
X0270557Y0090057D02*
X0285633Y0090057D01*
X0287495Y0090057D02*
X0288695Y0090057D01*
X0288695Y0088859D02*
X0287495Y0088859D01*
X0287495Y0087660D02*
X0288695Y0087660D01*
X0288695Y0086462D02*
X0287495Y0086462D01*
X0290557Y0090057D02*
X0295795Y0090057D01*
X0295795Y0088859D02*
X0292503Y0088859D01*
X0293554Y0087660D02*
X0295795Y0087660D01*
X0295795Y0086462D02*
X0294192Y0086462D01*
X0294572Y0085263D02*
X0295795Y0085263D01*
X0299395Y0085263D02*
X0322101Y0085263D01*
X0322101Y0084065D02*
X0299395Y0084065D01*
X0299395Y0082866D02*
X0322101Y0082866D01*
X0322101Y0081668D02*
X0299788Y0081668D01*
X0300195Y0080469D02*
X0322101Y0080469D01*
X0322101Y0079271D02*
X0300031Y0079271D01*
X0299161Y0078072D02*
X0322101Y0078072D01*
X0322101Y0076874D02*
X0283588Y0076874D01*
X0283351Y0077445D02*
X0281607Y0079189D01*
X0279328Y0080133D01*
X0276862Y0080133D01*
X0274583Y0079189D01*
X0272839Y0077445D01*
X0271895Y0075166D01*
X0271895Y0072700D01*
X0272839Y0070421D01*
X0274583Y0068677D01*
X0276862Y0067733D01*
X0279328Y0067733D01*
X0281607Y0068677D01*
X0283351Y0070421D01*
X0284295Y0072700D01*
X0284295Y0075166D01*
X0283351Y0077445D01*
X0282724Y0078072D02*
X0285047Y0078072D01*
X0283424Y0079271D02*
X0281411Y0079271D01*
X0282474Y0080469D02*
X0273716Y0080469D01*
X0274301Y0081668D02*
X0281890Y0081668D01*
X0281579Y0082866D02*
X0274612Y0082866D01*
X0274572Y0085263D02*
X0281619Y0085263D01*
X0281999Y0086462D02*
X0274192Y0086462D01*
X0273554Y0087660D02*
X0282636Y0087660D01*
X0283687Y0088859D02*
X0272503Y0088859D01*
X0268695Y0082866D02*
X0267495Y0082866D01*
X0267495Y0081668D02*
X0268695Y0081668D01*
X0268695Y0080469D02*
X0267495Y0080469D01*
X0267495Y0079271D02*
X0268695Y0079271D01*
X0268695Y0078072D02*
X0267495Y0078072D01*
X0265047Y0078072D02*
X0249995Y0078072D01*
X0249995Y0076874D02*
X0272602Y0076874D01*
X0272106Y0075675D02*
X0249995Y0075675D01*
X0249995Y0074477D02*
X0271895Y0074477D01*
X0271895Y0073278D02*
X0249995Y0073278D01*
X0249995Y0072079D02*
X0272152Y0072079D01*
X0272649Y0070881D02*
X0249995Y0070881D01*
X0249995Y0069682D02*
X0264853Y0069682D01*
X0265170Y0069865D02*
X0264421Y0069433D01*
X0263734Y0068906D01*
X0263122Y0068294D01*
X0262596Y0067608D01*
X0262163Y0066858D01*
X0261832Y0066059D01*
X0261608Y0065223D01*
X0261517Y0064533D01*
X0267495Y0064533D01*
X0267495Y0063333D01*
X0261517Y0063333D01*
X0261608Y0062643D01*
X0261832Y0061807D01*
X0262163Y0061008D01*
X0262596Y0060258D01*
X0263122Y0059572D01*
X0263734Y0058960D01*
X0264421Y0058434D01*
X0265170Y0058001D01*
X0265969Y0057670D01*
X0266805Y0057446D01*
X0267495Y0057355D01*
X0267495Y0063333D01*
X0268695Y0063333D01*
X0268695Y0057355D01*
X0269385Y0057446D01*
X0270221Y0057670D01*
X0271021Y0058001D01*
X0271770Y0058434D01*
X0272456Y0058960D01*
X0273068Y0059572D01*
X0273595Y0060258D01*
X0274027Y0061008D01*
X0274358Y0061807D01*
X0274582Y0062643D01*
X0274673Y0063333D01*
X0268695Y0063333D01*
X0268695Y0064533D01*
X0267495Y0064533D01*
X0267495Y0070511D01*
X0266805Y0070420D01*
X0265969Y0070196D01*
X0265170Y0069865D01*
X0263312Y0068484D02*
X0249995Y0068484D01*
X0249995Y0067285D02*
X0262410Y0067285D01*
X0261844Y0066087D02*
X0249995Y0066087D01*
X0249995Y0064888D02*
X0261564Y0064888D01*
X0261649Y0062491D02*
X0249995Y0062491D01*
X0249995Y0061293D02*
X0262045Y0061293D01*
X0262722Y0060094D02*
X0249995Y0060094D01*
X0249995Y0058896D02*
X0263818Y0058896D01*
X0265903Y0057697D02*
X0249995Y0057697D01*
X0249995Y0056499D02*
X0322101Y0056499D01*
X0322101Y0057697D02*
X0290287Y0057697D01*
X0290221Y0057670D02*
X0291021Y0058001D01*
X0291770Y0058434D01*
X0292456Y0058960D01*
X0293068Y0059572D01*
X0293595Y0060258D01*
X0294027Y0061008D01*
X0294358Y0061807D01*
X0294582Y0062643D01*
X0294673Y0063333D01*
X0288695Y0063333D01*
X0288695Y0057355D01*
X0289385Y0057446D01*
X0290221Y0057670D01*
X0288695Y0057697D02*
X0287495Y0057697D01*
X0287495Y0057355D02*
X0287495Y0063333D01*
X0281517Y0063333D01*
X0281608Y0062643D01*
X0281832Y0061807D01*
X0282163Y0061008D01*
X0282596Y0060258D01*
X0283122Y0059572D01*
X0283734Y0058960D01*
X0284421Y0058434D01*
X0285170Y0058001D01*
X0285969Y0057670D01*
X0286805Y0057446D01*
X0287495Y0057355D01*
X0287495Y0058896D02*
X0288695Y0058896D01*
X0288695Y0060094D02*
X0287495Y0060094D01*
X0287495Y0061293D02*
X0288695Y0061293D01*
X0288695Y0062491D02*
X0287495Y0062491D01*
X0287495Y0063333D02*
X0288695Y0063333D01*
X0288695Y0064533D01*
X0287495Y0064533D01*
X0287495Y0063333D01*
X0287495Y0063690D02*
X0268695Y0063690D01*
X0268695Y0064533D02*
X0274673Y0064533D01*
X0274582Y0065223D01*
X0274358Y0066059D01*
X0274027Y0066858D01*
X0273595Y0067608D01*
X0273068Y0068294D01*
X0272456Y0068906D01*
X0271770Y0069433D01*
X0271021Y0069865D01*
X0270221Y0070196D01*
X0269385Y0070420D01*
X0268695Y0070511D01*
X0268695Y0064533D01*
X0268695Y0064888D02*
X0267495Y0064888D01*
X0267495Y0063690D02*
X0249995Y0063690D01*
X0249995Y0055300D02*
X0322101Y0055300D01*
X0322101Y0054102D02*
X0249995Y0054102D01*
X0249995Y0052903D02*
X0322101Y0052903D01*
X0322101Y0051705D02*
X0280556Y0051705D01*
X0280191Y0052070D02*
X0278831Y0052633D01*
X0277359Y0052633D01*
X0275999Y0052070D01*
X0274958Y0051029D01*
X0274395Y0049669D01*
X0274395Y0048197D01*
X0274694Y0047476D01*
X0274645Y0047427D01*
X0274645Y0038697D01*
X0275480Y0037862D01*
X0280710Y0037862D01*
X0281545Y0038697D01*
X0281545Y0047427D01*
X0281496Y0047476D01*
X0281795Y0048197D01*
X0281795Y0049669D01*
X0281232Y0051029D01*
X0280191Y0052070D01*
X0281448Y0050506D02*
X0322101Y0050506D01*
X0322101Y0049308D02*
X0311860Y0049308D01*
X0311096Y0049624D02*
X0313636Y0048572D01*
X0315581Y0046628D01*
X0316633Y0044087D01*
X0316633Y0041338D01*
X0315581Y0038797D01*
X0313636Y0036853D01*
X0311096Y0035801D01*
X0308346Y0035801D01*
X0305806Y0036853D01*
X0303862Y0038797D01*
X0302809Y0041338D01*
X0302809Y0044087D01*
X0303862Y0046628D01*
X0305806Y0048572D01*
X0308346Y0049624D01*
X0311096Y0049624D01*
X0314099Y0048109D02*
X0322101Y0048109D01*
X0322101Y0046911D02*
X0315298Y0046911D01*
X0315960Y0045712D02*
X0322101Y0045712D01*
X0322101Y0044514D02*
X0316456Y0044514D01*
X0316633Y0043315D02*
X0322101Y0043315D01*
X0322101Y0042117D02*
X0316633Y0042117D01*
X0316459Y0040918D02*
X0322101Y0040918D01*
X0322020Y0039720D02*
X0315963Y0039720D01*
X0315304Y0038521D02*
X0321779Y0038521D01*
X0321390Y0037323D02*
X0314106Y0037323D01*
X0311877Y0036124D02*
X0321001Y0036124D01*
X0320173Y0034926D02*
X0292295Y0034926D01*
X0292295Y0036124D02*
X0307566Y0036124D01*
X0305336Y0037323D02*
X0292295Y0037323D01*
X0292295Y0038521D02*
X0304138Y0038521D01*
X0303480Y0039720D02*
X0292295Y0039720D01*
X0292295Y0040918D02*
X0302983Y0040918D01*
X0302809Y0042117D02*
X0292295Y0042117D01*
X0292295Y0043315D02*
X0302809Y0043315D01*
X0302986Y0044514D02*
X0292295Y0044514D01*
X0292295Y0045712D02*
X0303482Y0045712D01*
X0304145Y0046911D02*
X0292295Y0046911D01*
X0283895Y0046911D02*
X0281545Y0046911D01*
X0281545Y0045712D02*
X0283895Y0045712D01*
X0283895Y0044514D02*
X0281545Y0044514D01*
X0281545Y0043315D02*
X0283895Y0043315D01*
X0283895Y0042117D02*
X0281545Y0042117D01*
X0281545Y0040918D02*
X0283895Y0040918D01*
X0283895Y0039720D02*
X0281545Y0039720D01*
X0281370Y0038521D02*
X0283895Y0038521D01*
X0283895Y0037323D02*
X0272295Y0037323D01*
X0272295Y0038521D02*
X0274821Y0038521D01*
X0274645Y0039720D02*
X0272295Y0039720D01*
X0272295Y0040918D02*
X0274645Y0040918D01*
X0274645Y0042117D02*
X0272295Y0042117D01*
X0272295Y0043315D02*
X0274645Y0043315D01*
X0274645Y0044514D02*
X0272295Y0044514D01*
X0272295Y0045712D02*
X0274645Y0045712D01*
X0274645Y0046911D02*
X0272295Y0046911D01*
X0274432Y0048109D02*
X0249995Y0048109D01*
X0249995Y0046911D02*
X0263895Y0046911D01*
X0263895Y0045712D02*
X0249995Y0045712D01*
X0249995Y0044514D02*
X0263895Y0044514D01*
X0263895Y0043315D02*
X0249995Y0043315D01*
X0249550Y0042117D02*
X0263895Y0042117D01*
X0263895Y0040918D02*
X0248673Y0040918D01*
X0249995Y0049308D02*
X0274395Y0049308D01*
X0274742Y0050506D02*
X0249995Y0050506D01*
X0249995Y0051705D02*
X0275634Y0051705D01*
X0278095Y0048933D02*
X0278095Y0043062D01*
X0281759Y0048109D02*
X0305343Y0048109D01*
X0307582Y0049308D02*
X0281795Y0049308D01*
X0285903Y0057697D02*
X0270287Y0057697D01*
X0268695Y0057697D02*
X0267495Y0057697D01*
X0267495Y0058896D02*
X0268695Y0058896D01*
X0268695Y0060094D02*
X0267495Y0060094D01*
X0267495Y0061293D02*
X0268695Y0061293D01*
X0268695Y0062491D02*
X0267495Y0062491D01*
X0272372Y0058896D02*
X0283818Y0058896D01*
X0282722Y0060094D02*
X0273469Y0060094D01*
X0274145Y0061293D02*
X0282045Y0061293D01*
X0281649Y0062491D02*
X0274542Y0062491D01*
X0274626Y0064888D02*
X0281564Y0064888D01*
X0281608Y0065223D02*
X0281517Y0064533D01*
X0287495Y0064533D01*
X0287495Y0070511D01*
X0286805Y0070420D01*
X0285969Y0070196D01*
X0285170Y0069865D01*
X0284421Y0069433D01*
X0283734Y0068906D01*
X0283122Y0068294D01*
X0282596Y0067608D01*
X0282163Y0066858D01*
X0281832Y0066059D01*
X0281608Y0065223D01*
X0281844Y0066087D02*
X0274347Y0066087D01*
X0273781Y0067285D02*
X0282410Y0067285D01*
X0283312Y0068484D02*
X0281141Y0068484D01*
X0282613Y0069682D02*
X0284853Y0069682D01*
X0283542Y0070881D02*
X0322101Y0070881D01*
X0322101Y0072079D02*
X0284038Y0072079D01*
X0284295Y0073278D02*
X0322101Y0073278D01*
X0322101Y0074477D02*
X0284295Y0074477D01*
X0284084Y0075675D02*
X0322101Y0075675D01*
X0322101Y0069682D02*
X0291337Y0069682D01*
X0291021Y0069865D02*
X0290221Y0070196D01*
X0289385Y0070420D01*
X0288695Y0070511D01*
X0288695Y0064533D01*
X0294673Y0064533D01*
X0294582Y0065223D01*
X0294358Y0066059D01*
X0294027Y0066858D01*
X0293595Y0067608D01*
X0293068Y0068294D01*
X0292456Y0068906D01*
X0291770Y0069433D01*
X0291021Y0069865D01*
X0292878Y0068484D02*
X0322101Y0068484D01*
X0322101Y0067285D02*
X0293781Y0067285D01*
X0294347Y0066087D02*
X0322101Y0066087D01*
X0322101Y0064888D02*
X0294626Y0064888D01*
X0294542Y0062491D02*
X0322101Y0062491D01*
X0322101Y0061293D02*
X0294145Y0061293D01*
X0293469Y0060094D02*
X0322101Y0060094D01*
X0322101Y0058896D02*
X0292372Y0058896D01*
X0288695Y0063690D02*
X0322101Y0063690D01*
X0296029Y0078072D02*
X0291144Y0078072D01*
X0288695Y0078072D02*
X0287495Y0078072D01*
X0287495Y0079271D02*
X0288695Y0079271D01*
X0288695Y0080469D02*
X0287495Y0080469D01*
X0287495Y0081668D02*
X0288695Y0081668D01*
X0288695Y0082866D02*
X0287495Y0082866D01*
X0299395Y0086462D02*
X0322101Y0086462D01*
X0322101Y0087660D02*
X0299395Y0087660D01*
X0299395Y0088859D02*
X0322101Y0088859D01*
X0322101Y0090057D02*
X0299395Y0090057D01*
X0299395Y0091256D02*
X0322101Y0091256D01*
X0322101Y0092454D02*
X0299395Y0092454D01*
X0299395Y0093653D02*
X0322101Y0093653D01*
X0322101Y0094851D02*
X0299395Y0094851D01*
X0299395Y0096050D02*
X0322101Y0096050D01*
X0322101Y0097248D02*
X0299395Y0097248D01*
X0299395Y0098447D02*
X0322101Y0098447D01*
X0322101Y0099645D02*
X0299395Y0099645D01*
X0299395Y0100844D02*
X0322101Y0100844D01*
X0322101Y0102042D02*
X0299395Y0102042D01*
X0299395Y0103241D02*
X0322101Y0103241D01*
X0322101Y0104439D02*
X0299395Y0104439D01*
X0299395Y0105638D02*
X0322101Y0105638D01*
X0322101Y0106836D02*
X0299395Y0106836D01*
X0299395Y0108035D02*
X0322101Y0108035D01*
X0322101Y0109233D02*
X0299395Y0109233D01*
X0299395Y0110432D02*
X0322101Y0110432D01*
X0322101Y0111630D02*
X0299395Y0111630D01*
X0299395Y0112829D02*
X0322101Y0112829D01*
X0322101Y0114027D02*
X0299395Y0114027D01*
X0299395Y0115226D02*
X0322101Y0115226D01*
X0322101Y0116424D02*
X0299395Y0116424D01*
X0298951Y0117623D02*
X0322101Y0117623D01*
X0322101Y0118821D02*
X0297752Y0118821D01*
X0296554Y0120020D02*
X0322101Y0120020D01*
X0322101Y0121218D02*
X0295355Y0121218D01*
X0294157Y0122417D02*
X0322101Y0122417D01*
X0322101Y0123615D02*
X0292958Y0123615D01*
X0291760Y0124814D02*
X0322101Y0124814D01*
X0322101Y0126012D02*
X0290561Y0126012D01*
X0289363Y0127211D02*
X0322101Y0127211D01*
X0322101Y0128410D02*
X0288164Y0128410D01*
X0286966Y0129608D02*
X0322101Y0129608D01*
X0322101Y0130807D02*
X0285767Y0130807D01*
X0284569Y0132005D02*
X0300846Y0132005D01*
X0300718Y0132133D02*
X0301122Y0131729D01*
X0302078Y0131333D01*
X0303112Y0131333D01*
X0304068Y0131729D01*
X0304799Y0132460D01*
X0305195Y0133416D01*
X0305195Y0134450D01*
X0304799Y0135406D01*
X0304068Y0136137D01*
X0303112Y0136533D01*
X0302078Y0136533D01*
X0301122Y0136137D01*
X0300718Y0135733D01*
X0293341Y0135733D01*
X0290195Y0138879D01*
X0290195Y0139450D01*
X0289799Y0140406D01*
X0289068Y0141137D01*
X0288112Y0141533D01*
X0287078Y0141533D01*
X0286122Y0141137D01*
X0285391Y0140406D01*
X0284995Y0139450D01*
X0284995Y0138416D01*
X0285391Y0137460D01*
X0286122Y0136729D01*
X0287078Y0136333D01*
X0287650Y0136333D01*
X0291850Y0132133D01*
X0300718Y0132133D01*
X0302595Y0133933D02*
X0292595Y0133933D01*
X0287595Y0138933D01*
X0285168Y0137998D02*
X0278576Y0137998D01*
X0277378Y0139196D02*
X0284995Y0139196D01*
X0285386Y0140395D02*
X0276179Y0140395D01*
X0274981Y0141593D02*
X0301711Y0141593D01*
X0303479Y0141593D02*
X0322101Y0141593D01*
X0322101Y0140395D02*
X0289804Y0140395D01*
X0290195Y0139196D02*
X0322101Y0139196D01*
X0322101Y0137998D02*
X0291076Y0137998D01*
X0292275Y0136799D02*
X0322101Y0136799D01*
X0322101Y0135601D02*
X0304605Y0135601D01*
X0305195Y0134402D02*
X0322101Y0134402D01*
X0322101Y0133204D02*
X0305107Y0133204D01*
X0304344Y0132005D02*
X0322101Y0132005D01*
X0322101Y0142792D02*
X0304828Y0142792D01*
X0305095Y0143990D02*
X0322101Y0143990D01*
X0322101Y0145189D02*
X0304781Y0145189D01*
X0303203Y0146387D02*
X0322101Y0146387D01*
X0322101Y0147586D02*
X0301488Y0147586D01*
X0300290Y0148784D02*
X0322101Y0148784D01*
X0322101Y0149983D02*
X0299395Y0149983D01*
X0299395Y0151181D02*
X0322101Y0151181D01*
X0322101Y0152380D02*
X0299395Y0152380D01*
X0299395Y0153578D02*
X0322101Y0153578D01*
X0322101Y0154777D02*
X0299395Y0154777D01*
X0299395Y0155975D02*
X0322101Y0155975D01*
X0322101Y0157174D02*
X0299395Y0157174D01*
X0299395Y0158372D02*
X0322101Y0158372D01*
X0322101Y0159571D02*
X0299395Y0159571D01*
X0299395Y0160769D02*
X0322101Y0160769D01*
X0322101Y0161968D02*
X0299395Y0161968D01*
X0299395Y0163166D02*
X0322101Y0163166D01*
X0322101Y0164365D02*
X0299395Y0164365D01*
X0299395Y0165563D02*
X0322101Y0165563D01*
X0322101Y0166762D02*
X0299395Y0166762D01*
X0299395Y0167960D02*
X0322101Y0167960D01*
X0322101Y0169159D02*
X0299395Y0169159D01*
X0299395Y0170357D02*
X0322101Y0170357D01*
X0322101Y0171556D02*
X0299395Y0171556D01*
X0299395Y0172754D02*
X0322101Y0172754D01*
X0322101Y0173953D02*
X0299395Y0173953D01*
X0299395Y0175151D02*
X0322101Y0175151D01*
X0322101Y0176350D02*
X0299395Y0176350D01*
X0299395Y0177548D02*
X0322101Y0177548D01*
X0322101Y0178747D02*
X0299395Y0178747D01*
X0299395Y0179945D02*
X0322101Y0179945D01*
X0322101Y0181144D02*
X0299395Y0181144D01*
X0299395Y0182343D02*
X0322101Y0182343D01*
X0322101Y0183541D02*
X0299395Y0183541D01*
X0299395Y0184740D02*
X0322101Y0184740D01*
X0322101Y0185938D02*
X0299395Y0185938D01*
X0299395Y0187137D02*
X0322101Y0187137D01*
X0322101Y0188335D02*
X0299395Y0188335D01*
X0299395Y0189534D02*
X0322101Y0189534D01*
X0322101Y0190732D02*
X0299395Y0190732D01*
X0299395Y0191931D02*
X0322101Y0191931D01*
X0322101Y0193129D02*
X0299395Y0193129D01*
X0299395Y0194328D02*
X0322101Y0194328D01*
X0322101Y0195526D02*
X0299395Y0195526D01*
X0299395Y0196725D02*
X0322101Y0196725D01*
X0322101Y0197923D02*
X0299395Y0197923D01*
X0299395Y0199122D02*
X0322101Y0199122D01*
X0322101Y0200320D02*
X0299395Y0200320D01*
X0299395Y0201519D02*
X0322101Y0201519D01*
X0322101Y0202717D02*
X0299395Y0202717D01*
X0299395Y0203916D02*
X0322101Y0203916D01*
X0322101Y0205114D02*
X0310847Y0205114D01*
X0312046Y0206313D02*
X0322101Y0206313D01*
X0322101Y0207511D02*
X0312595Y0207511D01*
X0304343Y0205114D02*
X0300847Y0205114D01*
X0302046Y0206313D02*
X0303144Y0206313D01*
X0302595Y0207511D02*
X0302595Y0207511D01*
X0302595Y0208710D02*
X0302595Y0208710D01*
X0302595Y0209908D02*
X0302595Y0209908D01*
X0302492Y0211107D02*
X0302698Y0211107D01*
X0301677Y0212305D02*
X0301294Y0212305D01*
X0300479Y0213504D02*
X0300095Y0213504D01*
X0299280Y0214702D02*
X0272348Y0214702D01*
X0272348Y0213504D02*
X0285095Y0213504D01*
X0283896Y0212305D02*
X0272348Y0212305D01*
X0272348Y0211107D02*
X0282698Y0211107D01*
X0282595Y0209908D02*
X0272348Y0209908D01*
X0272348Y0208710D02*
X0282595Y0208710D01*
X0282595Y0207511D02*
X0272348Y0207511D01*
X0272348Y0206313D02*
X0283144Y0206313D01*
X0284343Y0205114D02*
X0272348Y0205114D01*
X0272348Y0203916D02*
X0285795Y0203916D01*
X0285795Y0202717D02*
X0272348Y0202717D01*
X0272348Y0201519D02*
X0285795Y0201519D01*
X0285795Y0200320D02*
X0272348Y0200320D01*
X0272348Y0199122D02*
X0285795Y0199122D01*
X0285795Y0197923D02*
X0272348Y0197923D01*
X0272348Y0196725D02*
X0285795Y0196725D01*
X0285795Y0195526D02*
X0272348Y0195526D01*
X0272348Y0194328D02*
X0285795Y0194328D01*
X0285795Y0193129D02*
X0272348Y0193129D01*
X0272348Y0191931D02*
X0285795Y0191931D01*
X0285795Y0190732D02*
X0272348Y0190732D01*
X0272348Y0189534D02*
X0285795Y0189534D01*
X0285795Y0188335D02*
X0272348Y0188335D01*
X0272348Y0187137D02*
X0285795Y0187137D01*
X0285795Y0185938D02*
X0272348Y0185938D01*
X0272348Y0184740D02*
X0285795Y0184740D01*
X0285795Y0183541D02*
X0272348Y0183541D01*
X0272348Y0182343D02*
X0285795Y0182343D01*
X0285795Y0181144D02*
X0272348Y0181144D01*
X0272348Y0179945D02*
X0285795Y0179945D01*
X0285795Y0178747D02*
X0272348Y0178747D01*
X0272348Y0177548D02*
X0285795Y0177548D01*
X0285795Y0176350D02*
X0272348Y0176350D01*
X0272348Y0175151D02*
X0285795Y0175151D01*
X0285795Y0173953D02*
X0272348Y0173953D01*
X0272348Y0172754D02*
X0285795Y0172754D01*
X0285795Y0171556D02*
X0272348Y0171556D01*
X0272348Y0170357D02*
X0285795Y0170357D01*
X0285795Y0169159D02*
X0272348Y0169159D01*
X0272348Y0167960D02*
X0285795Y0167960D01*
X0285795Y0166762D02*
X0272348Y0166762D01*
X0272348Y0165563D02*
X0285690Y0165563D01*
X0285095Y0164365D02*
X0272348Y0164365D01*
X0272348Y0163166D02*
X0285207Y0163166D01*
X0286025Y0161968D02*
X0272348Y0161968D01*
X0272348Y0160769D02*
X0295795Y0160769D01*
X0295795Y0159571D02*
X0272348Y0159571D01*
X0272348Y0158372D02*
X0295795Y0158372D01*
X0295795Y0157174D02*
X0272348Y0157174D01*
X0272348Y0155975D02*
X0295795Y0155975D01*
X0295795Y0154777D02*
X0272348Y0154777D01*
X0272348Y0153578D02*
X0295795Y0153578D01*
X0295795Y0152380D02*
X0272348Y0152380D01*
X0272348Y0151181D02*
X0295795Y0151181D01*
X0295795Y0149983D02*
X0272348Y0149983D01*
X0272348Y0148784D02*
X0295795Y0148784D01*
X0296397Y0147586D02*
X0272348Y0147586D01*
X0272348Y0146387D02*
X0297595Y0146387D01*
X0298794Y0145189D02*
X0272348Y0145189D01*
X0272584Y0143990D02*
X0299992Y0143990D01*
X0300362Y0142792D02*
X0273782Y0142792D01*
X0271088Y0140395D02*
X0234395Y0140395D01*
X0234395Y0141593D02*
X0269889Y0141593D01*
X0268748Y0142792D02*
X0234395Y0142792D01*
X0234395Y0143990D02*
X0268748Y0143990D01*
X0268748Y0145189D02*
X0234395Y0145189D01*
X0234395Y0146387D02*
X0268748Y0146387D01*
X0268748Y0147586D02*
X0234395Y0147586D01*
X0234395Y0148784D02*
X0268748Y0148784D01*
X0268748Y0149983D02*
X0234395Y0149983D01*
X0234395Y0151181D02*
X0268748Y0151181D01*
X0268748Y0152380D02*
X0234395Y0152380D01*
X0234395Y0153578D02*
X0268748Y0153578D01*
X0268748Y0154777D02*
X0234395Y0154777D01*
X0234395Y0155975D02*
X0268748Y0155975D01*
X0268748Y0157174D02*
X0234395Y0157174D01*
X0234395Y0158372D02*
X0268748Y0158372D01*
X0268748Y0159571D02*
X0234395Y0159571D01*
X0234395Y0160769D02*
X0268748Y0160769D01*
X0268748Y0161968D02*
X0234395Y0161968D01*
X0234395Y0163166D02*
X0268748Y0163166D01*
X0268748Y0164365D02*
X0234395Y0164365D01*
X0234395Y0165563D02*
X0268748Y0165563D01*
X0268748Y0166762D02*
X0234395Y0166762D01*
X0234395Y0167960D02*
X0268748Y0167960D01*
X0268748Y0169159D02*
X0234395Y0169159D01*
X0234395Y0170357D02*
X0268748Y0170357D01*
X0268748Y0171556D02*
X0234395Y0171556D01*
X0234395Y0172754D02*
X0268748Y0172754D01*
X0268748Y0173953D02*
X0234395Y0173953D01*
X0234395Y0175151D02*
X0268748Y0175151D01*
X0268748Y0176350D02*
X0234395Y0176350D01*
X0234395Y0177548D02*
X0268748Y0177548D01*
X0268748Y0178747D02*
X0234395Y0178747D01*
X0234395Y0179945D02*
X0268748Y0179945D01*
X0268748Y0181144D02*
X0234395Y0181144D01*
X0234395Y0182343D02*
X0268748Y0182343D01*
X0268748Y0183541D02*
X0234395Y0183541D01*
X0234395Y0184740D02*
X0268748Y0184740D01*
X0268748Y0185938D02*
X0234395Y0185938D01*
X0234395Y0187137D02*
X0268748Y0187137D01*
X0268748Y0188335D02*
X0234395Y0188335D01*
X0234395Y0189534D02*
X0268748Y0189534D01*
X0268748Y0190732D02*
X0234395Y0190732D01*
X0234395Y0191931D02*
X0268748Y0191931D01*
X0268748Y0193129D02*
X0234395Y0193129D01*
X0234395Y0194328D02*
X0268748Y0194328D01*
X0268748Y0195526D02*
X0234395Y0195526D01*
X0234395Y0196725D02*
X0268748Y0196725D01*
X0268748Y0197923D02*
X0234395Y0197923D01*
X0234395Y0199122D02*
X0268748Y0199122D01*
X0268748Y0200320D02*
X0234395Y0200320D01*
X0234395Y0201519D02*
X0268748Y0201519D01*
X0268748Y0202717D02*
X0234395Y0202717D01*
X0234395Y0203916D02*
X0268748Y0203916D01*
X0268748Y0205114D02*
X0268347Y0205114D01*
X0261843Y0205114D02*
X0258347Y0205114D01*
X0259546Y0206313D02*
X0260644Y0206313D01*
X0260095Y0207511D02*
X0260095Y0207511D01*
X0260095Y0208710D02*
X0260095Y0208710D01*
X0260095Y0209908D02*
X0260095Y0209908D01*
X0259992Y0211107D02*
X0260198Y0211107D01*
X0261396Y0212305D02*
X0258794Y0212305D01*
X0257595Y0213504D02*
X0262595Y0213504D01*
X0267595Y0213504D02*
X0268748Y0213504D01*
X0268748Y0214702D02*
X0256895Y0214702D01*
X0257108Y0215901D02*
X0268748Y0215901D01*
X0268748Y0217099D02*
X0258307Y0217099D01*
X0259506Y0218298D02*
X0268748Y0218298D01*
X0268748Y0219496D02*
X0260704Y0219496D01*
X0261903Y0220695D02*
X0268748Y0220695D01*
X0268748Y0221893D02*
X0262348Y0221893D01*
X0262348Y0223092D02*
X0268748Y0223092D01*
X0268748Y0224290D02*
X0262348Y0224290D01*
X0262348Y0225489D02*
X0268748Y0225489D01*
X0268297Y0226687D02*
X0262798Y0226687D01*
X0264172Y0227886D02*
X0266924Y0227886D01*
X0266316Y0229084D02*
X0264780Y0229084D01*
X0265048Y0230283D02*
X0266048Y0230283D01*
X0266048Y0231481D02*
X0265048Y0231481D01*
X0264568Y0232680D02*
X0266528Y0232680D01*
X0267436Y0233879D02*
X0263659Y0233879D01*
X0261561Y0235077D02*
X0269535Y0235077D01*
X0269292Y0236276D02*
X0262803Y0236276D01*
X0263116Y0236435D02*
X0263740Y0236888D01*
X0264285Y0237434D01*
X0264739Y0238058D01*
X0265089Y0238745D01*
X0265327Y0239479D01*
X0265448Y0240240D01*
X0265448Y0240340D01*
X0260834Y0240340D01*
X0260834Y0235726D01*
X0260934Y0235726D01*
X0261695Y0235847D01*
X0262429Y0236085D01*
X0263116Y0236435D01*
X0264315Y0237474D02*
X0267336Y0237474D01*
X0266486Y0238673D02*
X0265052Y0238673D01*
X0265389Y0239871D02*
X0266048Y0239871D01*
X0266048Y0241070D02*
X0265439Y0241070D01*
X0265166Y0242268D02*
X0266357Y0242268D01*
X0267025Y0243467D02*
X0264541Y0243467D01*
X0260834Y0239871D02*
X0260262Y0239871D01*
X0260262Y0240340D02*
X0260262Y0235726D01*
X0260162Y0235726D01*
X0259400Y0235847D01*
X0258667Y0236085D01*
X0257980Y0236435D01*
X0257356Y0236888D01*
X0256810Y0237434D01*
X0256357Y0238058D01*
X0256007Y0238745D01*
X0255769Y0239479D01*
X0255648Y0240240D01*
X0255648Y0240340D01*
X0260262Y0240340D01*
X0260262Y0238673D02*
X0260834Y0238673D01*
X0260834Y0237474D02*
X0260262Y0237474D01*
X0260262Y0236276D02*
X0260834Y0236276D01*
X0259535Y0235077D02*
X0251561Y0235077D01*
X0251443Y0235126D02*
X0249653Y0235126D01*
X0247999Y0234441D01*
X0246733Y0233175D01*
X0246048Y0231521D01*
X0246048Y0229731D01*
X0246721Y0228105D01*
X0231850Y0213233D01*
X0230795Y0212179D01*
X0230795Y0109679D01*
X0229050Y0107933D01*
X0228598Y0107933D01*
X0227679Y0107552D01*
X0226976Y0106849D01*
X0226595Y0105930D01*
X0226595Y0104936D01*
X0226976Y0104017D01*
X0227679Y0103314D01*
X0228598Y0102933D01*
X0229592Y0102933D01*
X0230511Y0103314D01*
X0231215Y0104017D01*
X0231595Y0104936D01*
X0231595Y0105387D01*
X0234395Y0108187D01*
X0234395Y0210687D01*
X0249834Y0226126D01*
X0251443Y0226126D01*
X0253097Y0226811D01*
X0254363Y0228077D01*
X0255048Y0229731D01*
X0255048Y0231521D01*
X0254363Y0233175D01*
X0253097Y0234441D01*
X0251443Y0235126D01*
X0251804Y0236276D02*
X0258293Y0236276D01*
X0256781Y0237474D02*
X0253760Y0237474D01*
X0254610Y0238673D02*
X0256044Y0238673D01*
X0255706Y0239871D02*
X0255048Y0239871D01*
X0255048Y0241070D02*
X0255657Y0241070D01*
X0255929Y0242268D02*
X0254738Y0242268D01*
X0254071Y0243467D02*
X0256555Y0243467D01*
X0250548Y0240626D02*
X0250548Y0239886D01*
X0246345Y0235683D01*
X0226845Y0235683D01*
X0225595Y0234433D01*
X0225595Y0221933D01*
X0220095Y0216433D01*
X0220095Y0088933D01*
X0217495Y0088859D02*
X0217395Y0088859D01*
X0217395Y0090057D02*
X0217747Y0090057D01*
X0217395Y0091256D02*
X0218295Y0091256D01*
X0218295Y0092454D02*
X0217395Y0092454D01*
X0217395Y0093653D02*
X0218295Y0093653D01*
X0218295Y0094851D02*
X0217395Y0094851D01*
X0217395Y0096050D02*
X0218295Y0096050D01*
X0218295Y0097248D02*
X0217395Y0097248D01*
X0217395Y0098447D02*
X0218295Y0098447D01*
X0218295Y0099645D02*
X0217395Y0099645D01*
X0217395Y0100844D02*
X0218295Y0100844D01*
X0218295Y0102042D02*
X0217395Y0102042D01*
X0217395Y0103241D02*
X0218295Y0103241D01*
X0218295Y0104439D02*
X0217395Y0104439D01*
X0217395Y0105638D02*
X0218295Y0105638D01*
X0218295Y0106836D02*
X0217395Y0106836D01*
X0217395Y0108035D02*
X0218295Y0108035D01*
X0218295Y0109233D02*
X0217395Y0109233D01*
X0217395Y0110432D02*
X0218295Y0110432D01*
X0218295Y0111630D02*
X0217395Y0111630D01*
X0217395Y0112829D02*
X0218295Y0112829D01*
X0218295Y0114027D02*
X0217395Y0114027D01*
X0217395Y0115226D02*
X0218295Y0115226D01*
X0218295Y0116424D02*
X0217395Y0116424D01*
X0217395Y0117623D02*
X0218295Y0117623D01*
X0218295Y0118821D02*
X0217395Y0118821D01*
X0217395Y0120020D02*
X0218295Y0120020D01*
X0218295Y0121218D02*
X0217395Y0121218D01*
X0217395Y0122417D02*
X0218295Y0122417D01*
X0218295Y0123615D02*
X0217395Y0123615D01*
X0217395Y0124814D02*
X0218295Y0124814D01*
X0218295Y0126012D02*
X0217395Y0126012D01*
X0217395Y0127211D02*
X0218295Y0127211D01*
X0218295Y0128410D02*
X0217395Y0128410D01*
X0217395Y0129608D02*
X0218295Y0129608D01*
X0218295Y0130807D02*
X0217395Y0130807D01*
X0217395Y0132005D02*
X0218295Y0132005D01*
X0218295Y0133204D02*
X0217395Y0133204D01*
X0217395Y0134402D02*
X0218295Y0134402D01*
X0218295Y0135601D02*
X0217395Y0135601D01*
X0217395Y0136799D02*
X0218295Y0136799D01*
X0218295Y0137998D02*
X0217395Y0137998D01*
X0217395Y0139196D02*
X0218295Y0139196D01*
X0218295Y0140395D02*
X0217395Y0140395D01*
X0217395Y0141593D02*
X0218295Y0141593D01*
X0218295Y0142792D02*
X0217395Y0142792D01*
X0217395Y0143990D02*
X0218295Y0143990D01*
X0218295Y0145189D02*
X0217395Y0145189D01*
X0217395Y0146387D02*
X0218295Y0146387D01*
X0218295Y0147586D02*
X0217395Y0147586D01*
X0217395Y0148784D02*
X0218295Y0148784D01*
X0218295Y0149983D02*
X0217395Y0149983D01*
X0217395Y0151181D02*
X0218295Y0151181D01*
X0218295Y0152380D02*
X0217395Y0152380D01*
X0217395Y0153578D02*
X0218295Y0153578D01*
X0218295Y0154777D02*
X0217395Y0154777D01*
X0217395Y0155975D02*
X0218295Y0155975D01*
X0218295Y0157174D02*
X0217395Y0157174D01*
X0217395Y0158372D02*
X0218295Y0158372D01*
X0218295Y0159571D02*
X0217395Y0159571D01*
X0217395Y0160769D02*
X0218295Y0160769D01*
X0218295Y0161968D02*
X0217395Y0161968D01*
X0217395Y0163166D02*
X0218295Y0163166D01*
X0218295Y0164365D02*
X0217395Y0164365D01*
X0217395Y0165563D02*
X0218295Y0165563D01*
X0218295Y0166762D02*
X0217395Y0166762D01*
X0217395Y0167960D02*
X0218295Y0167960D01*
X0218295Y0169159D02*
X0217395Y0169159D01*
X0217395Y0170357D02*
X0218295Y0170357D01*
X0218295Y0171556D02*
X0217395Y0171556D01*
X0217395Y0172754D02*
X0218295Y0172754D01*
X0218295Y0173953D02*
X0217395Y0173953D01*
X0217395Y0175151D02*
X0218295Y0175151D01*
X0218295Y0176350D02*
X0217395Y0176350D01*
X0217395Y0177548D02*
X0218295Y0177548D01*
X0218295Y0178747D02*
X0217395Y0178747D01*
X0217395Y0179945D02*
X0218295Y0179945D01*
X0218295Y0181144D02*
X0217395Y0181144D01*
X0217395Y0182343D02*
X0218295Y0182343D01*
X0218295Y0183541D02*
X0217395Y0183541D01*
X0217395Y0184740D02*
X0218295Y0184740D01*
X0218295Y0185938D02*
X0217395Y0185938D01*
X0217395Y0187137D02*
X0218295Y0187137D01*
X0218295Y0188335D02*
X0217395Y0188335D01*
X0217395Y0189534D02*
X0218295Y0189534D01*
X0218295Y0190732D02*
X0217395Y0190732D01*
X0217395Y0191931D02*
X0218295Y0191931D01*
X0218295Y0193129D02*
X0217395Y0193129D01*
X0217395Y0194328D02*
X0218295Y0194328D01*
X0218295Y0195526D02*
X0217395Y0195526D01*
X0217395Y0196725D02*
X0218295Y0196725D01*
X0218295Y0197923D02*
X0217395Y0197923D01*
X0217395Y0199122D02*
X0218295Y0199122D01*
X0218295Y0200320D02*
X0217395Y0200320D01*
X0217395Y0201519D02*
X0218295Y0201519D01*
X0218295Y0202717D02*
X0217395Y0202717D01*
X0217395Y0203916D02*
X0218295Y0203916D01*
X0218295Y0205114D02*
X0217395Y0205114D01*
X0217395Y0206313D02*
X0218295Y0206313D01*
X0218295Y0207511D02*
X0217395Y0207511D01*
X0217395Y0208710D02*
X0218295Y0208710D01*
X0218295Y0209908D02*
X0217395Y0209908D01*
X0217395Y0211107D02*
X0218295Y0211107D01*
X0218295Y0212305D02*
X0217395Y0212305D01*
X0217395Y0213504D02*
X0218295Y0213504D01*
X0218295Y0214702D02*
X0217395Y0214702D01*
X0217395Y0215901D02*
X0218295Y0215901D01*
X0218295Y0217099D02*
X0217395Y0217099D01*
X0217395Y0218298D02*
X0219414Y0218298D01*
X0220613Y0219496D02*
X0217395Y0219496D01*
X0217395Y0220695D02*
X0221811Y0220695D01*
X0223010Y0221893D02*
X0217395Y0221893D01*
X0217395Y0223092D02*
X0223795Y0223092D01*
X0223795Y0224290D02*
X0217395Y0224290D01*
X0217395Y0225489D02*
X0223795Y0225489D01*
X0223795Y0226687D02*
X0223463Y0226687D01*
X0220834Y0226687D02*
X0220262Y0226687D01*
X0220262Y0227886D02*
X0220834Y0227886D01*
X0220834Y0229084D02*
X0220262Y0229084D01*
X0220262Y0230283D02*
X0220834Y0230283D01*
X0220834Y0230912D02*
X0220262Y0230912D01*
X0220262Y0235526D01*
X0220162Y0235526D01*
X0219400Y0235405D01*
X0218667Y0235167D01*
X0217980Y0234817D01*
X0217395Y0234392D01*
X0217395Y0234928D01*
X0218904Y0236436D01*
X0219653Y0236126D01*
X0221443Y0236126D01*
X0223097Y0236811D01*
X0224363Y0238077D01*
X0225048Y0239731D01*
X0225048Y0241521D01*
X0224363Y0243175D01*
X0223097Y0244441D01*
X0222633Y0244633D01*
X0228463Y0244633D01*
X0227999Y0244441D01*
X0226733Y0243175D01*
X0226048Y0241521D01*
X0226048Y0239731D01*
X0226733Y0238077D01*
X0227327Y0237483D01*
X0226100Y0237483D01*
X0224850Y0236233D01*
X0223795Y0235179D01*
X0223795Y0234308D01*
X0223740Y0234363D01*
X0223116Y0234817D01*
X0222429Y0235167D01*
X0221695Y0235405D01*
X0220934Y0235526D01*
X0220834Y0235526D01*
X0220834Y0230912D01*
X0220834Y0231481D02*
X0220262Y0231481D01*
X0220262Y0232680D02*
X0220834Y0232680D01*
X0220834Y0233879D02*
X0220262Y0233879D01*
X0220262Y0235077D02*
X0220834Y0235077D01*
X0221804Y0236276D02*
X0224892Y0236276D01*
X0223795Y0235077D02*
X0222605Y0235077D01*
X0223760Y0237474D02*
X0226091Y0237474D01*
X0226486Y0238673D02*
X0224610Y0238673D01*
X0225048Y0239871D02*
X0226048Y0239871D01*
X0226048Y0241070D02*
X0225048Y0241070D01*
X0224738Y0242268D02*
X0226357Y0242268D01*
X0227025Y0243467D02*
X0224071Y0243467D01*
X0220548Y0240626D02*
X0215595Y0235673D01*
X0215595Y0074433D01*
X0218195Y0074477D02*
X0239695Y0074477D01*
X0239695Y0075675D02*
X0217895Y0075675D01*
X0217395Y0076874D02*
X0239695Y0076874D01*
X0239695Y0078072D02*
X0217395Y0078072D01*
X0217395Y0079271D02*
X0239695Y0079271D01*
X0239695Y0080469D02*
X0217395Y0080469D01*
X0217395Y0081668D02*
X0239695Y0081668D01*
X0239695Y0082866D02*
X0217395Y0082866D01*
X0217395Y0084065D02*
X0239695Y0084065D01*
X0239695Y0085263D02*
X0217395Y0085263D01*
X0217395Y0086462D02*
X0219268Y0086462D01*
X0220923Y0086462D02*
X0239695Y0086462D01*
X0239695Y0087660D02*
X0222382Y0087660D01*
X0222695Y0088859D02*
X0239695Y0088859D01*
X0239695Y0090057D02*
X0222444Y0090057D01*
X0221895Y0091256D02*
X0239695Y0091256D01*
X0239695Y0092454D02*
X0221895Y0092454D01*
X0221895Y0093653D02*
X0239695Y0093653D01*
X0239695Y0094851D02*
X0221895Y0094851D01*
X0221895Y0096050D02*
X0239695Y0096050D01*
X0239695Y0097248D02*
X0221895Y0097248D01*
X0221895Y0098447D02*
X0239695Y0098447D01*
X0239695Y0099645D02*
X0221895Y0099645D01*
X0221895Y0100844D02*
X0239695Y0100844D01*
X0239695Y0102042D02*
X0221895Y0102042D01*
X0221895Y0103241D02*
X0227855Y0103241D01*
X0226801Y0104439D02*
X0221895Y0104439D01*
X0221895Y0105638D02*
X0226595Y0105638D01*
X0226970Y0106836D02*
X0221895Y0106836D01*
X0221895Y0108035D02*
X0229151Y0108035D01*
X0230350Y0109233D02*
X0221895Y0109233D01*
X0221895Y0110432D02*
X0230795Y0110432D01*
X0230795Y0111630D02*
X0221895Y0111630D01*
X0221895Y0112829D02*
X0230795Y0112829D01*
X0230795Y0114027D02*
X0221895Y0114027D01*
X0221895Y0115226D02*
X0230795Y0115226D01*
X0230795Y0116424D02*
X0221895Y0116424D01*
X0221895Y0117623D02*
X0230795Y0117623D01*
X0230795Y0118821D02*
X0221895Y0118821D01*
X0221895Y0120020D02*
X0230795Y0120020D01*
X0230795Y0121218D02*
X0221895Y0121218D01*
X0221895Y0122417D02*
X0230795Y0122417D01*
X0230795Y0123615D02*
X0221895Y0123615D01*
X0221895Y0124814D02*
X0230795Y0124814D01*
X0230795Y0126012D02*
X0225852Y0126012D01*
X0226610Y0127211D02*
X0230795Y0127211D01*
X0230795Y0128410D02*
X0227117Y0128410D01*
X0228316Y0129608D02*
X0230795Y0129608D01*
X0230795Y0130807D02*
X0229395Y0130807D01*
X0229395Y0132005D02*
X0230795Y0132005D01*
X0230795Y0133204D02*
X0229395Y0133204D01*
X0229395Y0134402D02*
X0230795Y0134402D01*
X0230795Y0135601D02*
X0229395Y0135601D01*
X0229395Y0136799D02*
X0230795Y0136799D01*
X0230795Y0137998D02*
X0229395Y0137998D01*
X0229395Y0139196D02*
X0230795Y0139196D01*
X0230795Y0140395D02*
X0229395Y0140395D01*
X0229395Y0141593D02*
X0230795Y0141593D01*
X0230795Y0142792D02*
X0229395Y0142792D01*
X0229395Y0143990D02*
X0230795Y0143990D01*
X0230795Y0145189D02*
X0229395Y0145189D01*
X0229395Y0146387D02*
X0230795Y0146387D01*
X0230795Y0147586D02*
X0229395Y0147586D01*
X0229395Y0148784D02*
X0230795Y0148784D01*
X0230795Y0149983D02*
X0229395Y0149983D01*
X0229395Y0151181D02*
X0230795Y0151181D01*
X0230795Y0152380D02*
X0229395Y0152380D01*
X0229395Y0153578D02*
X0230795Y0153578D01*
X0230795Y0154777D02*
X0229395Y0154777D01*
X0229395Y0155975D02*
X0230795Y0155975D01*
X0230795Y0157174D02*
X0229395Y0157174D01*
X0229395Y0158372D02*
X0230795Y0158372D01*
X0230795Y0159571D02*
X0229395Y0159571D01*
X0229395Y0160769D02*
X0230795Y0160769D01*
X0230795Y0161968D02*
X0229395Y0161968D01*
X0229395Y0163166D02*
X0230795Y0163166D01*
X0230795Y0164365D02*
X0229395Y0164365D01*
X0229395Y0165563D02*
X0230795Y0165563D01*
X0230795Y0166762D02*
X0229395Y0166762D01*
X0229395Y0167960D02*
X0230795Y0167960D01*
X0230795Y0169159D02*
X0229395Y0169159D01*
X0229395Y0170357D02*
X0230795Y0170357D01*
X0230795Y0171556D02*
X0229395Y0171556D01*
X0229395Y0172754D02*
X0230795Y0172754D01*
X0230795Y0173953D02*
X0229395Y0173953D01*
X0229395Y0175151D02*
X0230795Y0175151D01*
X0230795Y0176350D02*
X0229395Y0176350D01*
X0229395Y0177548D02*
X0230795Y0177548D01*
X0230795Y0178747D02*
X0229395Y0178747D01*
X0229395Y0179945D02*
X0230795Y0179945D01*
X0230795Y0181144D02*
X0229395Y0181144D01*
X0229395Y0182343D02*
X0230795Y0182343D01*
X0230795Y0183541D02*
X0229395Y0183541D01*
X0229395Y0184740D02*
X0230795Y0184740D01*
X0230795Y0185938D02*
X0229395Y0185938D01*
X0229395Y0187137D02*
X0230795Y0187137D01*
X0230795Y0188335D02*
X0229395Y0188335D01*
X0229395Y0189534D02*
X0230795Y0189534D01*
X0230795Y0190732D02*
X0229395Y0190732D01*
X0229395Y0191931D02*
X0230795Y0191931D01*
X0230795Y0193129D02*
X0229395Y0193129D01*
X0229395Y0194328D02*
X0230795Y0194328D01*
X0230795Y0195526D02*
X0229395Y0195526D01*
X0229395Y0196725D02*
X0230795Y0196725D01*
X0230795Y0197923D02*
X0229395Y0197923D01*
X0229395Y0199122D02*
X0230795Y0199122D01*
X0230795Y0200320D02*
X0229395Y0200320D01*
X0229395Y0201519D02*
X0230795Y0201519D01*
X0230795Y0202717D02*
X0229395Y0202717D01*
X0229395Y0203916D02*
X0230795Y0203916D01*
X0230795Y0205114D02*
X0229395Y0205114D01*
X0229395Y0206313D02*
X0230795Y0206313D01*
X0230795Y0207511D02*
X0229395Y0207511D01*
X0229395Y0208710D02*
X0230795Y0208710D01*
X0230795Y0209908D02*
X0229395Y0209908D01*
X0229395Y0211107D02*
X0230795Y0211107D01*
X0230922Y0212305D02*
X0229395Y0212305D01*
X0229711Y0213504D02*
X0232120Y0213504D01*
X0233319Y0214702D02*
X0230910Y0214702D01*
X0232108Y0215901D02*
X0234517Y0215901D01*
X0235716Y0217099D02*
X0233307Y0217099D01*
X0234506Y0218298D02*
X0236914Y0218298D01*
X0238113Y0219496D02*
X0235704Y0219496D01*
X0236903Y0220695D02*
X0239311Y0220695D01*
X0240510Y0221893D02*
X0238101Y0221893D01*
X0239300Y0223092D02*
X0241708Y0223092D01*
X0242907Y0224290D02*
X0240498Y0224290D01*
X0241697Y0225489D02*
X0244105Y0225489D01*
X0245304Y0226687D02*
X0242798Y0226687D01*
X0244172Y0227886D02*
X0246502Y0227886D01*
X0246316Y0229084D02*
X0244780Y0229084D01*
X0245048Y0230283D02*
X0246048Y0230283D01*
X0246048Y0231481D02*
X0245048Y0231481D01*
X0244568Y0232680D02*
X0246528Y0232680D01*
X0247436Y0233879D02*
X0243659Y0233879D01*
X0240548Y0230626D02*
X0240548Y0226886D01*
X0227595Y0213933D01*
X0227595Y0131433D01*
X0224095Y0127933D01*
X0224150Y0130533D02*
X0223578Y0130533D01*
X0222622Y0130137D01*
X0221895Y0129410D01*
X0221895Y0215687D01*
X0227395Y0221187D01*
X0227395Y0222679D01*
X0227395Y0227415D01*
X0227999Y0226811D01*
X0229653Y0226126D01*
X0231443Y0226126D01*
X0233097Y0226811D01*
X0234363Y0228077D01*
X0235048Y0229731D01*
X0235048Y0231521D01*
X0234363Y0233175D01*
X0233655Y0233883D01*
X0237441Y0233883D01*
X0236733Y0233175D01*
X0236048Y0231521D01*
X0236048Y0229731D01*
X0236733Y0228077D01*
X0237963Y0226847D01*
X0226850Y0215733D01*
X0225795Y0214679D01*
X0225795Y0132179D01*
X0224150Y0130533D01*
X0224423Y0130807D02*
X0221895Y0130807D01*
X0221895Y0132005D02*
X0225622Y0132005D01*
X0225795Y0133204D02*
X0221895Y0133204D01*
X0221895Y0134402D02*
X0225795Y0134402D01*
X0225795Y0135601D02*
X0221895Y0135601D01*
X0221895Y0136799D02*
X0225795Y0136799D01*
X0225795Y0137998D02*
X0221895Y0137998D01*
X0221895Y0139196D02*
X0225795Y0139196D01*
X0225795Y0140395D02*
X0221895Y0140395D01*
X0221895Y0141593D02*
X0225795Y0141593D01*
X0225795Y0142792D02*
X0221895Y0142792D01*
X0221895Y0143990D02*
X0225795Y0143990D01*
X0225795Y0145189D02*
X0221895Y0145189D01*
X0221895Y0146387D02*
X0225795Y0146387D01*
X0225795Y0147586D02*
X0221895Y0147586D01*
X0221895Y0148784D02*
X0225795Y0148784D01*
X0225795Y0149983D02*
X0221895Y0149983D01*
X0221895Y0151181D02*
X0225795Y0151181D01*
X0225795Y0152380D02*
X0221895Y0152380D01*
X0221895Y0153578D02*
X0225795Y0153578D01*
X0225795Y0154777D02*
X0221895Y0154777D01*
X0221895Y0155975D02*
X0225795Y0155975D01*
X0225795Y0157174D02*
X0221895Y0157174D01*
X0221895Y0158372D02*
X0225795Y0158372D01*
X0225795Y0159571D02*
X0221895Y0159571D01*
X0221895Y0160769D02*
X0225795Y0160769D01*
X0225795Y0161968D02*
X0221895Y0161968D01*
X0221895Y0163166D02*
X0225795Y0163166D01*
X0225795Y0164365D02*
X0221895Y0164365D01*
X0221895Y0165563D02*
X0225795Y0165563D01*
X0225795Y0166762D02*
X0221895Y0166762D01*
X0221895Y0167960D02*
X0225795Y0167960D01*
X0225795Y0169159D02*
X0221895Y0169159D01*
X0221895Y0170357D02*
X0225795Y0170357D01*
X0225795Y0171556D02*
X0221895Y0171556D01*
X0221895Y0172754D02*
X0225795Y0172754D01*
X0225795Y0173953D02*
X0221895Y0173953D01*
X0221895Y0175151D02*
X0225795Y0175151D01*
X0225795Y0176350D02*
X0221895Y0176350D01*
X0221895Y0177548D02*
X0225795Y0177548D01*
X0225795Y0178747D02*
X0221895Y0178747D01*
X0221895Y0179945D02*
X0225795Y0179945D01*
X0225795Y0181144D02*
X0221895Y0181144D01*
X0221895Y0182343D02*
X0225795Y0182343D01*
X0225795Y0183541D02*
X0221895Y0183541D01*
X0221895Y0184740D02*
X0225795Y0184740D01*
X0225795Y0185938D02*
X0221895Y0185938D01*
X0221895Y0187137D02*
X0225795Y0187137D01*
X0225795Y0188335D02*
X0221895Y0188335D01*
X0221895Y0189534D02*
X0225795Y0189534D01*
X0225795Y0190732D02*
X0221895Y0190732D01*
X0221895Y0191931D02*
X0225795Y0191931D01*
X0225795Y0193129D02*
X0221895Y0193129D01*
X0221895Y0194328D02*
X0225795Y0194328D01*
X0225795Y0195526D02*
X0221895Y0195526D01*
X0221895Y0196725D02*
X0225795Y0196725D01*
X0225795Y0197923D02*
X0221895Y0197923D01*
X0221895Y0199122D02*
X0225795Y0199122D01*
X0225795Y0200320D02*
X0221895Y0200320D01*
X0221895Y0201519D02*
X0225795Y0201519D01*
X0225795Y0202717D02*
X0221895Y0202717D01*
X0221895Y0203916D02*
X0225795Y0203916D01*
X0225795Y0205114D02*
X0221895Y0205114D01*
X0221895Y0206313D02*
X0225795Y0206313D01*
X0225795Y0207511D02*
X0221895Y0207511D01*
X0221895Y0208710D02*
X0225795Y0208710D01*
X0225795Y0209908D02*
X0221895Y0209908D01*
X0221895Y0211107D02*
X0225795Y0211107D01*
X0225795Y0212305D02*
X0221895Y0212305D01*
X0221895Y0213504D02*
X0225795Y0213504D01*
X0225819Y0214702D02*
X0221895Y0214702D01*
X0222108Y0215901D02*
X0227017Y0215901D01*
X0228216Y0217099D02*
X0223307Y0217099D01*
X0224506Y0218298D02*
X0229414Y0218298D01*
X0230613Y0219496D02*
X0225704Y0219496D01*
X0226903Y0220695D02*
X0231811Y0220695D01*
X0233010Y0221893D02*
X0227395Y0221893D01*
X0227395Y0223092D02*
X0234208Y0223092D01*
X0235407Y0224290D02*
X0227395Y0224290D01*
X0227395Y0225489D02*
X0236605Y0225489D01*
X0237804Y0226687D02*
X0232798Y0226687D01*
X0234172Y0227886D02*
X0236924Y0227886D01*
X0236316Y0229084D02*
X0234780Y0229084D01*
X0235048Y0230283D02*
X0236048Y0230283D01*
X0236048Y0231481D02*
X0235048Y0231481D01*
X0234568Y0232680D02*
X0236528Y0232680D01*
X0237436Y0233879D02*
X0233659Y0233879D01*
X0233769Y0237483D02*
X0234363Y0238077D01*
X0235048Y0239731D01*
X0235048Y0241521D01*
X0234363Y0243175D01*
X0233097Y0244441D01*
X0232633Y0244633D01*
X0237727Y0244633D01*
X0237356Y0244363D01*
X0236810Y0243818D01*
X0236357Y0243194D01*
X0236007Y0242507D01*
X0235769Y0241773D01*
X0235648Y0241012D01*
X0235648Y0240912D01*
X0240262Y0240912D01*
X0240262Y0240340D01*
X0235648Y0240340D01*
X0235648Y0240240D01*
X0235769Y0239479D01*
X0236007Y0238745D01*
X0236357Y0238058D01*
X0236775Y0237483D01*
X0233769Y0237483D01*
X0234610Y0238673D02*
X0236044Y0238673D01*
X0235706Y0239871D02*
X0235048Y0239871D01*
X0235048Y0241070D02*
X0235657Y0241070D01*
X0235929Y0242268D02*
X0234738Y0242268D01*
X0234071Y0243467D02*
X0236555Y0243467D01*
X0240834Y0240912D02*
X0245448Y0240912D01*
X0245448Y0241012D01*
X0245327Y0241773D01*
X0245089Y0242507D01*
X0244739Y0243194D01*
X0244285Y0243818D01*
X0243740Y0244363D01*
X0243369Y0244633D01*
X0248463Y0244633D01*
X0247999Y0244441D01*
X0246733Y0243175D01*
X0246048Y0241521D01*
X0246048Y0239731D01*
X0246575Y0238458D01*
X0245600Y0237483D01*
X0244321Y0237483D01*
X0244739Y0238058D01*
X0245089Y0238745D01*
X0245327Y0239479D01*
X0245448Y0240240D01*
X0245448Y0240340D01*
X0240834Y0240340D01*
X0240834Y0240912D01*
X0244541Y0243467D02*
X0247025Y0243467D01*
X0246357Y0242268D02*
X0245166Y0242268D01*
X0245439Y0241070D02*
X0246048Y0241070D01*
X0246048Y0239871D02*
X0245389Y0239871D01*
X0245052Y0238673D02*
X0246486Y0238673D01*
X0248285Y0235077D02*
X0249535Y0235077D01*
X0253659Y0233879D02*
X0257436Y0233879D01*
X0256528Y0232680D02*
X0254568Y0232680D01*
X0255048Y0231481D02*
X0256048Y0231481D01*
X0256048Y0230283D02*
X0255048Y0230283D01*
X0254780Y0229084D02*
X0256316Y0229084D01*
X0256924Y0227886D02*
X0254172Y0227886D01*
X0252798Y0226687D02*
X0258297Y0226687D01*
X0258748Y0225489D02*
X0249197Y0225489D01*
X0247998Y0224290D02*
X0258748Y0224290D01*
X0258748Y0223092D02*
X0246800Y0223092D01*
X0245601Y0221893D02*
X0258010Y0221893D01*
X0256811Y0220695D02*
X0244403Y0220695D01*
X0243204Y0219496D02*
X0255613Y0219496D01*
X0254414Y0218298D02*
X0242006Y0218298D01*
X0240807Y0217099D02*
X0253295Y0217099D01*
X0253295Y0215901D02*
X0239608Y0215901D01*
X0238410Y0214702D02*
X0253295Y0214702D01*
X0252595Y0213504D02*
X0237211Y0213504D01*
X0236013Y0212305D02*
X0251396Y0212305D01*
X0250198Y0211107D02*
X0234814Y0211107D01*
X0234395Y0209908D02*
X0250095Y0209908D01*
X0250095Y0208710D02*
X0234395Y0208710D01*
X0234395Y0207511D02*
X0250095Y0207511D01*
X0250644Y0206313D02*
X0234395Y0206313D01*
X0234395Y0205114D02*
X0251843Y0205114D01*
X0255095Y0208933D02*
X0255095Y0216433D01*
X0260548Y0221886D01*
X0260548Y0230626D01*
X0250548Y0230626D02*
X0250548Y0229386D01*
X0232595Y0211433D01*
X0232595Y0108933D01*
X0229095Y0105433D01*
X0231389Y0104439D02*
X0239695Y0104439D01*
X0239695Y0103241D02*
X0230335Y0103241D01*
X0231845Y0105638D02*
X0239695Y0105638D01*
X0240191Y0106836D02*
X0233044Y0106836D01*
X0234242Y0108035D02*
X0241168Y0108035D01*
X0240740Y0107788D02*
X0240740Y0107788D01*
X0240740Y0107788D01*
X0234395Y0109233D02*
X0295795Y0109233D01*
X0295795Y0108035D02*
X0248523Y0108035D01*
X0248950Y0107788D02*
X0248950Y0107788D01*
X0248950Y0107788D01*
X0249500Y0106836D02*
X0295795Y0106836D01*
X0295795Y0105638D02*
X0249995Y0105638D01*
X0249995Y0104439D02*
X0295795Y0104439D01*
X0295795Y0103241D02*
X0249995Y0103241D01*
X0249995Y0102042D02*
X0295795Y0102042D01*
X0295795Y0100844D02*
X0249995Y0100844D01*
X0249995Y0099645D02*
X0295795Y0099645D01*
X0295795Y0098447D02*
X0249995Y0098447D01*
X0249995Y0097248D02*
X0295795Y0097248D01*
X0295795Y0096050D02*
X0249995Y0096050D01*
X0249995Y0094851D02*
X0295795Y0094851D01*
X0295795Y0093653D02*
X0249995Y0093653D01*
X0249995Y0092454D02*
X0295795Y0092454D01*
X0295795Y0091256D02*
X0249995Y0091256D01*
X0249995Y0082866D02*
X0261579Y0082866D01*
X0261890Y0081668D02*
X0249995Y0081668D01*
X0249995Y0080469D02*
X0262474Y0080469D01*
X0263424Y0079271D02*
X0249995Y0079271D01*
X0239695Y0073278D02*
X0217931Y0073278D01*
X0216707Y0072079D02*
X0239695Y0072079D01*
X0217808Y0087660D02*
X0217395Y0087660D01*
X0208748Y0087660D02*
X0202348Y0087660D01*
X0202348Y0086462D02*
X0208748Y0086462D01*
X0208748Y0085263D02*
X0202348Y0085263D01*
X0202348Y0084065D02*
X0208748Y0084065D01*
X0208748Y0082866D02*
X0202348Y0082866D01*
X0202348Y0081668D02*
X0208748Y0081668D01*
X0208748Y0080469D02*
X0202348Y0080469D01*
X0202348Y0079271D02*
X0208748Y0079271D01*
X0208748Y0078072D02*
X0202348Y0078072D01*
X0202348Y0076874D02*
X0208748Y0076874D01*
X0208748Y0075675D02*
X0202348Y0075675D01*
X0202348Y0074477D02*
X0208748Y0074477D01*
X0208748Y0073278D02*
X0202348Y0073278D01*
X0202348Y0072079D02*
X0208748Y0072079D01*
X0208748Y0070881D02*
X0202348Y0070881D01*
X0202348Y0069682D02*
X0208748Y0069682D01*
X0208748Y0068484D02*
X0202348Y0068484D01*
X0202348Y0067285D02*
X0208748Y0067285D01*
X0208748Y0066087D02*
X0202348Y0066087D01*
X0202348Y0064888D02*
X0208748Y0064888D01*
X0208744Y0063690D02*
X0202348Y0063690D01*
X0202348Y0062491D02*
X0208727Y0062491D01*
X0208034Y0061293D02*
X0202348Y0061293D01*
X0202348Y0060094D02*
X0208025Y0060094D01*
X0208705Y0058896D02*
X0202348Y0058896D01*
X0210595Y0060683D02*
X0210548Y0063480D01*
X0210548Y0143933D01*
X0210548Y0161433D01*
X0210548Y0230626D01*
X0205595Y0235673D02*
X0210548Y0240626D01*
X0205595Y0235673D02*
X0205595Y0187933D01*
X0208748Y0183541D02*
X0202348Y0183541D01*
X0202348Y0182343D02*
X0208748Y0182343D01*
X0208748Y0181144D02*
X0202348Y0181144D01*
X0202348Y0179945D02*
X0208748Y0179945D01*
X0208748Y0178747D02*
X0202348Y0178747D01*
X0202348Y0177548D02*
X0208748Y0177548D01*
X0208748Y0176350D02*
X0202348Y0176350D01*
X0202348Y0175151D02*
X0208748Y0175151D01*
X0208748Y0173953D02*
X0202348Y0173953D01*
X0202348Y0172754D02*
X0208748Y0172754D01*
X0208748Y0171556D02*
X0202348Y0171556D01*
X0202348Y0170357D02*
X0208748Y0170357D01*
X0208748Y0169159D02*
X0202348Y0169159D01*
X0202348Y0167960D02*
X0208748Y0167960D01*
X0208748Y0166762D02*
X0202348Y0166762D01*
X0202348Y0165563D02*
X0208748Y0165563D01*
X0208748Y0164365D02*
X0202348Y0164365D01*
X0202348Y0163166D02*
X0208604Y0163166D01*
X0207955Y0161968D02*
X0202348Y0161968D01*
X0202348Y0160769D02*
X0208009Y0160769D01*
X0208733Y0159571D02*
X0202348Y0159571D01*
X0202348Y0158372D02*
X0208748Y0158372D01*
X0208748Y0157174D02*
X0202348Y0157174D01*
X0202348Y0155975D02*
X0208748Y0155975D01*
X0208748Y0154777D02*
X0202348Y0154777D01*
X0202348Y0153578D02*
X0208748Y0153578D01*
X0208748Y0152380D02*
X0202348Y0152380D01*
X0202348Y0151181D02*
X0208748Y0151181D01*
X0208748Y0149983D02*
X0202927Y0149983D01*
X0203148Y0148784D02*
X0208748Y0148784D01*
X0208748Y0147586D02*
X0202804Y0147586D01*
X0202348Y0146387D02*
X0208748Y0146387D01*
X0208254Y0145189D02*
X0202348Y0145189D01*
X0202348Y0143990D02*
X0207948Y0143990D01*
X0208206Y0142792D02*
X0202348Y0142792D01*
X0202348Y0141593D02*
X0208748Y0141593D01*
X0208748Y0140395D02*
X0202348Y0140395D01*
X0202348Y0139196D02*
X0208748Y0139196D01*
X0208748Y0137998D02*
X0202348Y0137998D01*
X0202348Y0136799D02*
X0208748Y0136799D01*
X0208748Y0135601D02*
X0202348Y0135601D01*
X0202348Y0134402D02*
X0208748Y0134402D01*
X0208748Y0133204D02*
X0202348Y0133204D01*
X0202348Y0132005D02*
X0208748Y0132005D01*
X0208748Y0130807D02*
X0202348Y0130807D01*
X0202348Y0129608D02*
X0208748Y0129608D01*
X0208748Y0128410D02*
X0202348Y0128410D01*
X0202348Y0127211D02*
X0208748Y0127211D01*
X0208748Y0126012D02*
X0202348Y0126012D01*
X0202348Y0124814D02*
X0208748Y0124814D01*
X0208748Y0123615D02*
X0202348Y0123615D01*
X0202348Y0122417D02*
X0208748Y0122417D01*
X0208748Y0121218D02*
X0202348Y0121218D01*
X0202348Y0120020D02*
X0208748Y0120020D01*
X0208748Y0118821D02*
X0202348Y0118821D01*
X0202348Y0117623D02*
X0208748Y0117623D01*
X0208748Y0116424D02*
X0202348Y0116424D01*
X0202348Y0115226D02*
X0208748Y0115226D01*
X0208748Y0114027D02*
X0202348Y0114027D01*
X0202348Y0112829D02*
X0208748Y0112829D01*
X0208748Y0111630D02*
X0202348Y0111630D01*
X0202348Y0110432D02*
X0208748Y0110432D01*
X0208748Y0109233D02*
X0202348Y0109233D01*
X0202348Y0108035D02*
X0208748Y0108035D01*
X0208748Y0106836D02*
X0202348Y0106836D01*
X0202348Y0105638D02*
X0208748Y0105638D01*
X0208748Y0104439D02*
X0202348Y0104439D01*
X0202348Y0103241D02*
X0208748Y0103241D01*
X0208748Y0102042D02*
X0202348Y0102042D01*
X0202348Y0100844D02*
X0208748Y0100844D01*
X0208748Y0099645D02*
X0202348Y0099645D01*
X0202348Y0098447D02*
X0208748Y0098447D01*
X0208748Y0097248D02*
X0202348Y0097248D01*
X0202348Y0096050D02*
X0208748Y0096050D01*
X0208748Y0094851D02*
X0202348Y0094851D01*
X0202348Y0093653D02*
X0208748Y0093653D01*
X0208748Y0092454D02*
X0202348Y0092454D01*
X0202348Y0091256D02*
X0208748Y0091256D01*
X0208748Y0090057D02*
X0202348Y0090057D01*
X0202348Y0088859D02*
X0208748Y0088859D01*
X0234395Y0110432D02*
X0295795Y0110432D01*
X0295795Y0111630D02*
X0234395Y0111630D01*
X0234395Y0112829D02*
X0295795Y0112829D01*
X0295795Y0114027D02*
X0234395Y0114027D01*
X0234395Y0115226D02*
X0295795Y0115226D01*
X0295058Y0116424D02*
X0234395Y0116424D01*
X0234395Y0117623D02*
X0293860Y0117623D01*
X0292661Y0118821D02*
X0234395Y0118821D01*
X0234395Y0120020D02*
X0291463Y0120020D01*
X0290264Y0121218D02*
X0234395Y0121218D01*
X0234395Y0122417D02*
X0289066Y0122417D01*
X0287867Y0123615D02*
X0234395Y0123615D01*
X0234395Y0124814D02*
X0286669Y0124814D01*
X0285470Y0126012D02*
X0234395Y0126012D01*
X0234395Y0127211D02*
X0284272Y0127211D01*
X0283073Y0128410D02*
X0234395Y0128410D01*
X0234395Y0129608D02*
X0281875Y0129608D01*
X0280676Y0130807D02*
X0234395Y0130807D01*
X0234395Y0132005D02*
X0279478Y0132005D01*
X0278279Y0133204D02*
X0234395Y0133204D01*
X0234395Y0134402D02*
X0277081Y0134402D01*
X0275882Y0135601D02*
X0234395Y0135601D01*
X0234395Y0136799D02*
X0274684Y0136799D01*
X0273485Y0137998D02*
X0234395Y0137998D01*
X0234395Y0139196D02*
X0272287Y0139196D01*
X0279775Y0136799D02*
X0286052Y0136799D01*
X0288382Y0135601D02*
X0280973Y0135601D01*
X0282172Y0134402D02*
X0289581Y0134402D01*
X0290779Y0133204D02*
X0283370Y0133204D01*
X0297595Y0148933D02*
X0302595Y0143933D01*
X0297595Y0148933D02*
X0297595Y0208933D01*
X0295095Y0213504D02*
X0290095Y0213504D01*
X0291294Y0212305D02*
X0293896Y0212305D01*
X0292698Y0211107D02*
X0292492Y0211107D01*
X0292595Y0209908D02*
X0292595Y0209908D01*
X0292595Y0208710D02*
X0292595Y0208710D01*
X0292595Y0207511D02*
X0292595Y0207511D01*
X0292046Y0206313D02*
X0293144Y0206313D01*
X0294343Y0205114D02*
X0290847Y0205114D01*
X0289395Y0203916D02*
X0295795Y0203916D01*
X0295795Y0202717D02*
X0289395Y0202717D01*
X0289395Y0201519D02*
X0295795Y0201519D01*
X0295795Y0200320D02*
X0289395Y0200320D01*
X0289395Y0199122D02*
X0295795Y0199122D01*
X0295795Y0197923D02*
X0289395Y0197923D01*
X0289395Y0196725D02*
X0295795Y0196725D01*
X0295795Y0195526D02*
X0289395Y0195526D01*
X0289395Y0194328D02*
X0295795Y0194328D01*
X0295795Y0193129D02*
X0289395Y0193129D01*
X0289395Y0191931D02*
X0295795Y0191931D01*
X0295795Y0190732D02*
X0289395Y0190732D01*
X0289395Y0189534D02*
X0295795Y0189534D01*
X0295795Y0188335D02*
X0289395Y0188335D01*
X0289395Y0187137D02*
X0295795Y0187137D01*
X0295795Y0185938D02*
X0289395Y0185938D01*
X0289395Y0184740D02*
X0295795Y0184740D01*
X0295795Y0183541D02*
X0289395Y0183541D01*
X0289395Y0182343D02*
X0295795Y0182343D01*
X0295795Y0181144D02*
X0289395Y0181144D01*
X0289395Y0179945D02*
X0295795Y0179945D01*
X0295795Y0178747D02*
X0289395Y0178747D01*
X0289395Y0177548D02*
X0295795Y0177548D01*
X0295795Y0176350D02*
X0289395Y0176350D01*
X0289395Y0175151D02*
X0295795Y0175151D01*
X0295795Y0173953D02*
X0289395Y0173953D01*
X0289395Y0172754D02*
X0295795Y0172754D01*
X0295795Y0171556D02*
X0289395Y0171556D01*
X0289395Y0170357D02*
X0295795Y0170357D01*
X0295795Y0169159D02*
X0289395Y0169159D01*
X0289395Y0167960D02*
X0295795Y0167960D01*
X0295795Y0166762D02*
X0289395Y0166762D01*
X0289500Y0165563D02*
X0295795Y0165563D01*
X0295795Y0164365D02*
X0290095Y0164365D01*
X0289984Y0163166D02*
X0295795Y0163166D01*
X0295795Y0161968D02*
X0289165Y0161968D01*
X0287595Y0163933D02*
X0287595Y0208933D01*
X0296883Y0217099D02*
X0272348Y0217099D01*
X0272348Y0215901D02*
X0298082Y0215901D01*
X0292556Y0244665D02*
X0320693Y0244665D01*
X0319822Y0245864D02*
X0270710Y0245864D01*
X0269512Y0247062D02*
X0318862Y0247062D01*
X0317213Y0248261D02*
X0073883Y0248261D01*
X0072234Y0247062D02*
X0156179Y0247062D01*
X0154980Y0245864D02*
X0071274Y0245864D01*
X0070403Y0244665D02*
X0098540Y0244665D01*
X0097999Y0244441D02*
X0096733Y0243175D01*
X0096048Y0241521D01*
X0096048Y0239731D01*
X0096733Y0238077D01*
X0097999Y0236811D01*
X0099653Y0236126D01*
X0101443Y0236126D01*
X0103097Y0236811D01*
X0104363Y0238077D01*
X0105048Y0239731D01*
X0105048Y0241521D01*
X0104363Y0243175D01*
X0103097Y0244441D01*
X0101443Y0245126D01*
X0099653Y0245126D01*
X0097999Y0244441D01*
X0097025Y0243467D02*
X0069862Y0243467D01*
X0069473Y0242268D02*
X0079349Y0242268D01*
X0080000Y0242538D02*
X0077459Y0241486D01*
X0075515Y0239541D01*
X0074463Y0237001D01*
X0074463Y0234251D01*
X0075515Y0231711D01*
X0077459Y0229766D01*
X0080000Y0228714D01*
X0082750Y0228714D01*
X0085290Y0229766D01*
X0087234Y0231711D01*
X0088286Y0234251D01*
X0088286Y0237001D01*
X0087234Y0239541D01*
X0085290Y0241486D01*
X0082750Y0242538D01*
X0080000Y0242538D01*
X0077043Y0241070D02*
X0069114Y0241070D01*
X0069019Y0239871D02*
X0075845Y0239871D01*
X0075155Y0238673D02*
X0068995Y0238673D01*
X0068995Y0237474D02*
X0074659Y0237474D01*
X0074463Y0236276D02*
X0068995Y0236276D01*
X0068995Y0235077D02*
X0074463Y0235077D01*
X0074617Y0233879D02*
X0068995Y0233879D01*
X0068995Y0232680D02*
X0075114Y0232680D01*
X0075744Y0231481D02*
X0068995Y0231481D01*
X0068995Y0230283D02*
X0076943Y0230283D01*
X0079106Y0229084D02*
X0068995Y0229084D01*
X0068995Y0227886D02*
X0096924Y0227886D01*
X0096733Y0228077D02*
X0097999Y0226811D01*
X0099653Y0226126D01*
X0101443Y0226126D01*
X0103097Y0226811D01*
X0104363Y0228077D01*
X0105048Y0229731D01*
X0105048Y0231521D01*
X0104363Y0233175D01*
X0103097Y0234441D01*
X0101443Y0235126D01*
X0099653Y0235126D01*
X0097999Y0234441D01*
X0096733Y0233175D01*
X0096048Y0231521D01*
X0096048Y0229731D01*
X0096733Y0228077D01*
X0096316Y0229084D02*
X0083643Y0229084D01*
X0085806Y0230283D02*
X0096048Y0230283D01*
X0096048Y0231481D02*
X0087005Y0231481D01*
X0087636Y0232680D02*
X0096528Y0232680D01*
X0097436Y0233879D02*
X0088132Y0233879D01*
X0088286Y0235077D02*
X0099535Y0235077D01*
X0099292Y0236276D02*
X0088286Y0236276D01*
X0088090Y0237474D02*
X0097336Y0237474D01*
X0096486Y0238673D02*
X0087594Y0238673D01*
X0086904Y0239871D02*
X0096048Y0239871D01*
X0096048Y0241070D02*
X0085706Y0241070D01*
X0083401Y0242268D02*
X0096357Y0242268D01*
X0102556Y0244665D02*
X0108540Y0244665D01*
X0107999Y0244441D02*
X0106733Y0243175D01*
X0106048Y0241521D01*
X0106048Y0239731D01*
X0106733Y0238077D01*
X0107999Y0236811D01*
X0109653Y0236126D01*
X0111443Y0236126D01*
X0113097Y0236811D01*
X0114363Y0238077D01*
X0115048Y0239731D01*
X0115048Y0241521D01*
X0114363Y0243175D01*
X0113097Y0244441D01*
X0111443Y0245126D01*
X0109653Y0245126D01*
X0107999Y0244441D01*
X0107025Y0243467D02*
X0104071Y0243467D01*
X0104738Y0242268D02*
X0106357Y0242268D01*
X0106048Y0241070D02*
X0105048Y0241070D01*
X0105048Y0239871D02*
X0106048Y0239871D01*
X0106486Y0238673D02*
X0104610Y0238673D01*
X0103760Y0237474D02*
X0107336Y0237474D01*
X0109292Y0236276D02*
X0101804Y0236276D01*
X0101561Y0235077D02*
X0109535Y0235077D01*
X0109653Y0235126D02*
X0107999Y0234441D01*
X0106733Y0233175D01*
X0106048Y0231521D01*
X0106048Y0229731D01*
X0106733Y0228077D01*
X0107999Y0226811D01*
X0109653Y0226126D01*
X0111443Y0226126D01*
X0113097Y0226811D01*
X0114363Y0228077D01*
X0115048Y0229731D01*
X0115048Y0231521D01*
X0114363Y0233175D01*
X0113097Y0234441D01*
X0111443Y0235126D01*
X0109653Y0235126D01*
X0111561Y0235077D02*
X0119535Y0235077D01*
X0119653Y0235126D02*
X0117999Y0234441D01*
X0116733Y0233175D01*
X0116048Y0231521D01*
X0116048Y0229731D01*
X0116733Y0228077D01*
X0117999Y0226811D01*
X0119653Y0226126D01*
X0121443Y0226126D01*
X0123097Y0226811D01*
X0124363Y0228077D01*
X0125048Y0229731D01*
X0125048Y0231521D01*
X0124363Y0233175D01*
X0123097Y0234441D01*
X0121443Y0235126D01*
X0119653Y0235126D01*
X0119400Y0235847D02*
X0120162Y0235726D01*
X0120262Y0235726D01*
X0120262Y0240340D01*
X0120834Y0240340D01*
X0120834Y0240912D01*
X0125448Y0240912D01*
X0125448Y0241012D01*
X0125327Y0241773D01*
X0125089Y0242507D01*
X0124739Y0243194D01*
X0124285Y0243818D01*
X0123740Y0244363D01*
X0123116Y0244817D01*
X0122429Y0245167D01*
X0121695Y0245405D01*
X0120934Y0245526D01*
X0120834Y0245526D01*
X0120834Y0240912D01*
X0120262Y0240912D01*
X0120262Y0245526D01*
X0120162Y0245526D01*
X0119400Y0245405D01*
X0118667Y0245167D01*
X0117980Y0244817D01*
X0117356Y0244363D01*
X0116810Y0243818D01*
X0116357Y0243194D01*
X0116007Y0242507D01*
X0115769Y0241773D01*
X0115648Y0241012D01*
X0115648Y0240912D01*
X0120262Y0240912D01*
X0120262Y0240340D01*
X0115648Y0240340D01*
X0115648Y0240240D01*
X0115769Y0239479D01*
X0116007Y0238745D01*
X0116357Y0238058D01*
X0116810Y0237434D01*
X0117356Y0236888D01*
X0117980Y0236435D01*
X0118667Y0236085D01*
X0119400Y0235847D01*
X0120262Y0236276D02*
X0120834Y0236276D01*
X0120834Y0235726D02*
X0120934Y0235726D01*
X0121695Y0235847D01*
X0122429Y0236085D01*
X0123116Y0236435D01*
X0123740Y0236888D01*
X0124285Y0237434D01*
X0124739Y0238058D01*
X0125089Y0238745D01*
X0125327Y0239479D01*
X0125448Y0240240D01*
X0125448Y0240340D01*
X0120834Y0240340D01*
X0120834Y0235726D01*
X0121561Y0235077D02*
X0129535Y0235077D01*
X0129653Y0236126D02*
X0131443Y0236126D01*
X0133097Y0236811D01*
X0134363Y0238077D01*
X0135048Y0239731D01*
X0135048Y0241521D01*
X0134363Y0243175D01*
X0133097Y0244441D01*
X0131443Y0245126D01*
X0129653Y0245126D01*
X0127999Y0244441D01*
X0126733Y0243175D01*
X0126048Y0241521D01*
X0126048Y0239731D01*
X0126733Y0238077D01*
X0127999Y0236811D01*
X0129653Y0236126D01*
X0129292Y0236276D02*
X0122803Y0236276D01*
X0124315Y0237474D02*
X0127336Y0237474D01*
X0126486Y0238673D02*
X0125052Y0238673D01*
X0125389Y0239871D02*
X0126048Y0239871D01*
X0126048Y0241070D02*
X0125439Y0241070D01*
X0125166Y0242268D02*
X0126357Y0242268D01*
X0127025Y0243467D02*
X0124541Y0243467D01*
X0123325Y0244665D02*
X0128540Y0244665D01*
X0132556Y0244665D02*
X0138540Y0244665D01*
X0137999Y0244441D02*
X0136733Y0243175D01*
X0136048Y0241521D01*
X0136048Y0239731D01*
X0136733Y0238077D01*
X0137999Y0236811D01*
X0139653Y0236126D01*
X0141443Y0236126D01*
X0143097Y0236811D01*
X0144363Y0238077D01*
X0145048Y0239731D01*
X0145048Y0241521D01*
X0144363Y0243175D01*
X0143097Y0244441D01*
X0141443Y0245126D01*
X0139653Y0245126D01*
X0137999Y0244441D01*
X0137025Y0243467D02*
X0134071Y0243467D01*
X0134738Y0242268D02*
X0136357Y0242268D01*
X0136048Y0241070D02*
X0135048Y0241070D01*
X0135048Y0239871D02*
X0136048Y0239871D01*
X0136486Y0238673D02*
X0134610Y0238673D01*
X0133760Y0237474D02*
X0137336Y0237474D01*
X0139292Y0236276D02*
X0131804Y0236276D01*
X0131561Y0235077D02*
X0138490Y0235077D01*
X0140262Y0235077D02*
X0140834Y0235077D01*
X0140834Y0233879D02*
X0140262Y0233879D01*
X0140262Y0232680D02*
X0140834Y0232680D01*
X0140834Y0231481D02*
X0140262Y0231481D01*
X0140262Y0230340D02*
X0135648Y0230340D01*
X0135648Y0230240D01*
X0135769Y0229479D01*
X0136007Y0228745D01*
X0136357Y0228058D01*
X0136810Y0227434D01*
X0137356Y0226888D01*
X0137980Y0226435D01*
X0138667Y0226085D01*
X0139400Y0225847D01*
X0140162Y0225726D01*
X0140262Y0225726D01*
X0140262Y0230340D01*
X0140262Y0230283D02*
X0140834Y0230283D01*
X0140834Y0229084D02*
X0140262Y0229084D01*
X0140262Y0227886D02*
X0140834Y0227886D01*
X0140834Y0226687D02*
X0140262Y0226687D01*
X0137632Y0226687D02*
X0134886Y0226687D01*
X0134172Y0227886D02*
X0136482Y0227886D01*
X0135897Y0229084D02*
X0134780Y0229084D01*
X0135048Y0230283D02*
X0135648Y0230283D01*
X0135722Y0231481D02*
X0135048Y0231481D01*
X0134568Y0232680D02*
X0136095Y0232680D01*
X0136871Y0233879D02*
X0133659Y0233879D01*
X0130548Y0230626D02*
X0130548Y0228480D01*
X0140095Y0218933D01*
X0140095Y0186433D01*
X0130095Y0176433D01*
X0129149Y0178747D02*
X0068995Y0178747D01*
X0068995Y0179945D02*
X0131062Y0179945D01*
X0132260Y0181144D02*
X0068995Y0181144D01*
X0068995Y0182343D02*
X0133459Y0182343D01*
X0134658Y0183541D02*
X0116410Y0183541D01*
X0116270Y0183434D02*
X0116956Y0183960D01*
X0117568Y0184572D01*
X0118095Y0185258D01*
X0118527Y0186008D01*
X0118858Y0186807D01*
X0119082Y0187643D01*
X0119173Y0188333D01*
X0113195Y0188333D01*
X0113195Y0182355D01*
X0113885Y0182446D01*
X0114721Y0182670D01*
X0115521Y0183001D01*
X0116270Y0183434D01*
X0117696Y0184740D02*
X0135856Y0184740D01*
X0137055Y0185938D02*
X0118487Y0185938D01*
X0118947Y0187137D02*
X0138253Y0187137D01*
X0138295Y0188335D02*
X0113195Y0188335D01*
X0113195Y0188333D02*
X0113195Y0189533D01*
X0111995Y0189533D01*
X0111995Y0188333D01*
X0106017Y0188333D01*
X0106108Y0187643D01*
X0106332Y0186807D01*
X0106663Y0186008D01*
X0107096Y0185258D01*
X0107622Y0184572D01*
X0108234Y0183960D01*
X0108921Y0183434D01*
X0109670Y0183001D01*
X0110469Y0182670D01*
X0111305Y0182446D01*
X0111995Y0182355D01*
X0111995Y0188333D01*
X0113195Y0188333D01*
X0113195Y0187137D02*
X0111995Y0187137D01*
X0111995Y0188335D02*
X0093195Y0188335D01*
X0093195Y0189533D02*
X0099173Y0189533D01*
X0099082Y0190223D01*
X0098858Y0191059D01*
X0098527Y0191858D01*
X0098095Y0192608D01*
X0097568Y0193294D01*
X0096956Y0193906D01*
X0096270Y0194433D01*
X0095521Y0194865D01*
X0094721Y0195196D01*
X0093885Y0195420D01*
X0093195Y0195511D01*
X0093195Y0189533D01*
X0093195Y0189534D02*
X0091995Y0189534D01*
X0091995Y0190732D02*
X0093195Y0190732D01*
X0093195Y0191931D02*
X0091995Y0191931D01*
X0091995Y0193129D02*
X0093195Y0193129D01*
X0093195Y0194328D02*
X0091995Y0194328D01*
X0089691Y0195796D02*
X0090732Y0196837D01*
X0091295Y0198197D01*
X0091295Y0199669D01*
X0090732Y0201029D01*
X0089691Y0202070D01*
X0088331Y0202633D01*
X0086859Y0202633D01*
X0086138Y0202334D01*
X0086089Y0202383D01*
X0077359Y0202383D01*
X0076524Y0201548D01*
X0076524Y0196318D01*
X0077359Y0195483D01*
X0086089Y0195483D01*
X0086138Y0195532D01*
X0086859Y0195233D01*
X0088331Y0195233D01*
X0089691Y0195796D01*
X0089039Y0195526D02*
X0097295Y0195526D01*
X0097339Y0195421D02*
X0099083Y0193677D01*
X0101362Y0192733D01*
X0103828Y0192733D01*
X0106107Y0193677D01*
X0107851Y0195421D01*
X0108795Y0197700D01*
X0108795Y0200166D01*
X0107851Y0202445D01*
X0106107Y0204189D01*
X0103828Y0205133D01*
X0101362Y0205133D01*
X0099083Y0204189D01*
X0097339Y0202445D01*
X0096395Y0200166D01*
X0096395Y0197700D01*
X0097339Y0195421D01*
X0096799Y0196725D02*
X0090619Y0196725D01*
X0091182Y0197923D02*
X0096395Y0197923D01*
X0096395Y0199122D02*
X0091295Y0199122D01*
X0091025Y0200320D02*
X0096459Y0200320D01*
X0096955Y0201519D02*
X0090242Y0201519D01*
X0090355Y0202717D02*
X0068995Y0202717D01*
X0068995Y0201519D02*
X0076524Y0201519D01*
X0076524Y0200320D02*
X0068995Y0200320D01*
X0068995Y0199122D02*
X0076524Y0199122D01*
X0076524Y0197923D02*
X0068995Y0197923D01*
X0068995Y0196725D02*
X0076524Y0196725D01*
X0077316Y0195526D02*
X0068995Y0195526D01*
X0068995Y0194328D02*
X0088784Y0194328D01*
X0087496Y0193129D02*
X0085846Y0193129D01*
X0086545Y0191931D02*
X0086705Y0191931D01*
X0086152Y0195526D02*
X0086132Y0195526D01*
X0091995Y0202717D02*
X0093195Y0202717D01*
X0093195Y0203916D02*
X0091995Y0203916D01*
X0091995Y0205114D02*
X0093195Y0205114D01*
X0093195Y0206313D02*
X0091995Y0206313D01*
X0091995Y0207511D02*
X0093195Y0207511D01*
X0093195Y0208710D02*
X0111995Y0208710D01*
X0111995Y0208333D02*
X0111995Y0209533D01*
X0106017Y0209533D01*
X0106108Y0210223D01*
X0106332Y0211059D01*
X0106663Y0211858D01*
X0107096Y0212608D01*
X0107622Y0213294D01*
X0108234Y0213906D01*
X0108921Y0214433D01*
X0109670Y0214865D01*
X0110469Y0215196D01*
X0111305Y0215420D01*
X0111995Y0215511D01*
X0111995Y0209533D01*
X0113195Y0209533D01*
X0113195Y0215511D01*
X0113885Y0215420D01*
X0114721Y0215196D01*
X0115521Y0214865D01*
X0116270Y0214433D01*
X0116956Y0213906D01*
X0117568Y0213294D01*
X0118095Y0212608D01*
X0118527Y0211858D01*
X0118858Y0211059D01*
X0119082Y0210223D01*
X0119173Y0209533D01*
X0113195Y0209533D01*
X0113195Y0208333D01*
X0113195Y0202355D01*
X0113885Y0202446D01*
X0114721Y0202670D01*
X0115521Y0203001D01*
X0116270Y0203434D01*
X0116956Y0203960D01*
X0117568Y0204572D01*
X0118095Y0205258D01*
X0118527Y0206008D01*
X0118858Y0206807D01*
X0119082Y0207643D01*
X0119173Y0208333D01*
X0113195Y0208333D01*
X0111995Y0208333D01*
X0106017Y0208333D01*
X0106108Y0207643D01*
X0106332Y0206807D01*
X0106663Y0206008D01*
X0107096Y0205258D01*
X0107622Y0204572D01*
X0108234Y0203960D01*
X0108921Y0203434D01*
X0109670Y0203001D01*
X0110469Y0202670D01*
X0111305Y0202446D01*
X0111995Y0202355D01*
X0111995Y0208333D01*
X0111995Y0207511D02*
X0113195Y0207511D01*
X0113195Y0206313D02*
X0111995Y0206313D01*
X0111995Y0205114D02*
X0113195Y0205114D01*
X0113195Y0203916D02*
X0111995Y0203916D01*
X0111995Y0202717D02*
X0113195Y0202717D01*
X0114835Y0202717D02*
X0138295Y0202717D01*
X0138295Y0201519D02*
X0108235Y0201519D01*
X0108731Y0200320D02*
X0138295Y0200320D01*
X0138295Y0199122D02*
X0108795Y0199122D01*
X0108795Y0197923D02*
X0138295Y0197923D01*
X0138295Y0196725D02*
X0108391Y0196725D01*
X0107895Y0195526D02*
X0138295Y0195526D01*
X0138295Y0194328D02*
X0116406Y0194328D01*
X0116270Y0194433D02*
X0115521Y0194865D01*
X0114721Y0195196D01*
X0113885Y0195420D01*
X0113195Y0195511D01*
X0113195Y0189533D01*
X0119173Y0189533D01*
X0119082Y0190223D01*
X0118858Y0191059D01*
X0118527Y0191858D01*
X0118095Y0192608D01*
X0117568Y0193294D01*
X0116956Y0193906D01*
X0116270Y0194433D01*
X0117695Y0193129D02*
X0138295Y0193129D01*
X0138295Y0191931D02*
X0118486Y0191931D01*
X0118946Y0190732D02*
X0138295Y0190732D01*
X0138295Y0189534D02*
X0119173Y0189534D01*
X0113195Y0189534D02*
X0111995Y0189534D01*
X0111995Y0189533D02*
X0111995Y0195511D01*
X0111305Y0195420D01*
X0110469Y0195196D01*
X0109670Y0194865D01*
X0108921Y0194433D01*
X0108234Y0193906D01*
X0107622Y0193294D01*
X0107096Y0192608D01*
X0106663Y0191858D01*
X0106332Y0191059D01*
X0106108Y0190223D01*
X0106017Y0189533D01*
X0111995Y0189533D01*
X0111995Y0190732D02*
X0113195Y0190732D01*
X0113195Y0191931D02*
X0111995Y0191931D01*
X0111995Y0193129D02*
X0113195Y0193129D01*
X0113195Y0194328D02*
X0111995Y0194328D01*
X0108784Y0194328D02*
X0106758Y0194328D01*
X0107496Y0193129D02*
X0104785Y0193129D01*
X0106705Y0191931D02*
X0098486Y0191931D01*
X0098946Y0190732D02*
X0106244Y0190732D01*
X0106017Y0189534D02*
X0099173Y0189534D01*
X0098947Y0187137D02*
X0106244Y0187137D01*
X0106703Y0185938D02*
X0098487Y0185938D01*
X0097696Y0184740D02*
X0107494Y0184740D01*
X0108780Y0183541D02*
X0096410Y0183541D01*
X0093195Y0183541D02*
X0091995Y0183541D01*
X0091995Y0184740D02*
X0093195Y0184740D01*
X0093195Y0185938D02*
X0091995Y0185938D01*
X0091995Y0187137D02*
X0093195Y0187137D01*
X0088780Y0183541D02*
X0068995Y0183541D01*
X0068995Y0177548D02*
X0127851Y0177548D01*
X0127595Y0176350D02*
X0068995Y0176350D01*
X0068995Y0175151D02*
X0116760Y0175151D01*
X0118430Y0175151D02*
X0127920Y0175151D01*
X0132270Y0175151D02*
X0132518Y0175151D01*
X0132595Y0176350D02*
X0133716Y0176350D01*
X0133756Y0177548D02*
X0134915Y0177548D01*
X0134955Y0178747D02*
X0136113Y0178747D01*
X0136153Y0179945D02*
X0137312Y0179945D01*
X0137352Y0181144D02*
X0138510Y0181144D01*
X0138550Y0182343D02*
X0139709Y0182343D01*
X0139749Y0183541D02*
X0140908Y0183541D01*
X0140947Y0184740D02*
X0142106Y0184740D01*
X0141895Y0185938D02*
X0143305Y0185938D01*
X0143795Y0187137D02*
X0141895Y0187137D01*
X0141895Y0188335D02*
X0143795Y0188335D01*
X0143795Y0189534D02*
X0141895Y0189534D01*
X0141895Y0190732D02*
X0143795Y0190732D01*
X0143795Y0191931D02*
X0141895Y0191931D01*
X0141895Y0193129D02*
X0143795Y0193129D01*
X0143795Y0194328D02*
X0141895Y0194328D01*
X0141895Y0195526D02*
X0143795Y0195526D01*
X0143795Y0196725D02*
X0141895Y0196725D01*
X0141895Y0197923D02*
X0143795Y0197923D01*
X0143795Y0199122D02*
X0141895Y0199122D01*
X0141895Y0200320D02*
X0143795Y0200320D01*
X0143795Y0201519D02*
X0141895Y0201519D01*
X0141895Y0202717D02*
X0143795Y0202717D01*
X0143795Y0203916D02*
X0141895Y0203916D01*
X0141895Y0205114D02*
X0143795Y0205114D01*
X0143795Y0206313D02*
X0141895Y0206313D01*
X0141895Y0207511D02*
X0143795Y0207511D01*
X0143795Y0208710D02*
X0141895Y0208710D01*
X0141895Y0209908D02*
X0143795Y0209908D01*
X0143795Y0211107D02*
X0141895Y0211107D01*
X0141895Y0212305D02*
X0143795Y0212305D01*
X0143795Y0213504D02*
X0141895Y0213504D01*
X0141895Y0214702D02*
X0143795Y0214702D01*
X0143795Y0215901D02*
X0141895Y0215901D01*
X0141895Y0217099D02*
X0143795Y0217099D01*
X0143795Y0218298D02*
X0141895Y0218298D01*
X0141895Y0219496D02*
X0143795Y0219496D01*
X0143795Y0220695D02*
X0140879Y0220695D01*
X0139680Y0221893D02*
X0143795Y0221893D01*
X0143795Y0223092D02*
X0138482Y0223092D01*
X0137283Y0224290D02*
X0143795Y0224290D01*
X0143795Y0225489D02*
X0136085Y0225489D01*
X0133391Y0223092D02*
X0068995Y0223092D01*
X0068995Y0224290D02*
X0132192Y0224290D01*
X0130994Y0225489D02*
X0068995Y0225489D01*
X0068995Y0226687D02*
X0098297Y0226687D01*
X0102798Y0226687D02*
X0108297Y0226687D01*
X0106924Y0227886D02*
X0104172Y0227886D01*
X0104780Y0229084D02*
X0106316Y0229084D01*
X0106048Y0230283D02*
X0105048Y0230283D01*
X0105048Y0231481D02*
X0106048Y0231481D01*
X0106528Y0232680D02*
X0104568Y0232680D01*
X0103659Y0233879D02*
X0107436Y0233879D01*
X0111804Y0236276D02*
X0118293Y0236276D01*
X0116781Y0237474D02*
X0113760Y0237474D01*
X0114610Y0238673D02*
X0116044Y0238673D01*
X0115706Y0239871D02*
X0115048Y0239871D01*
X0115048Y0241070D02*
X0115657Y0241070D01*
X0115929Y0242268D02*
X0114738Y0242268D01*
X0114071Y0243467D02*
X0116555Y0243467D01*
X0117771Y0244665D02*
X0112556Y0244665D01*
X0120262Y0244665D02*
X0120834Y0244665D01*
X0120834Y0243467D02*
X0120262Y0243467D01*
X0120262Y0242268D02*
X0120834Y0242268D01*
X0120834Y0241070D02*
X0120262Y0241070D01*
X0120262Y0239871D02*
X0120834Y0239871D01*
X0120834Y0238673D02*
X0120262Y0238673D01*
X0120262Y0237474D02*
X0120834Y0237474D01*
X0123659Y0233879D02*
X0127436Y0233879D01*
X0126528Y0232680D02*
X0124568Y0232680D01*
X0125048Y0231481D02*
X0126048Y0231481D01*
X0126048Y0230283D02*
X0125048Y0230283D01*
X0124780Y0229084D02*
X0126316Y0229084D01*
X0126924Y0227886D02*
X0124172Y0227886D01*
X0122798Y0226687D02*
X0128297Y0226687D01*
X0134589Y0221893D02*
X0068995Y0221893D01*
X0068995Y0220695D02*
X0135788Y0220695D01*
X0136986Y0219496D02*
X0068995Y0219496D01*
X0068995Y0218298D02*
X0138185Y0218298D01*
X0138295Y0217099D02*
X0068995Y0217099D01*
X0068995Y0215901D02*
X0138295Y0215901D01*
X0138295Y0214702D02*
X0115802Y0214702D01*
X0117358Y0213504D02*
X0138295Y0213504D01*
X0138295Y0212305D02*
X0118269Y0212305D01*
X0118839Y0211107D02*
X0138295Y0211107D01*
X0138295Y0209908D02*
X0119124Y0209908D01*
X0119047Y0207511D02*
X0138295Y0207511D01*
X0138295Y0206313D02*
X0118654Y0206313D01*
X0117984Y0205114D02*
X0138295Y0205114D01*
X0138295Y0203916D02*
X0116898Y0203916D01*
X0110355Y0202717D02*
X0107579Y0202717D01*
X0108292Y0203916D02*
X0106381Y0203916D01*
X0107206Y0205114D02*
X0103874Y0205114D01*
X0101316Y0205114D02*
X0097984Y0205114D01*
X0098654Y0206313D02*
X0106537Y0206313D01*
X0106143Y0207511D02*
X0099047Y0207511D01*
X0099173Y0209533D02*
X0099082Y0210223D01*
X0098858Y0211059D01*
X0098527Y0211858D01*
X0098095Y0212608D01*
X0097568Y0213294D01*
X0096956Y0213906D01*
X0096270Y0214433D01*
X0095521Y0214865D01*
X0094721Y0215196D01*
X0093885Y0215420D01*
X0093195Y0215511D01*
X0093195Y0209533D01*
X0099173Y0209533D01*
X0099124Y0209908D02*
X0106067Y0209908D01*
X0106352Y0211107D02*
X0098839Y0211107D01*
X0098269Y0212305D02*
X0106921Y0212305D01*
X0107832Y0213504D02*
X0097358Y0213504D01*
X0095802Y0214702D02*
X0109388Y0214702D01*
X0111995Y0214702D02*
X0113195Y0214702D01*
X0113195Y0213504D02*
X0111995Y0213504D01*
X0111995Y0212305D02*
X0113195Y0212305D01*
X0113195Y0211107D02*
X0111995Y0211107D01*
X0111995Y0209908D02*
X0113195Y0209908D01*
X0113195Y0208710D02*
X0138295Y0208710D01*
X0147395Y0208710D02*
X0148748Y0208710D01*
X0148748Y0209908D02*
X0147395Y0209908D01*
X0147395Y0211107D02*
X0148748Y0211107D01*
X0148748Y0212305D02*
X0147395Y0212305D01*
X0147395Y0213504D02*
X0148748Y0213504D01*
X0148748Y0214702D02*
X0147395Y0214702D01*
X0147395Y0215901D02*
X0148748Y0215901D01*
X0148748Y0217099D02*
X0147395Y0217099D01*
X0147395Y0218298D02*
X0148748Y0218298D01*
X0148748Y0219496D02*
X0147395Y0219496D01*
X0147395Y0220695D02*
X0148748Y0220695D01*
X0148748Y0221893D02*
X0147395Y0221893D01*
X0147395Y0223092D02*
X0148748Y0223092D01*
X0148748Y0224290D02*
X0147395Y0224290D01*
X0147395Y0225489D02*
X0148748Y0225489D01*
X0148297Y0226687D02*
X0147395Y0226687D01*
X0143795Y0226687D02*
X0143463Y0226687D01*
X0150548Y0230626D02*
X0150548Y0131886D01*
X0127595Y0108933D01*
X0112595Y0108933D01*
X0110153Y0108035D02*
X0085995Y0108035D01*
X0085995Y0109233D02*
X0109995Y0109233D01*
X0110417Y0110432D02*
X0085995Y0110432D01*
X0085995Y0111630D02*
X0127747Y0111630D01*
X0128945Y0112829D02*
X0085995Y0112829D01*
X0085995Y0114027D02*
X0130144Y0114027D01*
X0131342Y0115226D02*
X0085995Y0115226D01*
X0085995Y0116424D02*
X0132541Y0116424D01*
X0133739Y0117623D02*
X0085995Y0117623D01*
X0085995Y0118821D02*
X0134938Y0118821D01*
X0136136Y0120020D02*
X0085995Y0120020D01*
X0085995Y0121218D02*
X0137335Y0121218D01*
X0138533Y0122417D02*
X0085995Y0122417D01*
X0085995Y0123615D02*
X0139732Y0123615D01*
X0140930Y0124814D02*
X0085995Y0124814D01*
X0085995Y0126012D02*
X0142129Y0126012D01*
X0143327Y0127211D02*
X0085995Y0127211D01*
X0085995Y0128410D02*
X0144526Y0128410D01*
X0145725Y0129608D02*
X0085995Y0129608D01*
X0085995Y0130807D02*
X0146923Y0130807D01*
X0148122Y0132005D02*
X0085995Y0132005D01*
X0085995Y0133204D02*
X0148748Y0133204D01*
X0148748Y0134402D02*
X0085995Y0134402D01*
X0085995Y0135601D02*
X0148748Y0135601D01*
X0148748Y0136799D02*
X0085995Y0136799D01*
X0085995Y0137998D02*
X0148748Y0137998D01*
X0148748Y0139196D02*
X0085995Y0139196D01*
X0085995Y0140395D02*
X0148748Y0140395D01*
X0148748Y0141593D02*
X0085995Y0141593D01*
X0085995Y0142792D02*
X0148748Y0142792D01*
X0148748Y0143990D02*
X0085995Y0143990D01*
X0085995Y0145189D02*
X0148748Y0145189D01*
X0148748Y0146387D02*
X0085995Y0146387D01*
X0085995Y0147586D02*
X0148748Y0147586D01*
X0148748Y0148784D02*
X0085995Y0148784D01*
X0085995Y0149983D02*
X0148748Y0149983D01*
X0148748Y0151181D02*
X0085995Y0151181D01*
X0085995Y0152380D02*
X0148748Y0152380D01*
X0148748Y0153578D02*
X0085995Y0153578D01*
X0085995Y0154777D02*
X0148748Y0154777D01*
X0148748Y0155975D02*
X0085995Y0155975D01*
X0085995Y0157174D02*
X0148748Y0157174D01*
X0148748Y0158372D02*
X0085995Y0158372D01*
X0085995Y0159571D02*
X0148748Y0159571D01*
X0148748Y0160769D02*
X0085995Y0160769D01*
X0085995Y0161968D02*
X0148748Y0161968D01*
X0148748Y0163166D02*
X0085995Y0163166D01*
X0085995Y0164365D02*
X0148748Y0164365D01*
X0148748Y0165563D02*
X0085995Y0165563D01*
X0085995Y0166762D02*
X0148748Y0166762D01*
X0148748Y0167960D02*
X0085995Y0167960D01*
X0085995Y0169159D02*
X0148748Y0169159D01*
X0148748Y0170357D02*
X0118775Y0170357D01*
X0116416Y0170357D02*
X0085995Y0170357D01*
X0085662Y0171556D02*
X0115248Y0171556D01*
X0114995Y0172754D02*
X0084970Y0172754D01*
X0084950Y0172788D02*
X0084950Y0172788D01*
X0084950Y0172788D01*
X0085849Y0184740D02*
X0087494Y0184740D01*
X0086703Y0185938D02*
X0086545Y0185938D01*
X0096406Y0194328D02*
X0098432Y0194328D01*
X0097695Y0193129D02*
X0100406Y0193129D01*
X0097611Y0202717D02*
X0094835Y0202717D01*
X0096898Y0203916D02*
X0098810Y0203916D01*
X0093195Y0209908D02*
X0091995Y0209908D01*
X0091995Y0211107D02*
X0093195Y0211107D01*
X0093195Y0212305D02*
X0091995Y0212305D01*
X0091995Y0213504D02*
X0093195Y0213504D01*
X0093195Y0214702D02*
X0091995Y0214702D01*
X0089388Y0214702D02*
X0068995Y0214702D01*
X0068995Y0213504D02*
X0087832Y0213504D01*
X0086921Y0212305D02*
X0086545Y0212305D01*
X0086223Y0205114D02*
X0087206Y0205114D01*
X0088292Y0203916D02*
X0068995Y0203916D01*
X0068995Y0173953D02*
X0115307Y0173953D01*
X0117595Y0172683D02*
X0132595Y0172683D01*
X0140720Y0180808D01*
X0142595Y0182683D01*
X0145595Y0185683D01*
X0145595Y0235683D01*
X0150538Y0240626D01*
X0150548Y0240626D01*
X0152556Y0244665D02*
X0153795Y0244665D01*
X0160262Y0239871D02*
X0160834Y0239871D01*
X0160834Y0240340D02*
X0160834Y0235726D01*
X0160934Y0235726D01*
X0161695Y0235847D01*
X0162429Y0236085D01*
X0163116Y0236435D01*
X0163740Y0236888D01*
X0164285Y0237434D01*
X0164739Y0238058D01*
X0165089Y0238745D01*
X0165327Y0239479D01*
X0165448Y0240240D01*
X0165448Y0240340D01*
X0160834Y0240340D01*
X0160834Y0238673D02*
X0160262Y0238673D01*
X0160262Y0237474D02*
X0160834Y0237474D01*
X0160834Y0236276D02*
X0160262Y0236276D01*
X0159535Y0235077D02*
X0157395Y0235077D01*
X0157395Y0233879D02*
X0157436Y0233879D01*
X0157395Y0236276D02*
X0158293Y0236276D01*
X0161561Y0235077D02*
X0169535Y0235077D01*
X0169292Y0236276D02*
X0162803Y0236276D01*
X0164315Y0237474D02*
X0167336Y0237474D01*
X0166486Y0238673D02*
X0165052Y0238673D01*
X0165389Y0239871D02*
X0166048Y0239871D01*
X0166048Y0241070D02*
X0165439Y0241070D01*
X0165166Y0242268D02*
X0166357Y0242268D01*
X0167025Y0243467D02*
X0164541Y0243467D01*
X0173760Y0237474D02*
X0174850Y0237474D01*
X0174610Y0238673D02*
X0176049Y0238673D01*
X0176048Y0239871D02*
X0175048Y0239871D01*
X0175048Y0241070D02*
X0176048Y0241070D01*
X0176357Y0242268D02*
X0174738Y0242268D01*
X0174071Y0243467D02*
X0177025Y0243467D01*
X0180548Y0240626D02*
X0175595Y0235673D01*
X0175595Y0197433D01*
X0173748Y0199122D02*
X0157395Y0199122D01*
X0157395Y0200320D02*
X0173795Y0200320D01*
X0173795Y0201519D02*
X0157395Y0201519D01*
X0157395Y0202717D02*
X0173795Y0202717D01*
X0173795Y0203916D02*
X0157395Y0203916D01*
X0157395Y0205114D02*
X0173795Y0205114D01*
X0173795Y0206313D02*
X0157395Y0206313D01*
X0157395Y0207511D02*
X0173795Y0207511D01*
X0173795Y0208710D02*
X0157395Y0208710D01*
X0157395Y0209908D02*
X0173795Y0209908D01*
X0173795Y0211107D02*
X0157395Y0211107D01*
X0157395Y0212305D02*
X0168187Y0212305D01*
X0167595Y0213504D02*
X0157395Y0213504D01*
X0157395Y0214702D02*
X0167708Y0214702D01*
X0168295Y0215901D02*
X0157395Y0215901D01*
X0157395Y0217099D02*
X0168295Y0217099D01*
X0168295Y0218298D02*
X0157395Y0218298D01*
X0157395Y0219496D02*
X0168295Y0219496D01*
X0168295Y0220695D02*
X0157395Y0220695D01*
X0157395Y0221893D02*
X0168295Y0221893D01*
X0168295Y0223092D02*
X0157395Y0223092D01*
X0157395Y0224290D02*
X0168295Y0224290D01*
X0168295Y0225489D02*
X0157395Y0225489D01*
X0157395Y0226687D02*
X0158297Y0226687D01*
X0162798Y0226687D02*
X0168295Y0226687D01*
X0166924Y0227886D02*
X0164172Y0227886D01*
X0164780Y0229084D02*
X0166316Y0229084D01*
X0166048Y0230283D02*
X0165048Y0230283D01*
X0165048Y0231481D02*
X0166048Y0231481D01*
X0166528Y0232680D02*
X0164568Y0232680D01*
X0163659Y0233879D02*
X0167436Y0233879D01*
X0171561Y0235077D02*
X0173795Y0235077D01*
X0173795Y0233879D02*
X0173659Y0233879D01*
X0173795Y0236276D02*
X0171804Y0236276D01*
X0170548Y0230626D02*
X0170095Y0230173D01*
X0170095Y0213933D01*
X0172003Y0212305D02*
X0173795Y0212305D01*
X0173795Y0213504D02*
X0172595Y0213504D01*
X0172482Y0214702D02*
X0173795Y0214702D01*
X0173795Y0215901D02*
X0171895Y0215901D01*
X0171895Y0217099D02*
X0173795Y0217099D01*
X0173795Y0218298D02*
X0171895Y0218298D01*
X0171895Y0219496D02*
X0173795Y0219496D01*
X0173795Y0220695D02*
X0171895Y0220695D01*
X0171895Y0221893D02*
X0173795Y0221893D01*
X0173795Y0223092D02*
X0171895Y0223092D01*
X0171895Y0224290D02*
X0173795Y0224290D01*
X0173795Y0225489D02*
X0171895Y0225489D01*
X0172798Y0226687D02*
X0173795Y0226687D01*
X0177395Y0226687D02*
X0178297Y0226687D01*
X0177395Y0225489D02*
X0188748Y0225489D01*
X0188748Y0224290D02*
X0177395Y0224290D01*
X0177395Y0223092D02*
X0188748Y0223092D01*
X0188748Y0221893D02*
X0177395Y0221893D01*
X0177395Y0220695D02*
X0188748Y0220695D01*
X0188748Y0219496D02*
X0177395Y0219496D01*
X0177395Y0218298D02*
X0188748Y0218298D01*
X0188748Y0217099D02*
X0177395Y0217099D01*
X0177395Y0215901D02*
X0188748Y0215901D01*
X0188319Y0214702D02*
X0177395Y0214702D01*
X0177395Y0213504D02*
X0187120Y0213504D01*
X0185922Y0212305D02*
X0177395Y0212305D01*
X0177395Y0211107D02*
X0184723Y0211107D01*
X0183525Y0209908D02*
X0177395Y0209908D01*
X0177395Y0208710D02*
X0182326Y0208710D01*
X0181128Y0207511D02*
X0177395Y0207511D01*
X0177395Y0206313D02*
X0179929Y0206313D01*
X0178731Y0205114D02*
X0177395Y0205114D01*
X0177395Y0203916D02*
X0178295Y0203916D01*
X0178295Y0202717D02*
X0177395Y0202717D01*
X0177395Y0201519D02*
X0178295Y0201519D01*
X0178295Y0200320D02*
X0177395Y0200320D01*
X0177442Y0199122D02*
X0178295Y0199122D01*
X0178295Y0197923D02*
X0178095Y0197923D01*
X0178008Y0196725D02*
X0178295Y0196725D01*
X0178295Y0195526D02*
X0177224Y0195526D01*
X0178295Y0194328D02*
X0157395Y0194328D01*
X0157395Y0195526D02*
X0173967Y0195526D01*
X0173183Y0196725D02*
X0157395Y0196725D01*
X0157395Y0197923D02*
X0173095Y0197923D01*
X0178295Y0193129D02*
X0157395Y0193129D01*
X0157395Y0191931D02*
X0178295Y0191931D01*
X0178295Y0190732D02*
X0157395Y0190732D01*
X0157395Y0189534D02*
X0178295Y0189534D01*
X0178295Y0188335D02*
X0157395Y0188335D01*
X0157395Y0187137D02*
X0178295Y0187137D01*
X0178295Y0185938D02*
X0157395Y0185938D01*
X0157395Y0184740D02*
X0178295Y0184740D01*
X0178295Y0183541D02*
X0157395Y0183541D01*
X0157395Y0182343D02*
X0178295Y0182343D01*
X0178295Y0181144D02*
X0157395Y0181144D01*
X0157395Y0179945D02*
X0178295Y0179945D01*
X0178295Y0178747D02*
X0157395Y0178747D01*
X0157395Y0177548D02*
X0178295Y0177548D01*
X0178295Y0176350D02*
X0157395Y0176350D01*
X0157395Y0175151D02*
X0178295Y0175151D01*
X0178295Y0173953D02*
X0157395Y0173953D01*
X0157395Y0172754D02*
X0178295Y0172754D01*
X0178295Y0171556D02*
X0157395Y0171556D01*
X0157395Y0170357D02*
X0178295Y0170357D01*
X0178295Y0169159D02*
X0157395Y0169159D01*
X0157395Y0167960D02*
X0178295Y0167960D01*
X0178295Y0166762D02*
X0157395Y0166762D01*
X0157395Y0165563D02*
X0178295Y0165563D01*
X0178295Y0164365D02*
X0157395Y0164365D01*
X0157395Y0163166D02*
X0178151Y0163166D01*
X0177502Y0161968D02*
X0157395Y0161968D01*
X0157395Y0160769D02*
X0177556Y0160769D01*
X0178280Y0159571D02*
X0157395Y0159571D01*
X0157395Y0158372D02*
X0178295Y0158372D01*
X0178295Y0157174D02*
X0157395Y0157174D01*
X0157395Y0155975D02*
X0178295Y0155975D01*
X0178295Y0154777D02*
X0157395Y0154777D01*
X0157395Y0153578D02*
X0177195Y0153578D01*
X0175996Y0152380D02*
X0157395Y0152380D01*
X0157395Y0151181D02*
X0174798Y0151181D01*
X0173599Y0149983D02*
X0157395Y0149983D01*
X0157395Y0148784D02*
X0172401Y0148784D01*
X0171202Y0147586D02*
X0157395Y0147586D01*
X0157395Y0146387D02*
X0170004Y0146387D01*
X0168805Y0145189D02*
X0157395Y0145189D01*
X0157395Y0143990D02*
X0167607Y0143990D01*
X0166408Y0142792D02*
X0157395Y0142792D01*
X0157395Y0141593D02*
X0165210Y0141593D01*
X0164011Y0140395D02*
X0157395Y0140395D01*
X0157395Y0139196D02*
X0162813Y0139196D01*
X0161614Y0137998D02*
X0157395Y0137998D01*
X0157395Y0136799D02*
X0160416Y0136799D01*
X0159217Y0135601D02*
X0157395Y0135601D01*
X0157395Y0134402D02*
X0158295Y0134402D01*
X0158295Y0133204D02*
X0157395Y0133204D01*
X0157395Y0132005D02*
X0158295Y0132005D01*
X0158295Y0130807D02*
X0157395Y0130807D01*
X0157395Y0129608D02*
X0158295Y0129608D01*
X0158295Y0128410D02*
X0157395Y0128410D01*
X0157395Y0127211D02*
X0158295Y0127211D01*
X0158295Y0126012D02*
X0157395Y0126012D01*
X0157395Y0124814D02*
X0158295Y0124814D01*
X0153795Y0124814D02*
X0146022Y0124814D01*
X0147220Y0126012D02*
X0153795Y0126012D01*
X0153795Y0127211D02*
X0148419Y0127211D01*
X0149617Y0128410D02*
X0153795Y0128410D01*
X0153795Y0129608D02*
X0150816Y0129608D01*
X0152014Y0130807D02*
X0153795Y0130807D01*
X0153795Y0132005D02*
X0152348Y0132005D01*
X0152348Y0133204D02*
X0153795Y0133204D01*
X0153795Y0134402D02*
X0152348Y0134402D01*
X0152348Y0135601D02*
X0153795Y0135601D01*
X0153795Y0136799D02*
X0152348Y0136799D01*
X0152348Y0137998D02*
X0153795Y0137998D01*
X0153795Y0139196D02*
X0152348Y0139196D01*
X0152348Y0140395D02*
X0153795Y0140395D01*
X0153795Y0141593D02*
X0152348Y0141593D01*
X0152348Y0142792D02*
X0153795Y0142792D01*
X0153795Y0143990D02*
X0152348Y0143990D01*
X0152348Y0145189D02*
X0153795Y0145189D01*
X0153795Y0146387D02*
X0152348Y0146387D01*
X0152348Y0147586D02*
X0153795Y0147586D01*
X0153795Y0148784D02*
X0152348Y0148784D01*
X0152348Y0149983D02*
X0153795Y0149983D01*
X0153795Y0151181D02*
X0152348Y0151181D01*
X0152348Y0152380D02*
X0153795Y0152380D01*
X0153795Y0153578D02*
X0152348Y0153578D01*
X0152348Y0154777D02*
X0153795Y0154777D01*
X0153795Y0155975D02*
X0152348Y0155975D01*
X0152348Y0157174D02*
X0153795Y0157174D01*
X0153795Y0158372D02*
X0152348Y0158372D01*
X0152348Y0159571D02*
X0153795Y0159571D01*
X0153795Y0160769D02*
X0152348Y0160769D01*
X0152348Y0161968D02*
X0153795Y0161968D01*
X0153795Y0163166D02*
X0152348Y0163166D01*
X0152348Y0164365D02*
X0153795Y0164365D01*
X0153795Y0165563D02*
X0152348Y0165563D01*
X0152348Y0166762D02*
X0153795Y0166762D01*
X0153795Y0167960D02*
X0152348Y0167960D01*
X0152348Y0169159D02*
X0153795Y0169159D01*
X0153795Y0170357D02*
X0152348Y0170357D01*
X0152348Y0171556D02*
X0153795Y0171556D01*
X0153795Y0172754D02*
X0152348Y0172754D01*
X0152348Y0173953D02*
X0153795Y0173953D01*
X0153795Y0175151D02*
X0152348Y0175151D01*
X0152348Y0176350D02*
X0153795Y0176350D01*
X0153795Y0177548D02*
X0152348Y0177548D01*
X0152348Y0178747D02*
X0153795Y0178747D01*
X0153795Y0179945D02*
X0152348Y0179945D01*
X0152348Y0181144D02*
X0153795Y0181144D01*
X0153795Y0182343D02*
X0152348Y0182343D01*
X0152348Y0183541D02*
X0153795Y0183541D01*
X0153795Y0184740D02*
X0152348Y0184740D01*
X0152348Y0185938D02*
X0153795Y0185938D01*
X0153795Y0187137D02*
X0152348Y0187137D01*
X0152348Y0188335D02*
X0153795Y0188335D01*
X0153795Y0189534D02*
X0152348Y0189534D01*
X0152348Y0190732D02*
X0153795Y0190732D01*
X0153795Y0191931D02*
X0152348Y0191931D01*
X0152348Y0193129D02*
X0153795Y0193129D01*
X0153795Y0194328D02*
X0152348Y0194328D01*
X0152348Y0195526D02*
X0153795Y0195526D01*
X0153795Y0196725D02*
X0152348Y0196725D01*
X0152348Y0197923D02*
X0153795Y0197923D01*
X0153795Y0199122D02*
X0152348Y0199122D01*
X0152348Y0200320D02*
X0153795Y0200320D01*
X0153795Y0201519D02*
X0152348Y0201519D01*
X0152348Y0202717D02*
X0153795Y0202717D01*
X0153795Y0203916D02*
X0152348Y0203916D01*
X0152348Y0205114D02*
X0153795Y0205114D01*
X0153795Y0206313D02*
X0152348Y0206313D01*
X0152348Y0207511D02*
X0153795Y0207511D01*
X0153795Y0208710D02*
X0152348Y0208710D01*
X0152348Y0209908D02*
X0153795Y0209908D01*
X0153795Y0211107D02*
X0152348Y0211107D01*
X0152348Y0212305D02*
X0153795Y0212305D01*
X0153795Y0213504D02*
X0152348Y0213504D01*
X0152348Y0214702D02*
X0153795Y0214702D01*
X0153795Y0215901D02*
X0152348Y0215901D01*
X0152348Y0217099D02*
X0153795Y0217099D01*
X0153795Y0218298D02*
X0152348Y0218298D01*
X0152348Y0219496D02*
X0153795Y0219496D01*
X0153795Y0220695D02*
X0152348Y0220695D01*
X0152348Y0221893D02*
X0153795Y0221893D01*
X0153795Y0223092D02*
X0152348Y0223092D01*
X0152348Y0224290D02*
X0153795Y0224290D01*
X0153795Y0225489D02*
X0152348Y0225489D01*
X0152798Y0226687D02*
X0153795Y0226687D01*
X0143795Y0235077D02*
X0142605Y0235077D01*
X0141804Y0236276D02*
X0143795Y0236276D01*
X0143760Y0237474D02*
X0144841Y0237474D01*
X0144610Y0238673D02*
X0146039Y0238673D01*
X0146048Y0239871D02*
X0145048Y0239871D01*
X0145048Y0241070D02*
X0146048Y0241070D01*
X0146357Y0242268D02*
X0144738Y0242268D01*
X0144071Y0243467D02*
X0147025Y0243467D01*
X0148540Y0244665D02*
X0142556Y0244665D01*
X0117436Y0233879D02*
X0113659Y0233879D01*
X0114568Y0232680D02*
X0116528Y0232680D01*
X0116048Y0231481D02*
X0115048Y0231481D01*
X0115048Y0230283D02*
X0116048Y0230283D01*
X0116316Y0229084D02*
X0114780Y0229084D01*
X0114172Y0227886D02*
X0116924Y0227886D01*
X0118297Y0226687D02*
X0112798Y0226687D01*
X0147395Y0207511D02*
X0148748Y0207511D01*
X0148748Y0206313D02*
X0147395Y0206313D01*
X0147395Y0205114D02*
X0148748Y0205114D01*
X0148748Y0203916D02*
X0147395Y0203916D01*
X0147395Y0202717D02*
X0148748Y0202717D01*
X0148748Y0201519D02*
X0147395Y0201519D01*
X0147395Y0200320D02*
X0148748Y0200320D01*
X0148748Y0199122D02*
X0147395Y0199122D01*
X0147395Y0197923D02*
X0148748Y0197923D01*
X0148748Y0196725D02*
X0147395Y0196725D01*
X0147395Y0195526D02*
X0148748Y0195526D01*
X0148748Y0194328D02*
X0147395Y0194328D01*
X0147395Y0193129D02*
X0148748Y0193129D01*
X0148748Y0191931D02*
X0147395Y0191931D01*
X0147395Y0190732D02*
X0148748Y0190732D01*
X0148748Y0189534D02*
X0147395Y0189534D01*
X0147395Y0188335D02*
X0148748Y0188335D01*
X0148748Y0187137D02*
X0147395Y0187137D01*
X0147395Y0185938D02*
X0148748Y0185938D01*
X0148748Y0184740D02*
X0147197Y0184740D01*
X0145999Y0183541D02*
X0148748Y0183541D01*
X0148748Y0182343D02*
X0144800Y0182343D01*
X0143602Y0181144D02*
X0148748Y0181144D01*
X0148748Y0179945D02*
X0142403Y0179945D01*
X0141205Y0178747D02*
X0148748Y0178747D01*
X0148748Y0177548D02*
X0140006Y0177548D01*
X0138808Y0176350D02*
X0148748Y0176350D01*
X0148748Y0175151D02*
X0137609Y0175151D01*
X0136411Y0173953D02*
X0148748Y0173953D01*
X0148748Y0172754D02*
X0135212Y0172754D01*
X0134014Y0171556D02*
X0148748Y0171556D01*
X0180095Y0161433D02*
X0180095Y0153933D01*
X0160095Y0133933D01*
X0160095Y0058933D01*
X0165095Y0053933D01*
X0153795Y0061293D02*
X0068995Y0061293D01*
X0068995Y0062491D02*
X0153795Y0062491D01*
X0153795Y0063690D02*
X0068995Y0063690D01*
X0068995Y0064888D02*
X0153795Y0064888D01*
X0153795Y0066087D02*
X0068995Y0066087D01*
X0068995Y0067285D02*
X0153795Y0067285D01*
X0153795Y0068484D02*
X0068995Y0068484D01*
X0068995Y0069682D02*
X0153795Y0069682D01*
X0153795Y0070881D02*
X0116179Y0070881D01*
X0116270Y0070934D02*
X0116956Y0071460D01*
X0117568Y0072072D01*
X0118095Y0072758D01*
X0118527Y0073508D01*
X0118858Y0074307D01*
X0119082Y0075143D01*
X0119173Y0075833D01*
X0113195Y0075833D01*
X0113195Y0069855D01*
X0113885Y0069946D01*
X0114721Y0070170D01*
X0115521Y0070501D01*
X0116270Y0070934D01*
X0117574Y0072079D02*
X0153795Y0072079D01*
X0153795Y0073278D02*
X0118395Y0073278D01*
X0118904Y0074477D02*
X0153795Y0074477D01*
X0153795Y0075675D02*
X0119152Y0075675D01*
X0119173Y0077033D02*
X0119082Y0077723D01*
X0118858Y0078559D01*
X0118527Y0079358D01*
X0118095Y0080108D01*
X0117568Y0080794D01*
X0116956Y0081406D01*
X0116270Y0081933D01*
X0115521Y0082365D01*
X0114721Y0082696D01*
X0113885Y0082920D01*
X0113195Y0083011D01*
X0113195Y0077033D01*
X0111995Y0077033D01*
X0111995Y0075833D01*
X0106017Y0075833D01*
X0106108Y0075143D01*
X0106332Y0074307D01*
X0106663Y0073508D01*
X0107096Y0072758D01*
X0107622Y0072072D01*
X0108234Y0071460D01*
X0108921Y0070934D01*
X0109670Y0070501D01*
X0110469Y0070170D01*
X0111305Y0069946D01*
X0111995Y0069855D01*
X0111995Y0075833D01*
X0113195Y0075833D01*
X0113195Y0077033D01*
X0119173Y0077033D01*
X0118989Y0078072D02*
X0153795Y0078072D01*
X0153795Y0076874D02*
X0113195Y0076874D01*
X0113195Y0078072D02*
X0111995Y0078072D01*
X0111995Y0077033D02*
X0111995Y0083011D01*
X0111305Y0082920D01*
X0110469Y0082696D01*
X0109670Y0082365D01*
X0108921Y0081933D01*
X0108234Y0081406D01*
X0107622Y0080794D01*
X0107096Y0080108D01*
X0106663Y0079358D01*
X0106332Y0078559D01*
X0106108Y0077723D01*
X0106017Y0077033D01*
X0111995Y0077033D01*
X0111995Y0076874D02*
X0093195Y0076874D01*
X0093195Y0077033D02*
X0099173Y0077033D01*
X0099082Y0077723D01*
X0098858Y0078559D01*
X0098527Y0079358D01*
X0098095Y0080108D01*
X0097568Y0080794D01*
X0096956Y0081406D01*
X0096270Y0081933D01*
X0095521Y0082365D01*
X0094721Y0082696D01*
X0093885Y0082920D01*
X0093195Y0083011D01*
X0093195Y0077033D01*
X0093195Y0078072D02*
X0091995Y0078072D01*
X0091995Y0079271D02*
X0093195Y0079271D01*
X0093195Y0080469D02*
X0091995Y0080469D01*
X0091995Y0081668D02*
X0093195Y0081668D01*
X0093195Y0082866D02*
X0091995Y0082866D01*
X0091103Y0082866D02*
X0088652Y0082866D01*
X0088331Y0082733D02*
X0089691Y0083296D01*
X0090732Y0084337D01*
X0091295Y0085697D01*
X0091295Y0087169D01*
X0090732Y0088529D01*
X0089691Y0089570D01*
X0088331Y0090133D01*
X0086859Y0090133D01*
X0086138Y0089834D01*
X0086089Y0089883D01*
X0077359Y0089883D01*
X0076524Y0089048D01*
X0076524Y0083818D01*
X0077359Y0082983D01*
X0086089Y0082983D01*
X0086138Y0083032D01*
X0086859Y0082733D01*
X0088331Y0082733D01*
X0088575Y0081668D02*
X0068995Y0081668D01*
X0068995Y0082866D02*
X0086538Y0082866D01*
X0086006Y0080469D02*
X0087373Y0080469D01*
X0086627Y0079271D02*
X0086545Y0079271D01*
X0086545Y0073278D02*
X0086796Y0073278D01*
X0087617Y0072079D02*
X0068995Y0072079D01*
X0068995Y0070881D02*
X0089012Y0070881D01*
X0091995Y0070881D02*
X0093195Y0070881D01*
X0093195Y0072079D02*
X0091995Y0072079D01*
X0091995Y0073278D02*
X0093195Y0073278D01*
X0093195Y0074477D02*
X0091995Y0074477D01*
X0091995Y0075675D02*
X0093195Y0075675D01*
X0096179Y0070881D02*
X0109012Y0070881D01*
X0107617Y0072079D02*
X0097574Y0072079D01*
X0098395Y0073278D02*
X0106796Y0073278D01*
X0106287Y0074477D02*
X0098904Y0074477D01*
X0099152Y0075675D02*
X0106038Y0075675D01*
X0106201Y0078072D02*
X0098989Y0078072D01*
X0098564Y0079271D02*
X0106627Y0079271D01*
X0107373Y0080469D02*
X0104398Y0080469D01*
X0103828Y0080233D02*
X0106107Y0081177D01*
X0107851Y0082921D01*
X0108795Y0085200D01*
X0108795Y0087666D01*
X0107851Y0089945D01*
X0106107Y0091689D01*
X0103828Y0092633D01*
X0101362Y0092633D01*
X0099083Y0091689D01*
X0097339Y0089945D01*
X0096395Y0087666D01*
X0096395Y0085200D01*
X0097339Y0082921D01*
X0099083Y0081177D01*
X0101362Y0080233D01*
X0103828Y0080233D01*
X0100792Y0080469D02*
X0097817Y0080469D01*
X0098593Y0081668D02*
X0096615Y0081668D01*
X0097394Y0082866D02*
X0094087Y0082866D01*
X0096865Y0084065D02*
X0090459Y0084065D01*
X0091115Y0085263D02*
X0096395Y0085263D01*
X0096395Y0086462D02*
X0091295Y0086462D01*
X0091092Y0087660D02*
X0096395Y0087660D01*
X0096889Y0088859D02*
X0090402Y0088859D01*
X0090890Y0090057D02*
X0088514Y0090057D01*
X0088501Y0091256D02*
X0068995Y0091256D01*
X0068995Y0090057D02*
X0086676Y0090057D01*
X0086063Y0092454D02*
X0087329Y0092454D01*
X0086603Y0093653D02*
X0086545Y0093653D01*
X0091995Y0093653D02*
X0093195Y0093653D01*
X0093195Y0094851D02*
X0091995Y0094851D01*
X0093195Y0096050D02*
X0111995Y0096050D01*
X0111995Y0095833D02*
X0106017Y0095833D01*
X0106108Y0095143D01*
X0106332Y0094307D01*
X0106663Y0093508D01*
X0107096Y0092758D01*
X0107622Y0092072D01*
X0108234Y0091460D01*
X0108921Y0090934D01*
X0109670Y0090501D01*
X0110469Y0090170D01*
X0111305Y0089946D01*
X0111995Y0089855D01*
X0111995Y0095833D01*
X0111995Y0097033D01*
X0106017Y0097033D01*
X0106108Y0097723D01*
X0106332Y0098559D01*
X0106663Y0099358D01*
X0107096Y0100108D01*
X0107622Y0100794D01*
X0108234Y0101406D01*
X0108921Y0101933D01*
X0109670Y0102365D01*
X0110469Y0102696D01*
X0111305Y0102920D01*
X0111995Y0103011D01*
X0111995Y0097033D01*
X0113195Y0097033D01*
X0113195Y0103011D01*
X0113885Y0102920D01*
X0114721Y0102696D01*
X0115521Y0102365D01*
X0116270Y0101933D01*
X0116956Y0101406D01*
X0117568Y0100794D01*
X0118095Y0100108D01*
X0118527Y0099358D01*
X0118858Y0098559D01*
X0119082Y0097723D01*
X0119173Y0097033D01*
X0113195Y0097033D01*
X0113195Y0095833D01*
X0113195Y0089855D01*
X0113885Y0089946D01*
X0114721Y0090170D01*
X0115521Y0090501D01*
X0116270Y0090934D01*
X0116956Y0091460D01*
X0117568Y0092072D01*
X0118095Y0092758D01*
X0118527Y0093508D01*
X0118858Y0094307D01*
X0119082Y0095143D01*
X0119173Y0095833D01*
X0113195Y0095833D01*
X0111995Y0095833D01*
X0111995Y0094851D02*
X0113195Y0094851D01*
X0113195Y0093653D02*
X0111995Y0093653D01*
X0111995Y0092454D02*
X0113195Y0092454D01*
X0113195Y0091256D02*
X0111995Y0091256D01*
X0111995Y0090057D02*
X0113195Y0090057D01*
X0114300Y0090057D02*
X0153795Y0090057D01*
X0153795Y0088859D02*
X0108301Y0088859D01*
X0108795Y0087660D02*
X0153795Y0087660D01*
X0153795Y0086462D02*
X0108795Y0086462D01*
X0108795Y0085263D02*
X0153795Y0085263D01*
X0153795Y0084065D02*
X0108325Y0084065D01*
X0107796Y0082866D02*
X0111103Y0082866D01*
X0111995Y0082866D02*
X0113195Y0082866D01*
X0114087Y0082866D02*
X0153795Y0082866D01*
X0153795Y0081668D02*
X0116615Y0081668D01*
X0117817Y0080469D02*
X0153795Y0080469D01*
X0153795Y0079271D02*
X0118564Y0079271D01*
X0113195Y0079271D02*
X0111995Y0079271D01*
X0111995Y0080469D02*
X0113195Y0080469D01*
X0113195Y0081668D02*
X0111995Y0081668D01*
X0108575Y0081668D02*
X0106598Y0081668D01*
X0111995Y0075675D02*
X0113195Y0075675D01*
X0113195Y0074477D02*
X0111995Y0074477D01*
X0111995Y0073278D02*
X0113195Y0073278D01*
X0113195Y0072079D02*
X0111995Y0072079D01*
X0111995Y0070881D02*
X0113195Y0070881D01*
X0110890Y0090057D02*
X0107739Y0090057D01*
X0108501Y0091256D02*
X0106541Y0091256D01*
X0107329Y0092454D02*
X0104260Y0092454D01*
X0106603Y0093653D02*
X0098587Y0093653D01*
X0099004Y0094851D02*
X0106186Y0094851D01*
X0106046Y0097248D02*
X0099145Y0097248D01*
X0099173Y0097033D02*
X0099082Y0097723D01*
X0098858Y0098559D01*
X0098527Y0099358D01*
X0098095Y0100108D01*
X0097568Y0100794D01*
X0096956Y0101406D01*
X0096270Y0101933D01*
X0095521Y0102365D01*
X0094721Y0102696D01*
X0093885Y0102920D01*
X0093195Y0103011D01*
X0093195Y0097033D01*
X0099173Y0097033D01*
X0098888Y0098447D02*
X0106302Y0098447D01*
X0106829Y0099645D02*
X0098362Y0099645D01*
X0097518Y0100844D02*
X0107672Y0100844D01*
X0109111Y0102042D02*
X0096080Y0102042D01*
X0093195Y0102042D02*
X0091995Y0102042D01*
X0091995Y0100844D02*
X0093195Y0100844D01*
X0093195Y0099645D02*
X0091995Y0099645D01*
X0091995Y0098447D02*
X0093195Y0098447D01*
X0093195Y0097248D02*
X0091995Y0097248D01*
X0087672Y0100844D02*
X0068995Y0100844D01*
X0068995Y0102042D02*
X0089111Y0102042D01*
X0086829Y0099645D02*
X0086545Y0099645D01*
X0084985Y0105638D02*
X0153795Y0105638D01*
X0153795Y0106836D02*
X0114175Y0106836D01*
X0111015Y0106836D02*
X0085677Y0106836D01*
X0068995Y0104439D02*
X0153795Y0104439D01*
X0153795Y0103241D02*
X0068995Y0103241D01*
X0068995Y0088859D02*
X0076524Y0088859D01*
X0076524Y0087660D02*
X0068995Y0087660D01*
X0068995Y0086462D02*
X0076524Y0086462D01*
X0076524Y0085263D02*
X0068995Y0085263D01*
X0068995Y0084065D02*
X0076524Y0084065D01*
X0091995Y0090057D02*
X0093195Y0090057D01*
X0094300Y0090057D02*
X0097451Y0090057D01*
X0096689Y0091256D02*
X0098650Y0091256D01*
X0097861Y0092454D02*
X0100930Y0092454D01*
X0093195Y0092454D02*
X0091995Y0092454D01*
X0091995Y0091256D02*
X0093195Y0091256D01*
X0111995Y0097248D02*
X0113195Y0097248D01*
X0113195Y0096050D02*
X0153795Y0096050D01*
X0153795Y0097248D02*
X0119145Y0097248D01*
X0118888Y0098447D02*
X0153795Y0098447D01*
X0153795Y0099645D02*
X0118362Y0099645D01*
X0117518Y0100844D02*
X0153795Y0100844D01*
X0153795Y0102042D02*
X0116080Y0102042D01*
X0113195Y0102042D02*
X0111995Y0102042D01*
X0111995Y0100844D02*
X0113195Y0100844D01*
X0113195Y0099645D02*
X0111995Y0099645D01*
X0111995Y0098447D02*
X0113195Y0098447D01*
X0119004Y0094851D02*
X0153795Y0094851D01*
X0153795Y0093653D02*
X0118587Y0093653D01*
X0117861Y0092454D02*
X0153795Y0092454D01*
X0153795Y0091256D02*
X0116689Y0091256D01*
X0129242Y0108035D02*
X0153795Y0108035D01*
X0153795Y0109233D02*
X0130441Y0109233D01*
X0131639Y0110432D02*
X0153795Y0110432D01*
X0153795Y0111630D02*
X0132838Y0111630D01*
X0134037Y0112829D02*
X0153795Y0112829D01*
X0153795Y0114027D02*
X0135235Y0114027D01*
X0136434Y0115226D02*
X0153795Y0115226D01*
X0153795Y0116424D02*
X0137632Y0116424D01*
X0138831Y0117623D02*
X0153795Y0117623D01*
X0153795Y0118821D02*
X0140029Y0118821D01*
X0141228Y0120020D02*
X0153795Y0120020D01*
X0153795Y0121218D02*
X0142426Y0121218D01*
X0143625Y0122417D02*
X0153795Y0122417D01*
X0153795Y0123615D02*
X0144823Y0123615D01*
X0163110Y0134402D02*
X0198748Y0134402D01*
X0198748Y0135601D02*
X0164308Y0135601D01*
X0165507Y0136799D02*
X0198748Y0136799D01*
X0198748Y0137998D02*
X0166705Y0137998D01*
X0167904Y0139196D02*
X0198748Y0139196D01*
X0198748Y0140395D02*
X0169102Y0140395D01*
X0170301Y0141593D02*
X0198748Y0141593D01*
X0198748Y0142792D02*
X0171499Y0142792D01*
X0172698Y0143990D02*
X0198748Y0143990D01*
X0198748Y0145189D02*
X0173896Y0145189D01*
X0175095Y0146387D02*
X0198748Y0146387D01*
X0198292Y0147586D02*
X0176293Y0147586D01*
X0177492Y0148784D02*
X0197948Y0148784D01*
X0198168Y0149983D02*
X0178690Y0149983D01*
X0179889Y0151181D02*
X0198748Y0151181D01*
X0198748Y0152380D02*
X0181087Y0152380D01*
X0181895Y0153578D02*
X0198748Y0153578D01*
X0198748Y0154777D02*
X0181895Y0154777D01*
X0181895Y0155975D02*
X0198748Y0155975D01*
X0198748Y0157174D02*
X0181895Y0157174D01*
X0181895Y0158372D02*
X0198748Y0158372D01*
X0198748Y0159571D02*
X0181910Y0159571D01*
X0182634Y0160769D02*
X0198748Y0160769D01*
X0198748Y0161968D02*
X0182688Y0161968D01*
X0182039Y0163166D02*
X0198748Y0163166D01*
X0198748Y0164365D02*
X0181895Y0164365D01*
X0181895Y0165563D02*
X0198748Y0165563D01*
X0198748Y0166762D02*
X0181895Y0166762D01*
X0181895Y0167960D02*
X0198748Y0167960D01*
X0198748Y0169159D02*
X0181895Y0169159D01*
X0181895Y0170357D02*
X0198748Y0170357D01*
X0198748Y0171556D02*
X0181895Y0171556D01*
X0181895Y0172754D02*
X0198748Y0172754D01*
X0198748Y0173953D02*
X0181895Y0173953D01*
X0181895Y0175151D02*
X0198748Y0175151D01*
X0198748Y0176350D02*
X0181895Y0176350D01*
X0181895Y0177548D02*
X0198748Y0177548D01*
X0198748Y0178747D02*
X0181895Y0178747D01*
X0181895Y0179945D02*
X0198748Y0179945D01*
X0198748Y0181144D02*
X0181895Y0181144D01*
X0181895Y0182343D02*
X0198748Y0182343D01*
X0198748Y0183541D02*
X0181895Y0183541D01*
X0181895Y0184740D02*
X0198748Y0184740D01*
X0198748Y0185938D02*
X0181895Y0185938D01*
X0181895Y0187137D02*
X0198748Y0187137D01*
X0198748Y0188335D02*
X0181895Y0188335D01*
X0181895Y0189534D02*
X0198748Y0189534D01*
X0198748Y0190732D02*
X0181895Y0190732D01*
X0181895Y0191931D02*
X0198748Y0191931D01*
X0198748Y0193129D02*
X0181895Y0193129D01*
X0181895Y0194328D02*
X0198748Y0194328D01*
X0198748Y0195526D02*
X0181895Y0195526D01*
X0181895Y0196725D02*
X0198748Y0196725D01*
X0198748Y0197923D02*
X0181895Y0197923D01*
X0181895Y0199122D02*
X0198748Y0199122D01*
X0198748Y0200320D02*
X0181895Y0200320D01*
X0181895Y0201519D02*
X0198748Y0201519D01*
X0198748Y0202717D02*
X0181895Y0202717D01*
X0182623Y0203916D02*
X0191878Y0203916D01*
X0193312Y0203916D02*
X0198748Y0203916D01*
X0198748Y0205114D02*
X0194863Y0205114D01*
X0195195Y0206313D02*
X0198748Y0206313D01*
X0198748Y0207511D02*
X0196219Y0207511D01*
X0197395Y0208710D02*
X0198748Y0208710D01*
X0198748Y0209908D02*
X0197395Y0209908D01*
X0197395Y0211107D02*
X0198748Y0211107D01*
X0198748Y0212305D02*
X0197395Y0212305D01*
X0197395Y0213504D02*
X0198748Y0213504D01*
X0198748Y0214702D02*
X0197395Y0214702D01*
X0197395Y0215901D02*
X0198748Y0215901D01*
X0198748Y0217099D02*
X0197395Y0217099D01*
X0197395Y0218298D02*
X0198748Y0218298D01*
X0198748Y0219496D02*
X0197395Y0219496D01*
X0197395Y0220695D02*
X0198748Y0220695D01*
X0198748Y0221893D02*
X0197395Y0221893D01*
X0197395Y0223092D02*
X0198748Y0223092D01*
X0198748Y0224290D02*
X0197395Y0224290D01*
X0197395Y0225489D02*
X0198748Y0225489D01*
X0198297Y0226687D02*
X0197395Y0226687D01*
X0193795Y0226687D02*
X0192798Y0226687D01*
X0192348Y0225489D02*
X0193795Y0225489D01*
X0193795Y0224290D02*
X0192348Y0224290D01*
X0192348Y0223092D02*
X0193795Y0223092D01*
X0193795Y0221893D02*
X0192348Y0221893D01*
X0192348Y0220695D02*
X0193795Y0220695D01*
X0193795Y0219496D02*
X0192348Y0219496D01*
X0192348Y0218298D02*
X0193795Y0218298D01*
X0193795Y0217099D02*
X0192348Y0217099D01*
X0192348Y0215901D02*
X0193795Y0215901D01*
X0193795Y0214702D02*
X0192348Y0214702D01*
X0192211Y0213504D02*
X0193795Y0213504D01*
X0193795Y0212305D02*
X0191013Y0212305D01*
X0189814Y0211107D02*
X0193795Y0211107D01*
X0193525Y0209908D02*
X0188616Y0209908D01*
X0187417Y0208710D02*
X0191297Y0208710D01*
X0190228Y0207511D02*
X0186219Y0207511D01*
X0185020Y0206313D02*
X0189995Y0206313D01*
X0190327Y0205114D02*
X0183822Y0205114D01*
X0180095Y0203933D02*
X0180095Y0161433D01*
X0180594Y0132005D02*
X0184596Y0132005D01*
X0183398Y0130807D02*
X0181793Y0130807D01*
X0182595Y0129608D02*
X0182595Y0129608D01*
X0182595Y0128410D02*
X0182595Y0128410D01*
X0182595Y0127211D02*
X0182595Y0127211D01*
X0182595Y0126012D02*
X0182595Y0126012D01*
X0181547Y0124814D02*
X0183643Y0124814D01*
X0184842Y0123615D02*
X0180349Y0123615D01*
X0221895Y0126012D02*
X0222339Y0126012D01*
X0222093Y0129608D02*
X0221895Y0129608D01*
X0272766Y0079271D02*
X0274780Y0079271D01*
X0273466Y0078072D02*
X0271144Y0078072D01*
X0271337Y0069682D02*
X0273578Y0069682D01*
X0272878Y0068484D02*
X0275049Y0068484D01*
X0268695Y0068484D02*
X0267495Y0068484D01*
X0267495Y0069682D02*
X0268695Y0069682D01*
X0268695Y0067285D02*
X0267495Y0067285D01*
X0267495Y0066087D02*
X0268695Y0066087D01*
X0287495Y0066087D02*
X0288695Y0066087D01*
X0288695Y0067285D02*
X0287495Y0067285D01*
X0287495Y0068484D02*
X0288695Y0068484D01*
X0288695Y0069682D02*
X0287495Y0069682D01*
X0287495Y0064888D02*
X0288695Y0064888D01*
X0283895Y0036124D02*
X0272295Y0036124D01*
X0272295Y0034926D02*
X0283895Y0034926D01*
X0283895Y0033727D02*
X0272295Y0033727D01*
X0272295Y0032529D02*
X0283895Y0032529D01*
X0283895Y0031330D02*
X0272295Y0031330D01*
X0292295Y0031330D02*
X0315992Y0031330D01*
X0317876Y0032529D02*
X0292295Y0032529D01*
X0292295Y0033727D02*
X0319302Y0033727D01*
X0153711Y0060094D02*
X0068995Y0060094D01*
X0068995Y0058896D02*
X0152512Y0058896D01*
X0151314Y0057697D02*
X0068995Y0057697D01*
X0068995Y0056499D02*
X0149495Y0056499D01*
X0147847Y0055300D02*
X0068995Y0055300D01*
X0068995Y0054102D02*
X0147495Y0054102D01*
X0147707Y0052903D02*
X0068995Y0052903D01*
X0068995Y0051705D02*
X0148681Y0051705D01*
X0113195Y0183541D02*
X0111995Y0183541D01*
X0111995Y0184740D02*
X0113195Y0184740D01*
X0113195Y0185938D02*
X0111995Y0185938D01*
X0180095Y0203933D02*
X0190548Y0214386D01*
X0190548Y0230626D01*
X0193659Y0233879D02*
X0193795Y0233879D01*
X0193795Y0235077D02*
X0191561Y0235077D01*
X0190834Y0236276D02*
X0190262Y0236276D01*
X0190262Y0235726D02*
X0190262Y0240340D01*
X0185648Y0240340D01*
X0185648Y0240240D01*
X0185769Y0239479D01*
X0186007Y0238745D01*
X0186357Y0238058D01*
X0186810Y0237434D01*
X0187356Y0236888D01*
X0187980Y0236435D01*
X0188667Y0236085D01*
X0189400Y0235847D01*
X0190162Y0235726D01*
X0190262Y0235726D01*
X0189535Y0235077D02*
X0181561Y0235077D01*
X0181804Y0236276D02*
X0188293Y0236276D01*
X0186781Y0237474D02*
X0183760Y0237474D01*
X0184610Y0238673D02*
X0186044Y0238673D01*
X0185706Y0239871D02*
X0185048Y0239871D01*
X0185048Y0241070D02*
X0185657Y0241070D01*
X0185929Y0242268D02*
X0184738Y0242268D01*
X0184071Y0243467D02*
X0186555Y0243467D01*
X0190262Y0239871D02*
X0190834Y0239871D01*
X0190834Y0238673D02*
X0190262Y0238673D01*
X0190262Y0237474D02*
X0190834Y0237474D01*
X0192803Y0236276D02*
X0193795Y0236276D01*
X0195595Y0236933D02*
X0195595Y0209433D01*
X0192595Y0206433D01*
X0188297Y0226687D02*
X0182798Y0226687D01*
X0184172Y0227886D02*
X0186924Y0227886D01*
X0186316Y0229084D02*
X0184780Y0229084D01*
X0185048Y0230283D02*
X0186048Y0230283D01*
X0186048Y0231481D02*
X0185048Y0231481D01*
X0184568Y0232680D02*
X0186528Y0232680D01*
X0187436Y0233879D02*
X0183659Y0233879D01*
X0179535Y0235077D02*
X0177545Y0235077D01*
X0177436Y0233879D02*
X0177395Y0233879D01*
X0178743Y0236276D02*
X0179292Y0236276D01*
X0195595Y0236933D02*
X0199288Y0240626D01*
X0200548Y0240626D01*
X0196357Y0242268D02*
X0195166Y0242268D01*
X0195439Y0241070D02*
X0196048Y0241070D01*
X0195988Y0239871D02*
X0195389Y0239871D01*
X0194541Y0243467D02*
X0197025Y0243467D01*
X0217545Y0235077D02*
X0218490Y0235077D01*
X0218743Y0236276D02*
X0219292Y0236276D01*
X0217632Y0226687D02*
X0217395Y0226687D01*
X0227395Y0226687D02*
X0228297Y0226687D01*
X0314508Y0249459D02*
X0076587Y0249459D01*
D19*
X0130095Y0176433D03*
X0175595Y0197433D03*
X0170095Y0213933D03*
X0287595Y0163933D03*
X0302595Y0143933D03*
X0229095Y0105433D03*
D20*
X0220095Y0088933D03*
X0233845Y0087683D03*
X0215595Y0074433D03*
X0210595Y0060683D03*
X0225095Y0045183D03*
X0197595Y0041433D03*
X0165095Y0053933D03*
X0172595Y0066433D03*
X0150095Y0053933D03*
X0119845Y0079933D03*
X0135095Y0082683D03*
X0135095Y0086433D03*
X0135095Y0090183D03*
X0133845Y0095183D03*
X0127595Y0095183D03*
X0122595Y0095183D03*
X0112595Y0108933D03*
X0112595Y0117683D03*
X0127595Y0136433D03*
X0147595Y0103933D03*
X0103845Y0095183D03*
X0102595Y0077683D03*
X0200548Y0148933D03*
X0210548Y0143933D03*
X0210548Y0161433D03*
X0223595Y0172183D03*
X0205595Y0187933D03*
X0192595Y0206433D03*
X0227595Y0219183D03*
X0256345Y0195683D03*
X0313845Y0158933D03*
X0287595Y0138933D03*
X0302595Y0133933D03*
X0272095Y0114683D03*
X0272095Y0109683D03*
X0272095Y0104683D03*
X0273595Y0098683D03*
X0277095Y0094683D03*
X0280845Y0090433D03*
X0297595Y0080183D03*
X0286095Y0073933D03*
X0269595Y0073933D03*
X0274345Y0056433D03*
X0282095Y0056433D03*
X0297345Y0056933D03*
X0318595Y0084433D03*
X0262595Y0104683D03*
X0262595Y0109683D03*
X0262595Y0114683D03*
X0224095Y0127933D03*
X0180095Y0161433D03*
X0135095Y0191433D03*
X0135095Y0196433D03*
X0135095Y0201433D03*
X0133845Y0205183D03*
X0126345Y0205183D03*
X0121345Y0205183D03*
X0120095Y0193933D03*
X0102595Y0190183D03*
X0117595Y0172683D03*
X0102595Y0207683D03*
X0316345Y0198933D03*
D21*
X0087595Y0198933D02*
X0081724Y0198933D01*
X0081724Y0086433D02*
X0087595Y0086433D01*
M02*
