%
M48
M72
T01C0.01400
T02C0.02200
T03C0.03543
T04C0.03937
T05C0.05906
T06C0.06299
T07C0.11024
%
T01
X102595Y77683
X119845Y79933
X135095Y82683
X135095Y86433
X135095Y90183
X133845Y95183
X127595Y95183
X122595Y95183
X112595Y108933
X112595Y117683
X127595Y136433
X147595Y103933
X103845Y95183
X102595Y190183
X120095Y193933
X121345Y205183
X126345Y205183
X133845Y205183
X135095Y201433
X135095Y196433
X135095Y191433
X130095Y176433
X117595Y172683
X102595Y207683
X170095Y213933
X175595Y197433
X192595Y206433
X205595Y187933
X223595Y172183
X210548Y161433
X200548Y148933
X210548Y143933
X224095Y127933
X229095Y105433
X220095Y88933
X233845Y87683
X215595Y74433
X210595Y60683
X225095Y45183
X197595Y41433
X165095Y53933
X172595Y66433
X150095Y53933
X180095Y161433
X227595Y219183
X256345Y195683
X287595Y163933
X302595Y143933
X302595Y133933
X287595Y138933
X313845Y158933
X316345Y198933
X272095Y114683
X272095Y109683
X272095Y104683
X273595Y98683
X277095Y94683
X280845Y90433
X297595Y80183
X286095Y73933
X269595Y73933
X274345Y56433
X282095Y56433
X297345Y56933
X318595Y84433
X262595Y104683
X262595Y109683
X262595Y114683
T02
X87595Y86433
X87595Y198933
X278095Y48933
T03
X100548Y240626
X110548Y240626
X120548Y240626
X130548Y240626
X140548Y240626
X150548Y240626
X160548Y240626
X170548Y240626
X180548Y240626
X190548Y240626
X200548Y240626
X210548Y240626
X220548Y240626
X230548Y240626
X240548Y240626
X250548Y240626
X260548Y240626
X270548Y240626
X280548Y240626
X290548Y240626
X290548Y230626
X280548Y230626
X270548Y230626
X260548Y230626
X250548Y230626
X240548Y230626
X230548Y230626
X220548Y230626
X210548Y230626
X200548Y230626
X190548Y230626
X180548Y230626
X170548Y230626
X160548Y230626
X150548Y230626
X140548Y230626
X130548Y230626
X120548Y230626
X110548Y230626
X100548Y230626
T04
X177595Y105433
X187595Y105433
X187595Y127933
X177595Y127933
X307595Y208933
X297595Y208933
X287595Y208933
X265095Y208933
X255095Y208933
T05
X102595Y198933
X102595Y86433
X278095Y73933
T06
X92595Y208933
X112595Y208933
X112595Y188933
X92595Y188933
X92595Y96433
X112595Y96433
X112595Y76433
X92595Y76433
X268095Y63933
X288095Y63933
X288095Y83933
X268095Y83933
T07
X81375Y235626
X81375Y42713
X309721Y42713
X309721Y235626
M30
